<?xml version="1.0" encoding="UTF-8"?> <svg xmlns="http://www.w3.org/2000/svg" width="200" height="200" viewBox="0 0 200 200" fill="none"> <path d="M133.425 29.1625C134.516 30.2787 135.126 31.7771 135.126 33.3375C135.126 34.8978 134.516 36.3962 133.425 37.5125L72.5128 100L133.425 162.475C134.516 163.591 135.126 165.09 135.126 166.65C135.126 168.21 134.516 169.709 133.425 170.825C132.895 171.369 132.262 171.802 131.562 172.097C130.862 172.393 130.11 172.545 129.35 172.545C128.591 172.545 127.839 172.393 127.139 172.097C126.439 171.802 125.805 171.369 125.275 170.825L60.5003 104.362C59.3626 103.195 58.7259 101.63 58.7259 100C58.7259 98.37 59.3626 96.8046 60.5003 95.6375L125.275 29.175C125.805 28.6307 126.439 28.1981 127.139 27.9027C127.839 27.6073 128.591 27.4551 129.35 27.4551C130.11 27.4551 130.862 27.6073 131.562 27.9027C132.262 28.1981 132.895 28.6307 133.425 29.175V29.1625Z" fill="#F6583E"></path> </svg> 