<svg width="28" height="28" viewBox="0 0 28 28" fill="none" xmlns="http://www.w3.org/2000/svg">
<path d="M9.33333 22.1667C9.95217 22.1667 10.5457 21.9208 10.9832 21.4832C11.4208 21.0457 11.6667 20.4522 11.6667 19.8333C11.6667 19.2145 11.4208 18.621 10.9832 18.1834C10.5457 17.7458 9.95217 17.5 9.33333 17.5C8.71449 17.5 8.121 17.7458 7.68342 18.1834C7.24583 18.621 7 19.2145 7 19.8333C7 20.4522 7.24583 21.0457 7.68342 21.4832C8.121 21.9208 8.71449 22.1667 9.33333 22.1667V22.1667ZM21 22.1667C21.6188 22.1667 22.2123 21.9208 22.6499 21.4832C23.0875 21.0457 23.3333 20.4522 23.3333 19.8333C23.3333 19.2145 23.0875 18.621 22.6499 18.1834C22.2123 17.7458 21.6188 17.5 21 17.5C20.3812 17.5 19.7877 17.7458 19.3501 18.1834C18.9125 18.621 18.6667 19.2145 18.6667 19.8333C18.6667 20.4522 18.9125 21.0457 19.3501 21.4832C19.7877 21.9208 20.3812 22.1667 21 22.1667V22.1667Z" stroke="#F1F1F1" stroke-width="1.75" stroke-miterlimit="1.5" stroke-linecap="round" stroke-linejoin="round"/>
<path d="M11.7263 19.8333H17.5013V7.7C17.5013 7.51435 17.4276 7.3363 17.2963 7.20503C17.165 7.07375 16.987 7 16.8013 7H1.16797M6.59297 19.8333H4.2013C4.10938 19.8333 4.01835 19.8152 3.93342 19.78C3.8485 19.7449 3.77133 19.6933 3.70633 19.6283C3.64133 19.5633 3.58976 19.4861 3.55459 19.4012C3.51941 19.3163 3.5013 19.2253 3.5013 19.1333V13.4167" stroke="#F1F1F1" stroke-width="1.75" stroke-linecap="round"/>
<path d="M2.33594 10.5H7.0026" stroke="#F1F1F1" stroke-width="1.75" stroke-linecap="round" stroke-linejoin="round"/>
<path d="M17.5 10.5H24.045C24.1803 10.5 24.3127 10.5393 24.4262 10.613C24.5396 10.6867 24.6293 10.7917 24.6843 10.9153L26.7727 15.6147C26.8125 15.7039 26.8331 15.8005 26.8333 15.8982V19.1333C26.8333 19.2253 26.8152 19.3163 26.78 19.4012C26.7449 19.4861 26.6933 19.5633 26.6283 19.6283C26.5633 19.6933 26.4861 19.7449 26.4012 19.78C26.3163 19.8152 26.2253 19.8333 26.1333 19.8333H23.9167M17.5 19.8333H18.6667" stroke="#F1F1F1" stroke-width="1.75" stroke-linecap="round"/>
</svg>
