<svg width="28" height="28" viewBox="0 0 28 28" fill="none" xmlns="http://www.w3.org/2000/svg">
    <path d="M13.9987 7.58366C13.9987 9.28546 14.6747 10.9176 15.8781 12.1209C17.0815 13.3243 18.7136 14.0003 20.4154 14.0003C22.1172 14.0003 23.7493 13.3243 24.9526 12.1209C26.156 10.9176 26.832 9.28546 26.832 7.58366C26.832 5.88185 26.156 4.24975 24.9526 3.04639C23.7493 1.84303 22.1172 1.16699 20.4154 1.16699C18.7136 1.16699 17.0815 1.84303 15.8781 3.04639C14.6747 4.24975 13.9987 5.88185 13.9987 7.58366ZM23.9154 3.50033C24.0701 3.50033 24.2184 3.56178 24.3278 3.67118C24.4372 3.78058 24.4987 3.92895 24.4987 4.08366V6.41699C24.4987 6.5717 24.4372 6.72007 24.3278 6.82947C24.2184 6.93887 24.0701 7.00033 23.9154 7.00033H21.582C21.4273 7.00033 21.2789 6.93887 21.1696 6.82947C21.0602 6.72007 20.9987 6.5717 20.9987 6.41699C20.9987 6.26228 21.0602 6.11391 21.1696 6.00451C21.2789 5.89512 21.4273 5.83366 21.582 5.83366H22.7487C22.4773 5.47115 22.125 5.17695 21.72 4.97442C21.3149 4.77189 20.8682 4.66663 20.4154 4.66699C19.4435 4.66699 18.5814 5.14183 18.0505 5.87566C17.9584 5.99713 17.8224 6.07772 17.6717 6.10018C17.5209 6.12264 17.3673 6.08519 17.2438 5.99583C17.1203 5.90648 17.0367 5.77233 17.0108 5.62209C16.985 5.47186 17.019 5.31748 17.1055 5.19199C17.4837 4.66796 17.9811 4.24131 18.5565 3.94719C19.132 3.65308 19.7691 3.49991 20.4154 3.50033C21.5587 3.50033 22.5912 3.97049 23.332 4.72533V4.08366C23.332 3.92895 23.3935 3.78058 23.5029 3.67118C23.6123 3.56178 23.7607 3.50033 23.9154 3.50033ZM17.4987 10.442V11.0837C17.4987 11.2384 17.4372 11.3867 17.3278 11.4961C17.2184 11.6055 17.0701 11.667 16.9154 11.667C16.7607 11.667 16.6123 11.6055 16.5029 11.4961C16.3935 11.3867 16.332 11.2384 16.332 11.0837V8.75033C16.332 8.59562 16.3935 8.44724 16.5029 8.33785C16.6123 8.22845 16.7607 8.16699 16.9154 8.16699H19.2487C19.4034 8.16699 19.5518 8.22845 19.6612 8.33785C19.7706 8.44724 19.832 8.59562 19.832 8.75033C19.832 8.90504 19.7706 9.05341 19.6612 9.1628C19.5518 9.2722 19.4034 9.33366 19.2487 9.33366H18.082C18.614 10.043 19.4622 10.5003 20.4154 10.5003C21.309 10.5003 22.1094 10.099 22.6449 9.46433C22.6938 9.40434 22.7542 9.3547 22.8225 9.31829C22.8909 9.28189 22.9658 9.25946 23.0429 9.2523C23.12 9.24514 23.1977 9.2534 23.2716 9.27659C23.3454 9.29979 23.414 9.33746 23.4731 9.3874C23.5323 9.43735 23.5809 9.49857 23.6162 9.5675C23.6514 9.63643 23.6726 9.71169 23.6785 9.78889C23.6843 9.8661 23.6748 9.94369 23.6504 10.0172C23.6259 10.0906 23.5871 10.1585 23.5362 10.2168C23.1533 10.6715 22.6755 11.037 22.1364 11.2875C21.5972 11.538 21.0098 11.6675 20.4154 11.667C19.8721 11.6677 19.3341 11.5597 18.8332 11.3493C18.3323 11.1389 17.8785 10.8304 17.4987 10.442ZM23.9142 18.3777V14.313C24.5542 13.9794 25.1435 13.5563 25.6642 13.0565V18.3765C25.6646 19.0418 25.4123 19.6825 24.9583 20.1689C24.5044 20.6554 23.8827 20.9513 23.2189 20.9968L23.0392 21.0027H18.0809V23.917H20.1237C20.3454 23.9171 20.5588 24.0013 20.7208 24.1526C20.8828 24.304 20.9813 24.5112 20.9964 24.7324C21.0115 24.9535 20.9421 25.1722 20.8022 25.3442C20.6623 25.5161 20.4623 25.6286 20.2427 25.6588L20.1237 25.667H7.8737C7.652 25.6669 7.4386 25.5827 7.27661 25.4314C7.11461 25.28 7.01611 25.0728 7.001 24.8516C6.98589 24.6305 7.0553 24.4118 7.1952 24.2398C7.33511 24.0678 7.53507 23.9554 7.7547 23.9252L7.8737 23.917H9.9142V21.0027H4.95703C4.29188 21.0027 3.65151 20.7503 3.16532 20.2964C2.67913 19.8425 2.38339 19.2209 2.33786 18.5573L2.33203 18.3777V6.12533C2.33195 5.46018 2.58438 4.8198 3.0383 4.33361C3.49221 3.84743 4.11378 3.55168 4.77736 3.50616L4.95703 3.50033H14.0244C13.6751 4.04579 13.3974 4.63396 13.1984 5.25033H4.95703C4.74559 5.25033 4.5413 5.32691 4.38195 5.46589C4.22259 5.60487 4.11895 5.79685 4.0902 6.00633L4.08203 6.12533V18.3777C4.08203 18.821 4.41103 19.1862 4.83803 19.2445L4.95703 19.2527H23.0392C23.2506 19.2527 23.4549 19.1761 23.6143 19.0371C23.7736 18.8981 23.8773 18.7061 23.906 18.4967L23.9142 18.3777ZM16.3297 21.0027H11.663L11.6642 23.917H16.3309L16.3297 21.0027Z" fill="#F1F1F1"/>
</svg>
