<svg width="28" height="28" viewBox="0 0 28 28" fill="none" xmlns="http://www.w3.org/2000/svg">
    <path fill-rule="evenodd" clip-rule="evenodd" d="M7.92997 3.36495C9.36201 2.79138 10.9272 2.63502 12.4444 2.91396C13.9616 3.1929 15.3689 3.89574 16.5032 4.94116C17.6376 5.98657 18.4528 7.33183 18.8545 8.82126C19.2562 10.3107 19.2279 11.8834 18.773 13.3574L23.8993 17.6951C24.3611 18.0875 24.7365 18.5714 25.002 19.1161C25.2675 19.6608 25.4172 20.2547 25.4417 20.8602C25.4663 21.4657 25.3651 22.0697 25.1446 22.6341C24.9241 23.1985 24.589 23.7112 24.1605 24.1397C23.732 24.5682 23.2194 24.9032 22.6549 25.1237C22.0905 25.3443 21.4865 25.4454 20.881 25.4209C20.2755 25.3963 19.6817 25.2466 19.1369 24.9811C18.5922 24.7157 18.1084 24.3402 17.716 23.8784L13.3795 18.7521C11.9053 19.2072 10.3324 19.2355 8.8428 18.8338C7.35321 18.4321 6.00782 17.6168 4.96235 16.4822C3.91688 15.3477 3.21407 13.9402 2.93527 12.4228C2.65647 10.9054 2.81308 9.34005 3.38697 7.90795C3.80463 6.86495 5.11363 6.73312 5.7938 7.47278L9.53063 11.5304L11.2176 11.1944L11.556 9.50395L7.49597 5.77295C6.7563 5.09278 6.88697 3.78262 7.93113 3.36495H7.92997ZM10.2715 5.15695L13.495 8.12028C13.8706 8.46562 14.0386 8.98128 13.9383 9.47945L13.39 12.2258C13.3335 12.5084 13.1945 12.768 12.9906 12.9717C12.7867 13.1754 12.527 13.3141 12.2443 13.3703L9.50263 13.9151C9.25726 13.9639 9.00346 13.9488 8.76563 13.8711C8.52781 13.7935 8.31395 13.656 8.14463 13.4718L5.17663 10.2494C5.05582 11.253 5.19772 12.2706 5.58844 13.2028C5.97915 14.135 6.60528 14.9497 7.40551 15.5672C8.20573 16.1846 9.15261 16.5836 10.1534 16.7252C11.1542 16.8667 12.1746 16.7458 13.1146 16.3744C13.3997 16.2613 13.7131 16.2404 14.0107 16.3147C14.3083 16.389 14.5752 16.5548 14.7736 16.7886L19.4986 22.3723C19.6819 22.5897 19.9083 22.7667 20.1635 22.8921C20.4188 23.0175 20.6973 23.0885 20.9814 23.1006C21.2655 23.1127 21.549 23.0656 21.814 22.9624C22.079 22.8592 22.3196 22.7021 22.5207 22.501C22.7218 22.2999 22.8789 22.0593 22.9821 21.7943C23.0853 21.5293 23.1323 21.2458 23.1202 20.9617C23.1081 20.6776 23.0372 20.3991 22.9118 20.1439C22.7864 19.8886 22.6094 19.6622 22.392 19.4789L16.8095 14.7539C16.5756 14.5555 16.4099 14.2887 16.3356 13.9911C16.2613 13.6935 16.2822 13.3801 16.3953 13.0949C16.767 12.1549 16.8882 11.1344 16.7468 10.1335C16.6054 9.13251 16.2064 8.18547 15.5889 7.38514C14.9713 6.58482 14.1565 5.95867 13.2241 5.56806C12.2917 5.17745 11.2739 5.03578 10.2703 5.15695H10.2715Z" fill="#F1F1F1"/>
</svg>
