<svg width="28" height="28" viewBox="0 0 28 28" fill="none" xmlns="http://www.w3.org/2000/svg">
<path d="M26.25 21V19.25H24.4116C24.2988 18.7023 24.0813 18.1815 23.7711 17.7161L25.0749 16.4124L23.8376 15.1751L22.5339 16.4789C22.0685 16.1687 21.5477 15.9512 21 15.8384V14H19.25V15.8384C18.7023 15.9512 18.1815 16.1687 17.7161 16.4789L16.4124 15.1751L15.1751 16.4124L16.4789 17.7161C16.1687 18.1815 15.9512 18.7023 15.8384 19.25H14V21H15.8384C15.9512 21.5477 16.1687 22.0685 16.4789 22.5339L15.1751 23.8376L16.4124 25.0749L17.7161 23.7711C18.1815 24.0813 18.7023 24.2988 19.25 24.4116V26.25H21V24.4116C21.5477 24.2988 22.0685 24.0813 22.5339 23.7711L23.8376 25.0749L25.0749 23.8376L23.7711 22.5339C24.0813 22.0685 24.2988 21.5477 24.4116 21H26.25ZM20.125 22.75C19.6058 22.75 19.0983 22.596 18.6666 22.3076C18.2349 22.0192 17.8985 21.6092 17.6998 21.1295C17.5011 20.6499 17.4492 20.1221 17.5504 19.6129C17.6517 19.1037 17.9017 18.636 18.2688 18.2688C18.636 17.9017 19.1037 17.6517 19.6129 17.5504C20.1221 17.4492 20.6499 17.5011 21.1295 17.6998C21.6092 17.8985 22.0192 18.2349 22.3076 18.6666C22.596 19.0983 22.75 19.6058 22.75 20.125C22.7493 20.821 22.4725 21.4883 21.9804 21.9804C21.4883 22.4725 20.821 22.7493 20.125 22.75Z" fill="#F1F1F1"/>
<path d="M24.5 3.5H3.5C3.03601 3.50046 2.59116 3.68499 2.26307 4.01307C1.93499 4.34116 1.75046 4.78601 1.75 5.25V22.75C1.75046 23.214 1.93499 23.6588 2.26307 23.9869C2.59116 24.315 3.03601 24.4995 3.5 24.5H12.25V22.75H3.5V10.5H24.5V13.125H26.25V5.25C26.2495 4.78601 26.065 4.34116 25.7369 4.01307C25.4088 3.68499 24.964 3.50046 24.5 3.5ZM24.5 8.75H3.5V5.25H24.5V8.75Z" fill="#F1F1F1"/>
<path d="M17.5 7.875C17.9832 7.875 18.375 7.48325 18.375 7C18.375 6.51675 17.9832 6.125 17.5 6.125C17.0168 6.125 16.625 6.51675 16.625 7C16.625 7.48325 17.0168 7.875 17.5 7.875Z" fill="#F1F1F1"/>
<path d="M20.125 7.875C20.6082 7.875 21 7.48325 21 7C21 6.51675 20.6082 6.125 20.125 6.125C19.6418 6.125 19.25 6.51675 19.25 7C19.25 7.48325 19.6418 7.875 20.125 7.875Z" fill="#F1F1F1"/>
<path d="M22.75 7.875C23.2332 7.875 23.625 7.48325 23.625 7C23.625 6.51675 23.2332 6.125 22.75 6.125C22.2668 6.125 21.875 6.51675 21.875 7C21.875 7.48325 22.2668 7.875 22.75 7.875Z" fill="#F1F1F1"/>
</svg>
