<svg width="28" height="28" viewBox="0 0 28 28" fill="none" xmlns="http://www.w3.org/2000/svg">
<path d="M1.16797 22.1663V5.83301H3.5013V22.1663H1.16797ZM5.83464 22.1663V5.83301H8.16797V22.1663H5.83464ZM12.8346 22.1663C12.193 22.1663 11.6439 21.9381 11.1873 21.4815C10.73 21.0242 10.5013 20.4747 10.5013 19.833V8.16634C10.5013 7.52467 10.73 6.97556 11.1873 6.51901C11.6439 6.06167 12.193 5.83301 12.8346 5.83301H24.5013C25.143 5.83301 25.6925 6.06167 26.1498 6.51901C26.6064 6.97556 26.8346 7.52467 26.8346 8.16634V19.833C26.8346 20.4747 26.6064 21.0242 26.1498 21.4815C25.6925 21.9381 25.143 22.1663 24.5013 22.1663H12.8346ZM12.8346 19.833H24.5013V8.16634H12.8346V19.833ZM14.0013 17.4997H23.3346L20.3013 13.4163L18.0846 16.333L16.4513 14.1747L14.0013 17.4997ZM12.8346 19.833V8.16634V19.833Z" fill="#F1F1F1"/>
</svg>
