<svg width="28" height="28" viewBox="0 0 28 28" fill="none" xmlns="http://www.w3.org/2000/svg">
<path d="M14.0026 16.3333C15.2403 16.3333 16.4273 15.8417 17.3024 14.9665C18.1776 14.0913 18.6693 12.9043 18.6693 11.6667C18.6693 10.429 18.1776 9.242 17.3024 8.36683C16.4273 7.49167 15.2403 7 14.0026 7C12.7649 7 11.5779 7.49167 10.7028 8.36683C9.8276 9.242 9.33594 10.429 9.33594 11.6667C9.33594 12.9043 9.8276 14.0913 10.7028 14.9665C11.5779 15.8417 12.7649 16.3333 14.0026 16.3333ZM14.0026 9.33333C14.6214 9.33333 15.2149 9.57917 15.6525 10.0168C16.0901 10.4543 16.3359 11.0478 16.3359 11.6667C16.3359 12.2855 16.0901 12.879 15.6525 13.3166C15.2149 13.7542 14.6214 14 14.0026 14C13.3838 14 12.7903 13.7542 12.3527 13.3166C11.9151 12.879 11.6693 12.2855 11.6693 11.6667C11.6693 11.0478 11.9151 10.4543 12.3527 10.0168C12.7903 9.57917 13.3838 9.33333 14.0026 9.33333Z" fill="#F1F1F1"/>
<path d="M4.66927 25.6663C4.05043 25.6663 3.45694 25.4205 3.01935 24.9829C2.58177 24.5453 2.33594 23.9518 2.33594 23.333V4.66634C2.33594 4.0475 2.58177 3.45401 3.01935 3.01643C3.45694 2.57884 4.05043 2.33301 4.66927 2.33301H23.3359C23.9548 2.33301 24.5483 2.57884 24.9859 3.01643C25.4234 3.45401 25.6693 4.0475 25.6693 4.66634V23.333C25.6693 23.9518 25.4234 24.5453 24.9859 24.9829C24.5483 25.4205 23.9548 25.6663 23.3359 25.6663H4.66927ZM4.66927 4.66634V23.333H8.16927C8.16927 21.7859 8.78385 20.3022 9.87781 19.2082C10.9718 18.1143 12.4555 17.4997 14.0026 17.4997C15.5497 17.4997 17.0334 18.1143 18.1274 19.2082C19.2214 20.3022 19.8359 21.7859 19.8359 23.333H23.3359V4.66634H4.66927ZM17.5026 23.333C17.5026 22.4047 17.1339 21.5145 16.4775 20.8581C15.8211 20.2018 14.9309 19.833 14.0026 19.833C13.0743 19.833 12.1841 20.2018 11.5277 20.8581C10.8714 21.5145 10.5026 22.4047 10.5026 23.333H17.5026Z" fill="#F1F1F1"/>
</svg>
