<svg width="56" height="56" viewBox="0 0 56 56" fill="none" xmlns="http://www.w3.org/2000/svg">
    <path d="M45.5 7H10.5C9.57203 7.00093 8.68233 7.36997 8.02615 8.02615C7.36997 8.68233 7.00093 9.57203 7 10.5V45.5C7.00093 46.428 7.36997 47.3177 8.02615 47.9739C8.68233 48.63 9.57203 48.9991 10.5 49H45.5C46.428 48.9991 47.3177 48.63 47.9739 47.9739C48.63 47.3177 48.9991 46.428 49 45.5V10.5C48.9991 9.57203 48.63 8.68233 47.9739 8.02615C47.3177 7.36997 46.428 7.00093 45.5 7ZM10.5 45.5L45.5 10.5V45.5H10.5Z" fill="#F6583E"/>
</svg>
