<svg width="56" height="56" viewBox="0 0 56 56" fill="none" xmlns="http://www.w3.org/2000/svg">
    <path d="M11.6667 49C10.3833 49 9.28433 48.5434 8.36967 47.6303C7.45656 46.7157 7 45.6167 7 44.3333V11.6667C7 10.3833 7.45656 9.28433 8.36967 8.36967C9.28433 7.45656 10.3833 7 11.6667 7H44.3333C45.6167 7 46.7157 7.45656 47.6303 8.36967C48.5434 9.28433 49 10.3833 49 11.6667V44.3333C49 45.6167 48.5434 46.7157 47.6303 47.6303C46.7157 48.5434 45.6167 49 44.3333 49H11.6667ZM11.6667 44.3333H25.6667V11.6667H11.6667V44.3333ZM30.3333 44.3333H44.3333V28H30.3333V44.3333ZM30.3333 23.3333H44.3333V11.6667H30.3333V23.3333Z" fill="#F6583E"/>
</svg>
