<svg width="56" height="56" viewBox="0 0 56 56" fill="none" xmlns="http://www.w3.org/2000/svg">
    <path d="M27.9974 32.6667C30.4727 32.6667 32.8467 31.6833 34.5971 29.933C36.3474 28.1827 37.3307 25.8087 37.3307 23.3333C37.3307 20.858 36.3474 18.484 34.5971 16.7337C32.8467 14.9833 30.4727 14 27.9974 14C25.522 14 23.1481 14.9833 21.3977 16.7337C19.6474 18.484 18.6641 20.858 18.6641 23.3333C18.6641 25.8087 19.6474 28.1827 21.3977 29.933C23.1481 31.6833 25.522 32.6667 27.9974 32.6667ZM27.9974 18.6667C29.2351 18.6667 30.4221 19.1583 31.2972 20.0335C32.1724 20.9087 32.6641 22.0957 32.6641 23.3333C32.6641 24.571 32.1724 25.758 31.2972 26.6332C30.4221 27.5083 29.2351 28 27.9974 28C26.7597 28 25.5727 27.5083 24.6976 26.6332C23.8224 25.758 23.3307 24.571 23.3307 23.3333C23.3307 22.0957 23.8224 20.9087 24.6976 20.0335C25.5727 19.1583 26.7597 18.6667 27.9974 18.6667Z" fill="#F6583E"/>
    <path d="M9.33073 51.3337C8.09305 51.3337 6.90607 50.842 6.0309 49.9668C5.15573 49.0917 4.66406 47.9047 4.66406 46.667V9.33366C4.66406 8.09598 5.15573 6.909 6.0309 6.03383C6.90607 5.15866 8.09305 4.66699 9.33073 4.66699H46.6641C47.9017 4.66699 49.0887 5.15866 49.9639 6.03383C50.8391 6.909 51.3307 8.09598 51.3307 9.33366V46.667C51.3307 47.9047 50.8391 49.0917 49.9639 49.9668C49.0887 50.842 47.9017 51.3337 46.6641 51.3337H9.33073ZM9.33073 9.33366V46.667H16.3307C16.3307 43.5728 17.5599 40.6053 19.7478 38.4174C21.9357 36.2295 24.9032 35.0003 27.9974 35.0003C31.0916 35.0003 34.059 36.2295 36.247 38.4174C38.4349 40.6053 39.6641 43.5728 39.6641 46.667H46.6641V9.33366H9.33073ZM34.9974 46.667C34.9974 44.8105 34.2599 43.03 32.9471 41.7172C31.6344 40.4045 29.8539 39.667 27.9974 39.667C26.1409 39.667 24.3604 40.4045 23.0476 41.7172C21.7349 43.03 20.9974 44.8105 20.9974 46.667H34.9974Z" fill="#F6583E"/>
</svg>
