<svg width="56" height="56" viewBox="0 0 56 56" fill="none" xmlns="http://www.w3.org/2000/svg">
    <path fill-rule="evenodd" clip-rule="evenodd" d="M32.6693 16.3335C32.0504 16.3335 31.4569 16.5793 31.0194 17.0169C30.5818 17.4545 30.3359 18.048 30.3359 18.6668V37.3335C30.3359 37.9523 30.5818 38.5458 31.0194 38.9834C31.4569 39.421 32.0504 39.6668 32.6693 39.6668H42.0026C42.6214 39.6668 43.2149 39.421 43.6525 38.9834C44.0901 38.5458 44.3359 37.9523 44.3359 37.3335V18.6668C44.3359 18.048 44.0901 17.4545 43.6525 17.0169C43.2149 16.5793 42.6214 16.3335 42.0026 16.3335H32.6693ZM39.6693 21.0002H35.0026V35.0002H39.6693V21.0002Z" fill="#F6583E"/>
    <path d="M14.0052 16.3335C13.3864 16.3335 12.7929 16.5793 12.3553 17.0169C11.9177 17.4545 11.6719 18.048 11.6719 18.6668C11.6719 19.2857 11.9177 19.8792 12.3553 20.3167C12.7929 20.7543 13.3864 21.0002 14.0052 21.0002H23.3385C23.9574 21.0002 24.5509 20.7543 24.9885 20.3167C25.426 19.8792 25.6719 19.2857 25.6719 18.6668C25.6719 18.048 25.426 17.4545 24.9885 17.0169C24.5509 16.5793 23.9574 16.3335 23.3385 16.3335H14.0052ZM14.0052 25.6668C13.3864 25.6668 12.7929 25.9127 12.3553 26.3502C11.9177 26.7878 11.6719 27.3813 11.6719 28.0002C11.6719 28.619 11.9177 29.2125 12.3553 29.6501C12.7929 30.0877 13.3864 30.3335 14.0052 30.3335H23.3385C23.9574 30.3335 24.5509 30.0877 24.9885 29.6501C25.426 29.2125 25.6719 28.619 25.6719 28.0002C25.6719 27.3813 25.426 26.7878 24.9885 26.3502C24.5509 25.9127 23.9574 25.6668 23.3385 25.6668H14.0052ZM11.6719 37.3335C11.6719 36.7147 11.9177 36.1212 12.3553 35.6836C12.7929 35.246 13.3864 35.0002 14.0052 35.0002H23.3385C23.9574 35.0002 24.5509 35.246 24.9885 35.6836C25.426 36.1212 25.6719 36.7147 25.6719 37.3335C25.6719 37.9523 25.426 38.5458 24.9885 38.9834C24.5509 39.421 23.9574 39.6668 23.3385 39.6668H14.0052C13.3864 39.6668 12.7929 39.421 12.3553 38.9834C11.9177 38.5458 11.6719 37.9523 11.6719 37.3335Z" fill="#F6583E"/>
    <path fill-rule="evenodd" clip-rule="evenodd" d="M9.33594 7C7.47942 7 5.69894 7.7375 4.38619 9.05025C3.07344 10.363 2.33594 12.1435 2.33594 14V42C2.33594 43.8565 3.07344 45.637 4.38619 46.9497C5.69894 48.2625 7.47942 49 9.33594 49H46.6693C48.5258 49 50.3063 48.2625 51.619 46.9497C52.9318 45.637 53.6693 43.8565 53.6693 42V14C53.6693 12.1435 52.9318 10.363 51.619 9.05025C50.3063 7.7375 48.5258 7 46.6693 7H9.33594ZM46.6693 11.6667H9.33594C8.7171 11.6667 8.12361 11.9125 7.68602 12.3501C7.24844 12.7877 7.0026 13.3812 7.0026 14V42C7.0026 42.6188 7.24844 43.2123 7.68602 43.6499C8.12361 44.0875 8.7171 44.3333 9.33594 44.3333H46.6693C47.2881 44.3333 47.8816 44.0875 48.3192 43.6499C48.7568 43.2123 49.0026 42.6188 49.0026 42V14C49.0026 13.3812 48.7568 12.7877 48.3192 12.3501C47.8816 11.9125 47.2881 11.6667 46.6693 11.6667Z" fill="#F6583E"/>
</svg>
