<svg width="28" height="28" viewBox="0 0 28 28" fill="none" xmlns="http://www.w3.org/2000/svg">
    <path d="M5.83333 24.5C5.19167 24.5 4.64217 24.2717 4.18483 23.8152C3.72828 23.3578 3.5 22.8083 3.5 22.1667V5.83333C3.5 5.19167 3.72828 4.64217 4.18483 4.18483C4.64217 3.72828 5.19167 3.5 5.83333 3.5H22.1667C22.8083 3.5 23.3578 3.72828 23.8152 4.18483C24.2717 4.64217 24.5 5.19167 24.5 5.83333V22.1667C24.5 22.8083 24.2717 23.3578 23.8152 23.8152C23.3578 24.2717 22.8083 24.5 22.1667 24.5H5.83333ZM5.83333 22.1667H22.1667V5.83333H5.83333V22.1667ZM13.3 19.8333H14.7C14.8361 19.8333 14.9528 19.7894 15.05 19.7015C15.1472 19.6144 15.2153 19.5028 15.2542 19.3667L15.5167 18.0833C15.75 17.9861 15.9689 17.8842 16.1735 17.7777C16.3773 17.6703 16.5861 17.5389 16.8 17.3833L18.0542 17.7625C18.1903 17.8014 18.3167 17.7967 18.4333 17.7485C18.55 17.6995 18.6472 17.6167 18.725 17.5L19.425 16.3333C19.5028 16.2167 19.5222 16.0903 19.4833 15.9542C19.4444 15.8181 19.3764 15.7014 19.2792 15.6042L18.3167 14.7583C18.3556 14.4861 18.375 14.2333 18.375 14C18.375 13.7667 18.3556 13.5139 18.3167 13.2417L19.2792 12.3958C19.3764 12.2986 19.4444 12.1819 19.4833 12.0458C19.5222 11.9097 19.5028 11.7833 19.425 11.6667L18.725 10.5C18.6472 10.3833 18.55 10.3005 18.4333 10.2515C18.3167 10.2033 18.1903 10.1986 18.0542 10.2375L16.8 10.6167C16.5861 10.4611 16.3773 10.3297 16.1735 10.2223C15.9689 10.1158 15.75 10.0139 15.5167 9.91667L15.2542 8.63333C15.2153 8.49722 15.1472 8.38522 15.05 8.29733C14.9528 8.21022 14.8361 8.16667 14.7 8.16667H13.3C13.1639 8.16667 13.0472 8.21022 12.95 8.29733C12.8528 8.38522 12.7847 8.49722 12.7458 8.63333L12.4833 9.91667C12.25 10.0139 12.0311 10.1158 11.8265 10.2223C11.6227 10.3297 11.4139 10.4611 11.2 10.6167L9.94583 10.2375C9.80972 10.1986 9.68333 10.2033 9.56667 10.2515C9.45 10.3005 9.35278 10.3833 9.275 10.5L8.575 11.6667C8.49722 11.7833 8.47778 11.9097 8.51667 12.0458C8.55556 12.1819 8.62361 12.2986 8.72083 12.3958L9.68333 13.2417C9.64444 13.5139 9.625 13.7667 9.625 14C9.625 14.2333 9.64444 14.4861 9.68333 14.7583L8.72083 15.6042C8.62361 15.7014 8.55556 15.8181 8.51667 15.9542C8.47778 16.0903 8.49722 16.2167 8.575 16.3333L9.275 17.5C9.35278 17.6167 9.45 17.6995 9.56667 17.7485C9.68333 17.7967 9.80972 17.8014 9.94583 17.7625L11.2 17.3833C11.4139 17.5389 11.6227 17.6703 11.8265 17.7777C12.0311 17.8842 12.25 17.9861 12.4833 18.0833L12.7458 19.3667C12.7847 19.5028 12.8528 19.6144 12.95 19.7015C13.0472 19.7894 13.1639 19.8333 13.3 19.8333ZM14 16.3333C13.3583 16.3333 12.8092 16.1047 12.3527 15.6473C11.8953 15.1908 11.6667 14.6417 11.6667 14C11.6667 13.3583 11.8953 12.8088 12.3527 12.3515C12.8092 11.8949 13.3583 11.6667 14 11.6667C14.6417 11.6667 15.1912 11.8949 15.6485 12.3515C16.1051 12.8088 16.3333 13.3583 16.3333 14C16.3333 14.6417 16.1051 15.1908 15.6485 15.6473C15.1912 16.1047 14.6417 16.3333 14 16.3333ZM5.83333 22.1667V5.83333V22.1667Z" fill="#F1F1F1"/>
</svg>
