<svg width="28" height="28" viewBox="0 0 28 28" fill="none" xmlns="http://www.w3.org/2000/svg">
    <path d="M22.75 5.25V8.75H5.25V5.25H22.75ZM22.75 3.5H5.25C4.78587 3.5 4.34075 3.68437 4.01256 4.01256C3.68437 4.34075 3.5 4.78587 3.5 5.25V8.75C3.5 9.21413 3.68437 9.65925 4.01256 9.98744C4.34075 10.3156 4.78587 10.5 5.25 10.5H22.75C23.2141 10.5 23.6592 10.3156 23.9874 9.98744C24.3156 9.65925 24.5 9.21413 24.5 8.75V5.25C24.5 4.78587 24.3156 4.34075 23.9874 4.01256C23.6592 3.68437 23.2141 3.5 22.75 3.5ZM8.75 14V22.75H5.25V14H8.75ZM8.75 12.25H5.25C4.78587 12.25 4.34075 12.4344 4.01256 12.7626C3.68437 13.0908 3.5 13.5359 3.5 14V22.75C3.5 23.2141 3.68437 23.6592 4.01256 23.9874C4.34075 24.3156 4.78587 24.5 5.25 24.5H8.75C9.21413 24.5 9.65925 24.3156 9.98744 23.9874C10.3156 23.6592 10.5 23.2141 10.5 22.75V14C10.5 13.5359 10.3156 13.0908 9.98744 12.7626C9.65925 12.4344 9.21413 12.25 8.75 12.25ZM22.75 14V22.75H14V14H22.75ZM22.75 12.25H14C13.5359 12.25 13.0908 12.4344 12.7626 12.7626C12.4344 13.0908 12.25 13.5359 12.25 14V22.75C12.25 23.2141 12.4344 23.6592 12.7626 23.9874C13.0908 24.3156 13.5359 24.5 14 24.5H22.75C23.2141 24.5 23.6592 24.3156 23.9874 23.9874C24.3156 23.6592 24.5 23.2141 24.5 22.75V14C24.5 13.5359 24.3156 13.0908 23.9874 12.7626C23.6592 12.4344 23.2141 12.25 22.75 12.25Z" fill="#F1F1F1"/>
</svg>
