<svg width="28" height="28" viewBox="0 0 28 28" fill="none" xmlns="http://www.w3.org/2000/svg">
<path fill-rule="evenodd" clip-rule="evenodd" d="M16.3346 8.16699C16.0252 8.16699 15.7285 8.28991 15.5097 8.5087C15.2909 8.72749 15.168 9.02424 15.168 9.33366V18.667C15.168 18.9764 15.2909 19.2732 15.5097 19.492C15.7285 19.7107 16.0252 19.8337 16.3346 19.8337H21.0013C21.3107 19.8337 21.6075 19.7107 21.8263 19.492C22.0451 19.2732 22.168 18.9764 22.168 18.667V9.33366C22.168 9.02424 22.0451 8.72749 21.8263 8.5087C21.6075 8.28991 21.3107 8.16699 21.0013 8.16699H16.3346ZM19.8346 10.5003H17.5013V17.5003H19.8346V10.5003Z" fill="#F1F1F1"/>
<path d="M7.0026 8.16699C6.69318 8.16699 6.39644 8.28991 6.17765 8.5087C5.95885 8.72749 5.83594 9.02424 5.83594 9.33366C5.83594 9.64308 5.95885 9.93982 6.17765 10.1586C6.39644 10.3774 6.69318 10.5003 7.0026 10.5003H11.6693C11.9787 10.5003 12.2754 10.3774 12.4942 10.1586C12.713 9.93982 12.8359 9.64308 12.8359 9.33366C12.8359 9.02424 12.713 8.72749 12.4942 8.5087C12.2754 8.28991 11.9787 8.16699 11.6693 8.16699H7.0026ZM7.0026 12.8337C6.69318 12.8337 6.39644 12.9566 6.17765 13.1754C5.95885 13.3942 5.83594 13.6909 5.83594 14.0003C5.83594 14.3097 5.95885 14.6065 6.17765 14.8253C6.39644 15.0441 6.69318 15.167 7.0026 15.167H11.6693C11.9787 15.167 12.2754 15.0441 12.4942 14.8253C12.713 14.6065 12.8359 14.3097 12.8359 14.0003C12.8359 13.6909 12.713 13.3942 12.4942 13.1754C12.2754 12.9566 11.9787 12.8337 11.6693 12.8337H7.0026ZM5.83594 18.667C5.83594 18.3576 5.95885 18.0608 6.17765 17.842C6.39644 17.6232 6.69318 17.5003 7.0026 17.5003H11.6693C11.9787 17.5003 12.2754 17.6232 12.4942 17.842C12.713 18.0608 12.8359 18.3576 12.8359 18.667C12.8359 18.9764 12.713 19.2732 12.4942 19.492C12.2754 19.7107 11.9787 19.8337 11.6693 19.8337H7.0026C6.69318 19.8337 6.39644 19.7107 6.17765 19.492C5.95885 19.2732 5.83594 18.9764 5.83594 18.667Z" fill="#F1F1F1"/>
<path fill-rule="evenodd" clip-rule="evenodd" d="M4.66797 3.5C3.73971 3.5 2.84947 3.86875 2.19309 4.52513C1.53672 5.1815 1.16797 6.07174 1.16797 7V21C1.16797 21.9283 1.53672 22.8185 2.19309 23.4749C2.84947 24.1313 3.73971 24.5 4.66797 24.5H23.3346C24.2629 24.5 25.1531 24.1313 25.8095 23.4749C26.4659 22.8185 26.8346 21.9283 26.8346 21V7C26.8346 6.07174 26.4659 5.1815 25.8095 4.52513C25.1531 3.86875 24.2629 3.5 23.3346 3.5H4.66797ZM23.3346 5.83333H4.66797C4.35855 5.83333 4.0618 5.95625 3.84301 6.17504C3.62422 6.39383 3.5013 6.69058 3.5013 7V21C3.5013 21.3094 3.62422 21.6062 3.84301 21.825C4.0618 22.0438 4.35855 22.1667 4.66797 22.1667H23.3346C23.6441 22.1667 23.9408 22.0438 24.1596 21.825C24.3784 21.6062 24.5013 21.3094 24.5013 21V7C24.5013 6.69058 24.3784 6.39383 24.1596 6.17504C23.9408 5.95625 23.6441 5.83333 23.3346 5.83333Z" fill="#F1F1F1"/>
</svg>
