<svg width="28" height="28" viewBox="0 0 28 28" fill="none" xmlns="http://www.w3.org/2000/svg">
<path d="M8.16536 15.167H16.332C16.6626 15.167 16.9399 15.055 17.1639 14.831C17.3871 14.6078 17.4987 14.3309 17.4987 14.0003C17.4987 13.6698 17.3871 13.3925 17.1639 13.1685C16.9399 12.9453 16.6626 12.8337 16.332 12.8337H8.16536C7.83481 12.8337 7.55753 12.9453 7.33353 13.1685C7.11031 13.3925 6.9987 13.6698 6.9987 14.0003C6.9987 14.3309 7.11031 14.6078 7.33353 14.831C7.55753 15.055 7.83481 15.167 8.16536 15.167ZM8.16536 11.667H16.332C16.6626 11.667 16.9399 11.555 17.1639 11.331C17.3871 11.1078 17.4987 10.8309 17.4987 10.5003C17.4987 10.1698 17.3871 9.89249 17.1639 9.66849C16.9399 9.44527 16.6626 9.33366 16.332 9.33366H8.16536C7.83481 9.33366 7.55753 9.44527 7.33353 9.66849C7.11031 9.89249 6.9987 10.1698 6.9987 10.5003C6.9987 10.8309 7.11031 11.1078 7.33353 11.331C7.55753 11.555 7.83481 11.667 8.16536 11.667ZM4.66536 23.3337C4.0237 23.3337 3.47459 23.1054 3.01803 22.6488C2.5607 22.1915 2.33203 21.642 2.33203 21.0003V7.00033C2.33203 6.35866 2.5607 5.80955 3.01803 5.35299C3.47459 4.89566 4.0237 4.66699 4.66536 4.66699H23.332C23.9737 4.66699 24.5232 4.89566 24.9805 5.35299C25.4371 5.80955 25.6654 6.35866 25.6654 7.00033V21.0003C25.6654 21.642 25.4371 22.1915 24.9805 22.6488C24.5232 23.1054 23.9737 23.3337 23.332 23.3337H4.66536ZM4.66536 21.0003V7.00033V21.0003ZM4.66536 21.0003H23.332V7.00033H4.66536V21.0003Z" fill="#F1F1F1"/>
</svg>
