<svg width="28" height="28" viewBox="0 0 28 28" fill="none" xmlns="http://www.w3.org/2000/svg">
<path d="M5.83333 24.5C5.19167 24.5 4.64217 24.2717 4.18483 23.8152C3.72828 23.3578 3.5 22.8083 3.5 22.1667V5.83333C3.5 5.19167 3.72828 4.64217 4.18483 4.18483C4.64217 3.72828 5.19167 3.5 5.83333 3.5H22.1667C22.8083 3.5 23.3578 3.72828 23.8152 4.18483C24.2717 4.64217 24.5 5.19167 24.5 5.83333V22.1667C24.5 22.8083 24.2717 23.3578 23.8152 23.8152C23.3578 24.2717 22.8083 24.5 22.1667 24.5H5.83333ZM5.83333 22.1667H12.8333V5.83333H5.83333V22.1667ZM15.1667 22.1667H22.1667V14H15.1667V22.1667ZM15.1667 11.6667H22.1667V5.83333H15.1667V11.6667Z" fill="#F1F1F1"/>
</svg>
