<?xml version="1.0" standalone="no"?>
<!DOCTYPE svg PUBLIC "-//W3C//DTD SVG 20010904//EN"
 "http://www.w3.org/TR/2001/REC-SVG-20010904/DTD/svg10.dtd">
<svg version="1.0" xmlns="http://www.w3.org/2000/svg"
 width="700.000000pt" height="700.000000pt" viewBox="0 0 700.000000 700.000000"
 preserveAspectRatio="xMidYMid meet">
<metadata>
Created by potrace 1.14, written by Peter Selinger 2001-2017
</metadata>
<g transform="translate(0.000000,700.000000) scale(0.100000,-0.100000)"
fill="#000000" stroke="none">
<path d="M0 3499 l0 -3499 3500 0 3500 0 0 3499 0 3500 -3500 0 -3500 0 0
-3500z m6548 -1 l-3 -3052 -3030 -1 c-1667 0 -3038 1 -3047 4 -17 3 -18 157
-18 3052 l0 3049 3050 0 3050 0 -2 -3052z"/>
<path d="M2212 5699 c-233 -28 -402 -102 -550 -243 -230 -218 -319 -577 -231
-931 87 -354 395 -609 774 -641 108 -8 92 -8 188 0 96 9 204 37 289 74 l64 29
22 -38 c15 -26 30 -39 45 -40 12 0 76 0 142 0 66 0 159 0 208 1 l87 0 0 28 c0
16 -26 70 -65 132 -35 58 -76 125 -90 150 l-27 45 26 47 c126 225 149 574 56
826 -80 213 -225 374 -425 468 -164 78 -351 112 -513 93z m178 -444 c71 -11
169 -63 222 -117 111 -114 154 -274 122 -457 -39 -226 -212 -374 -434 -370
-199 4 -347 111 -410 300 -26 77 -33 214 -15 300 38 182 184 323 361 348 60 8
73 8 154 -4z"/>
<path d="M4041 5640 c-4 -3 -8 -400 -8 -882 l1 -878 20 -1 c27 -1 1018 -1
1068 0 l36 1 -1 199 -1 200 -300 0 c-166 0 -317 0 -337 0 l-37 1 0 155 0 155
299 0 299 0 1 23 c0 32 0 328 0 355 l-1 22 -299 0 -299 0 0 124 0 124 276 1
c153 0 300 0 327 0 l50 1 -1 198 c-1 108 -2 199 -3 202 0 3 -244 5 -542 5
-297 0 -544 -2 -548 -5z"/>
<path d="M1779 3140 c0 -20 0 -1699 0 -1728 l1 -22 561 2 561 3 0 165 c0 91
-1 180 -1 197 l-1 33 -337 2 -337 3 0 143 c-1 79 1 148 4 153 4 5 139 10 300
11 l295 3 1 198 0 197 -300 0 -301 0 1 107 c1 60 2 116 3 126 1 16 24 17 326
17 l325 0 -2 202 -3 202 -547 1 c-480 0 -548 -2 -549 -15z"/>
<path d="M3922 3146 c-3 -6 -6 -403 -6 -883 l-1 -873 228 0 227 0 0 225 0 225
198 1 c224 1 246 3 322 25 108 31 217 103 287 188 55 69 116 192 124 253 1 5
6 19 11 33 19 50 18 220 -2 310 -21 98 -36 136 -84 216 -93 154 -249 258 -422
280 -88 11 -875 11 -882 0z m844 -415 c153 -69 153 -389 1 -467 -25 -14 -67
-17 -214 -18 l-183 -2 0 253 0 253 178 0 c151 0 183 -3 218 -19z"/>
</g>
</svg>
