<?xml version="1.0" standalone="no"?>
<!DOCTYPE svg PUBLIC "-//W3C//DTD SVG 20010904//EN"
 "http://www.w3.org/TR/2001/REC-SVG-20010904/DTD/svg10.dtd">
<svg version="1.0" xmlns="http://www.w3.org/2000/svg"
 width="700.000000pt" height="700.000000pt" viewBox="0 0 700.000000 700.000000"
 preserveAspectRatio="xMidYMid meet">
<metadata>
Created by potrace 1.14, written by Peter Selinger 2001-2017
</metadata>
<g transform="translate(0.000000,700.000000) scale(0.100000,-0.100000)"
fill="#000000" stroke="none">
<path d="M0 3500 l0 -3500 3500 0 3500 0 0 3500 0 3500 -3500 0 -3500 0 0
-3500z m6550 0 l0 -3050 -3050 0 -3050 0 0 3050 0 3050 3050 0 3050 0 0 -3050z"/>
<path d="M2106 5684 c-349 -78 -586 -300 -678 -635 -20 -74 -23 -106 -22 -264
0 -153 4 -192 22 -260 87 -318 318 -539 648 -622 98 -24 354 -24 444 0 75 21
159 51 199 71 26 14 27 13 49 -25 l23 -39 229 0 230 0 0 28 c0 18 -33 83 -90
176 l-91 148 41 82 c127 258 131 605 9 866 -105 225 -311 393 -564 461 -107
29 -348 36 -449 13z m389 -463 c163 -80 247 -229 246 -437 0 -182 -64 -313
-197 -404 -185 -128 -473 -74 -596 112 -152 228 -92 581 120 705 88 52 137 64
252 61 97 -3 111 -6 175 -37z"/>
<path d="M4030 4760 l0 -880 565 0 565 0 0 200 0 200 -340 0 -340 0 0 155 0
155 300 0 300 0 0 200 0 200 -300 0 -300 0 0 125 0 125 330 0 330 0 0 200 0
200 -555 0 -555 0 0 -880z"/>
<path d="M1780 2270 l0 -880 560 0 560 0 0 200 0 200 -335 0 -335 0 0 155 0
155 300 0 300 0 0 200 0 200 -300 0 -300 0 0 125 0 125 325 0 325 0 0 200 0
200 -550 0 -550 0 0 -880z"/>
<path d="M3920 2270 l0 -880 225 0 225 0 0 225 0 225 194 0 c129 0 220 5 271
15 181 34 333 150 413 315 59 120 76 193 76 325 0 131 -20 219 -71 325 -49
100 -169 222 -264 268 -122 59 -149 62 -631 62 l-438 0 0 -880z m846 461 c73
-33 114 -117 114 -231 0 -76 -18 -138 -56 -187 -45 -59 -63 -63 -269 -63
l-185 0 0 250 0 250 178 0 c151 0 183 -3 218 -19z"/>
</g>
</svg>
