<svg width="750" height="500" viewBox="0 0 750 500" fill="none" xmlns="http://www.w3.org/2000/svg">
<path d="M351.293 355.607C353.707 353.893 356.312 352.536 359.028 351.542L360.089 343.509L373.438 342.286L375.942 349.991C378.794 350.474 381.602 351.335 384.288 352.582L390.716 347.654L401.02 356.228L397.344 363.443C399.059 365.858 400.416 368.464 401.408 371.18L409.44 372.241L410.664 385.59L402.959 388.095C402.476 390.947 401.615 393.754 400.369 396.44L405.296 402.868L396.723 413.172L389.507 409.496C387.092 411.21 384.487 412.567 381.77 413.56L380.709 421.593L367.361 422.816L364.857 415.11C362.005 414.627 359.197 413.766 356.511 412.52L350.083 417.448L339.779 408.874L343.455 401.659C341.741 399.244 340.383 396.64 339.39 393.922L331.358 392.861L330.135 379.513L337.841 377.008C338.324 374.156 339.186 371.348 340.431 368.663L335.504 362.235L344.077 351.931L351.293 355.607ZM359.736 372.886C354.656 378.991 355.487 388.058 361.593 393.137C367.698 398.217 376.765 397.385 381.844 391.28C386.923 385.175 386.093 376.108 379.987 371.029C373.882 365.95 364.815 366.781 359.736 372.886Z" fill="#EBEBEB"/>
<path d="M430.512 399.442C432.026 398.367 433.659 397.517 435.362 396.894L436.027 391.858L444.396 391.091L445.966 395.922C447.754 396.225 449.515 396.764 451.199 397.546L455.229 394.456L461.689 399.832L459.384 404.355C460.459 405.869 461.31 407.503 461.932 409.206L466.968 409.871L467.735 418.24L462.904 419.81C462.601 421.598 462.061 423.358 461.28 425.042L464.369 429.072L458.994 435.532L454.47 433.227C452.956 434.302 451.323 435.152 449.619 435.775L448.954 440.811L440.585 441.578L439.015 436.747C437.227 436.444 435.467 435.904 433.783 435.123L429.753 438.213L423.293 432.837L425.598 428.313C424.523 426.799 423.672 425.166 423.049 423.462L418.013 422.797L417.246 414.428L422.077 412.857C422.38 411.069 422.92 409.309 423.701 407.625L420.612 403.595L425.987 397.135L430.512 399.442ZM435.805 410.275C432.62 414.103 433.141 419.787 436.969 422.972C440.797 426.157 446.481 425.635 449.666 421.808C452.85 417.981 452.33 412.296 448.502 409.111C444.674 405.927 438.99 406.448 435.805 410.275Z" fill="#EBEBEB"/>
<path d="M201.182 97.836C202.939 96.588 204.835 95.601 206.812 94.878L207.584 89.032L217.299 88.142L219.122 93.75C221.198 94.102 223.242 94.728 225.196 95.635L229.874 92.048L237.373 98.289L234.697 103.54C235.945 105.298 236.933 107.194 237.655 109.171L243.501 109.943L244.392 119.658L238.784 121.481C238.432 123.556 237.806 125.6 236.899 127.555L240.485 132.234L234.245 139.734L228.993 137.058C227.236 138.306 225.339 139.293 223.362 140.016L222.59 145.863L212.875 146.753L211.052 141.145C208.976 140.793 206.933 140.167 204.978 139.26L200.3 142.847L192.8 136.607L195.476 131.356C194.228 129.598 193.24 127.703 192.517 125.725L186.671 124.953L185.781 115.238L191.389 113.415C191.741 111.34 192.368 109.296 193.274 107.341L189.688 102.663L195.928 95.163L201.182 97.836ZM207.326 110.412C203.629 114.856 204.234 121.454 208.677 125.151C213.12 128.848 219.719 128.243 223.416 123.8C227.113 119.357 226.508 112.758 222.065 109.061C217.622 105.364 211.023 105.969 207.326 110.412Z" fill="#E0E0E0"/>
<path d="M385.096 38.268C386.845 37.026 388.731 36.043 390.699 35.324L391.468 29.505L401.137 28.619L402.951 34.2C405.017 34.55 407.051 35.173 408.997 36.076L413.653 32.507L421.117 38.718L418.454 43.944C419.696 45.693 420.679 47.581 421.398 49.549L427.216 50.317L428.102 59.986L422.521 61.8C422.171 63.865 421.548 65.899 420.645 67.845L424.214 72.501L418.004 79.965L412.777 77.302C411.028 78.544 409.141 79.527 407.173 80.246L406.404 86.065L396.735 86.951L394.921 81.369C392.855 81.019 390.821 80.395 388.876 79.492L384.22 83.061L376.756 76.85L379.419 71.624C378.177 69.875 377.194 67.988 376.474 66.02L370.656 65.251L369.77 55.582L375.351 53.768C375.701 51.703 376.325 49.669 377.227 47.723L373.658 43.067L379.868 35.603L385.096 38.268ZM391.211 50.783C387.532 55.205 388.134 61.773 392.556 65.452C396.978 69.131 403.546 68.529 407.225 64.107C410.904 59.685 410.303 53.117 405.88 49.438C401.458 45.759 394.891 46.361 391.211 50.783Z" fill="#F5F5F5"/>
<path d="M474.421 51.815C475.416 51.109 476.489 50.55 477.608 50.14L478.045 46.8301L483.545 46.326L484.577 49.501C485.752 49.7 486.909 50.0551 488.016 50.5681L490.664 48.538L494.91 52.071L493.395 55.044C494.101 56.039 494.661 57.113 495.07 58.232L498.38 58.669L498.884 64.169L495.709 65.201C495.51 66.376 495.155 67.533 494.642 68.639L496.672 71.2881L493.14 75.534L490.167 74.019C489.172 74.725 488.099 75.284 486.979 75.694L486.542 79.004L481.042 79.5081L480.01 76.333C478.835 76.134 477.678 75.779 476.571 75.266L473.923 77.296L469.677 73.7631L471.192 70.7901C470.486 69.7951 469.926 68.722 469.517 67.602L466.207 67.1651L465.703 61.6651L468.878 60.633C469.077 59.458 469.432 58.301 469.945 57.195L467.915 54.5471L471.447 50.301L474.421 51.815ZM477.9 58.9351C475.807 61.4501 476.149 65.186 478.665 67.279C481.18 69.372 484.916 69.029 487.009 66.514C489.102 63.999 488.76 60.263 486.244 58.17C483.728 56.077 479.993 56.4191 477.9 58.9351Z" fill="#F5F5F5"/>
<path d="M148.953 210.147C150.573 208.996 152.322 208.086 154.145 207.419L154.857 202.027L163.817 201.206L165.498 206.378C167.412 206.702 169.297 207.28 171.1 208.117L175.415 204.809L182.331 210.564L179.864 215.407C181.015 217.028 181.926 218.777 182.592 220.601L187.983 221.313L188.804 230.273L183.632 231.954C183.308 233.868 182.73 235.753 181.893 237.556L185.2 241.871L179.445 248.788L174.601 246.32C172.98 247.471 171.232 248.381 169.408 249.048L168.696 254.44L159.736 255.261L158.055 250.089C156.141 249.765 154.256 249.187 152.453 248.35L148.138 251.658L141.222 245.903L143.69 241.06C142.539 239.439 141.628 237.691 140.961 235.867L135.569 235.155L134.748 226.195L139.92 224.513C140.244 222.599 140.822 220.714 141.659 218.911L138.352 214.596L144.107 207.679L148.953 210.147ZM154.62 221.745C151.21 225.843 151.768 231.929 155.866 235.338C159.964 238.748 166.05 238.19 169.459 234.092C172.868 229.994 172.311 223.908 168.213 220.499C164.115 217.089 158.029 217.647 154.62 221.745Z" fill="#E0E0E0"/>
<path d="M723.68 462.453C723.68 462.597 567.558 462.713 375.016 462.713C182.407 462.713 26.3184 462.597 26.3184 462.453C26.3184 462.309 182.407 462.193 375.016 462.193C567.558 462.193 723.68 462.309 723.68 462.453Z" fill="#263238"/>
<path d="M511.932 374.172H171.23C166.174 374.172 162.076 370.073 162.076 365.017V135.526C162.076 130.17 166.418 125.829 171.773 125.829H514.605C519.961 125.829 524.302 130.171 524.302 135.526V361.801C524.303 368.633 518.764 374.172 511.932 374.172Z" fill="#263238"/>
<path d="M233.862 161.446H208.314V167.017H233.862V161.446Z" fill="#455A64"/>
<path d="M221.088 186.399H208.314V191.97H221.088V186.399Z" fill="#F6583E"/>
<path d="M235.915 198.949H217.928V204.52H235.915V198.949Z" fill="#455A64"/>
<path d="M249.257 198.949H238.777V204.52H249.257V198.949Z" fill="#455A64"/>
<path d="M343.226 198.949H321.672V204.52H343.226V198.949Z" fill="#455A64"/>
<path d="M406.222 211.183H369.807V216.754H406.222V211.183Z" fill="#455A64"/>
<path d="M462.394 198.949H444.908V204.52H462.394V198.949Z" fill="#455A64"/>
<path d="M502.917 198.949H467.758V204.52H502.917V198.949Z" fill="#455A64"/>
<path d="M235.915 211.183H217.928V216.754H235.915V211.183Z" fill="#455A64"/>
<path d="M224.862 223.385H206.875V228.956H224.862V223.385Z" fill="#F6583E"/>
<path d="M224.865 235.587H216.461V241.158H224.865V235.587Z" fill="#455A64"/>
<path d="M255.715 261.293H247.311V266.864H255.715V261.293Z" fill="#455A64"/>
<path d="M379.331 307.736H362.912V313.307H379.331V307.736Z" fill="#455A64"/>
<path d="M471.066 307.736H430.84V313.307H471.066V307.736Z" fill="#455A64"/>
<path d="M317.51 295.545H301.092V301.116H317.51V295.545Z" fill="#E0E0E0"/>
<path d="M258.015 285.082H241.596V290.653H258.015V285.082Z" fill="#455A64"/>
<path d="M359.504 307.736H333.615V313.307H359.504V307.736Z" fill="#455A64"/>
<path d="M230.098 248.016H216.461V253.587H230.098V248.016Z" fill="#455A64"/>
<path d="M241.758 261.501H216.461V267.072H241.758V261.501Z" fill="#455A64"/>
<path d="M253.474 271.826H216.461V277.397H253.474V271.826Z" fill="#455A64"/>
<path d="M320.531 271.826H283.518V277.397H320.531V271.826Z" fill="#455A64"/>
<path d="M293.239 295.545H241.27V301.116H293.239V295.545Z" fill="#455A64"/>
<path d="M329.17 307.736H241.27V313.307H329.17V307.736Z" fill="#455A64"/>
<path d="M302.578 319.927H214.678V325.498H302.578V319.927Z" fill="#455A64"/>
<path d="M279.584 271.826H257.379V277.397H279.584V271.826Z" fill="#455A64"/>
<path d="M251.093 235.587H228.182V241.158H251.093V235.587Z" fill="#455A64"/>
<path d="M256.14 248.018H233.229V253.589H256.14V248.018Z" fill="#455A64"/>
<path d="M344.909 248.018H284.242V253.589H344.909V248.018Z" fill="#455A64"/>
<path d="M416.63 248.018H346.561V253.589H416.63V248.018Z" fill="#455A64"/>
<path d="M278.869 248.018H259.906V253.589H278.869V248.018Z" fill="#455A64"/>
<path d="M284.267 235.587H254.232V241.158H284.267V235.587Z" fill="#455A64"/>
<path d="M304.299 235.587H287.58V241.158H304.299V235.587Z" fill="#E0E0E0"/>
<path d="M257.529 211.183H238.777V216.754H257.529V211.183Z" fill="#455A64"/>
<path d="M362.858 211.183H270.268V216.754H362.858V211.183Z" fill="#455A64"/>
<path d="M466.798 248.018H423.018V253.589H466.798V248.018Z" fill="#455A64"/>
<path d="M427.376 307.736H383.596V313.307H427.376V307.736Z" fill="#455A64"/>
<path d="M438.099 198.949H346.891V204.52H438.099V198.949Z" fill="#455A64"/>
<path d="M316.002 198.949H252.531V204.52H316.002V198.949Z" fill="#455A64"/>
<path d="M251.048 173.258H208.314V178.829H251.048V173.258Z" fill="#455A64"/>
<path d="M313.827 173.258H255.312V178.829H313.827V173.258Z" fill="#455A64"/>
<path d="M256.665 161.446H237.854V167.017H256.665V161.446Z" fill="#E0E0E0"/>
<path d="M188.813 161.446H183.418V167.017H188.813V161.446Z" fill="#455A64"/>
<path d="M188.813 173.637H183.418V179.208H188.813V173.637Z" fill="#455A64"/>
<path d="M188.813 185.828H183.418V191.399H188.813V185.828Z" fill="#455A64"/>
<path d="M188.813 198.018H183.418V203.589H188.813V198.018Z" fill="#455A64"/>
<path d="M188.813 210.209H183.418V215.78H188.813V210.209Z" fill="#455A64"/>
<path d="M188.813 222.4H183.418V227.971H188.813V222.4Z" fill="#455A64"/>
<path d="M188.813 234.591H183.418V240.162H188.813V234.591Z" fill="#455A64"/>
<path d="M188.813 246.782H183.418V252.353H188.813V246.782Z" fill="#455A64"/>
<path d="M188.813 258.973H183.418V264.544H188.813V258.973Z" fill="#455A64"/>
<path d="M253.652 346.262H245.248V351.833H253.652V346.262Z" fill="#E0E0E0"/>
<path d="M240.14 346.262H214.842V351.833H240.14V346.262Z" fill="#F6583E"/>
<path d="M188.813 345.644H183.418V351.215H188.813V345.644Z" fill="#455A64"/>
<path d="M188.813 271.164H183.418V276.735H188.813V271.164Z" fill="#455A64"/>
<path d="M188.813 283.354H183.418V288.925H188.813V283.354Z" fill="#455A64"/>
<path d="M188.813 295.545H183.418V301.116H188.813V295.545Z" fill="#455A64"/>
<path d="M188.813 307.736H183.418V313.307H188.813V307.736Z" fill="#455A64"/>
<path d="M188.813 319.927H183.418V325.498H188.813V319.927Z" fill="#455A64"/>
<path d="M240.304 332.756H214.678V338.327H240.304V332.756Z" fill="#455A64"/>
<path d="M303.215 332.756H245.248V338.327H303.215V332.756Z" fill="#455A64"/>
<path d="M188.813 332.756H183.418V338.327H188.813V332.756Z" fill="#455A64"/>
<path d="M339.779 173.221H320.967V178.792H339.779V173.221Z" fill="#E0E0E0"/>
<path d="M182.288 145.716C184.402 145.716 186.115 144.003 186.115 141.889C186.115 139.775 184.402 138.062 182.288 138.062C180.174 138.062 178.461 139.775 178.461 141.889C178.461 144.003 180.174 145.716 182.288 145.716Z" fill="#455A64"/>
<path d="M192.909 145.716C195.023 145.716 196.736 144.003 196.736 141.889C196.736 139.775 195.023 138.062 192.909 138.062C190.795 138.062 189.082 139.775 189.082 141.889C189.082 144.003 190.795 145.716 192.909 145.716Z" fill="#455A64"/>
<path d="M203.532 145.716C205.646 145.716 207.359 144.003 207.359 141.889C207.359 139.775 205.646 138.062 203.532 138.062C201.418 138.062 199.705 139.775 199.705 141.889C199.705 144.003 201.418 145.716 203.532 145.716Z" fill="#455A64"/>
<g opacity="0.3">
<path d="M492.479 361.074H356.091C352.094 361.074 348.854 357.834 348.854 353.837V281.848C348.854 277.851 352.094 274.611 356.091 274.611H492.479C496.476 274.611 499.716 277.851 499.716 281.848V353.837C499.715 357.834 496.475 361.074 492.479 361.074Z" fill="black"/>
</g>
<path d="M505.922 351.833H363.95C361.496 351.833 359.506 349.843 359.506 347.389V269.815C359.506 267.361 361.496 265.371 363.95 265.371H505.923C508.377 265.371 510.367 267.361 510.367 269.815V347.389C510.367 349.843 508.377 351.833 505.922 351.833Z" fill="#F6583E"/>
<path d="M418.617 319.169H404.843L402.283 325.498H392.883L407.263 292.923H416.337L430.763 325.498H421.177L418.617 319.169ZM415.918 312.375L411.73 301.95L407.542 312.375H415.918Z" fill="white"/>
<path d="M455.937 294.389C458.109 295.366 459.784 296.762 460.963 298.577C462.142 300.392 462.732 302.526 462.732 304.976C462.732 307.427 462.142 309.552 460.963 311.351C459.783 313.151 458.109 314.539 455.937 315.516C453.765 316.494 451.206 316.982 448.259 316.982H442.581V325.499H433.367V292.924H448.259C451.206 292.923 453.765 293.411 455.937 294.389ZM451.982 308.49C452.943 307.668 453.424 306.497 453.424 304.976C453.424 303.456 452.943 302.277 451.982 301.439C451.02 300.601 449.592 300.183 447.701 300.183H442.582V309.722H447.701C449.592 309.722 451.02 309.312 451.982 308.49Z" fill="white"/>
<path d="M467.201 292.923H476.415V325.498H467.201V292.923Z" fill="white"/>
<path d="M198.346 159.856C198.49 159.856 198.606 207.813 198.606 266.957C198.606 326.122 198.489 374.068 198.346 374.068C198.202 374.068 198.086 326.121 198.086 266.957C198.086 207.813 198.202 159.856 198.346 159.856Z" fill="#455A64"/>
<path d="M313.397 391.005C313.406 391.005 313.415 391.149 313.424 391.43C313.43 391.735 313.439 392.149 313.45 392.677C313.461 393.801 313.478 395.411 313.499 397.473C313.519 401.665 313.547 407.684 313.582 415.111C313.592 418.837 313.602 422.915 313.614 427.291C313.616 428.386 313.618 429.499 313.621 430.63C313.604 431.765 313.676 432.897 313.551 434.101C313.277 436.479 311.958 438.798 309.905 440.283C308.885 441.028 307.692 441.569 306.422 441.829C305.134 442.099 303.837 441.989 302.561 442.014C299.984 442.016 297.353 442.018 294.674 442.02C289.317 442.022 283.77 442.023 278.09 442.025C255.37 441.995 234.805 441.968 219.889 441.949C212.462 441.914 206.443 441.886 202.252 441.866C200.191 441.845 198.58 441.829 197.457 441.817C196.928 441.806 196.515 441.797 196.21 441.791C195.929 441.782 195.785 441.773 195.785 441.764C195.785 441.755 195.929 441.746 196.21 441.737C196.515 441.731 196.928 441.722 197.457 441.711C198.58 441.7 200.191 441.683 202.252 441.662C206.443 441.642 212.462 441.614 219.889 441.579C234.805 441.559 255.37 441.532 278.09 441.503C283.771 441.505 289.317 441.507 294.674 441.508C297.352 441.51 299.984 441.512 302.561 441.514C303.854 441.493 305.131 441.599 306.325 441.347C307.527 441.104 308.656 440.594 309.623 439.892C311.571 438.49 312.828 436.298 313.096 434.042C313.218 432.926 313.155 431.752 313.175 430.627C313.177 429.496 313.179 428.382 313.182 427.288C313.193 422.912 313.204 418.834 313.214 415.108C313.249 407.681 313.277 401.662 313.297 397.47C313.318 395.408 313.334 393.798 313.346 392.674C313.357 392.145 313.366 391.732 313.372 391.427C313.38 391.149 313.388 391.005 313.397 391.005Z" fill="#F6583E"/>
<path d="M316.884 387.519C316.884 389.445 315.323 391.006 313.397 391.006C311.471 391.006 309.91 389.445 309.91 387.519C309.91 385.593 311.471 384.032 313.397 384.032C315.323 384.032 316.884 385.593 316.884 387.519Z" fill="#F6583E"/>
<path d="M199.382 441.218C199.382 443.144 197.821 444.705 195.895 444.705C193.969 444.705 192.408 443.144 192.408 441.218C192.408 439.292 193.969 437.731 195.895 437.731C197.821 437.731 199.382 439.292 199.382 441.218Z" fill="#F6583E"/>
<path d="M594.216 360.114C594.216 362.8 592.038 364.978 589.352 364.978C586.666 364.978 584.488 362.8 584.488 360.114C584.488 357.428 586.666 355.25 589.352 355.25C592.039 355.251 594.216 357.428 594.216 360.114Z" fill="#F6583E"/>
<path d="M617.804 338.547C617.804 341.233 615.626 343.411 612.94 343.411C610.254 343.411 608.076 341.233 608.076 338.547C608.076 335.861 610.254 333.683 612.94 333.683C615.627 333.684 617.804 335.861 617.804 338.547Z" fill="#F6583E"/>
<path d="M594.687 316.98C594.687 319.666 592.509 321.844 589.823 321.844C587.137 321.844 584.959 319.666 584.959 316.98C584.959 314.294 587.137 312.116 589.823 312.116C592.51 312.117 594.687 314.294 594.687 316.98Z" fill="#F6583E"/>
<path d="M612.269 338.547C612.269 338.691 593.319 338.807 569.949 338.807C546.571 338.807 527.625 338.691 527.625 338.547C527.625 338.403 546.57 338.287 569.949 338.287C593.319 338.287 612.269 338.404 612.269 338.547Z" fill="#F6583E"/>
<path d="M589.354 362.334C589.21 362.334 589.094 352.385 589.094 340.114C589.094 327.839 589.211 317.892 589.354 317.892C589.497 317.892 589.614 327.839 589.614 340.114C589.614 352.384 589.497 362.334 589.354 362.334Z" fill="#F6583E"/>
<path d="M342.884 139.059H269.589C264.96 139.059 261.207 135.306 261.207 130.677V87.896C261.207 83.267 264.96 79.514 269.589 79.514H342.884C347.513 79.514 351.266 83.267 351.266 87.896V130.678C351.266 135.307 347.513 139.059 342.884 139.059Z" fill="#F6583E"/>
<g opacity="0.3">
<path d="M342.884 139.059H269.589C264.96 139.059 261.207 135.306 261.207 130.677V87.896C261.207 83.267 264.96 79.514 269.589 79.514H342.884C347.513 79.514 351.266 83.267 351.266 87.896V130.678C351.266 135.307 347.513 139.059 342.884 139.059Z" fill="black"/>
</g>
<path d="M336.839 139.059H263.544C258.915 139.059 255.162 135.306 255.162 130.677V87.896C255.162 83.267 258.915 79.514 263.544 79.514H336.839C341.468 79.514 345.221 83.267 345.221 87.896V130.678C345.221 135.307 341.468 139.059 336.839 139.059Z" fill="#F6583E"/>
<path d="M290.46 105.941L278.185 110.289L290.46 114.637V120.255L271.49 113.252V107.326L290.46 100.323V105.941Z" fill="white"/>
<path d="M303.966 91.358H310.468L297.771 127.604H291.268L303.966 91.358Z" fill="white"/>
<path d="M329.861 107.326V113.252L310.891 120.255V114.637L323.165 110.289L310.891 105.941V100.323L329.861 107.326Z" fill="white"/>
<path d="M432.096 100.77C435.119 98.943 438.337 97.558 441.656 96.615L443.625 87.152L459.613 86.872L461.914 96.259C465.264 97.085 468.53 98.356 471.615 100.075L476.051 94.778H479.695L491.198 105.885L486.19 114.144C488.017 117.168 489.402 120.387 490.344 123.706L499.806 125.675L500.087 141.662L490.7 143.963C489.874 147.313 488.603 150.577 486.884 153.663L492.18 161.744L481.074 173.247H477.43L472.814 168.238C469.791 170.065 466.572 171.45 463.253 172.392L461.283 181.855L445.296 182.136L442.995 172.749C439.645 171.923 436.38 170.652 433.295 168.933L425.215 174.229H421.571L413.712 163.122L418.72 154.862C416.893 151.838 415.507 148.62 414.565 145.301L405.103 143.332L404.822 127.345L414.209 125.043C415.035 121.693 416.307 118.429 418.025 115.343L412.729 107.263L420.191 95.759H423.835L432.096 100.77ZM440.618 122.068C434.038 128.884 434.229 139.743 441.044 146.323C447.86 152.903 458.719 152.712 465.298 145.896C471.878 139.081 471.688 128.221 464.872 121.641C458.057 115.062 447.198 115.253 440.618 122.068Z" fill="#E0E0E0"/>
<g opacity="0.3">
<path d="M432.096 100.77C435.119 98.943 438.337 97.558 441.656 96.615L443.625 87.152L459.613 86.872L461.914 96.259C465.264 97.085 468.53 98.356 471.615 100.075L476.051 94.778H479.695L491.198 105.885L486.19 114.144C488.017 117.168 489.402 120.387 490.344 123.706L499.806 125.675L500.087 141.662L490.7 143.963C489.874 147.313 488.603 150.577 486.884 153.663L492.18 161.744L481.074 173.247H477.43L472.814 168.238C469.791 170.065 466.572 171.45 463.253 172.392L461.283 181.855L445.296 182.136L442.995 172.749C439.645 171.923 436.38 170.652 433.295 168.933L425.215 174.229H421.571L413.712 163.122L418.72 154.862C416.893 151.838 415.507 148.62 414.565 145.301L405.103 143.332L404.822 127.345L414.209 125.043C415.035 121.693 416.307 118.429 418.025 115.343L412.729 107.263L420.191 95.759H423.835L432.096 100.77ZM440.618 122.068C434.038 128.884 434.229 139.743 441.044 146.323C447.86 152.903 458.719 152.712 465.298 145.896C471.878 139.081 471.688 128.221 464.872 121.641C458.057 115.062 447.198 115.253 440.618 122.068Z" fill="black"/>
</g>
<path d="M428.452 100.77C431.475 98.943 434.693 97.558 438.012 96.615L439.981 87.152L455.969 86.872L458.27 96.259C461.62 97.085 464.886 98.356 467.971 100.075L476.051 94.778L487.554 105.885L482.546 114.144C484.373 117.168 485.758 120.387 486.7 123.706L496.162 125.675L496.443 141.662L487.056 143.963C486.23 147.313 484.959 150.577 483.24 153.663L488.536 161.744L477.43 173.247L469.169 168.238C466.146 170.065 462.927 171.45 459.608 172.392L457.638 181.855L441.651 182.136L439.35 172.749C436 171.923 432.735 170.652 429.65 168.933L421.57 174.229L410.067 163.122L415.075 154.862C413.248 151.838 411.862 148.62 410.92 145.301L401.458 143.332L401.178 127.345L410.565 125.043C411.391 121.693 412.663 118.429 414.381 115.343L409.085 107.263L420.191 95.759L428.452 100.77ZM436.974 122.068C430.394 128.884 430.585 139.743 437.4 146.323C444.215 152.903 455.075 152.712 461.654 145.896C468.234 139.081 468.044 128.221 461.228 121.641C454.413 115.062 443.554 115.253 436.974 122.068Z" fill="#E0E0E0"/>
<path d="M711.003 291.822H559.304C553.731 291.822 549.213 287.304 549.213 281.731V65.597C549.213 60.024 553.731 55.506 559.304 55.506H711.003C716.576 55.506 721.094 60.024 721.094 65.597V281.731C721.094 287.304 716.576 291.822 711.003 291.822Z" fill="white"/>
<path d="M656.043 185.85H614.264V220.721H656.043V185.85Z" fill="#E0E0E0"/>
<path d="M708.902 186.295H667.123V221.166H708.902V186.295Z" fill="#E0E0E0"/>
<path d="M603.183 186.295H561.404V221.166H603.183V186.295Z" fill="#E0E0E0"/>
<path d="M721.094 105.696H549.213V169.423H721.094V105.696Z" fill="#E0E0E0"/>
<path d="M721.094 79.105H549.213V64.783C549.213 59.659 553.367 55.506 558.49 55.506H710.69C716.435 55.506 721.093 60.164 721.093 65.909L721.094 79.105Z" fill="#E0E0E0"/>
<path d="M573.101 92.401C573.101 96.534 569.75 99.885 565.617 99.885C561.484 99.885 558.133 96.534 558.133 92.401C558.133 88.268 561.484 84.917 565.617 84.917C569.75 84.916 573.101 88.267 573.101 92.401Z" fill="#F6583E"/>
<path d="M640.346 89.078H612.852V95.485H640.346V89.078Z" fill="#E0E0E0"/>
<path d="M674.611 89.078H647.117V95.485H674.611V89.078Z" fill="#E0E0E0"/>
<path d="M708.875 89.078H681.381V95.485H708.875V89.078Z" fill="#E0E0E0"/>
<path d="M603.183 232.949H561.404V238.534H603.183V232.949Z" fill="#E0E0E0"/>
<path d="M603.183 245.139H561.404V250.724H603.183V245.139Z" fill="#E0E0E0"/>
<path d="M584.024 257.329H561.404V262.914H584.024V257.329Z" fill="#E0E0E0"/>
<path d="M656.89 232.949H615.111V238.534H656.89V232.949Z" fill="#E0E0E0"/>
<path d="M656.89 245.139H615.111V250.724H656.89V245.139Z" fill="#E0E0E0"/>
<path d="M637.731 257.329H615.111V262.914H637.731V257.329Z" fill="#E0E0E0"/>
<path d="M710.595 232.949H668.816V238.534H710.595V232.949Z" fill="#E0E0E0"/>
<path d="M710.595 245.139H668.816V250.724H710.595V245.139Z" fill="#E0E0E0"/>
<path d="M691.436 257.329H668.816V262.914H691.436V257.329Z" fill="#E0E0E0"/>
<path d="M711.003 291.822C711.003 291.822 711.177 291.804 711.521 291.783C711.867 291.779 712.376 291.704 713.046 291.587C714.35 291.294 716.372 290.605 718.23 288.686C719.143 287.732 719.977 286.467 720.501 284.92C721.088 283.374 721.026 281.556 721.015 279.615C721.008 275.723 721 271.233 720.991 266.18C720.971 245.956 720.943 216.703 720.908 180.557C720.898 162.482 720.888 142.683 720.876 121.43C720.872 110.803 720.867 99.812 720.863 88.491C720.861 82.83 720.859 77.087 720.857 71.265C720.857 69.81 720.856 68.349 720.856 66.884C720.878 65.408 720.859 63.974 720.385 62.596C719.502 59.858 717.367 57.506 714.638 56.45C713.275 55.9 711.821 55.72 710.323 55.749C708.82 55.749 707.313 55.75 705.801 55.75C702.777 55.751 699.735 55.751 696.676 55.752C690.557 55.753 684.369 55.755 678.114 55.756C665.605 55.758 652.832 55.76 639.829 55.762C613.824 55.764 586.898 55.766 559.321 55.767C557.641 55.782 555.965 56.2 554.504 57.021C553.054 57.852 551.789 59.026 550.931 60.462C550.044 61.879 549.553 63.526 549.492 65.19C549.45 66.876 549.48 68.598 549.471 70.295C549.471 77.106 549.47 83.872 549.47 90.588C549.469 104.021 549.467 117.257 549.466 130.263C549.461 156.274 549.456 181.365 549.451 205.266C549.443 229.167 549.435 251.879 549.427 273.135C549.426 275.792 549.425 278.426 549.423 281.037C549.3 283.62 550.105 286.179 551.751 288.099C553.366 290.023 555.714 291.289 558.169 291.547C559.385 291.663 560.658 291.601 561.898 291.619C563.144 291.62 564.383 291.62 565.616 291.621C575.482 291.627 584.95 291.633 593.988 291.638C630.134 291.673 659.385 291.701 679.606 291.721C689.71 291.742 697.556 291.759 702.884 291.77C705.54 291.781 707.567 291.79 708.938 291.796C710.305 291.804 711.003 291.822 711.003 291.822C711.003 291.822 710.304 291.84 708.94 291.849C707.57 291.855 705.543 291.863 702.886 291.875C697.558 291.886 689.712 291.903 679.608 291.924C659.387 291.944 630.136 291.972 593.99 292.007C584.952 292.012 575.484 292.018 565.618 292.024C564.385 292.025 563.145 292.025 561.9 292.026C560.651 292.009 559.414 292.075 558.124 291.956C555.566 291.689 553.117 290.373 551.433 288.37C549.716 286.384 548.873 283.672 548.999 281.039C548.998 278.428 548.997 275.794 548.995 273.137C548.987 251.881 548.979 229.169 548.971 205.268C548.966 181.367 548.961 156.276 548.956 130.265C548.955 117.259 548.953 104.023 548.952 90.59C548.952 83.874 548.951 77.108 548.951 70.297C548.96 68.59 548.93 66.899 548.972 65.17C549.036 63.419 549.554 61.682 550.487 60.191C551.391 58.68 552.721 57.444 554.249 56.569C555.787 55.704 557.555 55.263 559.32 55.248C586.897 55.25 613.822 55.252 639.828 55.253C652.831 55.255 665.603 55.257 678.113 55.26C684.368 55.261 690.556 55.263 696.675 55.264C699.734 55.265 702.776 55.265 705.8 55.266C707.312 55.266 708.819 55.267 710.322 55.267C711.826 55.236 713.399 55.426 714.814 56.004C717.676 57.114 719.912 59.579 720.836 62.451C721.332 63.882 721.352 65.441 721.327 66.884C721.327 68.349 721.326 69.809 721.326 71.265C721.324 77.087 721.322 82.83 721.32 88.491C721.315 99.812 721.311 110.803 721.307 121.43C721.296 142.684 721.285 162.482 721.275 180.557C721.24 216.703 721.212 245.956 721.192 266.18C721.183 271.234 721.175 275.723 721.168 279.615C721.151 280.589 721.198 281.519 721.127 282.425C721.074 283.328 720.886 284.18 720.622 284.962C720.084 286.527 719.232 287.801 718.303 288.76C716.413 290.686 714.369 291.362 713.054 291.64C712.378 291.749 711.866 291.815 711.519 291.81C711.178 291.822 711.003 291.822 711.003 291.822Z" fill="#263238"/>
<path d="M566.001 68.541C566.001 70.122 564.719 71.404 563.138 71.404C561.557 71.404 560.275 70.122 560.275 68.541C560.275 66.96 561.557 65.678 563.138 65.678C564.719 65.677 566.001 66.959 566.001 68.541Z" fill="white"/>
<path d="M575.054 68.541C575.054 70.122 573.772 71.404 572.191 71.404C570.61 71.404 569.328 70.122 569.328 68.541C569.328 66.96 570.61 65.678 572.191 65.678C573.772 65.677 575.054 66.959 575.054 68.541Z" fill="white"/>
<path d="M584.105 68.541C584.105 70.122 582.823 71.404 581.242 71.404C579.661 71.404 578.379 70.122 578.379 68.541C578.379 66.96 579.661 65.678 581.242 65.678C582.823 65.678 584.105 66.959 584.105 68.541Z" fill="white"/>
<path d="M623.246 138.867V124.905C623.246 122.282 626.171 120.643 628.511 121.955L640.968 128.936L653.425 135.917C655.765 137.228 655.765 140.506 653.425 141.818L640.968 148.799L628.511 155.78C626.171 157.091 623.246 155.452 623.246 152.83V138.867Z" fill="white"/>
<path d="M705.514 462.453L639.52 462.165C631.583 462.131 625.177 456.038 625.211 448.556L625.91 292.581C625.944 285.094 632.41 279.051 640.352 279.086L706.346 279.373C714.283 279.408 720.689 285.5 720.655 292.983L719.955 448.958C719.922 456.445 713.455 462.488 705.514 462.453Z" fill="#263238"/>
<path d="M706.252 284.756L693.457 284.7L656.088 284.537L651.588 284.517L640.389 284.468C634.827 284.444 630.298 288.676 630.275 293.919L629.592 446.162C629.568 451.403 634.054 455.67 639.613 455.694L705.475 455.98C711.036 456.004 715.565 451.772 715.589 446.529L716.272 294.286C716.297 289.047 711.811 284.781 706.252 284.756Z" fill="white"/>
<path d="M706.818 298.924C706.816 299.362 706.45 299.715 705.999 299.713C705.548 299.711 705.184 299.355 705.186 298.918C705.188 298.48 705.555 298.127 706.005 298.129C706.455 298.13 706.819 298.486 706.818 298.924Z" fill="#263238"/>
<path d="M706.808 301.774C706.806 302.212 706.44 302.565 705.989 302.564C705.538 302.562 705.174 302.206 705.176 301.768C705.178 301.33 705.545 300.977 705.996 300.979C706.445 300.98 706.81 301.336 706.808 301.774Z" fill="#263238"/>
<path d="M706.796 304.624C706.794 305.062 706.427 305.415 705.977 305.414C705.526 305.412 705.162 305.056 705.164 304.619C705.166 304.181 705.532 303.828 705.983 303.83C706.433 303.831 706.798 304.187 706.796 304.624Z" fill="#263238"/>
<path d="M650.846 302.564C650.846 305.453 648.433 307.795 645.457 307.795C642.481 307.795 640.068 305.453 640.068 302.564C640.068 299.675 642.481 297.333 645.457 297.333C648.433 297.333 650.846 299.675 650.846 302.564Z" fill="#F6583E"/>
<path d="M690.888 303.568H663.256C662.264 303.568 661.459 302.763 661.459 301.771C661.459 300.779 662.264 299.974 663.256 299.974H690.887C691.879 299.974 692.684 300.779 692.684 301.771C692.684 302.764 691.88 303.568 690.888 303.568Z" fill="#E0E0E0"/>
<path d="M656.713 370.226V354.768C656.713 351.864 659.951 350.05 662.542 351.502L676.334 359.231L690.126 366.96C692.717 368.412 692.717 372.041 690.126 373.493L676.334 381.222L662.542 388.951C659.951 390.403 656.713 388.588 656.713 385.685V370.226Z" fill="#F6583E"/>
<path d="M510.946 437.48C516.801 428.171 526.71 426.005 535.71 428.054C534.328 414.802 540.289 401.018 550.891 392.948C561.493 384.878 576.367 382.803 588.772 387.664C601.178 392.525 610.683 404.151 612.981 417.276C622.311 410.663 636.31 415.138 643.152 424.301C649.995 433.464 650.414 453.037 642.396 462.252L513.195 461.513C513.195 461.513 503.354 449.551 510.946 437.48Z" fill="#F6583E"/>
<g opacity="0.3">
<path d="M510.946 437.48C516.801 428.171 526.71 426.005 535.71 428.054C534.328 414.802 540.289 401.018 550.891 392.948C561.493 384.878 576.367 382.803 588.772 387.664C601.178 392.525 610.683 404.151 612.981 417.276C622.311 410.663 636.31 415.138 643.152 424.301C649.995 433.464 650.414 453.037 642.396 462.252L513.195 461.513C513.195 461.513 503.354 449.551 510.946 437.48Z" fill="black"/>
</g>
<path d="M499.845 437.48C505.7 428.171 515.609 426.005 524.609 428.054C523.227 414.802 529.188 401.018 539.79 392.948C550.392 384.878 565.265 382.803 577.671 387.664C590.077 392.525 599.582 404.151 601.88 417.276C611.21 410.663 625.209 415.138 632.051 424.301C638.894 433.464 639.313 453.037 631.296 462.252L502.095 461.513C502.095 461.513 492.253 449.551 499.845 437.48Z" fill="#F6583E"/>
<path d="M176.982 462.456H49.5429C47.4049 462.456 45.6719 460.723 45.6719 458.585V337.097C45.6719 334.959 47.4049 333.226 49.5429 333.226H176.982C179.12 333.226 180.853 334.959 180.853 337.097V458.584C180.853 460.723 179.12 462.456 176.982 462.456Z" fill="#E0E0E0"/>
<path d="M181.088 374.478C181.088 374.622 150.894 374.738 113.657 374.738C76.4068 374.738 46.2188 374.621 46.2188 374.478C46.2188 374.335 76.4058 374.218 113.657 374.218C150.895 374.217 181.088 374.334 181.088 374.478Z" fill="#263238"/>
<path d="M181.088 415.968C181.088 416.112 150.894 416.228 113.657 416.228C76.4068 416.228 46.2188 416.111 46.2188 415.968C46.2188 415.825 76.4058 415.708 113.657 415.708C150.895 415.707 181.088 415.824 181.088 415.968Z" fill="#263238"/>
<path d="M70.2476 357.974C71.8708 357.974 73.1866 356.658 73.1866 355.035C73.1866 353.412 71.8708 352.096 70.2476 352.096C68.6244 352.096 67.3086 353.412 67.3086 355.035C67.3086 356.658 68.6244 357.974 70.2476 357.974Z" fill="white"/>
<path d="M80.7925 357.974C82.4157 357.974 83.7315 356.658 83.7315 355.035C83.7315 353.412 82.4157 352.096 80.7925 352.096C79.1694 352.096 77.8535 353.412 77.8535 355.035C77.8535 356.658 79.1694 357.974 80.7925 357.974Z" fill="white"/>
<path d="M147.361 360.522H146.854C146.252 360.522 145.764 360.034 145.764 359.432V351.602C145.764 351 146.252 350.512 146.854 350.512H147.361C147.963 350.512 148.451 351 148.451 351.602V359.432C148.452 360.034 147.964 360.522 147.361 360.522Z" fill="#263238"/>
<path d="M154.136 360.522H153.629C153.027 360.522 152.539 360.034 152.539 359.432V351.602C152.539 351 153.027 350.512 153.629 350.512H154.136C154.738 350.512 155.226 351 155.226 351.602V359.432C155.226 360.034 154.738 360.522 154.136 360.522Z" fill="#263238"/>
<path d="M160.382 360.522H159.875C159.273 360.522 158.785 360.034 158.785 359.432V351.602C158.785 351 159.273 350.512 159.875 350.512H160.382C160.984 350.512 161.472 351 161.472 351.602V359.432C161.472 360.034 160.984 360.522 160.382 360.522Z" fill="white"/>
<path d="M140.497 360.522H139.99C139.388 360.522 138.9 360.034 138.9 359.432V351.602C138.9 351 139.388 350.512 139.99 350.512H140.497C141.099 350.512 141.587 351 141.587 351.602V359.432C141.587 360.034 141.099 360.522 140.497 360.522Z" fill="#F6583E"/>
<path d="M70.2476 398.283C71.8708 398.283 73.1866 396.967 73.1866 395.344C73.1866 393.721 71.8708 392.405 70.2476 392.405C68.6244 392.405 67.3086 393.721 67.3086 395.344C67.3086 396.967 68.6244 398.283 70.2476 398.283Z" fill="white"/>
<path d="M80.2203 398.283C81.8434 398.283 83.1592 396.967 83.1592 395.344C83.1592 393.721 81.8434 392.405 80.2203 392.405C78.5971 392.405 77.2812 393.721 77.2812 395.344C77.2812 396.967 78.5971 398.283 80.2203 398.283Z" fill="white"/>
<path d="M147.361 400.831H146.854C146.252 400.831 145.764 400.343 145.764 399.741V391.911C145.764 391.309 146.252 390.821 146.854 390.821H147.361C147.963 390.821 148.451 391.309 148.451 391.911V399.741C148.452 400.343 147.964 400.831 147.361 400.831Z" fill="#263238"/>
<path d="M154.136 400.831H153.629C153.027 400.831 152.539 400.343 152.539 399.741V391.911C152.539 391.309 153.027 390.821 153.629 390.821H154.136C154.738 390.821 155.226 391.309 155.226 391.911V399.741C155.226 400.343 154.738 400.831 154.136 400.831Z" fill="#263238"/>
<path d="M160.382 400.831H159.875C159.273 400.831 158.785 400.343 158.785 399.741V391.911C158.785 391.309 159.273 390.821 159.875 390.821H160.382C160.984 390.821 161.472 391.309 161.472 391.911V399.741C161.472 400.343 160.984 400.831 160.382 400.831Z" fill="white"/>
<path d="M140.497 400.831H139.99C139.388 400.831 138.9 400.343 138.9 399.741V391.911C138.9 391.309 139.388 390.821 139.99 390.821H140.497C141.099 390.821 141.587 391.309 141.587 391.911V399.741C141.587 400.343 141.099 400.831 140.497 400.831Z" fill="#F6583E"/>
<path d="M70.2476 441.668C71.8708 441.668 73.1866 440.352 73.1866 438.729C73.1866 437.106 71.8708 435.79 70.2476 435.79C68.6244 435.79 67.3086 437.106 67.3086 438.729C67.3086 440.352 68.6244 441.668 70.2476 441.668Z" fill="white"/>
<path d="M81.0699 441.668C82.693 441.668 84.0089 440.352 84.0089 438.729C84.0089 437.106 82.693 435.79 81.0699 435.79C79.4467 435.79 78.1309 437.106 78.1309 438.729C78.1309 440.352 79.4467 441.668 81.0699 441.668Z" fill="white"/>
<path d="M147.361 444.216H146.854C146.252 444.216 145.764 443.728 145.764 443.126V435.296C145.764 434.694 146.252 434.206 146.854 434.206H147.361C147.963 434.206 148.451 434.694 148.451 435.296V443.126C148.452 443.728 147.964 444.216 147.361 444.216Z" fill="#263238"/>
<path d="M154.136 444.216H153.629C153.027 444.216 152.539 443.728 152.539 443.126V435.296C152.539 434.694 153.027 434.206 153.629 434.206H154.136C154.738 434.206 155.226 434.694 155.226 435.296V443.126C155.226 443.728 154.738 444.216 154.136 444.216Z" fill="#263238"/>
<path d="M160.382 444.216H159.875C159.273 444.216 158.785 443.728 158.785 443.126V435.296C158.785 434.694 159.273 434.206 159.875 434.206H160.382C160.984 434.206 161.472 434.694 161.472 435.296V443.126C161.472 443.728 160.984 444.216 160.382 444.216Z" fill="white"/>
<path d="M140.497 444.216H139.99C139.388 444.216 138.9 443.728 138.9 443.126V435.296C138.9 434.694 139.388 434.206 139.99 434.206H140.497C141.099 434.206 141.587 434.694 141.587 435.296V443.126C141.587 443.728 141.099 444.216 140.497 444.216Z" fill="#F6583E"/>
<path d="M113.06 148.536C112.859 146.194 110.372 144.321 108.065 144.776C106.755 142.208 103.175 141.116 100.655 142.515C99.4556 143.18 98.5496 144.279 97.3796 144.993C96.2546 145.679 94.9386 145.978 93.7516 146.547C92.5636 147.117 91.4266 148.1 91.2776 149.409C91.1116 150.863 92.2686 152.207 93.6286 152.75C94.9886 153.293 96.5046 153.221 97.9666 153.141C97.3276 153.509 97.1896 154.436 97.5176 155.096C97.8456 155.756 98.5156 156.18 99.1996 156.453C101.472 157.361 104.245 156.848 106.043 155.189L108.778 153.091C111.127 153.147 113.26 150.879 113.06 148.536Z" fill="#263238"/>
<path d="M106.225 157.682C105.721 158.182 104.817 158.129 104.295 157.647C103.774 157.165 103.627 156.359 103.831 155.678C104.034 154.997 104.543 154.438 105.138 154.05C105.733 153.662 106.414 153.427 107.095 153.225C108.146 152.912 109.224 152.667 110.319 152.613C110.708 152.594 111.109 152.602 111.468 152.753C111.827 152.904 112.136 153.227 112.167 153.615C112.212 154.16 111.734 154.591 111.295 154.916C109.654 156.127 107.904 157.19 106.072 158.086" fill="#F6583E"/>
<path d="M104.623 157.403C102.029 154.509 95.5736 154.895 94.0306 156.777C91.7986 155.597 88.6846 156.608 87.5716 158.874C85.2806 159.358 82.9886 159.843 80.6976 160.327C79.5256 160.575 78.2976 160.849 77.3926 161.634C76.4876 162.419 76.0556 163.89 76.7916 164.835C74.3696 165.447 73.3956 169.04 75.1776 170.791C74.1826 171.822 74.3656 173.734 75.5376 174.558C73.6276 176.816 72.1056 179.403 71.0616 182.171C70.6246 183.329 70.2716 184.622 70.6936 185.786C71.1156 186.95 72.6366 187.76 73.6456 187.043C72.9536 187.977 72.8846 189.331 73.4786 190.33C72.3176 190.35 71.9586 192.143 72.7506 192.992C73.5426 193.842 74.8386 193.939 75.9996 193.921C77.1616 193.902 78.4196 193.851 79.3686 194.52C79.3236 194.867 79.1846 195.093 78.9846 195.254C76.9786 196.861 76.3926 199.65 77.8736 201.751C78.0106 201.946 78.1386 202.126 78.2506 202.287C78.9176 203.246 80.5756 204.133 81.6076 204.68C84.2236 206.067 85.7896 205.82 88.7176 206.264C87.9046 208.149 92.6356 212.37 98.1136 208.293C108.964 211.29 116.793 212.454 128.048 212.564C129.654 212.58 131.586 212.376 132.308 210.941C133.608 211.295 135.018 210.701 135.986 209.765C136.955 208.829 137.568 207.594 138.164 206.386C140.95 205.66 143.111 202.993 143.245 200.117C145.14 198.659 146.373 196.374 146.55 193.99C149.26 193.185 150.775 189.687 149.508 187.16C148.95 183.842 147.839 180.618 146.235 177.66C148.079 177.275 148.79 174.797 148.045 173.067C147.3 171.337 145.632 170.215 144.05 169.193C145.424 169.569 146.636 167.849 146.318 166.46C146 165.071 144.76 164.107 143.544 163.365C141.762 162.278 139.847 161.408 137.856 160.78C137.218 158.352 134.141 155.57 131.879 154.481C122.755 150.082 116.349 148.94 104.623 157.403Z" fill="#263238"/>
<path d="M97.5752 172.085C97.4502 170.162 97.1302 168.256 99.0362 167.967L118.49 162.102C124.762 161.15 129.304 168.72 129.989 175.028C130.75 182.035 131.403 190.62 130.807 195.901C129.61 206.52 120.253 209.372 120.253 209.372C120.251 209.358 120.496 215.813 120.496 215.813C119.687 220.769 118.435 226.344 116.423 228.327C109.541 227.042 98.2762 211.91 98.2762 211.91L97.5752 172.085Z" fill="#AE7461"/>
<path d="M119.805 191.054C119.795 190.972 120.692 190.775 122.149 190.521C122.519 190.466 122.867 190.376 122.918 190.12C122.994 189.847 122.82 189.454 122.62 189.03C122.23 188.147 121.822 187.221 121.393 186.251C119.685 182.292 118.43 179.03 118.59 178.963C118.75 178.896 120.265 182.05 121.973 186.009C122.385 186.986 122.779 187.917 123.155 188.807C123.315 189.223 123.578 189.691 123.414 190.257C123.326 190.539 123.063 190.753 122.828 190.828C122.593 190.911 122.384 190.925 122.201 190.944C120.729 191.089 119.814 191.137 119.805 191.054Z" fill="#263238"/>
<path d="M120.254 209.37C120.254 209.37 114.519 209.004 107.301 205.099C107.301 205.099 109.747 211.754 120.346 212.564L120.254 209.37Z" fill="#6F4439"/>
<path d="M113.593 174.84C113.468 175.242 112.006 175.12 110.309 175.403C108.606 175.652 107.252 176.214 107.009 175.869C106.9 175.704 107.123 175.321 107.663 174.913C108.197 174.506 109.061 174.102 110.081 173.942C111.101 173.783 112.046 173.904 112.679 174.128C113.317 174.353 113.646 174.649 113.593 174.84Z" fill="#263238"/>
<path d="M127.587 174.6C127.346 174.942 126.328 174.644 125.122 174.683C123.915 174.679 122.906 175.006 122.656 174.671C122.546 174.508 122.691 174.169 123.123 173.836C123.548 173.504 124.272 173.216 125.101 173.204C125.93 173.193 126.662 173.46 127.096 173.779C127.537 174.099 127.692 174.433 127.587 174.6Z" fill="#263238"/>
<path d="M134.731 180.091C134.63 178.439 134.111 176.759 132.978 175.551C132.358 174.889 131.572 174.386 131.022 173.665C129.834 172.107 130.001 169.942 129.496 168.049C128.845 165.609 126.938 163.541 124.559 162.693C122.58 161.988 120.338 162.084 118.481 161.1C117.108 160.373 116.063 159.11 114.65 158.465C111.898 157.209 108.707 158.623 106.109 160.172C105.595 162.236 106.902 164.022 108.162 165.736C109.421 167.45 111.465 168.563 113.589 168.689C115.236 168.787 117.16 168.414 118.319 169.588C119.538 170.823 119.067 173.002 120.069 174.419C121.502 176.444 124.758 175.672 126.9 176.923C128.554 177.889 129.25 179.867 130.084 181.592C130.917 183.317 132.358 185.115 134.272 185.023C134.552 183.392 134.832 181.743 134.731 180.091Z" fill="#263238"/>
<path d="M110.224 163.927C105.411 163.857 100.585 164.73 96.1024 166.484C94.7664 167.007 93.3845 167.671 92.6235 168.887C91.9545 169.956 91.8745 171.284 91.8905 172.545C91.9395 176.495 93.5335 181.33 95.0425 184.981L99.9774 187.93C103.775 187.028 102.026 180.471 101.841 177.184C104.491 176.019 106.339 173.221 106.371 170.326C108.539 168.932 110.006 166.497 110.224 163.927Z" fill="#263238"/>
<path d="M99.9066 186.512C99.7556 184.253 96.9816 183.816 95.0406 184.982C93.9756 185.622 93.1736 186.886 93.3126 189.285C93.6846 195.681 100.029 193.988 100.03 193.805C100.03 193.689 100.083 189.156 99.9066 186.512Z" fill="#AE7461"/>
<path d="M97.9337 191.494C97.9047 191.475 97.8267 191.579 97.6437 191.676C97.4647 191.771 97.1527 191.847 96.8117 191.742C96.1217 191.533 95.4907 190.493 95.3927 189.342C95.3427 188.761 95.4327 188.2 95.6117 187.729C95.7797 187.25 96.0627 186.905 96.3997 186.825C96.7337 186.727 96.9867 186.917 97.0747 187.092C97.1707 187.266 97.1377 187.396 97.1717 187.405C97.1907 187.42 97.3027 187.29 97.2357 187.029C97.2017 186.904 97.1177 186.757 96.9607 186.643C96.7997 186.527 96.5707 186.476 96.3347 186.516C95.8437 186.579 95.4257 187.058 95.2287 187.575C95.0047 188.096 94.8897 188.728 94.9457 189.38C95.0617 190.666 95.7917 191.834 96.7317 192.048C97.1887 192.139 97.5557 191.982 97.7407 191.82C97.9307 191.649 97.9567 191.504 97.9337 191.494Z" fill="#6F4439"/>
<path d="M97.2264 194.184C97.2294 194.184 97.2224 194.213 97.2074 194.269C97.1854 194.322 97.1854 194.416 97.1214 194.512C97.0334 194.726 96.7794 194.985 96.3804 195.177C95.9814 195.372 95.4374 195.491 94.7984 195.508C94.4784 195.52 94.1344 195.499 93.7714 195.442C93.4094 195.384 93.0254 195.293 92.6514 195.104L92.7284 195.066C92.5914 195.937 92.0174 196.878 91.0364 197.389C90.0704 197.901 88.6984 197.865 87.6634 197.091L87.7714 197.072C87.5844 197.358 87.2744 197.564 86.9334 197.632C86.5934 197.71 86.2304 197.67 85.8974 197.546C85.5644 197.422 85.2584 197.185 85.0634 196.87C84.8664 196.558 84.7604 196.191 84.7374 195.817C84.6914 195.068 84.9644 194.301 85.4324 193.683C85.8944 193.055 86.5044 192.545 87.1174 192.039L87.1284 192.187C86.5894 191.872 86.2344 191.289 86.1124 190.672C85.9854 190.053 86.0474 189.389 86.2934 188.785C86.5434 188.184 86.9484 187.654 87.4114 187.189C87.8754 186.722 88.3984 186.313 88.9244 185.906L88.9144 186.05C88.4394 185.578 88.2374 184.869 88.2824 184.195C88.3244 183.516 88.5764 182.843 89.0034 182.295C89.8244 181.246 91.0194 180.663 92.1204 180.115L92.0694 180.225C91.7234 178.824 92.1404 177.313 93.0744 176.311C94.0114 175.306 95.3994 174.83 96.6784 174.978L96.5794 175.088C96.3264 173.941 96.7504 172.782 97.4424 171.975C98.1334 171.157 99.1394 170.641 100.143 170.645L100.063 170.726C100.063 169.554 100.715 168.548 101.512 167.936C102.315 167.311 103.31 167.051 104.185 167.195L104.112 167.258C104.132 166.635 104.361 166.086 104.63 165.617C104.905 165.148 105.235 164.749 105.6 164.442C106.311 163.801 107.134 163.54 107.787 163.497C107.869 163.491 107.949 163.485 108.027 163.48C108.105 163.481 108.18 163.492 108.252 163.497C108.397 163.514 108.535 163.512 108.657 163.543C108.9 163.611 109.113 163.64 109.268 163.715C109.419 163.779 109.537 163.83 109.625 163.867C109.705 163.902 109.744 163.921 109.743 163.924C109.742 163.927 109.699 163.913 109.618 163.883C109.529 163.85 109.41 163.805 109.257 163.747C109.101 163.678 108.889 163.656 108.648 163.594C108.527 163.565 108.391 163.571 108.248 163.556C108.176 163.552 108.102 163.543 108.026 163.543C107.95 163.55 107.871 163.556 107.791 163.563C107.152 163.616 106.354 163.88 105.665 164.515C105.312 164.818 104.992 165.212 104.728 165.672C104.469 166.13 104.252 166.671 104.238 167.256L104.236 167.33L104.165 167.319C103.326 167.188 102.371 167.442 101.601 168.049C100.835 168.643 100.217 169.615 100.223 170.724V170.805H100.143C99.1934 170.805 98.2334 171.298 97.5734 172.086C96.9124 172.863 96.5154 173.971 96.7564 175.049L96.7844 175.173L96.6584 175.158C95.4374 175.018 94.1034 175.479 93.2134 176.439C92.3244 177.394 91.9264 178.846 92.2584 180.178L92.2774 180.253L92.2074 180.288C91.1064 180.836 89.9404 181.412 89.1584 182.414C88.7554 182.931 88.5164 183.569 88.4774 184.206C88.4354 184.84 88.6234 185.487 89.0534 185.915L89.1304 185.992L89.0434 186.059C88.0014 186.859 86.9534 187.702 86.4694 188.857C86.2364 189.423 86.1774 190.054 86.2954 190.634C86.4104 191.213 86.7354 191.744 87.2224 192.031L87.3344 192.097L87.2344 192.179C86.6204 192.682 86.0214 193.183 85.5754 193.786C85.1224 194.38 84.8674 195.101 84.9064 195.806C84.9354 196.503 85.3224 197.179 85.9554 197.396C86.5564 197.636 87.3164 197.51 87.6464 196.989L87.6894 196.92L87.7544 196.969C88.7334 197.711 90.0514 197.756 90.9774 197.271C91.9204 196.788 92.4834 195.884 92.6234 195.046L92.6354 194.974L92.7004 195.007C93.0564 195.191 93.4334 195.286 93.7874 195.346C94.1424 195.406 94.4824 195.431 94.7974 195.423C95.4274 195.414 95.9634 195.305 96.3574 195.123C96.7504 194.943 97.0024 194.7 97.0964 194.496C97.1984 194.301 97.2144 194.179 97.2264 194.184Z" fill="#455A64"/>
<path d="M72.8541 187.345C72.8541 187.345 72.7511 187.226 72.6131 186.959C72.4801 186.693 72.3111 186.27 72.2731 185.693C72.2351 185.125 72.3321 184.381 72.7961 183.686C73.2471 183.001 74.0591 182.366 75.1131 182.211L75.0591 182.288C74.8531 181.309 75.0131 180.143 75.6361 179.131C75.9401 178.623 76.3621 178.158 76.8871 177.8C77.4121 177.43 78.0431 177.241 78.6361 176.975C78.9331 176.842 79.2241 176.687 79.4741 176.477C79.7251 176.268 79.9191 175.997 80.0581 175.689C80.3421 175.076 80.4331 174.351 80.7921 173.691C81.5071 172.392 83.0901 171.516 84.6871 171.757L84.5771 171.865C84.3671 170.405 84.8361 168.787 85.9151 167.635C87.0391 166.436 88.7131 165.869 90.2521 166.054L90.1461 166.16C89.9551 164.285 91.0081 162.471 92.5331 161.69C94.0681 160.902 95.8951 161.104 97.1421 161.951L97.0391 161.961C97.6971 161.305 98.4951 160.885 99.2731 160.596C100.056 160.314 100.831 160.133 101.568 160.068C103.041 159.899 104.338 160.072 105.361 160.323C106.385 160.587 107.144 160.947 107.614 161.258C107.861 161.396 108.015 161.553 108.134 161.636C108.248 161.726 108.303 161.777 108.303 161.777C108.292 161.791 108.064 161.594 107.588 161.3C107.113 161.004 106.355 160.662 105.338 160.414C104.322 160.179 103.036 160.021 101.582 160.199C100.854 160.269 100.092 160.454 99.3251 160.735C98.5631 161.023 97.7861 161.439 97.1541 162.076L97.1071 162.124L97.0511 162.086C95.8501 161.277 94.0831 161.091 92.6161 161.851C91.1601 162.599 90.1501 164.352 90.3361 166.14L90.3491 166.26L90.2301 166.246C88.7521 166.069 87.1351 166.619 86.0581 167.77C85.0221 168.875 84.5681 170.437 84.7681 171.84L84.7861 171.968L84.6581 171.948C83.1531 171.715 81.6321 172.55 80.9541 173.781C80.6131 174.398 80.5191 175.118 80.2201 175.765C80.0741 176.089 79.8591 176.387 79.5871 176.611C79.3171 176.836 79.0111 176.996 78.7071 177.131C78.0981 177.4 77.4801 177.584 76.9791 177.934C76.4731 178.275 76.0631 178.721 75.7661 179.21C75.1581 180.185 74.9941 181.314 75.1861 182.262L75.2001 182.329L75.1321 182.339C74.1201 182.48 73.3261 183.084 72.8811 183.743C72.4241 184.411 72.3171 185.133 72.3441 185.69C72.3701 186.256 72.5251 186.676 72.6461 186.944C72.7711 187.212 72.8621 187.34 72.8541 187.345Z" fill="#455A64"/>
<path d="M134.032 189.073C134.042 189.081 133.898 188.899 134.007 188.548C134.062 188.379 134.185 188.188 134.381 188.018C134.575 187.842 134.857 187.722 135.171 187.62C135.483 187.514 135.846 187.427 136.169 187.203C136.491 186.98 136.747 186.614 136.889 186.176C137.038 185.738 137.079 185.239 137.05 184.712C137.027 184.184 136.944 183.625 136.944 183.027C136.932 181.814 137.445 180.582 137.757 179.245C137.908 178.577 137.971 177.856 137.843 177.141C137.716 176.434 137.345 175.727 136.683 175.342C136.032 174.942 135.228 174.822 134.441 174.583C134.047 174.461 133.647 174.305 133.295 174.05C132.937 173.801 132.674 173.429 132.486 173.039C132.108 172.245 132.014 171.365 131.813 170.521C131.715 170.098 131.587 169.678 131.369 169.308C131.157 168.934 130.821 168.648 130.426 168.481C129.875 168.274 129.26 168.303 128.656 168.239C128.353 168.208 128.044 168.148 127.76 168.014C127.475 167.882 127.226 167.671 127.052 167.417C126.696 166.907 126.567 166.318 126.382 165.783C126.213 165.239 125.942 164.751 125.579 164.339C124.86 163.513 123.817 163.026 122.793 163.007C121.767 162.982 120.779 163.361 120.078 163.99L119.993 164.066L119.946 163.962C119.155 162.222 117.615 161.107 116.147 160.683C115.406 160.469 114.673 160.429 114.009 160.499C113.345 160.565 112.747 160.742 112.252 160.988C111.251 161.484 110.688 162.203 110.384 162.706C110.224 162.958 110.13 163.167 110.067 163.308C110.036 163.372 110.011 163.423 109.991 163.466C109.973 163.501 109.963 163.519 109.961 163.518C109.959 163.517 109.965 163.498 109.978 163.461C109.995 163.417 110.016 163.364 110.042 163.298C110.097 163.153 110.185 162.94 110.339 162.68C110.632 162.164 111.192 161.421 112.207 160.901C112.711 160.644 113.318 160.457 113.995 160.382C114.671 160.305 115.421 160.339 116.183 160.553C117.69 160.977 119.274 162.107 120.097 163.894L119.965 163.866C120.696 163.204 121.723 162.806 122.797 162.828C123.872 162.844 124.966 163.352 125.719 164.215C126.099 164.641 126.389 165.166 126.562 165.721C126.75 166.266 126.882 166.841 127.208 167.304C127.523 167.783 128.09 167.997 128.675 168.044C129.259 168.108 129.888 168.072 130.494 168.297C130.931 168.479 131.305 168.802 131.534 169.206C131.768 169.605 131.9 170.043 131.999 170.474C132.202 171.332 132.298 172.203 132.656 172.954C132.834 173.324 133.075 173.665 133.405 173.896C133.73 174.132 134.11 174.285 134.495 174.404C135.263 174.642 136.083 174.762 136.777 175.189C137.119 175.401 137.417 175.688 137.615 176.029C137.818 176.367 137.942 176.738 138.011 177.11C138.142 177.857 138.072 178.598 137.914 179.28C137.589 180.637 137.076 181.848 137.081 183.027C137.076 183.611 137.154 184.171 137.173 184.706C137.198 185.241 137.151 185.759 136.991 186.211C136.839 186.663 136.565 187.048 136.221 187.279C135.875 187.511 135.504 187.591 135.193 187.692C134.878 187.788 134.607 187.897 134.417 188.062C134.225 188.221 134.101 188.401 134.043 188.561C133.928 188.891 134.053 189.074 134.032 189.073Z" fill="#455A64"/>
<path d="M146.449 179.164C146.446 179.166 146.424 179.125 146.383 179.045C146.339 178.955 146.281 178.837 146.207 178.686C146.051 178.358 145.83 177.893 145.547 177.299C145.257 176.699 144.933 175.948 144.469 175.127C144.005 174.319 143.367 173.397 142.326 172.831C141.808 172.55 141.21 172.365 140.61 172.098C140.311 171.963 140.009 171.805 139.736 171.587C139.462 171.373 139.231 171.084 139.083 170.752C138.78 170.088 138.77 169.336 138.528 168.649C138.405 168.31 138.211 167.99 137.912 167.775C137.62 167.551 137.255 167.421 136.884 167.299C136.513 167.176 136.12 167.067 135.752 166.866C135.378 166.675 135.07 166.342 134.878 165.961C134.494 165.184 134.489 164.307 134.33 163.48C134.252 163.066 134.139 162.65 133.905 162.306C133.677 161.957 133.302 161.726 132.89 161.638C132.049 161.463 131.145 161.756 130.208 161.609C129.74 161.531 129.3 161.291 128.977 160.957C128.651 160.624 128.409 160.236 128.18 159.856C127.951 159.475 127.736 159.094 127.478 158.753C127.223 158.412 126.913 158.116 126.537 157.948C125.776 157.597 124.91 157.787 124.121 157.969C123.326 158.153 122.496 158.352 121.691 158.18C120.893 158.019 120.21 157.609 119.577 157.218C118.941 156.827 118.341 156.41 117.695 156.173C116.387 155.707 115.038 155.769 113.899 156.052C112.75 156.339 111.806 156.9 111.088 157.501C110.364 158.108 109.896 158.783 109.537 159.338C109.212 159.916 108.985 160.381 108.873 160.714C108.811 160.869 108.762 160.992 108.725 161.085C108.691 161.168 108.671 161.21 108.668 161.209C108.665 161.208 108.678 161.164 108.706 161.079C108.739 160.984 108.782 160.859 108.836 160.701C108.937 160.363 109.154 159.89 109.472 159.3C109.826 158.734 110.29 158.044 111.018 157.419C111.741 156.801 112.696 156.221 113.865 155.92C115.024 155.624 116.399 155.548 117.752 156.023C118.429 156.268 119.033 156.687 119.668 157.074C120.299 157.462 120.968 157.857 121.727 158.006C122.485 158.166 123.28 157.977 124.08 157.789C124.483 157.698 124.894 157.601 125.326 157.572C125.754 157.542 126.208 157.588 126.618 157.777C127.031 157.961 127.366 158.284 127.632 158.638C127.902 158.993 128.12 159.38 128.347 159.758C128.574 160.135 128.811 160.511 129.116 160.821C129.419 161.133 129.811 161.344 130.242 161.418C131.114 161.562 132.018 161.267 132.932 161.449C133.385 161.544 133.813 161.808 134.065 162.197C134.324 162.579 134.439 163.021 134.519 163.445C134.677 164.293 134.687 165.157 135.045 165.878C135.225 166.231 135.494 166.527 135.842 166.706C136.184 166.895 136.566 167.004 136.941 167.129C137.315 167.253 137.698 167.389 138.019 167.635C138.348 167.873 138.563 168.232 138.69 168.591C138.939 169.317 138.946 170.062 139.231 170.685C139.499 171.32 140.092 171.701 140.673 171.96C141.26 172.226 141.862 172.416 142.393 172.709C143.466 173.304 144.105 174.253 144.565 175.072C145.024 175.906 145.338 176.661 145.617 177.266C145.886 177.867 146.096 178.337 146.244 178.668C146.31 178.822 146.363 178.943 146.402 179.035C146.435 179.119 146.452 179.162 146.449 179.164Z" fill="#455A64"/>
<path d="M139.638 172.471C139.638 172.468 139.677 172.461 139.755 172.451C139.832 172.453 139.956 172.454 140.095 172.526C140.373 172.662 140.686 173.068 140.732 173.659C140.75 173.957 140.677 174.275 140.595 174.616C140.515 174.955 140.411 175.325 140.43 175.724C140.449 176.123 140.633 176.522 140.881 176.905C141.129 177.291 141.446 177.669 141.701 178.128C141.964 178.573 142.091 179.191 141.861 179.738C141.657 180.283 141.261 180.738 141.067 181.292C140.867 181.846 140.985 182.476 141.242 183.052C141.491 183.637 141.847 184.203 142.092 184.853C142.216 185.176 142.299 185.529 142.298 185.891C142.297 186.254 142.206 186.617 142.056 186.95C141.748 187.618 141.258 188.174 140.84 188.774C140.421 189.365 140.07 190.059 140.165 190.8C140.247 191.539 140.663 192.215 140.939 192.958C141.077 193.331 141.18 193.728 141.177 194.134C141.171 194.539 141.056 194.934 140.877 195.284C140.515 195.987 139.973 196.534 139.498 197.094C139.018 197.651 138.587 198.231 138.38 198.905C138.151 199.568 138.033 200.269 137.717 200.897C137.56 201.208 137.344 201.496 137.067 201.706C136.791 201.92 136.469 202.04 136.163 202.142C135.855 202.243 135.551 202.329 135.276 202.458C135.004 202.593 134.755 202.761 134.537 202.961C134.104 203.367 133.783 203.855 133.489 204.33C133.195 204.806 132.922 205.275 132.616 205.695C132.009 206.547 131.175 207.09 130.388 207.335C129.6 207.591 128.871 207.615 128.298 207.536C127.722 207.457 127.295 207.298 127.023 207.164C126.751 207.027 126.621 206.933 126.621 206.933C126.633 206.893 127.164 207.32 128.307 207.461C128.871 207.528 129.586 207.492 130.353 207.233C131.12 206.982 131.919 206.451 132.505 205.615C132.802 205.2 133.069 204.734 133.361 204.252C133.653 203.772 133.977 203.271 134.427 202.843C134.654 202.632 134.917 202.451 135.205 202.307C135.496 202.169 135.806 202.08 136.109 201.979C136.411 201.877 136.712 201.762 136.961 201.566C137.212 201.373 137.409 201.11 137.557 200.815C137.856 200.221 137.973 199.526 138.204 198.844C138.416 198.144 138.871 197.528 139.353 196.969C139.833 196.405 140.364 195.861 140.704 195.196C140.872 194.865 140.976 194.502 140.982 194.13C140.985 193.758 140.89 193.386 140.756 193.025C140.491 192.303 140.063 191.619 139.972 190.82C139.924 190.425 139.99 190.021 140.129 189.659C140.268 189.295 140.471 188.969 140.684 188.663C141.112 188.053 141.595 187.503 141.887 186.871C142.03 186.556 142.113 186.222 142.116 185.888C142.118 185.554 142.043 185.224 141.925 184.912C141.692 184.285 141.34 183.718 141.086 183.116C140.824 182.526 140.694 181.837 140.916 181.235C141.131 180.643 141.529 180.192 141.721 179.681C141.935 179.173 141.828 178.626 141.58 178.189C141.339 177.745 141.027 177.363 140.777 176.968C140.528 176.575 140.337 176.151 140.322 175.725C140.308 175.302 140.421 174.927 140.506 174.59C140.593 174.253 140.669 173.94 140.657 173.66C140.625 173.094 140.334 172.696 140.077 172.557C139.809 172.421 139.635 172.49 139.638 172.471Z" fill="#455A64"/>
<path d="M115.21 193.198C115.387 192.77 115.878 192.565 116.312 192.724C117.648 193.214 118.984 193.704 120.32 194.194L120.766 194.357C120.574 195.063 120.269 196.085 119.879 196.704C119.489 197.323 118.871 197.841 118.145 197.929C117.599 197.995 116.923 197.8 116.457 197.508C115.642 196.997 114.863 196.432 114.683 195.487C114.556 194.817 114.948 193.828 115.21 193.198Z" fill="#6F4439"/>
<path d="M93.4431 193.138C93.4431 193.138 93.0561 193.253 92.4861 193.692C91.9281 194.122 91.1941 194.966 90.9341 196.247C90.7971 196.878 90.7941 197.605 90.9851 198.346C91.1881 199.08 91.5751 199.821 92.1561 200.452C92.7291 201.087 93.4921 201.617 94.3801 201.914C95.2661 202.217 96.2791 202.246 97.2331 201.975C98.1871 201.708 99.0431 201.181 99.6721 200.488C100.308 199.798 100.695 198.94 100.835 198.094C101.11 196.384 100.48 194.804 99.5761 193.886C99.1131 193.422 98.5871 193.146 98.1201 192.947C97.6491 192.75 97.2141 192.656 96.8571 192.618C96.4991 192.583 96.2181 192.606 96.0331 192.647C95.8491 192.689 95.7581 192.729 95.7601 192.734C95.7641 192.763 96.1471 192.61 96.8461 192.712C97.1921 192.763 97.6121 192.868 98.0661 193.072C98.5161 193.276 99.0221 193.56 99.4511 194.005C100.302 194.899 100.888 196.424 100.612 198.055C100.472 198.862 100.102 199.669 99.4951 200.324C98.8951 200.981 98.0771 201.483 97.1671 201.738C96.2571 201.995 95.2991 201.969 94.4561 201.685C93.6101 201.406 92.8761 200.903 92.3231 200.299C91.7611 199.699 91.3851 198.992 91.1811 198.292C90.9911 197.588 90.9831 196.891 91.1041 196.281C91.3331 195.043 92.0191 194.209 92.5471 193.765C93.0851 193.313 93.4571 193.164 93.4431 193.138Z" fill="#E0E0E0"/>
<path d="M114.657 184.893C114.715 185.625 114.143 186.277 113.38 186.351C112.618 186.425 111.953 185.894 111.895 185.162C111.838 184.43 112.41 183.777 113.171 183.703C113.933 183.629 114.599 184.161 114.657 184.893Z" fill="#263238"/>
<path d="M128.005 184.549C128.063 185.281 127.491 185.933 126.727 186.007C125.965 186.081 125.3 185.55 125.242 184.818C125.185 184.086 125.757 183.433 126.518 183.359C127.282 183.285 127.948 183.817 128.005 184.549Z" fill="#263238"/>
<path d="M127.439 179.438C127.306 179.647 126.244 178.926 124.881 179.078C123.517 179.207 122.616 180.132 122.445 179.953C122.362 179.875 122.48 179.511 122.87 179.095C123.254 178.681 123.942 178.245 124.791 178.157C125.641 178.07 126.4 178.356 126.856 178.683C127.321 179.011 127.506 179.344 127.439 179.438Z" fill="#263238"/>
<path d="M114.412 180.559C114.225 180.773 113.057 179.865 111.417 179.88C109.778 179.87 108.585 180.782 108.404 180.568C108.316 180.473 108.501 180.088 109.023 179.675C109.534 179.264 110.409 178.862 111.431 178.86C112.453 178.86 113.318 179.258 113.817 179.667C114.326 180.079 114.503 180.464 114.412 180.559Z" fill="#263238"/>
<path d="M119.056 197.43C119.068 197.443 118.942 197.604 118.617 197.755C118.295 197.909 117.759 197.999 117.129 197.879C116.506 197.752 115.786 197.441 115.17 196.839C114.861 196.542 114.607 196.122 114.501 195.654C114.393 195.184 114.426 194.684 114.542 194.21C114.657 193.733 114.843 193.3 115.047 192.896C115.155 192.692 115.317 192.437 115.629 192.351C115.939 192.282 116.171 192.403 116.353 192.469C117.062 192.755 117.727 193.024 118.342 193.272C119.47 193.741 120.157 194.06 120.136 194.116C120.115 194.172 119.39 193.955 118.234 193.559C117.609 193.337 116.933 193.098 116.212 192.842C115.804 192.671 115.614 192.695 115.425 193.089C115.239 193.47 115.066 193.881 114.963 194.311C114.731 195.172 114.912 196.029 115.457 196.561C115.984 197.107 116.638 197.43 117.197 197.58C117.763 197.725 118.246 197.691 118.559 197.596C118.875 197.506 119.033 197.396 119.056 197.43Z" fill="#263238"/>
<path d="M145.78 152.759C145.746 152.806 145.245 152.231 144.033 151.748C143.43 151.521 142.648 151.32 141.732 151.34C140.823 151.35 139.772 151.579 138.804 152.184L138.664 152.271L138.58 152.127C137.961 151.062 136.81 150.154 135.375 149.773C133.962 149.386 132.227 149.513 130.876 150.485L130.708 150.606L130.587 150.44C129.383 148.792 127.385 147.503 125.117 147.125C123.374 146.826 121.61 147.15 120.135 147.876C118.655 148.599 117.457 149.708 116.67 150.951L116.614 151.039L116.51 151.043C114.56 151.118 112.788 151.616 111.349 152.323C109.893 153.008 108.763 153.881 107.912 154.672C106.216 156.286 105.626 157.556 105.56 157.509C105.551 157.504 105.585 157.426 105.662 157.28C105.742 157.136 105.849 156.914 106.021 156.646C106.36 156.107 106.908 155.342 107.749 154.504C108.591 153.674 109.727 152.757 111.206 152.031C112.668 151.284 114.484 150.747 116.497 150.652L116.338 150.744C117.153 149.432 118.4 148.262 119.948 147.497C121.489 146.729 123.351 146.383 125.187 146.697C127.572 147.095 129.661 148.452 130.921 150.194L130.632 150.149C132.119 149.093 133.979 148.983 135.475 149.409C136.995 149.83 138.214 150.814 138.857 151.968L138.634 151.911C139.674 151.286 140.783 151.071 141.73 151.084C142.684 151.088 143.487 151.322 144.098 151.582C144.711 151.848 145.133 152.157 145.403 152.378C145.667 152.614 145.79 152.75 145.78 152.759Z" fill="#263238"/>
<path d="M102.428 150.528C102.428 150.528 101.907 150.844 100.83 150.912C99.7869 150.977 98.0949 150.744 96.6229 149.405C95.9069 148.74 95.3069 147.781 95.0619 146.641C94.8149 145.51 94.8799 144.205 95.4159 142.991C95.9419 141.776 97.0089 140.719 98.3539 140.177C99.6889 139.625 101.303 139.537 102.755 140.14L102.506 140.201C103.088 139.498 103.967 139.003 104.914 138.828C105.697 138.676 106.512 138.749 107.245 139.027C107.977 139.316 108.599 139.835 109.017 140.464C109.861 141.719 109.997 143.353 109.382 144.621L109.094 144.361C110.147 143.731 111.424 143.825 112.389 144.294C113.379 144.753 114.081 145.647 114.334 146.583C114.869 148.485 114.065 150.257 113.06 151.182C112.044 152.147 110.952 152.49 110.237 152.645C109.873 152.723 109.587 152.746 109.395 152.757C109.202 152.762 109.103 152.759 109.102 152.748C109.099 152.714 109.501 152.706 110.206 152.517C110.897 152.326 111.943 151.951 112.885 151.006C113.817 150.106 114.525 148.423 114.007 146.682C113.76 145.825 113.128 145.045 112.227 144.634C111.347 144.217 110.204 144.156 109.305 144.705L108.721 145.062L109.017 144.445C109.557 143.319 109.43 141.829 108.664 140.703C108.284 140.138 107.736 139.685 107.087 139.428C106.435 139.183 105.7 139.115 104.993 139.253C104.137 139.411 103.35 139.857 102.836 140.475L102.734 140.597L102.587 140.535C101.259 139.979 99.7559 140.051 98.5099 140.559C97.2519 141.059 96.2659 142.022 95.7659 143.146C95.2549 144.27 95.1779 145.499 95.3959 146.567C95.6119 147.645 96.1569 148.549 96.8209 149.192C98.1879 150.489 99.8079 150.768 100.823 150.751C101.872 150.738 102.416 150.48 102.428 150.528Z" fill="#263238"/>
<path d="M72.0145 167.157C72.0035 167.162 71.9615 167.079 71.8895 166.915C71.8165 166.752 71.7285 166.502 71.6435 166.168C71.4775 165.506 71.3315 164.481 71.5725 163.228C71.8085 161.993 72.4625 160.498 73.8095 159.36C75.1265 158.231 77.0955 157.469 79.2045 157.718L78.9925 157.833C79.8045 156.134 81.3365 154.597 83.2975 153.77C84.7535 153.153 86.3405 153.015 87.7855 153.251C89.2335 153.49 90.5485 154.086 91.5835 154.896L91.3695 154.879C92.9025 154.068 94.5145 153.757 95.9215 153.794C97.3355 153.804 98.5485 154.137 99.4865 154.52C100.427 154.911 101.099 155.361 101.527 155.698C101.949 156.045 102.151 156.257 102.139 156.269C102.094 156.337 101.266 155.452 99.4005 154.738C98.4735 154.396 97.2885 154.102 95.9205 154.119C94.5585 154.109 93.0135 154.434 91.5585 155.222L91.4455 155.283L91.3435 155.205C90.3525 154.447 89.0975 153.889 87.7185 153.668C86.3415 153.451 84.8425 153.586 83.4645 154.17C81.6065 154.954 80.1445 156.411 79.3645 158.015L79.2995 158.148L79.1515 158.13C77.1785 157.882 75.3015 158.58 74.0355 159.632C72.7435 160.689 72.0895 162.095 71.8255 163.281C71.5575 164.482 71.6585 165.481 71.7785 166.138C71.9075 166.8 72.0455 167.145 72.0145 167.157Z" fill="#263238"/>
<path d="M185.907 285.737L182.305 280.292L176.523 277.391L176.306 277.233C174.415 275.858 172.006 275.413 169.747 276.014C167.393 276.64 164.251 277.421 161.525 277.886L155.301 276.184V288.329L186.69 286.346L185.907 285.737Z" fill="#AE7461"/>
<path d="M185.69 285.408C185.723 285.366 185.214 284.905 184.364 284.196C183.514 283.486 182.324 282.527 180.994 281.487C180.562 281.152 180.145 280.829 179.749 280.521L179.712 280.492L179.669 280.484C178.382 280.242 177.264 280.047 176.466 279.924C175.667 279.801 175.188 279.749 175.18 279.793C175.171 279.837 175.634 279.971 176.42 280.159C177.206 280.347 178.315 280.59 179.597 280.854L179.517 280.818C179.911 281.129 180.325 281.456 180.754 281.794C182.083 282.834 183.301 283.759 184.194 284.413C185.087 285.067 185.656 285.45 185.69 285.408Z" fill="#6F4439"/>
<path d="M183.242 286.467C183.294 286.373 181.273 285.153 178.727 283.742C178.347 283.534 177.979 283.332 177.626 283.138L177.588 283.117L177.547 283.115C175.242 282.988 173.534 282.956 173.529 283.047C173.523 283.138 175.221 283.324 177.523 283.493L177.443 283.47C177.795 283.667 178.16 283.872 178.538 284.083C181.083 285.494 183.189 286.562 183.242 286.467Z" fill="#6F4439"/>
<path d="M222.442 251.378C221.391 250.787 220.064 251.072 219.347 252.042L194.067 286.281L154.065 286.823C152.467 286.918 150.529 290.147 151.961 291.71L197.133 291.093L223.211 254.858C224.044 253.701 223.685 252.077 222.442 251.378Z" fill="#E0E0E0"/>
<path d="M101.264 211.724C99.1072 211.964 96.0992 213.353 94.5412 214.863C91.9992 217.326 90.1532 220.7 89.1602 223.679C87.8252 227.685 88.4232 243.491 88.4232 248.07C88.4232 252.649 89.5872 269.849 90.1632 272.71C90.7392 275.572 89.7912 279.826 88.4642 282.594C86.0852 287.559 89.7952 290.103 89.7952 290.103L138.882 289.735L138.685 287.904C138.348 284.714 139.535 281.465 138.321 278.496C137.049 275.387 135.623 270.475 136.063 264.741C136.69 256.564 139.133 250.982 137.633 246.238C135.344 239.001 127.785 222.542 118.651 215.513C118.651 215.513 111.449 213.971 109.82 213.4C106.115 212.102 104.153 211.402 101.264 211.724Z" fill="#F6583E"/>
<path d="M158.978 274.774L117.041 266.019L115.96 229.61C115.96 229.61 114.493 214.778 107.059 213.4L89.1621 235.68C90.1621 246.91 89.2511 268.156 94.4111 276.351C99.5711 284.546 104.59 291.112 117.297 290.529C130.004 289.946 158.012 289.679 158.012 289.679L158.978 274.774Z" fill="#F6583E"/>
<path d="M117.123 266.16C117.223 266.239 116.217 267.551 115.371 269.381C114.511 271.205 114.152 272.818 114.027 272.793C113.921 272.783 114.1 271.085 114.986 269.201C115.86 267.314 117.046 266.086 117.123 266.16Z" fill="#263238"/>
<g opacity="0.3">
<path d="M115.67 228.055C119.858 240.926 118.949 260.77 126.937 268.086L117.04 266.02C117.04 266.02 117.373 262.201 117.123 259.029C116.32 248.852 116.223 238.504 115.67 228.055Z" fill="black"/>
</g>
<path d="M114.74 223.462C114.74 223.462 115.09 224.448 115.475 226.383C115.666 227.35 115.855 228.556 115.986 229.986C116.123 231.418 116.144 233.072 116.214 234.924C116.452 242.353 116.794 253.016 117.211 266.013L117.076 265.852C129.096 268.35 143.427 271.329 159.021 274.57L159.198 274.607L159.186 274.788C158.878 279.558 158.553 284.577 158.223 289.692L158.21 289.888L158.013 289.89C156.397 289.908 154.661 289.928 152.914 289.948C145.626 290.039 138.51 290.149 131.639 290.298C128.204 290.371 124.829 290.459 121.526 290.568C118.236 290.652 114.97 290.963 111.808 290.467C110.227 290.271 108.707 289.82 107.248 289.293C105.816 288.691 104.441 287.991 103.223 287.093C100.754 285.338 98.8372 283.071 97.1732 280.808C96.3562 279.66 95.5822 278.513 94.8562 277.366L94.3132 276.512C94.1432 276.22 93.9922 275.916 93.8312 275.621C93.6732 275.324 93.5162 275.029 93.3602 274.734C93.2392 274.425 93.1192 274.118 92.9992 273.812C92.0502 271.363 91.5002 268.896 91.1252 266.535C90.3412 261.81 90.1042 257.482 89.8982 253.694C89.7102 249.902 89.6252 246.635 89.5312 243.966C89.4472 241.297 89.3502 239.226 89.2782 237.822C89.2352 237.131 89.2022 236.6 89.1792 236.226C89.1592 235.866 89.1602 235.681 89.1602 235.681C89.1602 235.681 89.1882 235.864 89.2232 236.223C89.2562 236.597 89.3032 237.127 89.3642 237.817C89.4642 239.22 89.5872 241.292 89.6972 243.96C89.8162 246.629 89.9252 249.895 90.1362 253.682C90.3652 257.464 90.6242 261.786 91.4222 266.485C91.8032 268.834 92.3612 271.282 93.3042 273.691C93.4222 273.992 93.5422 274.294 93.6622 274.598C93.8162 274.885 93.9702 275.173 94.1252 275.462C94.2832 275.75 94.4302 276.045 94.5982 276.332L95.1432 277.183C95.8702 278.324 96.6442 279.463 97.4582 280.601C99.1162 282.844 101.014 285.074 103.44 286.789C104.637 287.667 105.985 288.349 107.388 288.936C108.819 289.449 110.309 289.889 111.866 290.079C114.969 290.563 118.205 290.252 121.513 290.162C124.818 290.049 128.194 289.957 131.63 289.881C138.503 289.727 145.619 289.613 152.909 289.522C154.656 289.502 156.393 289.483 158.009 289.465L157.799 289.663C158.132 284.548 158.459 279.529 158.77 274.759L158.935 274.976C143.347 271.707 129.022 268.703 117.006 266.183L116.874 266.155L116.87 266.021C116.515 253.022 116.223 242.358 116.02 234.928C115.965 233.073 115.959 231.422 115.837 229.996C115.722 228.569 115.549 227.366 115.375 226.399C115.202 225.431 115.032 224.698 114.913 224.206C114.855 223.969 114.811 223.786 114.778 223.649C114.749 223.527 114.736 223.464 114.74 223.462Z" fill="#263238"/>
<path d="M182.054 364.136L175.828 410.008L192.116 412.678L203.704 371.975L182.054 364.136Z" fill="#AE7461"/>
<path d="M132.666 293.652C132.666 293.652 192.203 289.735 204.562 291.706C212.033 292.897 218.472 304.571 214.401 311.586C212.474 314.906 209.44 325.247 209.44 325.247L177.44 317.95L132.666 293.652Z" fill="#455A64"/>
<path d="M177.44 325.248L164.549 344.916L179.72 354.745L196.177 329.521L177.44 325.248Z" fill="#AE7461"/>
<path d="M90.9723 290.051C90.9723 290.051 84.6793 317.779 94.8353 328.682C102.067 336.446 119.819 335.627 134.798 335.627C149.974 335.627 185.013 334.804 185.013 334.804C185.013 334.804 183.421 344.556 182.257 355.655C181.09 366.783 180.853 373.769 180.853 373.769L203.18 375.631C203.18 375.631 215.619 337.768 217.534 330.271C219.446 322.784 218.8 312.701 212.184 308.964C206.578 305.797 162.355 293.536 141.184 291.712L138.885 289.737L90.9723 290.051Z" fill="#455A64"/>
<path d="M195.934 325.686C195.946 325.763 195.07 325.886 193.745 326.36C193.081 326.591 192.32 326.943 191.512 327.397C190.714 327.869 189.877 328.453 189.078 329.164C188.288 329.886 187.62 330.659 187.069 331.404C186.534 332.16 186.106 332.882 185.808 333.518C185.199 334.786 184.988 335.646 184.912 335.626C184.883 335.619 184.917 335.401 185.003 335.009C185.08 334.615 185.259 334.059 185.534 333.395C185.804 332.727 186.216 331.97 186.749 331.179C187.298 330.4 187.979 329.594 188.793 328.85C189.617 328.117 190.488 327.523 191.32 327.057C192.162 326.608 192.957 326.276 193.649 326.077C194.338 325.871 194.909 325.751 195.309 325.714C195.709 325.667 195.93 325.657 195.934 325.686Z" fill="#263238"/>
<path d="M193.281 302.822C193.18 302.769 193.648 301.697 194.457 300.511C195.264 299.323 196.09 298.495 196.176 298.57C196.268 298.647 195.6 299.583 194.808 300.75C194.012 301.915 193.386 302.879 193.281 302.822Z" fill="#263238"/>
<path d="M218.472 319.731C218.465 319.732 218.443 319.66 218.406 319.517C218.366 319.35 218.317 319.141 218.255 318.882C218.122 318.325 217.916 317.504 217.583 316.47C217.247 315.439 216.77 314.189 215.996 312.861C215.221 311.557 214.116 310.098 212.395 309.237C208.864 307.633 204.469 306.104 199.527 304.664C194.59 303.187 189.145 301.622 183.396 300.102C171.898 297.049 161.345 294.863 153.657 293.588C149.815 292.939 146.692 292.495 144.533 292.194C143.478 292.051 142.646 291.938 142.046 291.856C141.782 291.816 141.57 291.783 141.4 291.758C141.255 291.733 141.181 291.717 141.182 291.71C141.183 291.703 141.258 291.705 141.405 291.715C141.576 291.73 141.79 291.748 142.056 291.772C142.659 291.834 143.494 291.921 144.554 292.031C146.721 292.281 149.853 292.68 153.706 293.292C161.415 294.492 171.994 296.634 183.505 299.691C189.259 301.213 194.706 302.79 199.64 304.289C204.587 305.754 208.976 307.311 212.53 308.968C214.323 309.89 215.432 311.405 216.201 312.741C216.968 314.103 217.426 315.373 217.74 316.419C218.051 317.468 218.232 318.298 218.338 318.863C218.383 319.126 218.419 319.338 218.448 319.508C218.471 319.654 218.479 319.729 218.472 319.731Z" fill="#263238"/>
<path d="M193.383 411.489L193.926 409.5C187.012 408.776 180.844 406.212 175.949 401.752L170.43 413.683L207.236 430.048C208.625 426.529 193.383 411.489 193.383 411.489Z" fill="#263238"/>
<path d="M170.428 413.683L171.776 410.769L206.633 427.584C206.633 427.584 207.946 429.007 207.234 430.048L170.428 413.683Z" fill="#E0E0E0"/>
<path d="M192.889 411.258C192.801 411.431 191.865 411.11 190.717 411.28C189.564 411.42 188.753 411.976 188.62 411.833C188.47 411.725 189.229 410.798 190.623 410.617C192.015 410.423 193.004 411.115 192.889 411.258Z" fill="#E0E0E0"/>
<path d="M178.567 409.979C178.314 410.494 177.68 410.712 177.151 410.466C176.622 410.22 176.398 409.602 176.651 409.087C176.904 408.572 177.538 408.354 178.067 408.6C178.596 408.847 178.82 409.464 178.567 409.979Z" fill="#E0E0E0"/>
<path d="M192.669 411.013C192.659 411.045 192.362 411.001 191.835 410.861C191.324 410.707 190.504 410.492 189.769 409.76C189.589 409.579 189.425 409.365 189.287 409.126C189.148 408.891 189.007 408.625 188.978 408.279C188.93 407.93 189.184 407.5 189.555 407.37C189.915 407.211 190.344 407.271 190.671 407.42C191.94 408.027 192.916 409.41 192.947 411.011L192.404 410.933C192.492 410.66 192.614 410.377 192.767 410.107C193.597 408.612 195.278 407.808 196.757 407.851C196.943 407.855 197.158 407.864 197.375 407.972C197.595 408.078 197.755 408.304 197.793 408.517C197.871 408.942 197.715 409.299 197.528 409.58C197.151 410.137 196.618 410.488 196.118 410.712C195.088 411.17 194.17 411.081 193.592 411.089C192.997 411.071 192.672 411.049 192.669 411.013C192.666 410.975 192.995 410.925 193.585 410.878C194.166 410.808 195.048 410.824 195.946 410.367C196.391 410.143 196.842 409.812 197.138 409.339C197.284 409.118 197.366 408.837 197.316 408.621C197.27 408.415 197.096 408.346 196.755 408.351C195.443 408.342 193.984 409.058 193.254 410.371C193.119 410.607 193.012 410.855 192.934 411.094C192.889 411.237 192.733 411.316 192.587 411.272C192.469 411.237 192.393 411.129 192.391 411.015C192.383 409.639 191.509 408.388 190.462 407.862C189.964 407.595 189.381 407.825 189.426 408.258C189.465 408.704 189.77 409.186 190.051 409.511C190.659 410.189 191.419 410.463 191.903 410.669C192.401 410.867 192.68 410.977 192.669 411.013Z" fill="#E0E0E0"/>
<path d="M195.714 413.812C195.683 413.935 194.582 413.645 193.28 413.983C191.97 414.295 191.134 415.066 191.049 414.972C190.953 414.916 191.734 413.921 193.178 413.571C194.617 413.204 195.773 413.718 195.714 413.812Z" fill="#E0E0E0"/>
<path d="M197.766 416.148C197.756 416.273 196.758 416.243 195.61 416.591C194.457 416.924 193.637 417.493 193.56 417.394C193.481 417.317 194.242 416.548 195.489 416.184C196.733 415.81 197.79 416.041 197.766 416.148Z" fill="#E0E0E0"/>
<path d="M182.604 352.53L183.474 350.661C176.781 348.783 171.132 345.218 167.058 339.997L159.609 350.828L193.134 373.156C195.097 369.921 182.604 352.53 182.604 352.53Z" fill="#263238"/>
<path d="M159.609 350.828L161.429 348.182L192.957 370.625C192.957 370.625 194.012 372.249 193.134 373.155L159.609 350.828Z" fill="#E0E0E0"/>
<path d="M182.159 352.219C182.043 352.374 181.175 351.901 180.014 351.875C178.854 351.819 177.961 352.23 177.854 352.067C177.724 351.936 178.628 351.15 180.033 351.205C181.438 351.249 182.296 352.097 182.159 352.219Z" fill="white"/>
<path d="M168.257 348.548C167.921 349.013 167.259 349.121 166.779 348.789C166.299 348.457 166.182 347.811 166.519 347.345C166.855 346.88 167.517 346.771 167.997 347.103C168.477 347.436 168.594 348.083 168.257 348.548Z" fill="#E0E0E0"/>
<path d="M181.982 351.941C181.966 351.971 181.682 351.878 181.185 351.65C180.708 351.413 179.935 351.062 179.334 350.217C179.187 350.008 179.062 349.769 178.966 349.511C178.868 349.256 178.775 348.97 178.804 348.624C178.815 348.272 179.138 347.891 179.526 347.825C179.907 347.729 180.32 347.86 180.617 348.062C181.766 348.874 182.495 350.402 182.256 351.985L181.734 351.817C181.867 351.562 182.035 351.304 182.231 351.064C183.301 349.731 185.093 349.221 186.544 349.512C186.726 349.547 186.937 349.593 187.133 349.735C187.332 349.877 187.451 350.126 187.453 350.343C187.459 350.775 187.245 351.101 187.013 351.346C186.547 351.832 185.963 352.087 185.432 352.225C184.34 352.503 183.45 352.26 182.878 352.172C182.296 352.053 181.979 351.977 181.982 351.941C181.986 351.903 182.318 351.909 182.907 351.962C183.492 351.99 184.358 352.155 185.321 351.855C185.797 351.709 186.298 351.459 186.669 351.043C186.85 350.85 186.979 350.587 186.965 350.365C186.955 350.154 186.794 350.057 186.458 350.004C185.166 349.775 183.608 350.235 182.667 351.406C182.494 351.616 182.347 351.843 182.23 352.065C182.161 352.198 181.995 352.251 181.858 352.182C181.748 352.127 181.691 352.009 181.708 351.896C181.931 350.538 181.281 349.158 180.337 348.463C179.891 348.116 179.278 348.244 179.249 348.679C179.212 349.125 179.432 349.651 179.654 350.019C180.139 350.79 180.842 351.188 181.285 351.473C181.743 351.752 182 351.907 181.982 351.941Z" fill="white"/>
<path d="M184.514 355.213C184.463 355.329 183.427 354.858 182.086 354.971C180.743 355.058 179.788 355.677 179.72 355.57C179.635 355.498 180.572 354.649 182.054 354.547C183.534 354.429 184.588 355.129 184.514 355.213Z" fill="white"/>
<path d="M186.142 357.861C186.111 357.982 185.133 357.784 183.942 357.935C182.749 358.069 181.845 358.492 181.786 358.381C181.722 358.292 182.6 357.662 183.891 357.513C185.181 357.353 186.184 357.759 186.142 357.861Z" fill="white"/>
</svg>
