<svg width="750" height="500" viewBox="0 0 750 500" fill="none" xmlns="http://www.w3.org/2000/svg">
    <path d="M176.393 79.595H24.0957V181.567H176.393V79.595Z" fill="white"/>
    <path d="M176.392 181.567C176.392 181.567 176.376 180.929 176.368 179.712C176.363 178.487 176.354 176.685 176.344 174.332C176.331 169.612 176.312 162.689 176.289 153.824C176.262 136.108 176.222 110.642 176.174 79.595L176.392 79.813C134.426 79.828 81.4853 79.847 24.1073 79.868H24.0953L24.3683 79.595C24.3603 115.923 24.3523 150.468 24.3453 181.567L24.0953 181.317C68.9283 181.367 106.969 181.41 133.815 181.44C147.249 181.469 157.878 181.492 165.162 181.507C168.799 181.52 171.598 181.53 173.5 181.537C174.442 181.543 175.159 181.548 175.653 181.552C176.138 181.557 176.392 181.567 176.392 181.567C176.392 181.567 176.158 181.577 175.682 181.582C175.195 181.585 174.487 181.59 173.557 181.597C171.666 181.604 168.884 181.614 165.269 181.627C157.999 181.643 147.388 181.665 133.979 181.694C107.093 181.724 68.9953 181.767 24.0953 181.817H23.8453V181.567C23.8383 150.468 23.8303 115.923 23.8223 79.595V79.322H24.0953H24.1073C81.4853 79.343 134.426 79.362 176.392 79.377H176.61V79.595C176.562 110.698 176.523 136.21 176.495 153.959C176.471 162.803 176.452 169.71 176.439 174.418C176.428 176.754 176.42 178.541 176.415 179.757C176.407 180.96 176.392 181.567 176.392 181.567Z" fill="#E0E0E0"/>
    <path d="M24.0957 88.695C24.0957 88.544 58.1627 88.422 100.178 88.422C142.207 88.422 176.267 88.544 176.267 88.695C176.267 88.846 142.207 88.968 100.178 88.968C58.1627 88.967 24.0957 88.845 24.0957 88.695Z" fill="#E0E0E0"/>
    <g opacity="0.3">
        <path d="M30.1041 84.104C30.1041 84.778 29.5581 85.325 28.8831 85.325C28.2091 85.325 27.6621 84.779 27.6621 84.104C27.6621 83.43 28.2091 82.884 28.8831 82.884C29.5581 82.883 30.1041 83.43 30.1041 84.104Z" fill="#E0E0E0"/>
    </g>
    <g opacity="0.3">
        <path d="M34.2877 84.104C34.2877 84.778 33.7407 85.325 33.0667 85.325C32.3927 85.325 31.8457 84.779 31.8457 84.104C31.8457 83.43 32.3927 82.884 33.0667 82.884C33.7407 82.884 34.2877 83.43 34.2877 84.104Z" fill="#E0E0E0"/>
    </g>
    <g opacity="0.3">
        <path d="M38.4098 84.104C38.4098 84.778 37.8628 85.325 37.1898 85.325C36.5158 85.325 35.9688 84.779 35.9688 84.104C35.9688 83.43 36.5158 82.884 37.1898 82.884C37.8638 82.883 38.4098 83.43 38.4098 84.104Z" fill="#E0E0E0"/>
    </g>
    <path d="M77.8125 99.329H37.1875V139.954H77.8125V99.329Z" fill="#E0E0E0"/>
    <path d="M155.507 110.812C155.507 110.963 139.663 111.085 120.122 111.085C100.575 111.085 84.7344 110.963 84.7344 110.812C84.7344 110.661 100.575 110.539 120.122 110.539C139.662 110.538 155.507 110.661 155.507 110.812Z" fill="#E0E0E0"/>
    <path d="M155.507 118.361C155.507 118.512 139.663 118.634 120.122 118.634C100.575 118.634 84.7344 118.512 84.7344 118.361C84.7344 118.21 100.575 118.088 120.122 118.088C139.662 118.088 155.507 118.21 155.507 118.361Z" fill="#E0E0E0"/>
    <path d="M155.507 125.91C155.507 126.061 139.663 126.183 120.122 126.183C100.575 126.183 84.7344 126.061 84.7344 125.91C84.7344 125.759 100.575 125.637 120.122 125.637C139.662 125.637 155.507 125.759 155.507 125.91Z" fill="#E0E0E0"/>
    <path d="M126.562 133.46C126.562 133.498 125.977 133.534 124.918 133.566C123.762 133.588 122.254 133.617 120.436 133.653C116.651 133.702 111.423 133.733 105.649 133.733C99.8734 133.733 94.6444 133.702 90.8594 133.653C89.0414 133.618 87.5334 133.589 86.3774 133.566C85.3194 133.533 84.7344 133.497 84.7344 133.46C84.7344 133.422 85.3194 133.387 86.3774 133.354C87.5334 133.332 89.0414 133.303 90.8594 133.267C94.6444 133.218 99.8724 133.187 105.649 133.187C111.423 133.187 116.652 133.217 120.436 133.267C122.254 133.302 123.762 133.331 124.918 133.354C125.976 133.386 126.562 133.422 126.562 133.46Z" fill="#E0E0E0"/>
    <path d="M58.8225 153.651H39.7305V172.743H58.8225V153.651Z" fill="#E0E0E0"/>
    <path d="M93.4455 153.651H74.3535V172.743H93.4455V153.651Z" fill="#E0E0E0"/>
    <path d="M128.069 153.651H108.977V172.743H128.069V153.651Z" fill="#E0E0E0"/>
    <path d="M162.694 153.651H143.602V172.743H162.694V153.651Z" fill="#E0E0E0"/>
    <path d="M330.054 30.043H198.865V83.33H330.054V30.043Z" fill="white"/>
    <path d="M330.055 83.33C330.055 83.33 330.045 83.003 330.04 82.378C330.036 81.747 330.031 80.823 330.024 79.613C330.016 77.182 330.003 73.61 329.988 69.008C329.969 59.811 329.942 46.507 329.909 30.042L330.055 30.188C296.682 30.204 250.227 30.226 198.875 30.25H198.866L199.074 30.042C199.071 48.702 199.068 66.715 199.065 83.329L198.866 83.13C236.879 83.168 269.649 83.201 292.926 83.224C304.574 83.248 313.844 83.266 320.212 83.279C323.393 83.29 325.846 83.299 327.515 83.304C328.342 83.309 328.972 83.313 329.406 83.316C329.832 83.322 330.055 83.33 330.055 83.33C330.055 83.33 329.848 83.338 329.43 83.342C329.002 83.345 328.379 83.349 327.563 83.354C325.904 83.36 323.464 83.368 320.302 83.379C313.944 83.392 304.69 83.411 293.061 83.434C269.75 83.457 236.933 83.49 198.866 83.528H198.667V83.33C198.664 66.716 198.661 48.704 198.658 30.043V29.835H198.866H198.875C250.228 29.859 296.683 29.881 330.055 29.897H330.201V30.043C330.168 46.545 330.141 59.879 330.122 69.097C330.106 73.684 330.094 77.245 330.086 79.669C330.079 80.867 330.074 81.782 330.07 82.407C330.065 83.022 330.055 83.33 330.055 83.33Z" fill="#E0E0E0"/>
    <path d="M198.998 37.229C198.998 37.114 228.322 37.021 264.485 37.021C300.662 37.021 329.979 37.114 329.979 37.229C329.979 37.344 300.662 37.437 264.485 37.437C228.322 37.437 198.998 37.344 198.998 37.229Z" fill="#E0E0E0"/>
    <g opacity="0.3">
        <path d="M204.49 34.015C204.49 34.541 204.064 34.967 203.538 34.967C203.012 34.967 202.586 34.541 202.586 34.015C202.586 33.489 203.012 33.063 203.538 33.063C204.064 33.063 204.49 33.489 204.49 34.015Z" fill="#EBEBEB"/>
    </g>
    <g opacity="0.3">
        <path d="M207.754 34.015C207.754 34.541 207.328 34.967 206.802 34.967C206.276 34.967 205.85 34.541 205.85 34.015C205.85 33.489 206.276 33.063 206.802 33.063C207.328 33.063 207.754 33.489 207.754 34.015Z" fill="#EBEBEB"/>
    </g>
    <g opacity="0.3">
        <path d="M210.016 34.967C210.542 34.967 210.968 34.5408 210.968 34.015C210.968 33.4892 210.542 33.063 210.016 33.063C209.491 33.063 209.064 33.4892 209.064 34.015C209.064 34.5408 209.491 34.967 210.016 34.967Z" fill="#EBEBEB"/>
    </g>
    <path d="M241.703 45.89H210.016V77.577H241.703V45.89Z" fill="#E0E0E0"/>
    <path d="M320.978 54.382C320.978 54.497 304.672 54.59 284.562 54.59C264.445 54.59 248.143 54.497 248.143 54.382C248.143 54.267 264.446 54.174 284.562 54.174C304.672 54.174 320.978 54.267 320.978 54.382Z" fill="#E0E0E0"/>
    <path d="M320.978 60.837C320.978 60.952 304.672 61.045 284.562 61.045C264.445 61.045 248.143 60.952 248.143 60.837C248.143 60.722 264.446 60.629 284.562 60.629C304.672 60.629 320.978 60.722 320.978 60.837Z" fill="#E0E0E0"/>
    <path d="M295.031 67.292C295.031 67.306 294.867 67.32 294.555 67.334C294.198 67.344 293.745 67.357 293.189 67.373C291.947 67.389 290.245 67.412 288.165 67.439C283.873 67.455 278.037 67.476 271.589 67.5C265.139 67.476 259.302 67.455 255.011 67.439C252.931 67.412 251.229 67.389 249.987 67.373C249.431 67.357 248.978 67.344 248.621 67.334C248.309 67.321 248.145 67.306 248.145 67.292C248.145 67.278 248.309 67.264 248.621 67.25C248.978 67.24 249.431 67.227 249.987 67.211C251.229 67.195 252.931 67.172 255.011 67.145C259.303 67.129 265.139 67.108 271.589 67.084C278.037 67.108 283.873 67.129 288.165 67.145C290.245 67.172 291.948 67.195 293.189 67.211C293.745 67.227 294.198 67.24 294.555 67.25C294.867 67.264 295.031 67.278 295.031 67.292Z" fill="#E0E0E0"/>
    <path d="M684.018 101.158C683.994 101.133 684.26 100.834 684.761 100.314C685.345 99.727 686.066 99.003 686.917 98.148C688.753 96.335 691.312 93.855 694.16 91.138L694.225 91.076L694.227 91.442C691.357 88.776 688.781 86.345 686.935 84.569C686.079 83.731 685.354 83.022 684.766 82.446C684.262 81.937 683.994 81.643 684.017 81.618C684.04 81.593 684.353 81.838 684.897 82.303C685.514 82.847 686.275 83.517 687.174 84.309C689.082 86.019 691.696 88.408 694.567 91.074L694.763 91.256L694.57 91.441L694.505 91.503C691.657 94.219 689.059 96.659 687.161 98.406C686.266 99.216 685.509 99.901 684.895 100.457C684.353 100.932 684.042 101.183 684.018 101.158Z" fill="#E0E0E0"/>
    <path d="M661.868 81.618C661.892 81.643 661.626 81.942 661.124 82.462C660.54 83.049 659.819 83.773 658.968 84.628C657.132 86.441 654.573 88.921 651.725 91.638L651.66 91.7L651.658 91.334C654.528 94 657.104 96.43 658.95 98.207C659.806 99.045 660.531 99.754 661.119 100.33C661.623 100.839 661.891 101.133 661.868 101.158C661.845 101.183 661.532 100.938 660.988 100.473C660.371 99.929 659.61 99.259 658.712 98.467C656.804 96.757 654.19 94.368 651.319 91.703L651.123 91.521L651.317 91.336L651.382 91.274C654.23 88.558 656.828 86.118 658.726 84.371C659.621 83.561 660.378 82.876 660.992 82.32C661.533 81.844 661.845 81.593 661.868 81.618Z" fill="#E0E0E0"/>
    <path d="M667.554 105.76C667.424 105.711 669.75 99.176 672.746 91.165C675.744 83.151 678.278 76.696 678.407 76.745C678.536 76.794 676.212 83.328 673.214 91.342C670.218 99.353 667.683 105.809 667.554 105.76Z" fill="#E0E0E0"/>
    <path d="M709.189 119.743C709.189 119.743 709.174 119.363 709.166 118.65C709.16 117.922 709.153 116.872 709.142 115.506C709.13 112.746 709.111 108.724 709.088 103.599C709.062 93.348 709.025 78.699 708.98 61.036L709.188 61.245C688.579 61.257 663.795 61.271 637.145 61.287H637.139L637.389 61.036C637.379 82.258 637.37 102.3 637.362 119.742L637.139 119.518C658.53 119.564 676.513 119.603 689.165 119.63C695.492 119.656 700.483 119.676 703.911 119.69C705.612 119.702 706.922 119.711 707.825 119.717C708.26 119.723 708.595 119.727 708.837 119.73C709.067 119.735 709.189 119.743 709.189 119.743C709.189 119.743 709.084 119.752 708.864 119.756C708.627 119.759 708.301 119.763 707.877 119.769C706.984 119.775 705.689 119.784 704.007 119.796C700.59 119.81 695.616 119.83 689.311 119.856C676.624 119.883 658.591 119.922 637.141 119.968H636.918V119.743C636.91 102.301 636.901 82.259 636.891 61.037V60.786H637.141H637.147C663.797 60.801 688.581 60.816 709.19 60.828H709.399L709.398 61.037C709.353 78.754 709.316 93.449 709.29 103.732C709.267 108.836 709.249 112.842 709.236 115.592C709.226 116.941 709.218 117.977 709.212 118.696C709.205 119.395 709.189 119.743 709.189 119.743Z" fill="#E0E0E0"/>
    <path d="M709.753 69.748C709.753 69.887 693.489 69.999 673.432 69.999C653.367 69.999 637.107 69.886 637.107 69.748C637.107 69.609 653.367 69.497 673.432 69.497C693.489 69.496 709.753 69.609 709.753 69.748Z" fill="#E0E0E0"/>
    <path d="M643.02 65.464C643.02 66.002 642.586 66.438 642.05 66.438C641.514 66.438 641.08 66.002 641.08 65.464C641.08 64.926 641.514 64.49 642.05 64.49C642.586 64.49 643.02 64.926 643.02 65.464Z" fill="#E0E0E0"/>
    <path d="M646.555 65.464C646.555 66.002 646.121 66.438 645.585 66.438C645.049 66.438 644.615 66.002 644.615 65.464C644.615 64.926 645.049 64.49 645.585 64.49C646.121 64.49 646.555 64.926 646.555 65.464Z" fill="#E0E0E0"/>
    <path d="M650.092 65.464C650.092 66.002 649.658 66.438 649.122 66.438C648.586 66.438 648.152 66.002 648.152 65.464C648.152 64.926 648.586 64.49 649.122 64.49C649.658 64.49 650.092 64.926 650.092 65.464Z" fill="#E0E0E0"/>
    <path d="M692.589 377.9C696.752 375.752 701.655 375.473 706.277 376.237C708.76 376.647 711.349 377.39 713.039 379.256C714.729 381.121 715.049 384.404 713.109 386.006C711.954 386.96 710.343 387.105 708.846 387.088C705.228 387.046 701.213 386.409 698.322 388.586C696.673 389.828 695.575 391.893 693.603 392.504C691.674 393.102 689.497 391.963 688.474 390.222C687.451 388.481 687.417 386.304 687.894 384.342C687.894 384.342 688.395 380.064 692.589 377.9Z" fill="#EBEBEB"/>
    <path d="M683.051 359.487C685.597 363.123 690.545 361.919 692.839 359.7C695.133 357.48 696.103 354.264 696.985 351.197C699.002 344.188 701.035 336.836 699.536 329.699C699.088 327.565 698.29 325.437 696.79 323.854C695.291 322.271 692.985 321.329 690.877 321.886C688.382 322.545 686.832 324.988 685.711 327.313C682.417 334.145 680.673 341.72 680.647 349.305C680.635 352.847 681.052 356.562 683.051 359.487Z" fill="#EBEBEB"/>
    <path d="M676.06 364.704C678.824 361.423 679.349 356.639 678.119 352.529C676.889 348.419 674.11 344.923 670.908 342.069C667.153 338.723 662.74 336.118 657.995 334.45C656.128 333.794 654.158 333.275 652.188 333.463C650.217 333.651 648.233 334.659 647.314 336.412C645.955 339.004 647.258 342.148 648.667 344.712C651.15 349.231 653.988 353.553 657.148 357.627C659.69 360.904 662.602 364.137 666.476 365.618C670.35 367.099 674.375 366.925 676.428 364.238" fill="#EBEBEB"/>
    <path d="M682.877 414.336C682.925 414.339 683.002 413.75 683.107 412.684C683.224 411.481 683.371 409.971 683.546 408.175C683.756 406.278 684.033 404.02 684.56 401.561C685.085 399.108 685.908 396.45 686.964 393.755C688.058 391.075 689.391 388.64 690.95 386.692C692.497 384.735 694.297 383.319 695.989 382.502C697.675 381.669 699.188 381.331 700.233 381.18C701.287 381.072 701.878 380.989 701.878 380.942C701.878 380.895 701.287 380.887 700.204 380.916C699.131 380.988 697.556 381.259 695.779 382.067C693.996 382.858 692.087 384.296 690.463 386.293C688.826 388.282 687.444 390.771 686.331 393.498C685.256 396.241 684.446 398.926 683.944 401.432C683.443 403.933 683.215 406.216 683.065 408.129C682.922 410.044 682.868 411.594 682.841 412.666C682.819 413.739 682.831 414.333 682.877 414.336Z" fill="#E0E0E0"/>
    <path d="M683.189 410.866C683.212 410.865 683.227 410.601 683.233 410.099C683.231 409.523 683.23 408.797 683.227 407.907C683.222 406.005 683.223 403.251 683.325 399.851C683.493 393.051 684.079 385.733 685.21 375.416C686.281 365.715 687.718 354.424 689.235 347.084C689.56 345.415 689.888 343.912 690.196 342.597C690.49 341.278 690.741 340.142 690.983 339.222C691.191 338.356 691.361 337.651 691.495 337.091C691.605 336.601 691.652 336.341 691.629 336.334C691.606 336.328 691.515 336.575 691.363 337.053C691.196 337.605 690.985 338.3 690.727 339.154C690.445 340.065 690.155 341.195 689.825 342.508C689.481 343.818 689.119 345.317 688.763 346.984C687.262 353.635 685.673 362.932 684.532 373.274C683.399 383.613 682.888 393.026 682.843 399.843C682.803 403.251 682.875 406.01 682.962 407.914C683.016 408.804 683.061 409.529 683.096 410.105C683.134 410.605 683.166 410.867 683.189 410.866Z" fill="#E0E0E0"/>
    <path d="M683.235 392.71C683.282 392.708 683.274 391.895 683.219 390.42C683.135 388.948 682.933 386.821 682.518 384.216C682.078 381.617 681.465 378.53 680.5 375.176C680.082 373.643 679.1 369.969 676.72 364.479C673.585 357.041 669.325 350.96 665.619 347.193C664.75 346.193 663.782 345.472 663.007 344.765C662.606 344.426 662.252 344.088 661.891 343.821C661.528 343.571 661.191 343.338 660.878 343.123C659.658 342.289 658.975 341.849 658.95 341.889C658.84 342.038 661.682 343.71 665.27 347.527C668.843 351.336 672.984 357.375 676.094 364.751C677.828 368.751 679.038 372.32 679.896 375.349C680.887 378.67 681.546 381.725 682.043 384.299C682.516 386.878 682.79 388.984 682.955 390.443C683.09 391.902 683.188 392.711 683.235 392.71Z" fill="#E0E0E0"/>
    <path d="M665.684 424.738L667.504 449.663H699.524L701.344 424.738H665.684Z" fill="#E0E0E0"/>
    <path d="M705.164 414.913H662.592V424.737H705.164V414.913Z" fill="#E0E0E0"/>
    <path d="M662.592 448.709V451.432H664.592H704.461V448.709H662.592Z" fill="#EBEBEB"/>
    <path d="M666.553 456.225L664.592 451.432H702.936L700.648 456.225H666.553Z" fill="#E0E0E0"/>
    <path d="M700.749 432.884C700.756 432.89 700.705 432.968 700.6 433.113C700.473 433.281 700.316 433.49 700.122 433.748C699.667 434.33 699.042 435.13 698.257 436.135L698.174 436.241L698.094 436.13C696.922 434.508 695.355 432.342 693.511 429.792H693.775C692.412 431.722 690.893 433.872 689.263 436.18L689.122 436.38L688.964 436.192C687.299 434.211 685.49 432.059 683.613 429.826L683.922 429.822C683.829 429.939 683.729 430.065 683.628 430.192C681.969 432.273 680.362 434.286 678.843 436.19L678.683 436.39L678.536 436.182C676.912 433.884 675.394 431.736 674.022 429.795L674.285 429.807C672.06 432.342 670.174 434.491 668.726 436.141L668.627 436.253L668.552 436.126C667.819 434.895 667.235 433.913 666.811 433.202C666.629 432.885 666.482 432.628 666.364 432.423C666.266 432.245 666.219 432.151 666.228 432.145C666.236 432.14 666.3 432.224 666.414 432.392C666.544 432.589 666.707 432.836 666.908 433.141C667.353 433.84 667.966 434.803 668.735 436.012L668.561 435.998C669.986 434.328 671.842 432.152 674.031 429.587L674.169 429.425L674.294 429.599C675.678 431.532 677.21 433.669 678.849 435.957L678.542 435.949C680.057 434.042 681.66 432.025 683.315 429.942C683.416 429.815 683.516 429.689 683.609 429.572L683.761 429.381L683.917 429.568C685.789 431.806 687.593 433.962 689.253 435.947L688.953 435.959C690.6 433.662 692.133 431.523 693.51 429.602L693.644 429.416L693.774 429.602C695.579 432.18 697.112 434.37 698.26 436.009L698.097 436.004C698.915 435.024 699.564 434.245 700.037 433.678C700.248 433.434 700.419 433.236 700.557 433.077C700.677 432.944 700.742 432.878 700.749 432.884Z" fill="#F5F5F5"/>
    <path d="M701.789 424.573C701.789 424.683 693.766 424.772 683.871 424.772C673.973 424.772 665.951 424.683 665.951 424.573C665.951 424.463 673.972 424.374 683.871 424.374C693.766 424.374 701.789 424.463 701.789 424.573Z" fill="#F5F5F5"/>
    <path d="M703.408 451.701C703.408 451.811 694.688 451.9 683.934 451.9C673.176 451.9 664.459 451.811 664.459 451.701C664.459 451.591 673.177 451.502 683.934 451.502C694.688 451.501 703.408 451.591 703.408 451.701Z" fill="#F5F5F5"/>
    <path d="M612.203 451.521H115.96C107.915 451.521 101.393 444.999 101.393 436.954V111.846C101.393 107.565 104.863 104.095 109.144 104.095H620.03C623.752 104.095 626.77 107.113 626.77 110.835V436.954C626.77 444.999 620.248 451.521 612.203 451.521Z" fill="#455A64"/>
    <path d="M634.906 456.225H93.1429C85.5649 456.225 79.4219 450.082 79.4219 442.504V425.826H648.628V442.504C648.628 450.082 642.485 456.225 634.906 456.225Z" fill="#455A64"/>
    <path d="M611.197 117.898H115.494V411.294H611.197V117.898Z" fill="#E0E0E0"/>
    <path d="M312.289 425.826L319.353 437.061H418.743L425.302 425.826H312.289Z" fill="#263238"/>
    <path d="M597.685 134.896H130.201V411.293H597.685V134.896Z" fill="#263238"/>
    <path d="M166.068 403.183C165.826 403.183 165.629 344.315 165.629 271.715C165.629 199.089 165.825 140.234 166.068 140.234C166.311 140.234 166.507 199.089 166.507 271.715C166.507 344.315 166.31 403.183 166.068 403.183Z" fill="#E0E0E0"/>
    <path d="M156.637 164.069C156.637 164.311 153.237 164.508 149.043 164.508C144.848 164.508 141.449 164.312 141.449 164.069C141.449 163.827 144.849 163.631 149.043 163.631C153.237 163.631 156.637 163.827 156.637 164.069Z" fill="#E0E0E0"/>
    <path d="M157.223 149.149C157.223 149.391 153.823 149.588 149.629 149.588C145.434 149.588 142.035 149.392 142.035 149.149C142.035 148.907 145.435 148.711 149.629 148.711C153.823 148.71 157.223 148.907 157.223 149.149Z" fill="#E0E0E0"/>
    <path d="M156.637 180.152C156.637 180.394 153.237 180.591 149.043 180.591C144.848 180.591 141.449 180.395 141.449 180.152C141.449 179.909 144.849 179.713 149.043 179.713C153.237 179.713 156.637 179.909 156.637 180.152Z" fill="#E0E0E0"/>
    <path d="M156.637 196.234C156.637 196.476 153.237 196.673 149.043 196.673C144.848 196.673 141.449 196.477 141.449 196.234C141.449 195.992 144.849 195.796 149.043 195.796C153.237 195.796 156.637 195.992 156.637 196.234Z" fill="#E0E0E0"/>
    <path d="M156.637 212.316C156.637 212.558 153.237 212.755 149.043 212.755C144.848 212.755 141.449 212.559 141.449 212.316C141.449 212.074 144.849 211.877 149.043 211.877C153.237 211.878 156.637 212.074 156.637 212.316Z" fill="#E0E0E0"/>
    <path d="M156.637 228.399C156.637 228.641 153.237 228.838 149.043 228.838C144.848 228.838 141.449 228.642 141.449 228.399C141.449 228.157 144.849 227.961 149.043 227.961C153.237 227.96 156.637 228.157 156.637 228.399Z" fill="#E0E0E0"/>
    <path d="M156.637 244.481C156.637 244.723 153.237 244.92 149.043 244.92C144.848 244.92 141.449 244.724 141.449 244.481C141.449 244.239 144.849 244.043 149.043 244.043C153.237 244.043 156.637 244.239 156.637 244.481Z" fill="#E0E0E0"/>
    <path d="M156.637 260.564C156.637 260.806 153.237 261.003 149.043 261.003C144.848 261.003 141.449 260.807 141.449 260.564C141.449 260.322 144.849 260.125 149.043 260.125C153.237 260.125 156.637 260.322 156.637 260.564Z" fill="#E0E0E0"/>
    <path d="M156.637 276.646C156.637 276.888 153.237 277.085 149.043 277.085C144.848 277.085 141.449 276.889 141.449 276.646C141.449 276.404 144.849 276.208 149.043 276.208C153.237 276.208 156.637 276.404 156.637 276.646Z" fill="#E0E0E0"/>
    <path d="M156.637 292.729C156.637 292.971 153.237 293.168 149.043 293.168C144.848 293.168 141.449 292.972 141.449 292.729C141.449 292.487 144.849 292.29 149.043 292.29C153.237 292.29 156.637 292.487 156.637 292.729Z" fill="#E0E0E0"/>
    <path d="M156.637 308.811C156.637 309.053 153.237 309.249 149.043 309.249C144.848 309.249 141.449 309.053 141.449 308.811C141.449 308.569 144.849 308.372 149.043 308.372C153.237 308.372 156.637 308.569 156.637 308.811Z" fill="#E0E0E0"/>
    <path d="M156.637 324.893C156.637 325.135 153.237 325.332 149.043 325.332C144.848 325.332 141.449 325.136 141.449 324.893C141.449 324.651 144.849 324.455 149.043 324.455C153.237 324.455 156.637 324.651 156.637 324.893Z" fill="#E0E0E0"/>
    <path d="M156.637 340.976C156.637 341.218 153.237 341.415 149.043 341.415C144.848 341.415 141.449 341.219 141.449 340.976C141.449 340.734 144.849 340.538 149.043 340.538C153.237 340.537 156.637 340.734 156.637 340.976Z" fill="#E0E0E0"/>
    <path d="M156.637 357.058C156.637 357.3 153.237 357.497 149.043 357.497C144.848 357.497 141.449 357.301 141.449 357.058C141.449 356.816 144.849 356.62 149.043 356.62C153.237 356.62 156.637 356.816 156.637 357.058Z" fill="#E0E0E0"/>
    <path d="M156.637 373.141C156.637 373.383 153.237 373.58 149.043 373.58C144.848 373.58 141.449 373.384 141.449 373.141C141.449 372.899 144.849 372.702 149.043 372.702C153.237 372.702 156.637 372.899 156.637 373.141Z" fill="#E0E0E0"/>
    <path d="M156.637 389.223C156.637 389.465 153.237 389.662 149.043 389.662C144.848 389.662 141.449 389.466 141.449 389.223C141.449 388.981 144.849 388.785 149.043 388.785C153.237 388.785 156.637 388.981 156.637 389.223Z" fill="#E0E0E0"/>
    <path d="M217.513 163.121C217.513 163.363 208.689 163.56 197.806 163.56C186.92 163.56 178.098 163.364 178.098 163.121C178.098 162.878 186.92 162.682 197.806 162.682C208.688 162.682 217.513 162.879 217.513 163.121Z" fill="#F6583E"/>
    <path d="M217.513 389.223C217.513 389.465 208.689 389.662 197.806 389.662C186.92 389.662 178.098 389.466 178.098 389.223C178.098 388.981 186.92 388.785 197.806 388.785C208.688 388.785 217.513 388.981 217.513 389.223Z" fill="#F6583E"/>
    <path d="M272.402 196.234C272.402 196.476 255.892 196.673 235.531 196.673C215.163 196.673 198.656 196.477 198.656 196.234C198.656 195.992 215.162 195.796 235.531 195.796C255.892 195.796 272.402 195.992 272.402 196.234Z" fill="#F6583E"/>
    <path d="M357.675 196.234C357.675 196.476 341.165 196.673 320.804 196.673C300.436 196.673 283.93 196.477 283.93 196.234C283.93 195.992 300.436 195.796 320.804 195.796C341.165 195.796 357.675 195.992 357.675 196.234Z" fill="#E0E0E0"/>
    <path d="M325.085 212.316C325.085 212.558 300.754 212.755 270.747 212.755C240.73 212.755 216.404 212.559 216.404 212.316C216.404 212.074 240.73 211.877 270.747 211.877C300.754 211.878 325.085 212.074 325.085 212.316Z" fill="#E0E0E0"/>
    <path d="M325.085 228.399C325.085 228.641 300.754 228.838 270.747 228.838C240.73 228.838 216.404 228.642 216.404 228.399C216.404 228.157 240.73 227.961 270.747 227.961C300.754 227.96 325.085 228.157 325.085 228.399Z" fill="#E0E0E0"/>
    <path d="M399.894 276.646C399.894 276.888 375.563 277.085 345.556 277.085C315.539 277.085 291.213 276.889 291.213 276.646C291.213 276.404 315.539 276.208 345.556 276.208C375.564 276.208 399.894 276.404 399.894 276.646Z" fill="#E0E0E0"/>
    <path d="M367.613 244.481C367.613 244.723 343.282 244.92 313.275 244.92C283.258 244.92 258.932 244.724 258.932 244.481C258.932 244.239 283.258 244.043 313.275 244.043C343.282 244.043 367.613 244.239 367.613 244.481Z" fill="#E0E0E0"/>
    <path d="M500.421 244.481C500.421 244.723 476.09 244.92 446.083 244.92C416.066 244.92 391.74 244.724 391.74 244.481C391.74 244.239 416.066 244.043 446.083 244.043C476.09 244.043 500.421 244.239 500.421 244.481Z" fill="#E0E0E0"/>
    <path d="M454.236 212.316C454.236 212.558 429.905 212.755 399.898 212.755C369.881 212.755 345.555 212.559 345.555 212.316C345.555 212.074 369.881 211.877 399.898 211.877C429.905 211.878 454.236 212.074 454.236 212.316Z" fill="#FAFAFA"/>
    <path d="M529.308 276.646C529.308 276.888 504.977 277.085 474.97 277.085C444.953 277.085 420.627 276.889 420.627 276.646C420.627 276.404 444.953 276.208 474.97 276.208C504.977 276.208 529.308 276.404 529.308 276.646Z" fill="#FAFAFA"/>
    <path d="M514.317 228.399C514.317 228.641 476.535 228.838 429.94 228.838C383.328 228.838 345.555 228.642 345.555 228.399C345.555 228.157 383.328 227.961 429.94 227.961C476.535 227.96 514.317 228.157 514.317 228.399Z" fill="#455A64"/>
    <path d="M217.513 180.152C217.513 180.394 208.689 180.591 197.806 180.591C186.92 180.591 178.098 180.395 178.098 180.152C178.098 179.909 186.92 179.713 197.806 179.713C208.688 179.713 217.513 179.909 217.513 180.152Z" fill="#FAFAFA"/>
    <path d="M217.513 373.141C217.513 373.383 208.689 373.58 197.806 373.58C186.92 373.58 178.098 373.384 178.098 373.141C178.098 372.899 186.92 372.702 197.806 372.702C208.688 372.702 217.513 372.899 217.513 373.141Z" fill="#FAFAFA"/>
    <path d="M237.04 244.481C237.04 244.723 228.216 244.92 217.333 244.92C206.447 244.92 197.625 244.724 197.625 244.481C197.625 244.239 206.447 244.043 217.333 244.043C228.215 244.043 237.04 244.239 237.04 244.481Z" fill="#FAFAFA"/>
    <path d="M552.933 244.481C552.933 244.723 544.109 244.92 533.227 244.92C522.341 244.92 513.518 244.724 513.518 244.481C513.518 244.239 522.34 244.043 533.227 244.043C544.109 244.043 552.933 244.239 552.933 244.481Z" fill="#F6583E"/>
    <path d="M272.402 308.716C272.402 308.958 255.892 309.155 235.531 309.155C215.163 309.155 198.656 308.959 198.656 308.716C198.656 308.474 215.162 308.277 235.531 308.277C255.892 308.278 272.402 308.474 272.402 308.716Z" fill="#F6583E"/>
    <path d="M357.675 308.716C357.675 308.958 341.165 309.155 320.804 309.155C300.436 309.155 283.93 308.959 283.93 308.716C283.93 308.474 300.436 308.277 320.804 308.277C341.165 308.278 357.675 308.474 357.675 308.716Z" fill="#E0E0E0"/>
    <path d="M325.085 324.799C325.085 325.041 300.754 325.238 270.747 325.238C240.73 325.238 216.404 325.042 216.404 324.799C216.404 324.557 240.73 324.36 270.747 324.36C300.754 324.36 325.085 324.557 325.085 324.799Z" fill="#E0E0E0"/>
    <path d="M325.085 340.881C325.085 341.123 300.754 341.32 270.747 341.32C240.73 341.32 216.404 341.124 216.404 340.881C216.404 340.639 240.73 340.442 270.747 340.442C300.754 340.443 325.085 340.639 325.085 340.881Z" fill="#E0E0E0"/>
    <path d="M367.613 356.964C367.613 357.206 343.282 357.403 313.275 357.403C283.258 357.403 258.932 357.207 258.932 356.964C258.932 356.722 283.258 356.526 313.275 356.526C343.282 356.525 367.613 356.722 367.613 356.964Z" fill="#E0E0E0"/>
    <path d="M500.421 356.964C500.421 357.206 476.09 357.403 446.083 357.403C416.066 357.403 391.74 357.207 391.74 356.964C391.74 356.722 416.066 356.526 446.083 356.526C476.09 356.525 500.421 356.722 500.421 356.964Z" fill="#E0E0E0"/>
    <path d="M454.236 324.799C454.236 325.041 429.905 325.238 399.898 325.238C369.881 325.238 345.555 325.042 345.555 324.799C345.555 324.557 369.881 324.36 399.898 324.36C429.905 324.36 454.236 324.557 454.236 324.799Z" fill="#FAFAFA"/>
    <path d="M514.317 340.881C514.317 341.123 476.535 341.32 429.94 341.32C383.328 341.32 345.555 341.124 345.555 340.881C345.555 340.639 383.328 340.442 429.94 340.442C476.535 340.443 514.317 340.639 514.317 340.881Z" fill="#455A64"/>
    <path d="M237.04 356.964C237.04 357.206 228.216 357.403 217.333 357.403C206.447 357.403 197.625 357.207 197.625 356.964C197.625 356.722 206.447 356.526 217.333 356.526C228.215 356.525 237.04 356.722 237.04 356.964Z" fill="#FAFAFA"/>
    <path d="M552.933 356.964C552.933 357.206 544.109 357.403 533.227 357.403C522.341 357.403 513.518 357.207 513.518 356.964C513.518 356.722 522.34 356.526 533.227 356.526C544.109 356.525 552.933 356.722 552.933 356.964Z" fill="#F6583E"/>
    <path d="M563.437 435.979C563.437 436.123 462.797 436.239 338.68 436.239C214.52 436.239 113.902 436.122 113.902 435.979C113.902 435.835 214.52 435.719 338.68 435.719C462.797 435.718 563.437 435.835 563.437 435.979Z" fill="#263238"/>
    <path d="M97.0711 347.825C83.2831 333.713 61.6801 327.784 42.6211 332.881C59.1771 343.982 77.7821 349.93 97.7151 350.094" fill="#F6583E"/>
    <path d="M78.6022 282.426C80.8712 266.381 74.6352 248.331 62.6222 236.668C62.2252 252.57 68.9382 270.465 78.6022 282.426Z" fill="#F6583E"/>
    <path d="M88.2084 312.736C79.6474 296.372 65.5944 282.942 48.8594 275.131C53.8744 293.605 69.6764 308.718 88.3554 312.906" fill="#F6583E"/>
    <path d="M90.1982 318.584C80.5072 318.856 70.6992 318.515 61.3272 316.035C51.9552 313.555 42.9782 308.789 36.7422 301.366C55.5952 301.387 74.4032 307.129 90.0532 317.641" fill="#F6583E"/>
    <path d="M85.2793 299.321C90.1983 280.885 98.3143 268.131 112.805 257.799C113.902 266.769 111.697 276.106 106.703 283.639C101.71 291.171 93.9683 296.838 85.2793 299.321Z" fill="#F6583E"/>
    <path d="M121.86 331.116C122.114 320.402 115.209 309.874 105.281 305.839C106.086 315.36 113.565 326.374 121.86 331.116Z" fill="#F6583E"/>
    <path d="M126.49 315.571C127.591 300.17 138.534 285.922 153.129 280.884C149.782 296.291 140.874 309.116 126.49 315.571Z" fill="#F6583E"/>
    <path d="M119.514 343.157C122.932 338.268 128.508 335.228 134.279 333.718C140.05 332.208 146.079 332.075 152.043 331.95C143.998 340.802 131.918 345.833 119.968 345.309" fill="#F6583E"/>
    <path d="M112.588 382.455C123.339 379.136 135.321 379.995 145.489 384.811C155.657 389.628 163.911 398.356 168.154 408.777C147.969 404.947 128.051 395.982 112.588 382.455Z" fill="#F6583E"/>
    <path d="M90.4342 368.797C93.7872 378.709 93.1432 390.689 85.6902 399.231C82.6572 389.061 84.4502 377.562 90.4342 368.797Z" fill="#F6583E"/>
    <path d="M77.3427 363.292C76.4097 376.036 68.2617 388.006 56.7487 393.548C56.1767 393.823 55.5157 394.087 54.9277 393.847C54.0197 393.477 53.9367 392.238 54.0487 391.263C55.5077 378.565 64.9157 366.284 77.3427 363.292Z" fill="#F6583E"/>
    <path d="M68.7891 362.004C63.1191 368.13 54.8511 371.769 46.5031 371.812C38.1561 371.855 29.8511 368.3 24.1191 362.232C38.3181 360.678 54.7011 359.642 68.7891 362.004Z" fill="#F6583E"/>
    <path d="M66.6633 248.494C66.6543 248.497 66.6983 248.638 66.7933 248.91C66.8993 249.204 67.0433 249.602 67.2263 250.111C67.6283 251.189 68.2033 252.733 68.9393 254.709C69.7033 256.697 70.5843 259.15 71.6063 261.999C72.1203 263.423 72.6693 264.945 73.2513 266.558C73.8113 268.181 74.4033 269.895 75.0243 271.694C77.5403 278.884 80.3333 287.514 83.3483 297.122C86.3093 306.748 89.4193 317.375 92.4783 328.586C95.4963 339.813 98.1723 350.56 100.449 360.371C102.662 370.196 104.565 379.066 105.94 386.557C106.293 388.427 106.629 390.209 106.947 391.896C107.234 393.586 107.505 395.181 107.759 396.673C108.273 399.655 108.714 402.223 109.01 404.332C109.33 406.415 109.58 408.044 109.754 409.181C109.842 409.714 109.911 410.132 109.961 410.44C110.011 410.723 110.041 410.868 110.05 410.867C110.059 410.866 110.048 410.719 110.016 410.433C109.978 410.122 109.927 409.703 109.862 409.166C109.711 408.025 109.495 406.391 109.218 404.301C108.954 402.186 108.544 399.611 108.058 396.623C107.817 395.127 107.56 393.529 107.287 391.836C106.981 390.146 106.657 388.361 106.317 386.487C104.99 378.981 103.124 370.097 100.937 360.259C98.6853 350.435 96.0223 339.677 93.0023 328.444C89.9413 317.226 86.8143 306.596 83.8263 296.973C80.7823 287.367 77.9503 278.745 75.3873 271.567C74.7533 269.771 74.1483 268.061 73.5763 266.441C72.9803 264.833 72.4173 263.315 71.8913 261.894C70.8423 259.054 69.9323 256.611 69.1373 254.633C68.3603 252.673 67.7533 251.14 67.3293 250.071C67.1243 249.571 66.9643 249.179 66.8463 248.89C66.7333 248.624 66.6723 248.49 66.6633 248.494Z" fill="#263238"/>
    <path d="M144.655 289.109C144.648 289.103 144.565 289.181 144.41 289.34C144.237 289.522 144.013 289.758 143.731 290.054C143.138 290.685 142.279 291.631 141.206 292.879C139.063 295.372 136.038 299.07 132.846 304.026C129.654 308.967 126.382 315.26 124.104 322.727C121.762 330.172 120.308 338.634 118.861 347.478C115.974 365.183 112.431 381.039 109.867 392.51C108.574 398.217 107.526 402.846 106.792 406.088C106.442 407.666 106.168 408.904 105.973 409.784C105.89 410.184 105.824 410.502 105.773 410.748C105.731 410.966 105.714 411.079 105.723 411.081C105.732 411.083 105.767 410.975 105.827 410.761C105.891 410.518 105.974 410.204 106.079 409.809C106.298 408.934 106.605 407.704 106.997 406.136C107.771 402.903 108.877 398.286 110.241 392.595C112.901 381.145 116.506 365.288 119.397 347.566C120.844 338.72 122.279 330.285 124.582 322.875C126.821 315.444 130.032 309.18 133.17 304.232C136.306 299.272 139.277 295.546 141.367 293.016C142.412 291.749 143.246 290.783 143.812 290.128C144.077 289.817 144.288 289.57 144.45 289.378C144.593 289.206 144.662 289.115 144.655 289.109Z" fill="#263238"/>
    <path d="M64.5469 361.401C64.5459 361.42 64.7219 361.452 65.0579 361.495C65.4569 361.539 65.9419 361.593 66.5279 361.657C66.8549 361.689 67.2089 361.724 67.5899 361.761C67.9809 361.82 68.3999 361.883 68.8459 361.95C69.7469 362.083 70.7749 362.216 71.8939 362.464C72.4579 362.576 73.0459 362.693 73.6569 362.815C74.2639 362.969 74.8949 363.128 75.5449 363.293C76.8589 363.59 78.2169 364.071 79.6649 364.508C82.5189 365.509 85.5929 366.796 88.6559 368.47C91.7089 370.166 94.4099 372.121 96.7169 374.069C97.8369 375.083 98.9169 376.031 99.8099 377.038C100.766 377.986 101.541 378.97 102.257 379.861C103.012 380.724 103.537 381.62 104.069 382.358C104.608 383.093 104.996 383.773 105.31 384.332C105.61 384.839 105.859 385.259 106.063 385.604C106.241 385.892 106.342 386.04 106.359 386.032C106.376 386.024 106.307 385.86 106.16 385.554C105.98 385.195 105.76 384.757 105.494 384.228C105.207 383.65 104.843 382.949 104.324 382.192C103.812 381.433 103.304 380.512 102.561 379.626C101.857 378.71 101.091 377.702 100.138 376.729C99.2479 375.698 98.1689 374.726 97.0449 373.69C94.7299 371.698 92.0039 369.707 88.9189 367.993C85.8239 366.301 82.7129 365.015 79.8239 364.032C78.3589 363.604 76.9849 363.135 75.6559 362.855C74.9979 362.699 74.3599 362.549 73.7459 362.404C73.1279 362.293 72.5339 362.187 71.9639 362.085C70.8329 361.859 69.7939 361.753 68.8849 361.647C68.4349 361.596 68.0129 361.547 67.6179 361.502C67.2329 361.481 66.8769 361.462 66.5469 361.444C65.9559 361.42 65.4669 361.399 65.0649 361.383C64.7259 361.378 64.5469 361.383 64.5469 361.401Z" fill="#263238"/>
    <path d="M60.5031 289.449C60.4791 289.477 60.8441 289.827 61.5261 290.435C62.2961 291.103 63.2761 291.953 64.4481 292.97C66.9311 295.092 70.3861 297.996 74.2231 301.178C78.0621 304.36 81.5551 307.218 84.1011 309.264C85.3171 310.227 86.3341 311.033 87.1331 311.666C87.8561 312.224 88.2671 312.518 88.2911 312.489C88.3141 312.46 87.9481 312.11 87.2651 311.501C86.4951 310.833 85.5141 309.982 84.3421 308.966C81.8591 306.843 78.4061 303.941 74.5691 300.76C70.7341 297.58 67.2421 294.725 64.6971 292.678C63.4811 291.714 62.4631 290.908 61.6641 290.275C60.9391 289.716 60.5271 289.421 60.5031 289.449Z" fill="#263238"/>
    <path d="M57.0119 308.232C56.9689 308.376 64.4249 310.705 73.6619 313.435C82.9019 316.165 90.4249 318.261 90.4679 318.117C90.5099 317.973 83.0559 315.644 73.8159 312.914C64.5789 310.184 57.0549 308.088 57.0119 308.232Z" fill="#263238"/>
    <path d="M84.5403 300.754C84.5723 300.773 84.8453 300.391 85.3103 299.683C85.8353 298.884 86.4933 297.881 87.2753 296.689C88.9423 294.167 91.3083 290.727 94.1063 287.063C96.9083 283.401 99.6043 280.211 101.592 277.933C102.532 276.86 103.322 275.958 103.952 275.239C104.509 274.601 104.804 274.236 104.777 274.21C104.75 274.184 104.403 274.5 103.798 275.094C103.191 275.686 102.339 276.567 101.306 277.676C99.2413 279.894 96.4883 283.057 93.6743 286.733C90.8653 290.411 88.5393 293.9 86.9513 296.481C86.1573 297.772 85.5353 298.829 85.1283 299.573C84.7193 300.316 84.5083 300.735 84.5403 300.754Z" fill="#263238"/>
    <path d="M110.432 311.179C110.367 311.225 111.067 312.304 112.181 314.055C113.295 315.806 114.806 318.24 116.372 320.989C117.936 323.74 119.257 326.283 120.192 328.136C121.128 329.988 121.698 331.141 121.771 331.109C121.835 331.081 121.39 329.872 120.539 327.971C119.689 326.07 118.416 323.486 116.844 320.721C115.271 317.958 113.7 315.544 112.501 313.842C111.301 312.139 110.489 311.138 110.432 311.179Z" fill="#263238"/>
    <path d="M119.292 343.671C119.331 343.745 120.752 343.049 123.081 342.002C125.408 340.953 128.659 339.585 132.332 338.297C136.008 337.013 139.402 336.056 141.876 335.424C144.349 334.791 145.894 334.448 145.878 334.366C145.871 334.329 145.476 334.372 144.768 334.482C144.059 334.588 143.04 334.78 141.787 335.051C139.281 335.589 135.849 336.493 132.152 337.785C128.458 339.081 125.211 340.514 122.917 341.656C121.769 342.226 120.852 342.711 120.232 343.07C119.609 343.425 119.274 343.637 119.292 343.671Z" fill="#263238"/>
    <path d="M112.316 382.514C112.312 382.532 112.47 382.585 112.776 382.67C113.145 382.764 113.587 382.877 114.118 383.012C115.375 383.302 117.049 383.688 119.077 384.156C123.257 385.128 129.08 386.342 135.272 388.431C141.465 390.539 146.778 393.22 150.382 395.53C152.188 396.68 153.595 397.696 154.545 398.428C155.498 399.155 156.018 399.57 156.046 399.538C156.058 399.524 155.943 399.403 155.713 399.185C155.479 398.972 155.144 398.644 154.678 398.263C153.765 397.477 152.384 396.408 150.592 395.208C147.017 392.799 141.682 390.039 135.449 387.918C129.207 385.813 123.361 384.658 119.158 383.782C117.115 383.383 115.429 383.054 114.163 382.806C112.98 382.585 112.324 382.477 112.316 382.514Z" fill="#263238"/>
    <path d="M87.0973 392.089C87.2453 392.111 88.1333 386.881 89.0803 380.41C90.0273 373.937 90.6743 368.673 90.5263 368.651C90.3783 368.629 89.4903 373.858 88.5433 380.331C87.5963 386.802 86.9493 392.067 87.0973 392.089Z" fill="#263238"/>
    <path d="M60.8431 382.555C60.9061 382.602 61.7891 381.511 63.2091 379.745C64.6281 377.979 66.5941 375.545 68.8161 372.899C71.0401 370.254 73.0991 367.898 74.5951 366.195C76.0901 364.492 77.0121 363.435 76.9551 363.381C76.9281 363.355 76.6621 363.586 76.2031 364.025C75.7431 364.464 75.0971 365.116 74.3121 365.936C72.7411 367.575 70.6311 369.897 68.4011 372.55C66.1731 375.203 64.2491 377.681 62.9051 379.511C62.2331 380.426 61.7011 381.175 61.3481 381.703C60.9941 382.231 60.8131 382.533 60.8431 382.555Z" fill="#263238"/>
    <path d="M130.325 406.906V419.88H127.081L115.549 456.277H89.9765L78.8055 420.24L74.4805 419.88V406.906H130.325Z" fill="#F6583E"/>
    <g opacity="0.3">
        <path d="M130.325 406.906V419.88H127.081L115.549 456.277H89.9765L78.8055 420.24L74.4805 419.88V406.906H130.325Z" fill="black"/>
    </g>
    <path d="M76.6426 420.24C76.6426 420.39 87.9346 420.511 101.861 420.511C115.792 420.511 127.082 420.39 127.082 420.24C127.082 420.09 115.792 419.968 101.861 419.968C87.9356 419.969 76.6426 420.09 76.6426 420.24Z" fill="#263238"/>
    <path d="M58.252 336.79C58.245 336.827 58.829 336.983 59.891 337.233C61.043 337.511 62.555 337.875 64.38 338.315C68.163 339.252 73.358 340.674 78.993 342.566C84.628 344.465 89.627 346.471 93.208 348.01C94.928 348.762 96.353 349.386 97.438 349.86C98.435 350.302 98.995 350.531 99.011 350.497C99.028 350.463 98.499 350.17 97.529 349.669C96.561 349.163 95.138 348.474 93.363 347.658C89.815 346.025 84.82 343.955 79.166 342.05C73.512 340.152 68.282 338.783 64.468 337.94C62.561 337.517 61.011 337.207 59.934 337.025C58.857 336.84 58.259 336.754 58.252 336.79Z" fill="#263238"/>
    <path d="M85.1348 440.452C85.1348 440.602 93.0568 440.723 102.828 440.723C112.602 440.723 120.523 440.601 120.523 440.452C120.523 440.303 112.602 440.181 102.828 440.181C93.0568 440.181 85.1348 440.302 85.1348 440.452Z" fill="#FAFAFA"/>
    <path d="M84.1387 437.443C84.1387 437.593 92.5347 437.715 102.889 437.715C113.247 437.715 121.641 437.593 121.641 437.443C121.641 437.293 113.247 437.172 102.889 437.172C92.5347 437.172 84.1387 437.293 84.1387 437.443Z" fill="#FAFAFA"/>
    <path d="M709.457 456.485C709.457 456.629 557.017 456.745 369.016 456.745C180.95 456.745 28.543 456.628 28.543 456.485C28.543 456.341 180.95 456.225 369.016 456.225C557.017 456.224 709.457 456.341 709.457 456.485Z" fill="#263238"/>
    <path d="M616.036 76.125H348.051V242.091H573.65L587.617 274.224L599.999 242.091H616.036V76.125Z" fill="#FAFAFA"/>
    <path d="M616.035 76.125C616.037 77.734 616.112 140.085 616.235 242.091V242.291H616.034C611.11 242.293 605.605 242.296 599.997 242.298L600.191 242.165C596.314 252.237 592.136 263.094 587.821 274.302L587.627 274.806L587.412 274.311C583.032 264.244 578.297 253.359 573.435 242.183L573.648 242.323C513.033 242.331 443.378 242.341 369.633 242.351C362.391 242.351 355.188 242.351 348.049 242.351H347.789V242.091C347.797 182.943 347.805 126.808 347.812 76.125V75.887H348.049C506.268 76.028 613.926 76.123 616.035 76.125C613.927 76.127 506.268 76.222 348.049 76.362L348.286 76.125C348.293 126.809 348.301 182.943 348.309 242.091L348.049 241.831C355.188 241.831 362.39 241.831 369.633 241.831C443.378 241.841 513.034 241.851 573.648 241.859H573.801L573.862 241.999C578.717 253.178 583.445 264.066 587.818 274.136L587.409 274.145C591.732 262.939 595.919 252.086 599.804 242.017L599.855 241.884H599.998C605.606 241.887 611.111 241.889 616.035 241.891L615.835 242.091C615.958 140.085 616.033 77.733 616.035 76.125Z" fill="#263238"/>
    <path d="M615.896 92.32C615.896 92.522 556.022 92.686 482.181 92.686C408.314 92.686 348.453 92.522 348.453 92.32C348.453 92.118 408.314 91.954 482.181 91.954C556.023 91.954 615.896 92.118 615.896 92.32Z" fill="#263238"/>
    <path d="M362.292 84.989C362.292 86.202 361.309 87.185 360.096 87.185C358.883 87.185 357.9 86.202 357.9 84.989C357.9 83.776 358.883 82.793 360.096 82.793C361.308 82.793 362.292 83.776 362.292 84.989Z" fill="#263238"/>
    <path d="M370.24 84.989C370.24 86.202 369.257 87.185 368.044 87.185C366.831 87.185 365.848 86.202 365.848 84.989C365.848 83.776 366.831 82.793 368.044 82.793C369.257 82.793 370.24 83.776 370.24 84.989Z" fill="#263238"/>
    <path d="M378.189 84.989C378.189 86.202 377.206 87.185 375.993 87.185C374.78 87.185 373.797 86.202 373.797 84.989C373.797 83.776 374.78 82.793 375.993 82.793C377.206 82.793 378.189 83.776 378.189 84.989Z" fill="#263238"/>
    <path d="M377.279 122.01L370.914 124.466L377.279 126.923V128.411L369.246 125.238V123.697L377.279 120.524V122.01Z" fill="#263238"/>
    <path d="M383.9 115.645H385.459L379.543 132.533H377.982L383.9 115.645Z" fill="#263238"/>
    <path d="M394.034 123.696V125.237L386.002 128.41V126.922L392.385 124.465L386.002 122.009V120.521L394.034 123.696Z" fill="#263238"/>
    <path d="M396.062 129.611C396.062 128.895 396.618 128.392 397.281 128.392C397.926 128.392 398.465 128.894 398.465 129.611C398.465 130.329 397.926 130.849 397.281 130.849C396.618 130.85 396.062 130.329 396.062 129.611Z" fill="#263238"/>
    <path d="M400.137 129.611C400.137 128.895 400.693 128.392 401.356 128.392C402.001 128.392 402.539 128.894 402.539 129.611C402.539 130.329 402.001 130.849 401.356 130.849C400.692 130.85 400.137 130.329 400.137 129.611Z" fill="#263238"/>
    <path d="M404.207 129.611C404.207 128.895 404.763 128.392 405.426 128.392C406.071 128.392 406.609 128.894 406.609 129.611C406.609 130.329 406.071 130.849 405.426 130.849C404.763 130.85 404.207 130.329 404.207 129.611Z" fill="#263238"/>
    <path d="M546.504 145.707C546.504 145.909 506.888 146.073 458.032 146.073C409.158 146.073 369.551 145.909 369.551 145.707C369.551 145.505 409.158 145.341 458.032 145.341C506.888 145.341 546.504 145.505 546.504 145.707Z" fill="#455A64"/>
    <path d="M575.401 146.23C575.401 146.432 571.595 146.596 566.901 146.596C562.205 146.596 558.4 146.432 558.4 146.23C558.4 146.028 562.206 145.864 566.901 145.864C571.595 145.865 575.401 146.028 575.401 146.23Z" fill="#263238"/>
    <path d="M600.251 146.23C600.251 146.432 596.093 146.596 590.966 146.596C585.837 146.596 581.68 146.432 581.68 146.23C581.68 146.028 585.837 145.864 590.966 145.864C596.093 145.865 600.251 146.028 600.251 146.23Z" fill="#263238"/>
    <path d="M482.227 160.617C482.227 160.819 457.047 160.983 425.993 160.983C394.928 160.983 369.754 160.819 369.754 160.617C369.754 160.415 394.929 160.251 425.993 160.251C457.047 160.251 482.227 160.414 482.227 160.617Z" fill="#455A64"/>
    <path d="M481.422 216.249C481.422 216.451 456.242 216.615 425.188 216.615C394.123 216.615 368.949 216.451 368.949 216.249C368.949 216.047 394.124 215.883 425.188 215.883C456.242 215.883 481.422 216.047 481.422 216.249Z" fill="#455A64"/>
    <path d="M523.089 160.617C523.089 160.819 516.238 160.983 507.788 160.983C499.335 160.983 492.486 160.819 492.486 160.617C492.486 160.415 499.336 160.251 507.788 160.251C516.238 160.251 523.089 160.414 523.089 160.617Z" fill="#263238"/>
    <path d="M522.769 216.249C522.769 216.451 515.918 216.615 507.468 216.615C499.016 216.615 492.166 216.451 492.166 216.249C492.166 216.047 499.016 215.883 507.468 215.883C515.917 215.883 522.769 216.047 522.769 216.249Z" fill="#263238"/>
    <path d="M377.137 168.202C377.137 168.404 375.439 168.568 373.344 168.568C371.249 168.568 369.551 168.404 369.551 168.202C369.551 168 371.249 167.836 373.344 167.836C375.438 167.836 377.137 168 377.137 168.202Z" fill="#F6583E"/>
    <path d="M403.292 168.359C403.292 168.561 399.602 168.725 395.052 168.725C390.501 168.725 386.812 168.561 386.812 168.359C386.812 168.157 390.5 167.993 395.052 167.993C399.602 167.993 403.292 168.157 403.292 168.359Z" fill="#263238"/>
    <path d="M420.031 168.359C420.031 168.561 416.869 168.725 412.969 168.725C409.068 168.725 405.906 168.561 405.906 168.359C405.906 168.157 409.067 167.993 412.969 167.993C416.869 167.993 420.031 168.157 420.031 168.359Z" fill="#263238"/>
    <path d="M441.22 168.359C441.22 168.561 437.999 168.725 434.027 168.725C430.054 168.725 426.834 168.561 426.834 168.359C426.834 168.157 430.054 167.993 434.027 167.993C437.999 167.993 441.22 168.157 441.22 168.359Z" fill="#263238"/>
    <path d="M459.791 168.359C459.791 168.561 456.863 168.725 453.252 168.725C449.64 168.725 446.713 168.561 446.713 168.359C446.713 168.157 449.64 167.993 453.252 167.993C456.863 167.993 459.791 168.157 459.791 168.359Z" fill="#263238"/>
    <path d="M521.258 168.359C521.258 168.561 508.375 168.725 492.487 168.725C476.593 168.725 463.713 168.561 463.713 168.359C463.713 168.157 476.593 167.993 492.487 167.993C508.375 167.993 521.258 168.157 521.258 168.359Z" fill="#263238"/>
    <path d="M376.09 177.88C376.09 178.082 374.626 178.246 372.821 178.246C371.015 178.246 369.551 178.082 369.551 177.88C369.551 177.678 371.015 177.514 372.821 177.514C374.626 177.514 376.09 177.678 376.09 177.88Z" fill="#F6583E"/>
    <path d="M376.352 187.819C376.352 188.021 374.829 188.185 372.952 188.185C371.074 188.185 369.551 188.021 369.551 187.819C369.551 187.617 371.073 187.453 372.952 187.453C374.829 187.453 376.352 187.617 376.352 187.819Z" fill="#F6583E"/>
    <path d="M376.352 199.066C376.352 199.268 374.829 199.432 372.952 199.432C371.074 199.432 369.551 199.268 369.551 199.066C369.551 198.864 371.073 198.7 372.952 198.7C374.829 198.701 376.352 198.864 376.352 199.066Z" fill="#F6583E"/>
    <path d="M438.342 198.543C438.342 198.745 426.982 198.909 412.971 198.909C398.956 198.909 387.598 198.745 387.598 198.543C387.598 198.341 398.956 198.177 412.971 198.177C426.982 198.177 438.342 198.341 438.342 198.543Z" fill="#263238"/>
    <path d="M433.895 187.819C433.895 188.021 423.062 188.185 409.702 188.185C396.337 188.185 385.506 188.021 385.506 187.819C385.506 187.617 396.337 187.453 409.702 187.453C423.062 187.453 433.895 187.617 433.895 187.819Z" fill="#263238"/>
    <path d="M550.815 177.357C550.815 177.559 513.924 177.723 468.426 177.723C422.913 177.723 386.029 177.559 386.029 177.357C386.029 177.155 422.913 176.991 468.426 176.991C513.923 176.991 550.815 177.154 550.815 177.357Z" fill="#263238"/>
    <path d="M632.503 143.996V285.037L610.574 303.335H632.503H634.657H725.26V143.996H632.503Z" fill="#FAFAFA"/>
    <path d="M632.502 143.996C632.502 143.996 633.044 143.982 634.123 143.975C635.213 143.97 636.818 143.963 638.919 143.953C643.153 143.942 649.379 143.925 657.386 143.904C673.453 143.879 696.66 143.843 725.259 143.799H725.455V143.996C725.472 186.567 725.494 242.169 725.519 303.334V303.594H725.259C720.155 303.594 714.685 303.594 709.176 303.594C674.247 303.587 640.879 303.581 610.573 303.576H609.904L610.417 303.148C617.995 296.831 625.318 290.726 632.354 284.861L632.272 285.037C632.32 242.869 632.36 207.587 632.388 182.836C632.414 170.491 632.434 160.774 632.448 154.133C632.46 150.83 632.469 148.294 632.475 146.573C632.481 145.727 632.485 145.083 632.488 144.64C632.494 144.209 632.502 143.996 632.502 143.996C632.502 143.996 632.511 144.226 632.515 144.667C632.518 145.115 632.522 145.767 632.528 146.625C632.534 148.356 632.543 150.907 632.555 154.229C632.569 160.882 632.589 170.616 632.615 182.983C632.643 207.698 632.683 242.929 632.731 285.037V285.144L632.649 285.213C625.618 291.085 618.301 297.196 610.728 303.52L610.573 303.092C640.879 303.086 674.247 303.08 709.176 303.074C714.685 303.074 720.155 303.074 725.259 303.074L724.999 303.334C725.023 242.169 725.046 186.567 725.063 143.996L725.259 144.192C696.711 144.148 673.545 144.112 657.507 144.087C649.481 144.066 643.241 144.049 638.996 144.038C636.879 144.029 635.262 144.021 634.164 144.017C633.072 144.01 632.502 143.996 632.502 143.996Z" fill="#263238"/>
    <path d="M640.928 151.014C640.928 152.052 640.087 152.893 639.049 152.893C638.011 152.893 637.17 152.052 637.17 151.014C637.17 149.976 638.011 149.135 639.049 149.135C640.087 149.134 640.928 149.976 640.928 151.014Z" fill="#263238"/>
    <path d="M647.731 151.014C647.731 152.052 646.89 152.893 645.852 152.893C644.814 152.893 643.973 152.052 643.973 151.014C643.973 149.976 644.814 149.135 645.852 149.135C646.889 149.134 647.731 149.976 647.731 151.014Z" fill="#263238"/>
    <path d="M654.531 151.014C654.531 152.052 653.69 152.893 652.652 152.893C651.614 152.893 650.773 152.052 650.773 151.014C650.773 149.976 651.614 149.135 652.652 149.135C653.69 149.134 654.531 149.976 654.531 151.014Z" fill="#263238"/>
    <path d="M699.763 194.47C699.763 194.636 688.004 194.771 673.501 194.771C658.993 194.771 647.236 194.636 647.236 194.47C647.236 194.304 658.993 194.169 673.501 194.169C688.004 194.169 699.763 194.304 699.763 194.47Z" fill="#F6583E"/>
    <path d="M710.717 207.228C710.717 207.394 696.406 207.529 678.757 207.529C661.101 207.529 646.793 207.394 646.793 207.228C646.793 207.062 661.101 206.927 678.757 206.927C696.406 206.927 710.717 207.062 710.717 207.228Z" fill="#F6583E"/>
    <path d="M713.319 254.832C713.319 254.998 698.06 255.133 679.241 255.133C660.416 255.133 645.16 254.998 645.16 254.832C645.16 254.666 660.416 254.531 679.241 254.531C698.06 254.532 713.319 254.666 713.319 254.832Z" fill="#F6583E"/>
    <path d="M652.166 213.719C652.166 213.885 650.713 214.02 648.921 214.02C647.128 214.02 645.676 213.885 645.676 213.719C645.676 213.553 647.129 213.418 648.921 213.418C650.713 213.418 652.166 213.553 652.166 213.719Z" fill="#F6583E"/>
    <path d="M674.546 213.853C674.546 214.019 671.389 214.154 667.496 214.154C663.601 214.154 660.445 214.019 660.445 213.853C660.445 213.687 663.601 213.552 667.496 213.552C671.389 213.552 674.546 213.687 674.546 213.853Z" fill="#F6583E"/>
    <path d="M688.871 213.853C688.871 214.019 686.165 214.154 682.828 214.154C679.49 214.154 676.785 214.019 676.785 213.853C676.785 213.687 679.49 213.552 682.828 213.552C686.165 213.552 688.871 213.687 688.871 213.853Z" fill="#F6583E"/>
    <path d="M651.27 222C651.27 222.166 650.017 222.301 648.472 222.301C646.927 222.301 645.674 222.166 645.674 222C645.674 221.834 646.926 221.699 648.472 221.699C650.018 221.699 651.27 221.834 651.27 222Z" fill="#F6583E"/>
    <path d="M651.493 230.505C651.493 230.671 650.19 230.806 648.584 230.806C646.977 230.806 645.674 230.671 645.674 230.505C645.674 230.339 646.976 230.204 648.584 230.204C650.19 230.205 651.493 230.339 651.493 230.505Z" fill="#F6583E"/>
    <path d="M651.493 240.13C651.493 240.296 650.19 240.431 648.584 240.431C646.977 240.431 645.674 240.296 645.674 240.13C645.674 239.964 646.976 239.829 648.584 239.829C650.19 239.829 651.493 239.964 651.493 240.13Z" fill="#F6583E"/>
    <path d="M704.539 239.682C704.539 239.848 694.818 239.983 682.829 239.983C670.836 239.983 661.117 239.848 661.117 239.682C661.117 239.516 670.836 239.381 682.829 239.381C694.818 239.381 704.539 239.516 704.539 239.682Z" fill="#F6583E"/>
    <path d="M700.734 230.505C700.734 230.671 691.464 230.806 680.032 230.806C668.596 230.806 659.328 230.671 659.328 230.505C659.328 230.339 668.596 230.204 680.032 230.204C691.464 230.205 700.734 230.339 700.734 230.505Z" fill="#F6583E"/>
    <path d="M655.731 267.541C655.731 267.707 654.428 267.842 652.822 267.842C651.215 267.842 649.912 267.707 649.912 267.541C649.912 267.375 651.214 267.24 652.822 267.24C654.428 267.24 655.731 267.375 655.731 267.541Z" fill="#F6583E"/>
    <path d="M655.731 277.165C655.731 277.331 654.428 277.466 652.822 277.466C651.215 277.466 649.912 277.331 649.912 277.165C649.912 276.999 651.214 276.864 652.822 276.864C654.428 276.865 655.731 276.999 655.731 277.165Z" fill="#F6583E"/>
    <path d="M708.777 276.718C708.777 276.884 699.057 277.019 687.068 277.019C675.075 277.019 665.355 276.884 665.355 276.718C665.355 276.552 675.075 276.417 687.068 276.417C699.057 276.417 708.777 276.552 708.777 276.718Z" fill="#F6583E"/>
    <path d="M704.971 267.541C704.971 267.707 695.701 267.842 684.269 267.842C672.832 267.842 663.564 267.707 663.564 267.541C663.564 267.375 672.832 267.24 684.269 267.24C695.701 267.24 704.971 267.375 704.971 267.541Z" fill="#F6583E"/>
    <path d="M716.129 221.552C716.129 221.718 703.513 221.853 687.953 221.853C672.388 221.853 659.775 221.718 659.775 221.552C659.775 221.386 672.389 221.251 687.953 221.251C703.513 221.252 716.129 221.387 716.129 221.552Z" fill="#F6583E"/>
    <path d="M724.388 158.377C724.388 158.543 704.02 158.678 678.901 158.678C653.773 158.678 633.41 158.544 633.41 158.377C633.41 158.211 653.773 158.076 678.901 158.076C704.021 158.077 724.388 158.212 724.388 158.377Z" fill="#263238"/>
    <path d="M666.426 186.776C666.426 186.942 662.124 187.077 656.819 187.077C651.512 187.077 647.211 186.942 647.211 186.776C647.211 186.61 651.512 186.475 656.819 186.475C662.125 186.475 666.426 186.61 666.426 186.776Z" fill="#F6583E"/>
    <path d="M655.549 169.374C655.549 169.54 653.52 169.675 651.018 169.675C648.515 169.675 646.486 169.54 646.486 169.374C646.486 169.208 648.515 169.073 651.018 169.073C653.52 169.074 655.549 169.208 655.549 169.374Z" fill="#F6583E"/>
    <path d="M575.271 374.761L595.412 354.848L559.493 293.339C555.753 289.062 551.019 285.769 545.708 283.751L533.058 278.943L501.612 273.174L479.285 281.966C473.641 284.189 470.205 289.937 470.92 295.961L476.76 345.123L480.2 409.136L561.329 395.064L553.166 371.387L553.44 334.473L575.271 374.761Z" fill="#F6583E"/>
    <path d="M553.912 369.816C554.102 369.815 554.151 357.026 554.022 341.257C553.893 325.482 553.635 312.699 553.445 312.7C553.255 312.702 553.206 325.487 553.336 341.262C553.464 357.032 553.723 369.818 553.912 369.816Z" fill="#263238"/>
    <path d="M550.942 379.199L501.921 359.465C497.967 357.873 495.26 354.176 494.935 349.926L491.348 302.927C491.348 302.927 491.772 282.938 479.287 281.965L472.184 284.762C463.004 289.637 460.73 303.003 461.98 313.321C463.755 327.984 464.495 348.734 466.482 361.459C468.107 371.868 474.358 380.103 484.258 383.707L544.637 396.778L550.942 379.199Z" fill="#F6583E"/>
    <path d="M492.05 310.097C492.073 310.095 492.125 310.466 492.204 311.173C492.282 311.939 492.387 312.971 492.519 314.27C492.77 317.025 493.122 320.903 493.556 325.668C493.971 330.502 494.463 336.227 495.009 342.578C495.143 344.17 495.28 345.801 495.42 347.466C495.566 349.133 495.667 350.839 496.046 352.495C496.405 354.157 497.204 355.714 498.483 356.899C499.754 358.089 501.346 358.959 503.006 359.713C516.523 365.562 528.981 370.392 538.025 373.779C542.514 375.433 546.167 376.778 548.761 377.734C549.985 378.186 550.958 378.544 551.68 378.811C552.345 379.063 552.691 379.206 552.684 379.227C552.677 379.248 552.316 379.147 551.637 378.936C550.905 378.698 549.918 378.378 548.676 377.975C546.11 377.125 542.412 375.851 537.864 374.214C528.768 370.934 516.29 366.176 502.733 360.31C501.047 359.543 499.392 358.645 498.034 357.373C496.663 356.108 495.784 354.376 495.421 352.641C495.029 350.902 494.937 349.183 494.797 347.522C494.665 345.855 494.535 344.224 494.408 342.631C493.915 336.274 493.47 330.544 493.094 325.706C492.748 320.933 492.466 317.049 492.265 314.29C492.184 312.987 492.12 311.952 492.073 311.184C492.036 310.472 492.027 310.098 492.05 310.097Z" fill="#263238"/>
    <path d="M463.964 335.647C463.987 335.646 464.018 335.863 464.061 336.278C464.105 336.768 464.158 337.367 464.223 338.092C464.369 339.767 464.565 342.021 464.804 344.761C465.072 347.574 465.414 350.921 465.902 354.622C466.406 358.316 467.001 362.39 468.116 366.528C468.644 368.617 469.385 370.547 470.508 372.204C471.632 373.875 472.88 375.375 474.17 376.703C476.762 379.354 479.529 381.298 482.014 382.588C487.03 385.195 490.675 385.233 490.624 385.407C490.622 385.43 490.403 385.424 489.986 385.392C489.569 385.363 488.952 385.315 488.172 385.158C486.609 384.882 484.361 384.269 481.803 383.001C479.249 381.742 476.403 379.803 473.739 377.127C472.413 375.785 471.131 374.264 469.975 372.563C468.802 370.856 468.006 368.793 467.483 366.702C466.352 362.502 465.776 358.413 465.302 354.699C464.845 350.981 464.551 347.622 464.341 344.8C464.135 341.977 464.025 339.689 463.967 338.107C463.951 337.378 463.938 336.777 463.928 336.284C463.928 335.868 463.942 335.648 463.964 335.647Z" fill="#263238"/>
    <path d="M484.926 368.535C484.859 368.517 485.068 367.468 485.818 365.923C486.56 364.381 487.934 362.387 489.934 360.673C491.941 358.966 494.126 357.921 495.764 357.429C497.408 356.929 498.476 356.888 498.484 356.956C498.504 357.066 497.475 357.27 495.916 357.867C494.359 358.457 492.295 359.526 490.359 361.172C488.432 362.826 487.053 364.697 486.226 366.143C485.394 367.587 485.031 368.572 484.926 368.535Z" fill="#263238"/>
    <g opacity="0.3">
        <path d="M536.854 373.597C531.612 370.636 526.483 368.361 521.003 365.87C515.522 363.379 510.154 360.182 506.567 355.347C499.802 346.229 500.572 333.068 493.648 324.07C494.1 330.121 494.552 336.171 495.005 342.222C495.419 347.768 494.57 353.251 498.142 357.02C501.151 360.195 507.018 362.629 511.172 363.999C519.518 366.753 528.507 370.843 536.854 373.597Z" fill="black"/>
    </g>
    <path opacity="0.3" d="M553.453 316.162L557.693 342.319L553.679 334.91L553.453 316.162Z" fill="black"/>
    <path d="M490.573 300.024C490.572 300.06 490.168 300.089 489.437 300.111C488.595 300.132 487.563 300.158 486.345 300.189C483.735 300.254 480.133 300.386 476.163 300.669C472.192 300.955 468.607 301.338 466.015 301.646C464.806 301.789 463.78 301.91 462.944 302.009C462.218 302.091 461.813 302.12 461.807 302.085C461.801 302.05 462.195 301.953 462.912 301.809C463.629 301.663 464.672 301.481 465.965 301.281C468.55 300.879 472.141 300.437 476.126 300.15C480.109 299.866 483.727 299.792 486.343 299.821C487.651 299.835 488.709 299.866 489.44 299.908C490.17 299.949 490.573 299.988 490.573 300.024Z" fill="#455A64"/>
    <path d="M491.966 325.056C491.978 325.199 485.552 325.848 477.616 326.504C469.677 327.16 463.233 327.576 463.221 327.433C463.209 327.29 469.634 326.642 477.573 325.985C485.509 325.329 491.954 324.913 491.966 325.056Z" fill="#455A64"/>
    <path d="M494.328 351.371C494.344 351.403 493.981 351.609 493.311 351.952C492.644 352.301 491.654 352.759 490.414 353.283C487.935 354.333 484.406 355.567 480.389 356.47C476.369 357.366 472.651 357.755 469.96 357.862C468.614 357.917 467.524 357.925 466.772 357.893C466.019 357.868 465.604 357.836 465.605 357.801C465.605 357.765 466.021 357.728 466.77 357.691C467.519 357.66 468.603 357.597 469.938 357.495C472.609 357.295 476.288 356.851 480.275 355.962C484.26 355.066 487.776 353.899 490.277 352.941C491.528 352.464 492.536 352.059 493.227 351.768C493.92 351.482 494.312 351.339 494.328 351.371Z" fill="#455A64"/>
    <path d="M511.758 364.866C511.842 365.013 509.204 366.182 506.899 368.768C504.56 371.325 503.666 374.068 503.512 374C503.454 373.982 503.595 373.276 504.052 372.21C504.506 371.146 505.322 369.741 506.512 368.42C507.705 367.102 509.019 366.147 510.031 365.587C511.046 365.023 511.734 364.81 511.758 364.866Z" fill="#455A64"/>
    <path d="M529.488 382.194C529.36 382.165 529.931 379.722 531.413 377.033C532.881 374.335 534.632 372.539 534.726 372.631C534.847 372.731 533.306 374.642 531.87 377.283C530.419 379.914 529.638 382.241 529.488 382.194Z" fill="#455A64"/>
    <path d="M501.547 285.303C501.573 285.445 498.469 286.124 494.615 286.821C490.76 287.518 487.615 287.968 487.59 287.826C487.565 287.685 490.668 287.005 494.523 286.308C498.376 285.612 501.521 285.162 501.547 285.303Z" fill="#455A64"/>
    <path d="M548.477 287.439C548.46 287.582 544.156 287.188 538.865 286.56C533.572 285.932 529.296 285.307 529.313 285.164C529.33 285.021 533.633 285.415 538.926 286.043C544.218 286.671 548.494 287.296 548.477 287.439Z" fill="#455A64"/>
    <path d="M552.483 309.264C552.483 309.282 552.271 309.295 551.869 309.304C551.411 309.308 550.828 309.312 550.11 309.318C548.515 309.316 546.322 309.313 543.642 309.31C538.181 309.305 530.638 309.351 522.311 309.564C513.981 309.78 506.445 310.121 500.992 310.406C498.316 310.547 496.126 310.662 494.534 310.746C493.816 310.777 493.234 310.803 492.777 310.823C492.375 310.835 492.163 310.832 492.162 310.814C492.161 310.796 492.37 310.763 492.77 310.718C493.226 310.673 493.806 310.615 494.521 310.544C496.042 310.401 498.246 310.227 500.972 310.038C506.423 309.659 513.963 309.258 522.3 309.042C530.635 308.83 538.185 308.842 543.648 308.941C546.38 308.99 548.59 309.05 550.116 309.115C550.834 309.149 551.416 309.177 551.874 309.199C552.272 309.225 552.483 309.246 552.483 309.264Z" fill="#455A64"/>
    <path d="M553.057 336.905C553.066 337.048 540.206 338.012 524.335 339.057C508.459 340.102 495.586 340.833 495.576 340.689C495.567 340.546 508.425 339.582 524.301 338.537C540.172 337.493 553.048 336.762 553.057 336.905Z" fill="#455A64"/>
    <path d="M551.693 361.255C551.704 361.289 551.319 361.452 550.611 361.717C549.904 361.984 548.871 362.343 547.586 362.762C545.018 363.602 541.432 364.654 537.422 365.62C533.41 366.583 529.737 367.275 527.068 367.695C525.733 367.905 524.65 368.056 523.899 368.139C523.148 368.224 522.731 368.255 522.725 368.219C522.72 368.184 523.127 368.086 523.867 367.939C524.716 367.775 525.764 367.572 527.004 367.333C529.652 366.822 533.3 366.075 537.3 365.115C541.298 364.152 544.887 363.159 547.478 362.411C548.691 362.061 549.717 361.765 550.548 361.525C551.274 361.319 551.681 361.221 551.693 361.255Z" fill="#455A64"/>
    <path d="M572.26 317.116C572.296 317.255 568.115 318.457 562.922 319.8C557.727 321.143 553.489 322.119 553.453 321.979C553.417 321.84 557.597 320.639 562.792 319.295C567.984 317.953 572.224 316.977 572.26 317.116Z" fill="#455A64"/>
    <path d="M562.453 298.432C562.479 298.574 560.625 299.025 558.315 299.441C556.004 299.857 554.11 300.079 554.084 299.938C554.058 299.797 555.911 299.345 558.222 298.929C560.534 298.513 562.428 298.291 562.453 298.432Z" fill="#455A64"/>
    <path d="M492.196 304.232C492.095 304.25 491.942 302.571 491.027 300.057C490.132 297.558 488.315 294.23 485.283 291.505C482.249 288.78 478.747 287.327 476.166 286.704C473.568 286.062 471.884 286.089 471.891 285.986C471.891 285.955 472.309 285.921 473.066 285.942C473.823 285.961 474.92 286.065 476.249 286.345C478.895 286.886 482.515 288.319 485.63 291.117C488.743 293.915 490.554 297.362 491.373 299.935C491.793 301.227 492.014 302.307 492.113 303.057C492.216 303.809 492.227 304.228 492.196 304.232Z" fill="#263238"/>
    <path d="M550.605 290.898C550.747 290.875 551.52 294.969 552.332 300.041C553.144 305.115 553.687 309.245 553.545 309.267C553.403 309.29 552.63 305.197 551.818 300.123C551.006 295.052 550.463 290.921 550.605 290.898Z" fill="#263238"/>
    <path d="M605.242 438.286C605.242 438.286 642.921 448.714 644.433 449.246C646.703 450.045 646.322 458.361 642.789 458.232C641.118 458.171 613.848 459.248 610.402 459.032C606.956 458.816 596.561 454.72 596.561 454.72L605.242 438.286Z" fill="#F6583E"/>
    <path d="M620.937 452.664C621.126 452.69 621.381 450.697 622.597 448.618C623.783 446.521 625.379 445.301 625.261 445.15C625.195 445.005 623.324 446.067 622.05 448.304C620.756 450.527 620.778 452.68 620.937 452.664Z" fill="#263238"/>
    <path d="M617.009 450.882C617.194 450.914 617.575 449.133 618.578 447.165C619.562 445.186 620.766 443.819 620.63 443.69C620.526 443.567 619.054 444.799 618.015 446.881C616.962 448.956 616.848 450.872 617.009 450.882Z" fill="#263238"/>
    <path d="M613.324 449.895C613.514 449.883 613.369 448.001 614.205 445.914C615.006 443.813 616.389 442.528 616.257 442.39C616.182 442.247 614.492 443.412 613.618 445.684C612.719 447.947 613.171 449.949 613.324 449.895Z" fill="#263238"/>
    <path d="M613.992 445.029C614.059 445.046 614.393 443.994 614.396 442.225C614.393 441.344 614.292 440.29 614.014 439.153C613.876 438.584 613.69 437.997 613.453 437.404C613.331 437.105 613.192 436.761 612.849 436.481C612.498 436.165 611.858 436.231 611.555 436.545C611.21 436.846 611.1 437.27 611.053 437.61C611.015 437.956 610.996 438.279 611.004 438.605C611.013 439.253 611.097 439.875 611.237 440.449C611.515 441.6 611.964 442.565 612.397 443.329C613.275 444.858 614.036 445.64 614.09 445.597C614.176 445.537 613.545 444.659 612.793 443.122C612.423 442.353 612.036 441.409 611.805 440.321C611.689 439.778 611.624 439.198 611.623 438.599C611.64 438.02 611.632 437.296 611.97 437.018C612.15 436.869 612.311 436.859 612.468 436.976C612.634 437.103 612.774 437.361 612.881 437.634C613.114 438.197 613.304 438.755 613.452 439.297C613.749 440.38 613.892 441.388 613.95 442.239C614.061 443.947 613.889 445.013 613.992 445.029Z" fill="#263238"/>
    <path d="M613.945 444.645C613.962 444.576 613.053 444.263 611.515 444.253C610.75 444.252 609.831 444.332 608.842 444.581C608.354 444.713 607.83 444.839 607.302 445.148C606.786 445.41 606.246 446.126 606.451 446.87C606.612 447.571 607.213 448.061 607.808 448.215C608.408 448.383 608.989 448.323 609.498 448.211C610.532 447.973 611.336 447.465 611.946 447.007C613.154 446.06 613.743 445.335 613.698 445.282C613.632 445.202 612.918 445.822 611.691 446.641C611.074 447.035 610.3 447.462 609.38 447.641C608.922 447.728 608.429 447.756 607.983 447.622C607.54 447.5 607.171 447.162 607.066 446.726C606.958 446.305 607.213 445.92 607.626 445.675C608.03 445.425 608.529 445.281 608.993 445.142C609.925 444.876 610.797 444.753 611.532 444.699C613.005 444.595 613.93 444.746 613.945 444.645Z" fill="#263238"/>
    <path d="M626.727 453.067C626.913 453.046 626.729 451.435 627.47 449.669C628.175 447.887 629.433 446.865 629.315 446.719C629.253 446.565 627.677 447.458 626.886 449.431C626.072 451.393 626.574 453.134 626.727 453.067Z" fill="#263238"/>
    <path d="M600.436 454.806C600.419 454.846 600.937 455.088 601.893 455.492C602.861 455.858 604.278 456.37 606.086 456.791C609.69 457.699 614.827 458.214 620.471 458.154C626.118 458.092 631.206 457.835 634.896 457.687C636.643 457.594 638.106 457.517 639.262 457.456C640.292 457.387 640.862 457.329 640.86 457.285C640.859 457.241 640.287 457.217 639.254 457.21C638.097 457.218 636.631 457.228 634.882 457.241C631.065 457.316 626.033 457.414 620.467 457.523C614.848 457.582 609.773 457.142 606.183 456.356C602.583 455.616 600.48 454.69 600.436 454.806Z" fill="#263238"/>
    <path d="M599.321 455.665C599.372 455.752 600.403 455.149 602.144 454.386C603.864 453.648 606.443 452.763 609.274 453.201C612.114 453.636 614.126 455.543 615.437 456.867C616.758 458.238 617.532 459.149 617.608 459.085C617.665 459.038 617.022 458.037 615.764 456.565C615.128 455.837 614.321 454.993 613.266 454.229C612.222 453.462 610.878 452.809 609.373 452.579C606.336 452.114 603.659 453.129 601.956 453.983C600.227 454.866 599.283 455.603 599.321 455.665Z" fill="#263238"/>
    <path d="M560.647 429.54C560.647 429.54 524.991 452.885 523.712 453.851C521.792 455.302 523.995 462.21 527.321 461.014C528.895 460.448 558.813 452.125 562.031 450.873C565.248 449.621 573.909 442.561 573.909 442.561L560.647 429.54Z" fill="#F6583E"/>
    <path d="M550.058 448.005C550.214 447.972 549.581 445.915 547.673 444.189C545.781 442.444 543.675 442.001 543.656 442.159C543.59 442.338 545.48 443.017 547.248 444.654C549.037 446.265 549.885 448.087 550.058 448.005Z" fill="#263238"/>
    <path d="M553.26 445.115C553.411 445.056 552.721 443.265 551.086 441.608C549.463 439.939 547.687 439.212 547.625 439.362C547.535 439.526 549.097 440.463 550.635 442.05C552.189 443.62 553.094 445.201 553.26 445.115Z" fill="#263238"/>
    <path d="M556.471 443.055C556.633 443.06 556.455 441.016 554.913 439.133C553.39 437.233 551.426 436.637 551.398 436.796C551.314 436.967 553.021 437.771 554.422 439.53C555.852 441.264 556.286 443.101 556.471 443.055Z" fill="#263238"/>
    <path d="M554.356 438.621C554.45 438.575 553.962 437.611 553.549 435.953C553.347 435.124 553.177 434.12 553.13 432.998C553.106 432.437 553.117 431.848 553.169 431.241C553.188 430.948 553.243 430.66 553.362 430.488C553.476 430.329 553.633 430.289 553.85 430.376C554.257 430.538 554.469 431.231 554.661 431.777C554.842 432.347 554.956 432.919 555.011 433.472C555.121 434.579 555.04 435.596 554.92 436.441C554.67 438.134 554.335 439.162 554.436 439.193C554.5 439.217 554.987 438.241 555.36 436.518C555.54 435.658 555.674 434.602 555.59 433.421C555.549 432.832 555.44 432.214 555.251 431.593C555.159 431.279 555.044 430.978 554.902 430.659C554.754 430.349 554.521 429.978 554.1 429.796C553.716 429.589 553.087 429.721 552.848 430.128C552.607 430.499 552.579 430.869 552.554 431.191C552.509 431.827 552.509 432.444 552.551 433.028C552.632 434.196 552.856 435.231 553.121 436.071C553.659 437.756 554.297 438.657 554.356 438.621Z" fill="#263238"/>
    <path d="M554.284 438.241C554.33 438.333 555.165 437.908 556.601 437.559C557.318 437.388 558.187 437.24 559.156 437.21C559.64 437.202 560.159 437.187 560.619 437.302C561.086 437.41 561.447 437.7 561.472 438.134C561.504 438.581 561.255 439.015 560.87 439.266C560.486 439.53 560.008 439.653 559.544 439.709C558.613 439.818 557.748 439.646 557.039 439.458C555.621 439.05 554.752 438.676 554.713 438.773C554.686 438.837 555.468 439.348 556.906 439.884C557.626 440.134 558.547 440.375 559.604 440.287C560.123 440.239 560.695 440.12 561.216 439.778C561.737 439.451 562.16 438.801 562.101 438.084C562.07 437.313 561.339 436.795 560.768 436.702C560.172 436.568 559.633 436.606 559.128 436.629C558.11 436.693 557.21 436.895 556.481 437.129C555.018 437.607 554.247 438.181 554.284 438.241Z" fill="#263238"/>
    <path d="M531.864 459.711C531.905 459.767 532.464 459.35 532.736 458.329C533.035 457.333 532.847 455.801 532.068 454.46C531.696 453.783 531.268 453.197 530.873 452.68C530.484 452.162 530.08 451.694 529.663 451.381C529.251 451.06 528.82 450.915 528.524 450.904C528.226 450.891 528.074 450.965 528.078 451.001C528.079 451.099 528.715 451.052 529.375 451.721C529.71 452.04 530.042 452.487 530.404 453.021C530.769 453.551 531.167 454.128 531.515 454.762C532.237 456.019 532.453 457.32 532.299 458.239C532.17 459.163 531.78 459.65 531.864 459.711Z" fill="#263238"/>
    <path d="M544.664 450.147C544.829 450.164 544.779 448.354 543.408 446.731C542.055 445.092 540.283 444.72 540.27 444.885C540.201 445.06 541.71 445.652 542.924 447.135C544.167 448.593 544.48 450.184 544.664 450.147Z" fill="#263238"/>
    <path d="M570.243 443.82C570.212 443.783 569.666 444.185 568.676 444.895C567.673 445.589 566.2 446.561 564.28 447.589C562.362 448.618 559.995 449.687 557.297 450.697C554.597 451.704 551.569 452.653 548.367 453.582C541.953 455.429 536.145 457.117 531.956 458.378C529.947 458.995 528.279 459.507 527.002 459.899C525.836 460.272 525.197 460.498 525.209 460.54C525.221 460.582 525.883 460.436 527.07 460.135C528.362 459.793 530.048 459.345 532.079 458.807C536.302 457.656 542.124 456.036 548.545 454.188C551.754 453.258 554.795 452.286 557.505 451.241C560.214 450.193 562.587 449.071 564.497 447.98C566.409 446.891 567.859 445.852 568.824 445.093C569.775 444.316 570.268 443.849 570.243 443.82Z" fill="#263238"/>
    <path d="M571.565 444.3C571.583 444.229 570.46 443.814 568.544 443.496C566.662 443.2 563.804 443.046 561.051 444.411C559.687 445.087 558.605 446.117 557.843 447.165C557.069 448.214 556.557 449.263 556.172 450.149C555.421 451.934 555.112 453.083 555.181 453.11C555.273 453.148 555.734 452.045 556.576 450.337C557.423 448.677 558.761 446.249 561.335 444.972C563.899 443.695 566.625 443.755 568.488 443.936C570.377 444.137 571.543 444.398 571.565 444.3Z" fill="#263238"/>
    <path d="M634.766 371.158C634.766 371.158 645.462 374.977 645.507 386.971C645.593 409.945 599.088 435.268 599.088 435.268L537.201 394.263L533.322 392.694C533.322 392.694 616.865 361.312 634.766 371.158Z" fill="#263238"/>
    <path d="M568.552 414.974C568.579 415.009 569.151 414.618 570.164 413.881C571.179 413.146 572.626 412.055 574.397 410.685C577.941 407.946 582.761 404.065 587.947 399.614C593.133 395.159 597.7 390.98 600.943 387.892C602.565 386.348 603.862 385.083 604.742 384.192C605.624 383.302 606.096 382.796 606.066 382.764C606.036 382.732 605.506 383.179 604.573 384.014C603.562 384.927 602.237 386.123 600.64 387.565C597.322 390.567 592.715 394.687 587.537 399.136C582.358 403.581 577.589 407.511 574.12 410.337C572.452 411.698 571.07 412.827 570.014 413.689C569.047 414.483 568.525 414.94 568.552 414.974Z" fill="#455A64"/>
    <path d="M617.295 379.745C617.318 379.591 614.558 379.321 611.331 380.286C608.097 381.227 605.926 382.953 606.029 383.07C606.132 383.234 608.388 381.796 611.51 380.891C614.623 379.956 617.298 379.938 617.295 379.745Z" fill="#455A64"/>
    <path d="M611.965 376.124C611.91 375.975 609.926 376.847 608.296 378.883C606.648 380.905 606.213 383.028 606.37 383.051C606.55 383.114 607.227 381.186 608.786 379.279C610.321 377.354 612.064 376.287 611.965 376.124Z" fill="#455A64"/>
    <path d="M638.169 448.867C638.202 448.795 637.431 448.646 636.574 449.351C635.731 450.024 635.015 451.372 634.785 452.943C634.552 454.526 634.905 455.98 635.349 456.904C635.787 457.844 636.269 458.285 636.323 458.241C636.408 458.183 636.069 457.66 635.763 456.738C635.448 455.827 635.196 454.483 635.409 453.032C635.621 451.589 636.213 450.341 636.873 449.682C637.53 448.994 638.182 448.967 638.169 448.867Z" fill="#263238"/>
    <path d="M630.341 338.526L612.735 385.954C611.729 388.664 609.128 390.448 606.238 390.409L509.324 389.133V381.769L545.286 383.082L560.555 335.74C561.071 334.14 562.562 333.057 564.244 333.062L626.76 333.243C629.479 333.252 631.339 335.995 630.341 338.526Z" fill="#E0E0E0"/>
    <path d="M630.342 338.526C630.342 338.526 630.354 338.475 630.383 338.377C630.406 338.277 630.471 338.136 630.504 337.936C630.593 337.545 630.659 336.924 630.465 336.155C630.262 335.402 629.761 334.475 628.763 333.863C628.273 333.559 627.669 333.347 627.003 333.307C626.336 333.276 625.612 333.299 624.851 333.292C618.739 333.285 609.87 333.275 598.77 333.261C593.214 333.251 587.1 333.239 580.497 333.227C577.194 333.22 573.769 333.213 570.23 333.205C568.46 333.201 566.662 333.197 564.836 333.193C563.92 333.147 563.026 333.263 562.256 333.76C561.497 334.237 560.91 334.989 560.652 335.869C556.041 350.185 550.912 366.109 545.431 383.129L545.396 383.239L545.281 383.235C533.813 382.817 521.732 382.378 509.319 381.926L509.481 381.77C509.481 382.184 509.481 382.634 509.481 383.084C509.481 385.156 509.481 387.22 509.481 389.134L509.327 388.978C531.007 389.268 551.59 389.544 570.272 389.794C579.611 389.922 588.475 390.044 596.764 390.157C598.836 390.186 600.872 390.214 602.87 390.242C603.869 390.256 604.859 390.27 605.839 390.283C606.815 390.324 607.768 390.208 608.657 389.872C610.431 389.22 611.867 387.816 612.54 386.133C613.185 384.41 613.816 382.724 614.432 381.078C619.344 367.905 623.311 357.268 626.055 349.908C627.428 346.247 628.493 343.404 629.222 341.46C629.946 339.532 630.342 338.526 630.342 338.526C630.342 338.526 629.985 339.547 629.277 341.482C628.561 343.431 627.513 346.28 626.164 349.951C623.441 357.319 619.506 367.967 614.633 381.154C614.019 382.803 613.391 384.492 612.748 386.219C612.055 387.961 610.573 389.416 608.737 390.094C607.824 390.444 606.816 390.565 605.834 390.525C604.854 390.513 603.864 390.501 602.865 390.488C600.867 390.463 598.831 390.438 596.759 390.412C588.471 390.308 579.606 390.196 570.267 390.078C551.585 389.836 531.002 389.57 509.322 389.289L509.168 389.287V389.133C509.168 387.219 509.168 385.155 509.168 383.083C509.168 382.633 509.168 382.183 509.168 381.769V381.607L509.33 381.613C521.743 382.068 533.823 382.51 545.292 382.93L545.142 383.035C550.637 366.02 555.779 350.099 560.402 335.787C560.676 334.858 561.308 334.045 562.119 333.538C562.924 333.007 563.94 332.884 564.837 332.935C566.663 332.942 568.461 332.948 570.231 332.954C573.77 332.967 577.195 332.98 580.498 332.992C587.102 333.018 593.215 333.042 598.771 333.064C609.871 333.115 618.741 333.156 624.852 333.184C625.615 333.195 626.331 333.177 627.009 333.212C627.69 333.257 628.307 333.478 628.805 333.793C629.819 334.425 630.319 335.374 630.517 336.139C630.705 336.921 630.629 337.547 630.53 337.939C630.428 338.336 630.342 338.526 630.342 338.526Z" fill="#263238"/>
    <path d="M587.366 356.46C588.623 355.608 590.946 355.95 592.077 356.963C593.208 357.977 593.574 359.731 592.999 361.137C592.424 362.543 590.976 363.528 589.46 363.609C587.849 363.695 586.169 362.687 585.719 361.138C585.268 359.589 585.768 357.277 587.366 356.46Z" fill="white"/>
    <path d="M609.524 437.851C609.524 437.851 522.183 381.906 518.327 379.711C515.047 377.844 506.272 372.441 497.62 374.828C488.968 377.215 481.21 384.972 477.331 396.31C475.115 402.787 474.068 413.84 473.577 422.127C472.99 432.037 476.058 441.917 482.54 449.436C485.489 452.857 489.127 455.834 493.442 457.176C494.352 457.459 495.297 457.704 496.268 457.914C512.8 461.498 529.789 454.077 539.078 439.939L541.118 436.834C541.118 436.834 598.317 457.848 599.212 457.55L609.524 437.851Z" fill="#263238"/>
    <path d="M522.835 382.81C522.83 382.817 522.755 382.774 522.616 382.682C522.453 382.571 522.252 382.433 522.005 382.265C521.47 381.895 520.683 381.349 519.645 380.683C517.572 379.361 514.504 377.476 510.369 375.97C508.304 375.234 505.949 374.639 503.383 374.497C500.821 374.388 498.047 374.77 495.348 375.808C492.642 376.822 490.016 378.436 487.627 380.492C486.432 381.517 485.276 382.645 484.199 383.859C483.134 385.079 482.193 386.444 481.363 387.894C479.703 390.798 478.475 393.859 477.595 396.892C476.772 399.938 476.113 402.95 475.486 405.792C474.24 411.49 473.567 416.711 473.475 421.116C473.405 425.522 473.848 429.077 474.269 431.503C474.46 432.722 474.677 433.655 474.808 434.292C474.866 434.586 474.913 434.824 474.951 435.018C474.98 435.182 474.991 435.268 474.982 435.27C474.973 435.272 474.945 435.191 474.899 435.031C474.847 434.84 474.784 434.605 474.706 434.316C474.542 433.686 474.292 432.758 474.069 431.54C473.585 429.117 473.083 425.547 473.106 421.111C473.151 416.677 473.791 411.414 475.015 405.694C475.634 402.83 476.276 399.845 477.103 396.752C477.987 393.681 479.224 390.586 480.91 387.635C481.754 386.162 482.713 384.771 483.807 383.519C484.909 382.28 486.076 381.146 487.294 380.105C489.725 378.022 492.407 376.384 495.178 375.36C497.942 374.312 500.783 373.936 503.403 374.067C506.027 374.232 508.412 374.859 510.492 375.625C514.656 377.193 517.708 379.137 519.754 380.515C520.778 381.209 521.549 381.784 522.064 382.181C522.299 382.367 522.49 382.518 522.645 382.641C522.777 382.745 522.84 382.802 522.835 382.81Z" fill="#455A64"/>
    <path d="M501.348 422.064C501.348 422.064 501.507 422.145 501.828 422.276C502.174 422.413 502.649 422.602 503.259 422.844C504.549 423.341 506.411 424.058 508.802 424.978C513.665 426.81 520.681 429.453 529.403 432.739C538.154 436.004 548.636 439.886 560.396 444.166C572.159 448.441 585.192 453.134 599.112 457.847L599.365 457.933L599.489 457.696C601.674 453.523 603.98 449.119 606.32 444.65C607.513 442.371 608.697 440.109 609.802 437.997L609.936 437.74L609.694 437.586C583.438 420.919 559.948 406.007 542.996 395.246C534.532 389.907 527.701 385.598 522.961 382.609C520.614 381.144 518.786 380.003 517.52 379.213C516.913 378.842 516.441 378.553 516.099 378.344C515.777 378.151 515.605 378.066 515.605 378.066C515.605 378.066 515.756 378.186 516.067 378.396C516.401 378.617 516.862 378.922 517.455 379.316C518.707 380.129 520.515 381.302 522.835 382.808C527.55 385.837 534.345 390.201 542.764 395.61C559.688 406.413 583.139 421.382 609.352 438.113L609.244 437.703C608.138 439.815 606.954 442.077 605.761 444.355C603.422 448.824 601.118 453.229 598.934 457.403L599.31 457.252C585.398 452.552 572.357 447.881 560.585 443.64C548.832 439.362 538.332 435.541 529.547 432.344C520.797 429.134 513.759 426.552 508.881 424.763C506.473 423.887 504.598 423.205 503.299 422.732C502.68 422.513 502.198 422.342 501.848 422.218C501.521 422.108 501.348 422.064 501.348 422.064Z" fill="#455A64"/>
    <path d="M505.869 236.467C504.344 233.471 502.808 230.443 501.988 227.182C501.168 223.922 501.115 220.361 502.506 217.3C503.319 215.51 504.597 213.941 505.236 212.082C506.114 209.523 505.755 206.504 507.339 204.311C509.815 200.884 515.113 201.683 518.941 199.888C521.923 198.49 524.006 195.475 527.141 194.469C529.88 193.59 532.867 194.433 535.512 195.565C538.157 196.697 540.736 198.139 543.588 198.513C545.622 198.78 547.684 198.486 549.734 198.529C551.784 198.573 553.962 199.027 555.406 200.484C556.849 201.941 557.153 204.631 555.59 205.959C559.177 205.35 562.557 208.932 562.51 212.57C562.463 216.208 559.722 219.411 556.413 220.924C553.104 222.437 549.326 222.536 545.699 222.253C535.429 221.453 525.111 217.549 518.119 209.984" fill="#F6583E"/>
    <path d="M508.083 223.617L501.086 274.466C499.896 283.113 506.185 290.996 514.88 291.758C522.995 292.469 530.239 286.676 531.341 278.605C531.864 274.777 532.307 271.585 532.387 271.195C532.387 271.195 545.499 271.759 548.197 259.075C549.5 252.946 551.158 240.103 552.522 228.467C553.988 215.97 545.595 204.447 533.256 201.982L532.029 201.737C518.647 199.867 509.582 210.188 508.083 223.617Z" fill="#FFBE9D"/>
    <path d="M532.446 271.016C532.446 271.016 524.28 270.064 516.811 262.993C516.811 262.993 518.901 272.926 531.817 274.316L532.446 271.016Z" fill="#EB996E"/>
    <path d="M546.82 239.277C546.663 240.243 545.715 240.905 544.703 240.759C543.694 240.613 543.001 239.714 543.159 238.748C543.317 237.783 544.264 237.118 545.274 237.264C546.286 237.41 546.978 238.312 546.82 239.277Z" fill="#263238"/>
    <path d="M548.544 234.162C548.272 234.354 547.1 233.061 545.144 232.676C543.197 232.263 541.562 232.982 541.398 232.7C541.315 232.573 541.63 232.192 542.345 231.862C543.05 231.532 544.186 231.301 545.403 231.55C546.619 231.8 547.553 232.452 548.05 233.029C548.558 233.609 548.676 234.078 548.544 234.162Z" fill="#263238"/>
    <path d="M528.596 236.131C528.438 237.097 527.491 237.759 526.479 237.613C525.469 237.467 524.777 236.568 524.935 235.602C525.093 234.637 526.041 233.973 527.05 234.118C528.062 234.265 528.754 235.166 528.596 236.131Z" fill="#263238"/>
    <path d="M529.265 230.689C528.992 230.881 527.817 229.588 525.864 229.203C523.917 228.79 522.283 229.509 522.119 229.227C522.036 229.1 522.348 228.719 523.065 228.389C523.77 228.059 524.906 227.828 526.122 228.076C527.338 228.326 528.273 228.979 528.77 229.555C529.277 230.136 529.397 230.605 529.265 230.689Z" fill="#263238"/>
    <path d="M533.461 246.596C533.474 246.483 534.731 246.516 536.749 246.657C537.258 246.705 537.75 246.7 537.903 246.377C538.093 246.04 537.991 245.46 537.865 244.832C537.637 243.531 537.399 242.167 537.149 240.738C536.181 234.919 535.586 230.175 535.821 230.138C536.056 230.101 537.031 234.787 537.999 240.606C538.226 242.039 538.444 243.404 538.649 244.711C538.724 245.316 538.921 246.024 538.516 246.721C538.307 247.067 537.887 247.265 537.55 247.287C537.211 247.321 536.929 247.27 536.679 247.236C534.677 246.945 533.446 246.708 533.461 246.596Z" fill="#263238"/>
    <path d="M527.44 246.799C527.762 246.844 527.342 248.965 528.856 250.834C530.366 252.706 532.675 252.92 532.632 253.22C532.635 253.359 532.046 253.531 531.087 253.367C530.145 253.212 528.838 252.638 527.911 251.495C526.988 250.35 526.758 249.024 526.86 248.139C526.955 247.235 527.297 246.757 527.44 246.799Z" fill="#263238"/>
    <path d="M531.3 223.132C531.001 223.625 529.1 222.983 526.753 222.802C524.409 222.573 522.426 222.875 522.217 222.338C522.127 222.083 522.549 221.647 523.399 221.283C524.242 220.917 525.522 220.665 526.929 220.787C528.335 220.912 529.552 221.382 530.319 221.888C531.093 222.395 531.433 222.897 531.3 223.132Z" fill="#F6583E"/>
    <path d="M548.956 228.363C548.524 228.738 547.27 228.008 545.655 227.663C544.053 227.261 542.606 227.364 542.384 226.837C542.291 226.584 542.595 226.183 543.278 225.882C543.952 225.581 545.007 225.437 546.113 225.692C547.218 225.949 548.101 226.544 548.574 227.111C549.054 227.682 549.151 228.177 548.956 228.363Z" fill="#F6583E"/>
    <path d="M507.24 233.239C507.042 233.102 499.02 228.909 497.561 237.658C496.102 246.406 505.186 246.067 505.243 245.818C505.299 245.57 507.24 233.239 507.24 233.239Z" fill="#FFBE9D"/>
    <path d="M503.122 242.058C503.088 242.024 502.951 242.139 502.674 242.214C502.404 242.287 501.959 242.294 501.531 242.047C500.664 241.554 500.13 239.957 500.35 238.373C500.461 237.573 500.754 236.843 501.141 236.262C501.515 235.667 502.003 235.289 502.483 235.283C502.964 235.253 503.247 235.587 503.313 235.851C503.389 236.115 503.305 236.28 503.349 236.303C503.37 236.329 503.561 236.188 503.551 235.815C503.544 235.635 503.476 235.412 503.298 235.21C503.117 235.004 502.822 234.866 502.492 234.847C501.81 234.781 501.099 235.3 500.674 235.938C500.211 236.572 499.863 237.39 499.739 238.288C499.501 240.06 500.128 241.86 501.332 242.437C501.921 242.7 502.465 242.6 502.764 242.438C503.071 242.267 503.15 242.079 503.122 242.058Z" fill="#EB996E"/>
    <path d="M555.04 216.657C553.538 219.89 545.82 221.138 540.162 219.431C534.946 217.857 533.054 214.546 529.735 211.659C527.634 209.832 527.634 209.832 524.209 209.478C521.44 209.192 519.217 211.95 517.122 213.785C518.288 220.737 515.196 227.621 512.183 233.994C511.85 234.698 511.469 235.453 510.77 235.797C509.584 236.382 508.168 235.457 507.459 234.34C506.324 232.552 506.191 230.319 506.233 228.201C506.329 223.377 507.175 218.527 509.134 214.118C511.093 209.709 514.206 205.753 518.279 203.167C523.37 199.936 529.784 199.013 535.677 200.286C541.571 201.559 546.923 204.936 550.93 209.442C552.79 211.531 554.408 213.932 555.04 216.657Z" fill="#F6583E"/>
    <path d="M537.245 237.804C537.32 237.808 537.294 237.05 537.643 235.771C537.989 234.516 538.848 232.682 540.739 231.275C542.567 229.863 545.574 229.076 548.481 230.161C549.913 230.68 551.277 231.657 552.246 233.006C553.243 234.337 553.802 236.043 553.819 237.803C553.802 239.563 553.243 241.27 552.246 242.602C551.277 243.951 549.912 244.929 548.48 245.448C545.573 246.533 542.566 245.745 540.737 244.333C538.845 242.925 537.986 241.092 537.641 239.837C537.294 238.559 537.32 237.801 537.245 237.804C537.22 237.804 537.206 237.99 537.201 238.348C537.189 238.705 537.23 239.237 537.376 239.904C537.65 241.219 538.47 243.183 540.436 244.731C542.334 246.28 545.548 247.198 548.704 246.061C550.258 245.517 551.746 244.47 552.806 243.013C553.895 241.575 554.512 239.716 554.528 237.804C554.512 235.893 553.894 234.034 552.805 232.597C551.745 231.139 550.258 230.093 548.704 229.549C545.548 228.412 542.335 229.329 540.437 230.878C538.471 232.425 537.651 234.389 537.377 235.705C537.231 236.372 537.19 236.904 537.202 237.261C537.206 237.618 537.221 237.804 537.245 237.804Z" fill="#263238"/>
    <path d="M516.495 234.181C516.57 234.185 516.544 233.427 516.893 232.148C517.239 230.893 518.098 229.059 519.99 227.652C521.818 226.24 524.825 225.453 527.732 226.538C529.164 227.057 530.529 228.035 531.497 229.384C532.494 230.715 533.053 232.421 533.07 234.181C533.054 235.941 532.494 237.648 531.497 238.98C530.528 240.33 529.163 241.307 527.731 241.826C524.823 242.911 521.817 242.123 519.988 240.711C518.096 239.303 517.237 237.47 516.892 236.215C516.544 234.935 516.57 234.177 516.495 234.181C516.471 234.181 516.456 234.367 516.451 234.725C516.439 235.082 516.48 235.614 516.626 236.281C516.9 237.596 517.72 239.56 519.686 241.108C521.584 242.657 524.798 243.575 527.954 242.437C529.508 241.893 530.996 240.846 532.056 239.388C533.145 237.95 533.763 236.091 533.778 234.179C533.762 232.268 533.144 230.41 532.056 228.972C530.996 227.514 529.509 226.468 527.955 225.924C524.799 224.787 521.586 225.704 519.688 227.253C517.722 228.8 516.902 230.764 516.628 232.08C516.482 232.747 516.441 233.279 516.453 233.636C516.456 233.995 516.471 234.181 516.495 234.181Z" fill="#263238"/>
    <path d="M533.588 234.475C533.676 234.652 534.788 234.131 536.082 234.527C537.38 234.91 538.021 235.958 538.191 235.859C538.273 235.821 538.232 235.488 537.94 235.047C537.655 234.611 537.081 234.089 536.286 233.849C535.491 233.61 534.724 233.729 534.246 233.936C533.758 234.143 533.541 234.398 533.588 234.475Z" fill="#263238"/>
    <path d="M504.738 231.94C504.741 232.135 507.531 232.254 510.968 232.206C514.407 232.158 517.192 231.96 517.189 231.765C517.186 231.57 514.397 231.451 510.958 231.499C507.52 231.547 504.735 231.745 504.738 231.94Z" fill="#263238"/>
    <path d="M559.125 208.308C559.125 208.308 559.15 208.616 558.99 209.142C558.837 209.665 558.432 210.389 557.679 211.025C556.939 211.672 555.822 212.171 554.533 212.313C553.243 212.472 551.819 212.315 550.36 212.095C547.431 211.664 544.812 211.085 542.937 210.596C541.999 210.353 541.245 210.136 540.727 209.978C540.516 209.911 540.32 209.848 540.133 209.788C539.998 209.742 539.928 209.715 539.93 209.708C539.932 209.701 540.006 209.715 540.145 209.748C540.336 209.796 540.535 209.846 540.75 209.9C541.395 210.06 542.133 210.244 542.974 210.453C544.855 210.904 547.472 211.459 550.392 211.889C551.848 212.109 553.251 212.267 554.512 212.122C555.773 211.992 556.854 211.526 557.587 210.911C558.33 210.307 558.743 209.619 558.915 209.115C559.093 208.61 559.101 208.305 559.125 208.308Z" fill="white"/>
    <path d="M561.064 210.293C561.064 210.293 560.975 211.268 560.315 212.686C559.671 214.091 558.351 215.916 556.289 217.151C554.225 218.383 551.992 218.682 550.45 218.584C548.889 218.495 547.988 218.111 547.988 218.111C547.993 218.094 548.225 218.152 548.648 218.236C549.07 218.321 549.689 218.412 550.456 218.436C551.979 218.495 554.162 218.177 556.183 216.971C558.2 215.763 559.514 213.99 560.183 212.62C560.525 211.932 560.738 211.344 560.863 210.932C560.988 210.521 561.047 210.289 561.064 210.293Z" fill="white"/>
</svg>
