<svg width="465" height="431" viewBox="0 0 465 431" fill="none" xmlns="http://www.w3.org/2000/svg">
	<path d="M229.844 291.985L244.228 345.627L296.767 273.299L284.398 462.953H209.388L187.516 464.026C187.516 464.026 190.758 434.133 192.094 417.257C192.348 414.045 193.431 395.245 198.756 377.521C209.946 340.283 229.844 291.985 229.844 291.985Z" fill="#FAFAFA"/>
	<path d="M246.787 375.915C246.972 376.159 238.499 383.122 227.865 391.464C217.226 399.809 208.456 406.374 208.273 406.13C208.087 405.885 216.559 398.925 227.197 390.578C237.831 382.237 246.602 375.67 246.787 375.915Z" fill="#263238"/>
	<path d="M377.359 265.836L336.507 245.797L320.487 226.383L297.822 250.402L237.732 462.436H340.78L353.996 426.059L377.359 285.564V265.836Z" fill="#F6583E"/>
	<path d="M193.526 465.508L190.766 420.507L315.252 399.004C315.252 399.004 336.52 294.274 349.62 277.112C361.711 261.274 377.477 266.768 377.477 266.768C377.477 266.768 391.683 276.689 388.286 314.673C386.507 334.564 379.375 403.53 376.789 428.444C376.17 434.417 374.232 440.16 371.12 445.258C363.998 456.929 351.473 464.024 337.992 464.024L193.526 465.508Z" fill="#F6583E"/>
	<path d="M335.585 425.151C335.404 425.17 335.229 423.152 334.323 420.074C333.435 417.008 331.653 412.877 328.564 409.146C325.477 405.411 321.786 402.924 318.97 401.514C316.146 400.084 314.226 399.569 314.274 399.389C314.295 399.27 316.304 399.513 319.294 400.797C322.268 402.057 326.187 404.537 329.402 408.427C332.618 412.313 334.353 416.669 335.071 419.87C335.808 423.09 335.705 425.149 335.585 425.151Z" fill="#263238"/>
	<g opacity="0.2">
		<path d="M333.314 248.855C332.135 262.096 329.644 275.216 325.893 287.951C322.773 287.017 319.652 286.083 316.529 285.149C320.374 290.761 320.844 298.211 319.323 304.877C317.803 311.543 314.499 317.623 311.233 323.602C295.745 351.966 280.257 380.329 264.771 408.693L311.608 300.278L310.389 280.237L319.406 278.273L333.314 248.855Z" fill="black"/>
	</g>
	<g opacity="0.2">
		<path d="M314.845 397.751C320.508 397.413 326.267 399.127 330.86 402.517C335.452 405.906 338.851 410.949 340.304 416.538C340.652 417.875 340.885 419.331 340.378 420.615C339.87 421.898 338.373 422.86 337.126 422.309C336.179 421.89 335.718 420.814 335.305 419.85C331.239 410.383 323.216 402.761 313.664 399.292" fill="black"/>
	</g>
	<path d="M265.113 407.667C265.079 407.652 265.296 407.053 265.745 405.928C266.241 404.715 266.911 403.083 267.753 401.026C269.585 396.69 272.163 390.586 275.33 383.085C281.862 367.894 290.816 347.069 300.706 324.066C304.335 315.708 307.837 307.638 311.124 300.064L311.079 300.313C310.665 293.191 310.275 286.474 309.913 280.269L309.888 279.853L310.283 279.767C313.459 279.089 316.46 278.449 319.309 277.841L319.01 278.08C323.682 268.445 327.517 260.533 330.236 254.926C331.562 252.255 332.613 250.136 333.379 248.59C333.723 247.927 334.003 247.386 334.23 246.95C334.428 246.583 334.54 246.398 334.561 246.409C334.58 246.42 334.508 246.622 334.348 247.008C334.15 247.461 333.908 248.019 333.611 248.706C332.895 250.278 331.914 252.431 330.676 255.147C328.039 260.795 324.318 268.762 319.787 278.468L319.696 278.661L319.488 278.709C316.643 279.342 313.648 280.008 310.479 280.712L310.852 280.211C311.246 286.414 311.673 293.129 312.126 300.248L312.134 300.377L312.082 300.497C308.807 308.078 305.32 316.154 301.707 324.519C291.7 347.471 282.643 368.248 276.035 383.405C272.734 390.846 270.049 396.902 268.139 401.202C267.216 403.223 266.484 404.829 265.94 406.018C265.433 407.113 265.146 407.682 265.113 407.667Z" fill="#263238"/>
	<path d="M193.437 464.026C193.418 464.026 193.383 463.775 193.336 463.279C193.29 462.723 193.227 461.998 193.149 461.079C193.006 459.072 192.801 456.233 192.542 452.616C192.06 445.192 191.374 434.574 190.525 421.491L190.502 421.132L190.849 421.068C214.228 416.69 245.968 410.746 280.9 404.202C292.444 402.066 303.638 399.996 314.104 398.06L313.687 398.455C320.988 370.18 327.322 345.644 331.851 328.095C334.136 319.42 335.964 312.475 337.24 307.623C337.874 305.291 338.371 303.467 338.727 302.153C338.893 301.577 339.028 301.114 339.133 300.746C339.23 300.431 339.287 300.272 339.301 300.276C339.316 300.281 339.291 300.446 339.224 300.77C339.139 301.144 339.036 301.614 338.906 302.2C338.59 303.525 338.15 305.364 337.589 307.715C336.383 312.586 334.658 319.559 332.502 328.269C328.065 345.841 321.859 370.414 314.71 398.727L314.626 399.062L314.293 399.125C303.83 401.072 292.638 403.154 281.096 405.303C246.143 411.729 214.381 417.566 190.99 421.866L191.315 421.443C192.014 434.537 192.58 445.16 192.978 452.59C193.147 456.214 193.279 459.054 193.374 461.066C193.406 461.985 193.429 462.715 193.448 463.273C193.463 463.769 193.458 464.024 193.437 464.026Z" fill="#263238"/>
	<path d="M371.083 262.32C371.114 262.521 369 262.839 365.818 264.048C362.641 265.237 358.455 267.524 354.671 271.12C350.903 274.735 348.391 278.846 347.02 282.002C345.631 285.16 345.182 287.29 344.986 287.245C344.912 287.23 344.971 286.689 345.146 285.714C345.298 284.737 345.687 283.352 346.306 281.695C347.526 278.38 350.025 274.041 353.923 270.304C357.835 266.583 362.243 264.325 365.568 263.301C367.229 262.779 368.611 262.474 369.577 262.384C370.54 262.27 371.072 262.244 371.083 262.32Z" fill="#263238"/>
	<path d="M135.737 214.61C139.427 207.678 137.792 179.68 143.48 180.67C150.728 181.932 144.032 211.357 143.575 214.039C143.133 216.643 146.921 217.384 147.203 214.945C147.614 211.439 151.842 177.201 158.981 179.129C162.937 180.196 161.118 187.562 161.118 187.562C161.118 187.562 154.98 220.748 158.381 221.542C161.834 222.352 164.384 203.199 165.902 196.239C167.359 189.565 171.619 186.694 173.237 190.213C175.61 195.372 171.057 212.083 169.701 218.792C168.345 225.499 164.953 244.911 174.184 237.324C183.418 229.739 193.258 227.36 196.318 228.575C199.378 229.793 198.712 234.584 195.162 235.535C192.294 236.304 187.872 239.076 184.629 241.293C181.957 243.12 179.842 245.598 177.644 247.985C176.075 249.69 173.321 253.178 171.038 258.468C168.396 264.591 163.249 269.231 157.003 271.274L151.615 297.427L116.701 289.8L124.486 262.131C127.318 243.96 125.754 219.528 125.777 208.414C125.817 190.694 128.081 190.561 130.083 191.031C134.505 192.066 132.139 221.375 135.737 214.61Z" fill="#FFD1BD"/>
	<path d="M134.762 238.397C134.718 238.562 136.693 238.925 139.406 240.602C142.091 242.238 145.451 245.443 147.283 250.091C147.782 251.334 148.098 252.607 148.332 253.831L148.448 254.436L148.943 254.138C152.306 252.118 155.609 251.124 157.987 250.654C160.373 250.177 161.845 250.13 161.84 250.003C161.843 249.917 160.356 249.767 157.898 250.1C155.454 250.426 152.023 251.338 148.534 253.382L149.145 253.691C148.913 252.401 148.585 251.059 148.062 249.756C147.109 247.337 145.71 245.276 144.228 243.646C142.724 242.025 141.12 240.855 139.694 240.054C138.273 239.234 137.003 238.857 136.144 238.599C135.264 238.406 134.773 238.339 134.762 238.397Z" fill="#CC8F75"/>
	<path d="M130.124 263.292C130.006 263.47 133.449 265.787 138.271 267.303C143.087 268.848 147.21 268.936 147.212 268.72C147.238 268.46 143.23 267.992 138.522 266.48C133.807 264.999 130.246 263.065 130.124 263.292Z" fill="#CC8F75"/>
	<path d="M256.521 237.536L229.848 291.985L244.232 345.627L282.532 304.362L320.288 232.856L256.521 237.536Z" fill="#FFD1BD"/>
	<path d="M231.407 242.644C231.407 242.644 193.492 256.386 193.492 258.94C193.492 258.94 193.49 258.951 193.49 258.955C186.796 264.314 164.494 319.278 157.4 329.671L137.117 360.133L154.127 292.442L116.701 281.219C116.701 281.219 84.7444 359.957 80.8593 377.471C76.9762 394.985 81.4636 408.88 81.4636 408.88L81.67 408.699C84.3949 417.18 89.655 423.979 95.6902 427.923C111.559 438.296 126.371 440.248 141.533 428.826C150.128 422.351 159.937 414.55 168.926 407.25L171.283 464.089H191.949C191.949 460.896 191.321 421.948 191.321 421.948C191.321 421.948 195.705 407.263 197.584 393.854C199.462 380.445 230.25 292.466 230.25 292.466L254.153 245.54L254.709 228.178L231.407 242.644Z" fill="#F6583E"/>
	<path d="M170.877 463.608C170.841 463.61 170.78 463 170.698 461.839C170.622 460.581 170.519 458.883 170.388 456.742C170.159 452.206 169.836 445.802 169.438 437.893C168.729 421.83 167.75 399.685 166.652 374.878L166.65 374.813L166.665 374.74C167.109 372.392 167.585 369.888 168.063 367.359C173.073 341.286 177.609 317.689 180.913 300.491C182.595 292.022 183.962 285.132 184.931 280.255C185.413 277.945 185.796 276.113 186.078 274.765C186.209 274.196 186.316 273.728 186.402 273.344C186.482 273.024 186.531 272.863 186.55 272.867C186.569 272.872 186.556 273.041 186.512 273.367C186.453 273.758 186.381 274.233 186.293 274.812C186.061 276.171 185.745 278.018 185.347 280.345C184.461 285.242 183.21 292.155 181.671 300.654C178.447 317.87 174.023 341.49 169.135 367.589C168.655 370.118 168.179 372.621 167.733 374.97L167.743 374.833C168.704 399.646 169.561 421.798 170.182 437.863C170.439 445.776 170.647 452.184 170.795 456.725C170.841 458.87 170.879 460.572 170.908 461.83C170.923 462.994 170.912 463.606 170.877 463.608Z" fill="#263238"/>
	<path d="M192.071 413.156C192.033 413.15 192.1 412.536 192.26 411.374C192.448 410.114 192.698 408.425 193.016 406.301C193.737 401.793 194.749 395.458 195.994 387.675C198.628 371.87 202.237 350.217 206.226 326.296C208.904 310.639 211.417 295.952 213.556 283.447L213.566 283.387L213.59 283.335C218.844 271.186 223.24 261.023 226.37 253.784C227.909 250.304 229.136 247.532 230.025 245.527C230.432 244.644 230.762 243.932 231.023 243.365C231.257 242.88 231.388 242.633 231.413 242.644C231.436 242.654 231.35 242.92 231.162 243.425C230.935 244.007 230.651 244.739 230.297 245.645C229.469 247.676 228.322 250.484 226.883 254.009C223.84 261.287 219.57 271.506 214.464 283.722L214.495 283.612C212.398 296.124 209.934 310.819 207.308 326.487C203.198 350.386 199.477 372.02 196.76 387.81C195.373 395.567 194.244 401.883 193.44 406.376C193.04 408.485 192.719 410.164 192.481 411.415C192.248 412.562 192.109 413.163 192.071 413.156Z" fill="#263238"/>
	<path d="M119.433 406.845C119.286 406.735 120.911 404.367 123.181 400.338C125.466 396.314 128.294 390.565 130.785 383.944C133.266 377.317 134.959 371.116 136.003 366.589C137.056 362.061 137.543 359.216 137.715 359.242C137.791 359.253 137.749 359.976 137.61 361.28C137.479 362.583 137.197 364.457 136.761 366.756C135.904 371.357 134.315 377.652 131.809 384.345C129.292 391.031 126.319 396.793 123.845 400.745C122.615 402.727 121.549 404.283 120.749 405.31C119.96 406.342 119.494 406.89 119.433 406.845Z" fill="#263238"/>
	<g opacity="0.2">
		<path d="M122.284 403.702C120.869 403.828 120.065 405.718 120.684 407.021C121.303 408.324 122.899 408.923 124.304 408.712C125.71 408.502 126.94 407.639 127.989 406.662C131.211 403.652 133.114 399.449 134.428 395.2C137.631 384.856 137.785 373.826 137.911 362.98C134.936 377.098 129.665 390.709 122.377 403.09" fill="black"/>
	</g>
	<g opacity="0.2">
		<path d="M168.331 408.753C161.919 398.356 159.847 386.213 160.687 373.961C161.82 357.439 169.698 342.331 175.577 326.891C172.193 343.126 170.265 359.242 167.199 374.852C167.199 374.852 168.837 398.049 168.875 408.35" fill="black"/>
	</g>
	<g opacity="0.2">
		<path d="M194.48 398.399C196.125 373.673 197.778 348.89 202.068 324.497C206.359 300.104 214.689 274.827 226.484 253.159C223.43 262.955 214.022 283.529 214.022 283.529C214.022 283.529 200.427 356.563 194.537 393.349" fill="black"/>
	</g>
	<path d="M191.425 426.825L194.822 465.164L177.064 465.093C176.594 465.093 169.344 464.971 161.351 464.834C155.471 465.598 146.151 465.628 143.321 465.325C142.82 465.272 142.523 465.207 142.485 465.134C142.485 465.134 141.146 464.969 139.748 464.46C139.708 464.46 139.668 464.458 139.668 464.458L139.674 464.432C138.065 463.833 136.414 462.779 136.671 460.978C137.448 455.48 140.653 455.037 140.653 455.037C140.653 455.037 141.26 454.992 142.262 454.924L142.393 454.445C139.952 454.449 137.903 454.383 136.816 454.265C136.315 454.211 136.018 454.147 135.981 454.074C135.981 454.074 129.684 453.311 130.166 449.917C130.946 444.419 134.151 443.977 134.151 443.977C134.151 443.977 136.326 443.82 139.333 443.623C136.814 443.631 134.683 443.565 133.572 443.444C133.07 443.391 132.773 443.326 132.736 443.253C132.736 443.253 126.441 442.491 126.922 439.097C127.699 433.599 130.904 433.157 130.904 433.157C130.904 433.157 132.66 433.03 135.191 432.86C133.152 432.85 131.468 432.785 130.518 432.682C130.017 432.628 129.72 432.564 129.682 432.491C129.682 432.491 123.386 431.729 123.868 428.333C124.645 422.834 127.852 422.394 127.852 422.394C127.852 422.394 137.76 421.675 144.561 421.387C144.564 421.381 152.277 414.294 155.318 414.621C159.858 415.11 186.268 425.048 186.268 425.048L191.425 426.825Z" fill="#FFD1BD"/>
	<path d="M141.721 421.613C141.723 421.746 143.247 421.843 145.711 421.933C148.535 422.027 151.765 422.135 155.33 422.253C158.895 422.384 162.126 422.502 164.949 422.605C167.413 422.684 168.942 422.697 168.952 422.564C168.963 422.437 167.451 422.19 164.994 421.939C162.536 421.688 159.131 421.441 155.362 421.31C151.597 421.179 148.183 421.188 145.713 421.267C143.245 421.344 141.719 421.484 141.721 421.613Z" fill="#CC8F75"/>
	<path d="M337.725 109.299C342.185 98.2367 356.311 93.2023 367.328 97.3135C378.345 101.425 385.703 112.958 387.027 124.843C387.678 130.687 386.958 136.93 383.665 141.758C380.198 146.837 374.25 149.742 368.24 150.601C357.5 152.138 346.11 147.363 339.534 138.572C332.958 129.781 331.459 117.318 335.754 107.165" fill="#263238"/>
	<path d="M382.557 110.768C382.613 110.809 382.35 111.341 381.765 112.234C381.182 113.129 380.242 114.366 378.933 115.759C376.343 118.546 372.047 121.876 366.532 123.804C361.015 125.736 355.62 125.798 351.897 125.221C350.025 124.941 348.538 124.553 347.538 124.214C346.535 123.874 346.007 123.621 346.028 123.552C346.081 123.368 348.3 124.085 351.985 124.435C355.647 124.8 360.848 124.609 366.174 122.745C371.497 120.884 375.715 117.775 378.385 115.195C381.087 112.612 382.405 110.654 382.557 110.768Z" fill="#455A64"/>
	<path d="M387.246 123.387C387.292 123.449 386.86 123.857 386.039 124.549C385.226 125.253 383.976 126.176 382.379 127.241C379.181 129.33 374.417 131.889 368.648 133.121C365.769 133.72 362.956 133.896 360.416 133.787C357.872 133.645 355.613 133.205 353.77 132.668C351.932 132.119 350.481 131.556 349.532 131.054C348.571 130.577 348.06 130.281 348.091 130.212C348.173 130.017 350.315 131.028 353.962 131.902C355.786 132.329 357.993 132.677 360.458 132.758C362.922 132.81 365.636 132.608 368.429 132.028C374.019 130.835 378.722 128.458 381.979 126.567C385.235 124.643 387.136 123.237 387.246 123.387Z" fill="#455A64"/>
	<path d="M223.852 142.342C197.784 83.8913 259.789 54.5265 293.622 64.2668C325.419 73.4232 338.98 89.5547 344.213 111.236C349.448 132.928 349.197 156.419 340.858 177.076C336.746 187.263 329.342 197.611 318.611 198.884" fill="#263238"/>
	<path d="M254.989 286.805C254.538 258.878 254.22 220.516 254.21 220.675C254.21 220.675 230.663 216.688 225.786 185.369C223.36 169.794 224.129 144.255 225.418 123.381C226.58 104.591 238.791 81.5362 257.154 83.5178L314.496 98.2925C320.074 98.8936 324.275 103.748 324.163 109.465L320.428 230.387" fill="#FFD1BD"/>
	<path d="M239.484 145.633C239.388 147.741 241.058 149.562 243.214 149.706C245.366 149.85 247.194 148.263 247.293 146.155C247.39 144.049 245.72 142.224 243.568 142.08C241.411 141.936 239.581 143.527 239.484 145.633Z" fill="#263238"/>
	<path d="M281.965 145.635C281.868 147.743 283.538 149.564 285.694 149.708C287.846 149.851 289.674 148.265 289.773 146.157C289.87 144.048 288.2 142.226 286.048 142.082C283.89 141.936 282.062 143.527 281.965 145.635Z" fill="#263238"/>
	<path d="M256.542 167.808C256.561 167.563 253.927 167.1 249.656 166.541C248.574 166.428 247.548 166.209 247.365 165.455C247.11 164.656 247.563 163.467 248.087 162.183C249.104 159.513 250.17 156.713 251.288 153.78C255.733 141.814 258.953 131.975 258.477 131.797C258.003 131.618 254.013 141.172 249.568 153.139C248.498 156.088 247.474 158.901 246.502 161.593C246.091 162.847 245.388 164.27 245.939 165.925C246.23 166.75 247.026 167.349 247.719 167.54C248.412 167.754 249.022 167.767 249.557 167.799C253.861 168.036 256.527 168.055 256.542 167.808Z" fill="#263238"/>
	<path d="M254.16 220.801C254.16 220.801 274.828 222.16 295.303 209.612C295.303 209.612 284.906 231.4 254.16 228.47V220.801Z" fill="#CC8F75"/>
	<path d="M318.301 148.98C318.75 148.759 334.745 141.548 334.933 160.298C335.12 179.049 316.615 175.374 316.579 174.837C316.541 174.3 318.301 148.98 318.301 148.98Z" fill="#FFD1BD"/>
	<path d="M322.123 167.675C322.203 167.613 322.445 167.9 322.99 168.147C323.521 168.388 324.431 168.549 325.385 168.173C327.32 167.426 328.924 164.264 328.981 160.882C329.011 159.176 328.644 157.553 328.038 156.215C327.463 154.85 326.583 153.901 325.604 153.733C324.629 153.514 323.942 154.118 323.721 154.648C323.481 155.174 323.601 155.547 323.504 155.58C323.454 155.627 323.106 155.27 323.247 154.493C323.319 154.12 323.532 153.675 323.959 153.31C324.397 152.939 325.044 152.748 325.726 152.814C327.145 152.9 328.434 154.216 329.101 155.687C329.847 157.164 330.297 158.984 330.264 160.902C330.184 164.682 328.322 168.237 325.671 169.049C324.38 169.405 323.298 169.021 322.736 168.583C322.159 168.128 322.058 167.709 322.123 167.675Z" fill="#CC8F75"/>
	<path d="M257.794 179.852C258.413 181.447 259.042 183.066 260.078 184.418C261.114 185.771 262.628 186.84 264.309 186.922C266.099 187.008 267.825 185.928 268.824 184.412C269.822 182.894 270.163 181.003 270.083 179.178C270.009 177.527 269.27 175.558 267.659 175.363C266.989 175.281 266.33 175.545 265.705 175.805C262.885 176.971 260.066 178.137 257.246 179.302" fill="#CC8F75"/>
	<path d="M261.179 186.986C261.221 186.716 263.078 187.484 265.69 186.417C266.953 185.898 268.337 184.872 269.099 183.259C269.861 181.664 270.013 179.507 269.21 177.617C269.025 177.145 268.745 176.713 268.473 176.329C268.139 175.971 268.2 175.988 267.835 176.041C267.49 176.136 266.934 176.404 266.481 176.585C266.01 176.78 265.546 176.973 265.092 177.162C263.281 177.909 261.642 178.562 260.257 179.088C257.488 180.142 255.734 180.698 255.651 180.503C255.569 180.307 257.174 179.399 259.838 178.087C261.169 177.433 262.765 176.675 264.544 175.857C264.993 175.653 265.447 175.445 265.913 175.232C266.408 175.026 266.783 174.798 267.458 174.584C267.789 174.489 268.257 174.436 268.713 174.62C269.16 174.805 269.438 175.114 269.646 175.372C270.025 175.885 270.358 176.413 270.598 177.008C271.592 179.365 271.352 181.973 270.339 183.908C269.305 185.883 267.543 186.993 266.045 187.446C264.523 187.924 263.213 187.808 262.381 187.592C261.539 187.364 261.145 187.072 261.179 186.986Z" fill="#263238"/>
	<path d="M338.929 136.146C337.044 136.011 321.855 138.016 323.051 166.803C324.17 193.693 342.671 187.772 348.575 177.647C354.168 168.057 357.398 137.466 338.929 136.146Z" fill="#455A64"/>
	<path d="M348.316 139.547C348.295 139.547 348.271 139.287 348.244 138.789C348.221 138.228 348.191 137.503 348.156 136.597C348.101 134.609 348.025 131.839 347.93 128.396C347.791 121.324 347.598 111.504 347.374 100.16L347.715 100.502C345.21 100.506 342.58 100.508 339.884 100.512L340.236 100.145C340.293 102.288 340.354 104.548 340.415 106.843C340.678 117.646 340.922 127.709 341.127 136.129L341.133 136.376L340.899 136.432C337.374 137.273 334.588 139.362 332.832 141.726C331.042 144.092 330.153 146.606 329.61 148.671C329.067 150.751 328.884 152.443 328.78 153.587C328.73 154.16 328.703 154.603 328.688 154.901C328.669 155.199 328.66 155.352 328.646 155.354C328.631 155.354 328.608 155.202 328.597 154.901C328.583 154.6 328.58 154.156 328.601 153.576C328.648 152.419 328.778 150.708 329.277 148.585C329.781 146.479 330.636 143.898 332.447 141.429C334.22 138.963 337.113 136.743 340.762 135.841L340.535 136.144C340.297 127.724 340.015 117.664 339.709 106.861C339.65 104.566 339.591 102.305 339.537 100.162L339.526 99.7931H339.888C342.582 99.7974 345.214 99.7995 347.72 99.8038H348.057L348.061 100.145C348.183 111.489 348.288 121.311 348.366 128.383C348.377 131.827 348.385 134.598 348.391 136.586C348.381 137.492 348.375 138.218 348.368 138.78C348.351 139.287 348.335 139.547 348.316 139.547Z" fill="#455A64"/>
	<path d="M338.922 100.156C338.922 100.156 330.979 81.2012 312.048 71.8473C302.877 67.3174 296.017 64.9795 289.371 63.2749C289.371 63.2749 300.416 60.602 318.287 68.7086C326.407 72.3926 334.588 77.1887 339.998 84.3786C343.434 88.945 347.724 97.8695 347.718 100.158L338.922 100.156Z" fill="#455A64"/>
	<path d="M336.904 185.689C336.896 185.713 336.712 185.657 336.371 185.53C336.036 185.391 335.544 185.168 334.96 184.788C333.794 184.045 332.238 182.651 330.978 180.457C329.702 178.274 328.858 175.32 328.536 172.016C328.222 168.71 328.222 165.064 328.523 161.256C328.839 157.449 329.469 153.853 330.271 150.648C331.061 147.449 332.01 144.579 333.307 142.413C334.588 140.236 336.135 138.838 337.313 138.106C337.9 137.735 338.391 137.507 338.73 137.376C339.071 137.249 339.256 137.204 339.265 137.226C339.29 137.288 338.568 137.548 337.464 138.34C336.365 139.124 334.925 140.53 333.739 142.67C332.535 144.802 331.654 147.623 330.903 150.809C330.142 153.991 329.54 157.55 329.226 161.316C328.927 165.077 328.911 168.699 329.182 171.949C329.462 175.195 330.235 178.066 331.41 180.204C332.572 182.357 334.019 183.759 335.11 184.554C336.209 185.363 336.934 185.623 336.904 185.689Z" fill="#263238"/>
	<path d="M277.61 189.616L263.068 192.525C261.126 192.914 259.246 191.623 258.865 189.646L258.648 188.523C258.267 186.544 259.532 184.627 261.472 184.238L276.014 181.329C277.956 180.941 279.836 182.231 280.217 184.208L280.434 185.331C280.817 187.308 279.552 189.227 277.61 189.616Z" fill="#455A64"/>
	<path d="M278.385 183.521L342.935 162.875C344.531 162.364 346.235 163.263 346.744 164.888C347.275 166.574 346.317 168.371 344.64 168.832L278.633 187.014L278.385 183.521Z" fill="#455A64"/>
	<path d="M326.094 174.446C326.082 174.399 326.842 174.128 328.232 173.68C329.742 173.212 331.732 172.593 334.134 171.846C336.611 171.067 339.651 170.245 342.867 169.169C343.644 168.864 344.398 168.45 344.981 167.842C345.541 167.252 345.905 166.397 345.891 165.554C345.891 164.708 345.362 163.948 344.558 163.669C343.749 163.394 342.785 163.516 341.86 163.753C334.358 166.213 327.571 168.441 322.506 170.101C320.106 170.856 318.12 171.483 316.612 171.958C315.216 172.381 314.435 172.593 314.42 172.544C314.405 172.497 315.155 172.194 316.526 171.689C318.017 171.159 319.979 170.459 322.35 169.616C327.293 167.905 334.069 165.539 341.688 163.053C342.673 162.808 343.743 162.638 344.794 162.99C345.857 163.336 346.609 164.45 346.588 165.537C346.596 166.612 346.158 167.6 345.468 168.325C344.779 169.032 343.93 169.474 343.105 169.79C339.767 170.867 336.792 171.61 334.275 172.336C331.847 172.993 329.836 173.536 328.312 173.948C326.895 174.315 326.107 174.493 326.094 174.446Z" fill="#263238"/>
	<path d="M292.222 136.438C291.727 137.23 287.305 134.774 281.822 135.783C276.322 136.715 272.969 140.541 272.241 139.965C271.891 139.718 272.253 138.329 273.723 136.636C275.159 134.959 277.834 133.085 281.26 132.479C284.684 131.876 287.821 132.722 289.727 133.81C291.668 134.901 292.471 136.084 292.222 136.438Z" fill="#CC8F75"/>
	<path d="M291.591 137.14C291.514 137.297 290.419 136.786 288.57 136.365C286.733 135.936 284.089 135.687 281.298 136.327C278.506 136.966 276.222 138.347 274.743 139.536C273.25 140.723 272.475 141.664 272.338 141.556C272.233 141.483 272.798 140.35 274.238 138.937C275.655 137.533 278.049 135.925 281.061 135.236C284.07 134.547 286.908 134.953 288.778 135.603C290.669 136.249 291.657 137.026 291.591 137.14Z" fill="#263238"/>
	<path d="M294.435 124.549C293.986 126.052 289.292 125.94 283.706 126.213C278.115 126.391 273.411 126.824 272.872 125.35C272.634 124.632 273.596 123.535 275.51 122.55C277.412 121.567 280.269 120.753 283.495 120.626C286.719 120.5 289.638 121.088 291.611 121.938C293.594 122.784 294.626 123.819 294.435 124.549Z" fill="#263238"/>
	<path d="M248.134 139.74C247.708 139.983 246.881 139.18 245.552 138.246C244.23 137.299 242.305 136.309 239.957 135.942C235.196 135.139 231.376 137.387 230.824 136.597C230.572 136.258 231.218 135.15 232.903 134.074C234.562 133.022 237.365 132.134 240.462 132.63C243.564 133.1 246.032 134.901 247.192 136.567C248.386 138.239 248.498 139.549 248.134 139.74Z" fill="#CC8F75"/>
	<path d="M248.65 142.072C248.503 142.17 247.795 141.095 246.304 139.751C244.834 138.411 242.472 136.859 239.536 136.211C236.601 135.564 233.819 135.974 231.935 136.569C230.031 137.157 228.949 137.834 228.854 137.681C228.778 137.58 229.73 136.646 231.676 135.824C233.592 135 236.584 134.414 239.768 135.118C242.952 135.822 245.437 137.621 246.843 139.184C248.279 140.758 248.76 142.014 248.65 142.072Z" fill="#263238"/>
	<path d="M250.566 126.427C250.292 127.966 245.807 128.409 240.488 128.469C235.164 128.492 230.677 128.125 230.378 126.59C230.073 125.1 234.545 122.915 240.446 122.878C246.342 122.82 250.848 124.931 250.566 126.427Z" fill="#263238"/>
	<path d="M300.147 82.0214C296.824 87.1202 293.455 92.3135 291.737 98.1787C290.016 104.044 290.159 110.785 293.537 115.845C296.771 120.691 302.324 123.231 307.368 126.045C312.411 128.86 317.589 132.715 318.842 138.437C319.234 140.227 318.484 146.477 319.802 147.724C321.611 149.435 324.786 148.383 326.162 146.292C327.535 144.201 328.425 137.329 328.461 134.813C328.568 127.009 328.676 119.207 328.783 111.403C328.874 104.795 328.787 97.9447 325.978 91.9872C322.051 83.6573 313.91 80.993 302.034 81.5834" fill="#263238"/>
	<path d="M224.729 128.986C225.748 121.088 228.561 113.338 233.444 107.118C238.328 100.899 245.365 96.3088 253.091 95.1215C260.84 93.93 268.663 96.122 276.486 96.575C284.309 97.0301 293.218 95.0743 297.302 88.2559C298.575 86.1305 299.178 83.1549 297.55 81.2957C296.935 80.5937 296.087 80.16 295.253 79.7586C284.875 74.7714 273.113 72.5193 261.765 74.2368C250.417 75.9543 239.562 81.8002 232.431 90.9631C225.301 100.126 222.191 112.631 224.994 123.973" fill="#263238"/>
	<path d="M220.045 117.226C220.009 117.236 219.885 116.886 219.681 116.206C219.466 115.53 219.236 114.499 219.06 113.155C218.71 110.487 218.666 106.442 220.112 101.779C221.521 97.1525 224.467 91.8884 229.346 87.7299C234.16 83.5349 240.686 80.4499 247.875 79.2347C255.085 78.0089 262.112 78.7259 268.214 80.1686C271.272 80.9029 274.127 81.7981 276.738 82.79C279.36 83.7689 281.706 84.8552 283.949 85.4671C288.474 86.4182 292.342 86.9978 294.869 86.459C297.444 85.933 298.35 84.5397 298.432 84.6728C298.451 84.6856 298.251 85.0098 297.725 85.4929C297.209 85.9888 296.269 86.5384 294.962 86.884C292.292 87.5732 288.436 87.1137 283.753 86.2335C281.42 85.6474 279.025 84.589 276.431 83.6637C273.835 82.7213 271.007 81.8711 267.991 81.1755C261.971 79.8101 255.083 79.1446 248.058 80.3382C241.05 81.5233 234.699 84.4946 229.999 88.5178C225.238 92.5067 222.321 97.5454 220.852 102.024C219.35 106.532 219.272 110.472 219.485 113.11C219.717 115.766 220.155 117.198 220.045 117.226Z" fill="#455A64"/>
	<path d="M254.025 67.968C254.017 67.9015 254.699 67.7297 255.959 67.588C257.218 67.4356 259.062 67.3733 261.328 67.5794C265.824 67.9766 272.165 69.7735 277.669 74.2433C280.392 76.4567 282.664 78.8483 285.077 80.5143C287.433 82.1996 290.036 82.9446 292.178 83.4319C294.342 83.8956 296.147 83.9579 297.362 83.7926C298.581 83.6401 299.203 83.3074 299.249 83.3976C299.283 83.4383 298.703 83.9235 297.438 84.222C296.181 84.5311 294.294 84.5891 292.039 84.2112C289.809 83.8076 287.088 83.1292 284.515 81.3709C281.963 79.6706 279.636 77.264 276.993 75.1235C271.687 70.8148 265.613 68.9577 261.242 68.3673C256.826 67.7619 254.04 68.1806 254.025 67.968Z" fill="#455A64"/>
	<path d="M347.027 125.474C346.929 125.519 346.602 124.729 345.713 123.529C344.802 122.359 343.233 120.811 340.83 119.701C338.457 118.57 335.33 117.816 331.851 117.866C328.356 117.906 324.54 118.703 320.501 119.467C316.473 120.253 312.476 120.727 308.869 120.365C305.268 120.038 302.107 119.137 299.595 118.085C297.068 117.048 295.188 115.86 293.943 114.984C292.697 114.104 292.097 113.503 292.13 113.458C292.248 113.269 294.874 115.455 299.873 117.346C302.364 118.282 305.456 119.076 308.949 119.336C312.445 119.63 316.285 119.147 320.305 118.366C324.323 117.608 328.212 116.82 331.845 116.833C335.482 116.842 338.724 117.709 341.171 118.991C343.646 120.249 345.225 121.981 346.061 123.276C346.457 123.948 346.739 124.48 346.863 124.873C347.004 125.253 347.061 125.459 347.027 125.474Z" fill="#455A64"/>
	<path d="M343.697 110.435C343.609 110.478 343.289 109.701 342.386 108.555C341.474 107.43 339.869 105.991 337.479 105.023C335.104 104.025 332.006 103.671 328.603 104.061C325.192 104.403 321.52 105.457 317.54 106.212C313.579 106.972 309.538 107.163 306.095 106.03C302.658 104.957 299.982 102.969 298.137 101.002C296.267 99.029 295.214 97.0539 294.637 95.6627C294.349 94.9607 294.168 94.4047 294.081 94.0118C293.983 93.6253 293.949 93.4193 293.985 93.4085C294.21 93.2776 294.957 96.7276 298.687 100.444C300.527 102.264 303.126 104.085 306.385 105.045C309.628 106.058 313.45 105.86 317.346 105.115C321.25 104.375 324.979 103.338 328.509 103.037C332.021 102.687 335.316 103.145 337.782 104.297C340.265 105.416 341.886 107.037 342.729 108.295C343.563 109.577 343.746 110.42 343.697 110.435Z" fill="#455A64"/>
	<path d="M264.774 325.148C264.767 325.139 264.9 325.025 265.163 324.813C265.424 324.596 265.831 324.298 266.338 323.87C267.364 323.029 268.842 321.73 270.621 319.901C272.405 318.076 274.452 315.686 276.665 312.747C278.882 309.811 281.245 306.315 283.835 302.402C289.017 294.574 295.082 285.053 301.517 274.065C304.739 268.576 308.058 262.721 311.41 256.54C312.244 254.992 313.086 253.425 313.935 251.845C314.779 250.261 315.649 248.631 316.815 247.174C317.967 245.712 319.511 244.496 321.284 243.869C322.164 243.552 323.131 243.354 324.127 243.55C324.619 243.666 325.106 243.917 325.479 244.305C325.864 244.696 326.056 245.209 326.205 245.707L326.235 245.808L326.197 245.915C325.969 246.54 325.681 247.167 325.203 247.687C324.731 248.208 324.04 248.541 323.356 248.588C321.972 248.674 320.755 248.034 319.705 247.304C317.426 245.881 316.417 242.648 317.361 239.982C317.814 238.635 318.818 237.5 320.042 236.869C321.263 236.231 322.682 236.014 324.032 236.3C325.35 236.587 326.729 237.373 327.271 238.865C327.555 239.597 327.37 240.587 326.801 241.141C326.26 241.714 325.592 242.004 324.908 242.191C322.497 242.796 319.881 241.553 318.732 239.312C318.157 238.191 318.045 236.83 318.37 235.628C318.671 234.415 319.347 233.326 320.246 232.517C321.145 231.705 322.312 231.192 323.529 231.216C324.721 231.27 325.923 231.8 326.633 232.882C326.991 233.416 327.132 234.121 327.018 234.778C326.917 235.449 326.5 236.04 325.992 236.398C324.969 237.122 323.689 237.244 322.566 236.834C321.404 236.388 320.677 235.316 320.263 234.236C319.852 233.133 319.74 231.969 319.745 230.838C319.793 228.599 320.155 226.287 321.404 224.374C322.059 223.457 322.901 222.637 324.04 222.343C325.152 222.064 326.291 222.349 327.222 222.929C328.121 223.513 328.951 224.569 328.818 225.832C328.728 227.066 327.753 228.034 326.715 228.33C325.681 228.668 324.495 228.513 323.623 227.82C322.758 227.148 322.253 226.106 322.065 225.061C321.85 224.02 322.04 222.88 322.326 221.95C322.592 220.98 322.905 220.018 323.369 219.118C323.817 218.225 324.499 217.373 325.359 216.873C326.199 216.36 327.121 216.029 328.083 215.934C328.547 215.902 329.082 215.883 329.568 216.138C330.029 216.381 330.391 216.742 330.682 217.145C330.968 217.551 331.183 218.01 331.295 218.513C331.413 219.002 331.396 219.597 331.118 220.078C330.566 221.087 329.378 221.265 328.509 221.113C327.584 220.988 326.753 220.471 326.108 219.846C324.817 218.56 324.127 216.765 324.042 215.007C323.927 213.249 324.371 211.467 325.331 210.073C325.824 209.393 326.397 208.77 327.121 208.362C327.833 207.95 328.625 207.744 329.412 207.714C330.195 207.701 331.013 207.875 331.653 208.393C332.282 208.903 332.68 209.741 332.6 210.576C332.413 212.257 330.985 213.386 329.576 213.577C328.071 213.762 326.803 212.733 326.125 211.591C325.42 210.423 325.165 209.056 325.262 207.778C325.516 205.198 326.79 203.182 327.551 201.231C328.389 199.288 329.157 197.51 329.848 195.908C331.227 192.74 332.303 190.267 333.049 188.555C333.413 187.74 333.693 187.108 333.897 186.651C334.091 186.224 334.209 186.014 334.209 186.014C334.209 186.014 334.137 186.245 333.963 186.683C333.775 187.147 333.514 187.791 333.177 188.618C332.461 190.342 331.425 192.832 330.099 196.024C329.425 197.632 328.675 199.419 327.858 201.37C327.104 203.343 325.866 205.378 325.655 207.809C325.571 209 325.822 210.282 326.481 211.351C327.102 212.399 328.277 213.285 329.524 213.109C330.739 212.957 332.004 211.888 332.122 210.542C332.185 209.885 331.861 209.208 331.349 208.798C330.829 208.377 330.12 208.221 329.418 208.238C328.713 208.268 327.995 208.461 327.363 208.833C326.732 209.189 326.197 209.773 325.752 210.393C324.881 211.671 324.468 213.33 324.586 214.968C324.668 216.606 325.325 218.255 326.494 219.412C327.092 219.979 327.786 220.406 328.595 220.518C329.37 220.649 330.257 220.46 330.604 219.78C330.975 219.14 330.665 218.193 330.198 217.525C329.953 217.186 329.644 216.89 329.301 216.712C328.976 216.533 328.559 216.54 328.128 216.572C326.42 216.77 324.689 217.708 323.912 219.432C323.484 220.265 323.183 221.188 322.929 222.13C322.642 223.092 322.505 223.992 322.688 224.938C322.855 225.857 323.295 226.74 324.009 227.285C324.695 227.835 325.67 227.968 326.521 227.686C327.38 227.429 328.09 226.69 328.155 225.78C328.26 224.88 327.635 224.037 326.862 223.532C326.07 223.041 325.078 222.802 324.186 223.036C323.308 223.249 322.509 223.983 321.947 224.79C320.829 226.495 320.458 228.71 320.423 230.849C320.418 231.92 320.53 233.004 320.896 233.979C321.257 234.932 321.909 235.836 322.798 236.162C323.691 236.497 324.801 236.379 325.582 235.814C326.401 235.282 326.576 234.11 326.039 233.3C325.514 232.48 324.478 231.993 323.491 231.961C322.495 231.942 321.476 232.373 320.692 233.086C319.104 234.477 318.336 237.036 319.349 238.972C320.313 240.898 322.678 242.017 324.731 241.482C325.31 241.328 325.898 241.057 326.283 240.638C326.677 240.231 326.78 239.668 326.593 239.125C326.201 238.004 325.038 237.276 323.876 237.034C321.516 236.504 318.782 237.85 318.016 240.239C317.192 242.586 318.056 245.447 320.092 246.71C321.067 247.401 322.204 247.951 323.297 247.876C324.415 247.833 325.171 246.815 325.538 245.696L325.529 245.905C325.331 245.059 324.769 244.43 323.971 244.265C323.177 244.106 322.305 244.262 321.494 244.556C319.848 245.138 318.42 246.25 317.323 247.637C316.209 249.022 315.352 250.611 314.508 252.191C313.653 253.771 312.806 255.336 311.97 256.886C308.599 263.067 305.261 268.917 302.018 274.402C295.539 285.377 289.426 294.877 284.191 302.676C281.576 306.575 279.179 310.06 276.928 312.984C274.679 315.91 272.597 318.286 270.779 320.092C267.151 323.699 264.774 325.148 264.774 325.148Z" fill="#263238"/>
</svg>
