<svg width="569" height="500" viewBox="0 0 569 500" fill="none" xmlns="http://www.w3.org/2000/svg">
    <path d="M94.2879 307.574L83.3 220.203L141.153 212.959L143.068 228.189L103.689 233.12L106.307 253.939L141.847 249.488L143.762 264.719L108.223 269.169L112.762 305.261L94.2879 307.574ZM164.567 298.774L153.579 211.403L188.052 207.086C194.651 206.26 200.431 206.735 205.392 208.511C210.379 210.256 214.365 213.122 217.351 217.11C220.362 221.067 222.231 225.932 222.957 231.705C223.687 237.507 223.063 242.655 221.086 247.149C219.105 251.615 215.879 255.255 211.408 258.068C206.966 260.878 201.388 262.703 194.675 263.543L171.594 266.434L169.727 251.587L189.822 249.071C193.349 248.629 196.218 247.779 198.428 246.52C200.639 245.261 202.192 243.593 203.086 241.517C204.009 239.437 204.29 236.96 203.929 234.088C203.564 231.187 202.673 228.814 201.257 226.969C199.868 225.121 197.93 223.832 195.44 223.104C192.975 222.344 189.965 222.186 186.41 222.632L173.952 224.192L183.041 296.46L164.567 298.774ZM206.754 253.104L233.47 290.146L213.077 292.699L186.829 255.599L206.754 253.104ZM308.058 280.806L277.084 284.684L266.096 197.313L297.326 193.402C306.115 192.302 313.901 193.104 320.684 195.808C327.463 198.483 332.969 202.864 337.201 208.949C341.462 215.031 344.162 222.609 345.303 231.682C346.448 240.783 345.711 248.819 343.092 255.792C340.501 262.761 336.226 268.395 330.267 272.695C324.335 276.991 316.933 279.694 308.058 280.806ZM293.567 266.543L305.3 265.074C310.761 264.39 315.233 262.848 318.716 260.448C322.223 258.015 324.658 254.633 326.02 250.303C327.408 245.94 327.691 240.502 326.872 233.989C326.06 227.533 324.444 222.377 322.023 218.52C319.631 214.66 316.45 211.996 312.481 210.528C308.512 209.061 303.797 208.669 298.336 209.353L286.56 210.827L293.567 266.543ZM374.626 272.47L354.829 274.949L374.005 183.801L397.812 180.82L438.921 264.419L419.125 266.898L388.761 202.233L388.078 202.319L374.626 272.47ZM369.069 238.282L415.83 232.427L417.643 246.847L370.883 252.702L369.069 238.282ZM424.413 177.489L445.105 174.897L469.762 210.03L470.615 209.923L485.807 169.801L506.5 167.21L481.733 227.684L485.617 258.571L467.272 260.869L463.387 229.982L424.413 177.489Z" fill="black"/>
    <path d="M250.897 199.216L261.885 286.587L243.411 288.901L232.423 201.53L250.897 199.216Z" fill="#E73C1E"/>
    <path d="M79.7378 209.641L60.6729 123.67L95.1017 116.068C101.428 114.671 106.912 114.444 111.554 115.386C116.197 116.327 119.951 118.229 122.817 121.089C125.676 123.922 127.584 127.493 128.54 131.802C129.284 135.161 129.267 138.261 128.489 141.105C127.703 143.92 126.315 146.399 124.324 148.541C122.355 150.649 119.947 152.37 117.101 153.703L117.287 154.543C120.593 153.959 123.863 154.206 127.096 155.283C130.358 156.353 133.226 158.23 135.7 160.913C138.168 163.568 139.87 167.008 140.807 171.234C141.819 175.795 141.588 180.117 140.115 184.2C138.664 188.249 135.971 191.794 132.036 194.835C128.1 197.876 122.914 200.108 116.476 201.529L79.7378 209.641ZM94.6225 190.767L109.444 187.494C114.51 186.375 117.991 184.594 119.886 182.15C121.775 179.678 122.359 176.819 121.639 173.573C121.112 171.194 120.072 169.222 118.521 167.656C116.97 166.09 115.016 165.025 112.659 164.459C110.33 163.887 107.71 163.923 104.799 164.565L89.5584 167.931L94.6225 190.767ZM86.8308 155.631L100.308 152.655C102.8 152.105 104.915 151.183 106.654 149.889C108.414 148.561 109.675 146.962 110.434 145.091C111.222 143.215 111.365 141.143 110.862 138.876C110.173 135.77 108.512 133.509 105.879 132.095C103.273 130.674 99.9554 130.408 95.9247 131.298L82.1112 134.348L86.8308 155.631ZM157.906 192.381L138.841 106.41L157.021 102.396L172.763 173.381L209.627 165.241L212.95 180.227L157.906 192.381ZM242.004 173.812L222.523 178.113L233.142 85.5882L256.571 80.4151L305.278 159.841L285.796 164.142L249.549 102.573L248.877 102.721L242.004 173.812ZM233.293 140.288L279.31 130.128L282.457 144.316L236.44 154.477L233.293 140.288ZM375.065 85.8228L356.675 89.8834C355.812 87.5788 354.658 85.6174 353.212 83.999C351.761 82.3527 350.078 81.0511 348.162 80.0943C346.247 79.1374 344.148 78.544 341.866 78.3141C339.612 78.0781 337.253 78.2319 334.79 78.7758C330.339 79.7585 326.707 81.72 323.895 84.6601C321.076 87.5722 319.222 91.3281 318.334 95.9276C317.439 100.499 317.653 105.765 318.974 111.726C320.334 117.855 322.385 122.803 325.129 126.571C327.901 130.333 331.175 132.913 334.949 134.311C338.724 135.708 342.78 135.928 347.119 134.97C349.554 134.432 351.736 133.613 353.665 132.512C355.621 131.405 357.275 130.056 358.625 128.466C359.969 126.849 360.975 125.027 361.641 123.001C362.336 120.969 362.638 118.759 362.549 116.371L380.958 112.395C381.357 116.446 381.012 120.514 379.921 124.601C378.853 128.653 377.042 132.473 374.491 136.06C371.961 139.613 368.685 142.714 364.662 145.363C360.662 147.978 355.905 149.895 350.39 151.112C342.721 152.806 335.478 152.585 328.663 150.45C321.875 148.309 316.003 144.336 311.046 138.532C306.116 132.722 302.615 125.143 300.542 115.796C298.463 106.421 298.458 98.0558 300.527 90.7006C302.595 83.3453 306.271 77.2791 311.553 72.5019C316.83 67.6967 323.247 64.4598 330.804 62.791C335.787 61.6909 340.56 61.3707 345.125 61.8305C349.718 62.2842 353.964 63.4896 357.863 65.4469C361.755 67.3762 365.165 70.0432 368.093 73.4478C371.049 76.8462 373.373 80.9712 375.065 85.8228ZM400.492 138.817L381.428 52.8461L399.608 48.8318L408.014 86.7379L409.147 86.4875L431.685 41.7489L453.476 36.9374L430.103 82.4769L472.919 122.825L451.17 127.627L419.777 97.4825L413.255 110.371L418.672 134.803L400.492 138.817Z" fill="black"/>
    <path d="M338.73 426.987V428.788H334.419V426.987H338.73ZM335.172 423.773V432.029H332.984V423.773H335.172ZM340.165 423.773V432.029H337.994V423.773H340.165ZM344.295 432.185C343.769 432.185 343.299 432.093 342.887 431.91C342.475 431.724 342.149 431.45 341.909 431.088C341.673 430.723 341.554 430.268 341.554 429.723C341.554 429.264 341.639 428.879 341.807 428.567C341.975 428.256 342.205 428.005 342.495 427.815C342.785 427.625 343.115 427.482 343.484 427.385C343.857 427.288 344.247 427.22 344.656 427.181C345.136 427.131 345.523 427.084 345.817 427.041C346.11 426.994 346.324 426.926 346.456 426.837C346.589 426.747 346.655 426.615 346.655 426.439V426.407C346.655 426.066 346.547 425.803 346.333 425.617C346.121 425.43 345.82 425.337 345.43 425.337C345.017 425.337 344.69 425.429 344.446 425.611C344.202 425.79 344.041 426.016 343.962 426.289L341.845 426.117C341.952 425.615 342.164 425.181 342.479 424.816C342.794 424.447 343.201 424.164 343.699 423.967C344.201 423.766 344.781 423.666 345.44 423.666C345.899 423.666 346.338 423.719 346.757 423.827C347.18 423.934 347.554 424.101 347.88 424.327C348.21 424.552 348.47 424.843 348.66 425.197C348.85 425.549 348.945 425.97 348.945 426.461V432.029H346.773V430.884H346.709C346.576 431.142 346.399 431.369 346.177 431.566C345.954 431.76 345.688 431.912 345.376 432.023C345.064 432.131 344.704 432.185 344.295 432.185ZM344.951 430.604C345.288 430.604 345.585 430.538 345.843 430.406C346.101 430.269 346.304 430.087 346.451 429.857C346.598 429.628 346.671 429.368 346.671 429.078V428.202C346.599 428.249 346.501 428.292 346.375 428.331C346.254 428.367 346.116 428.401 345.962 428.433C345.808 428.462 345.653 428.489 345.499 428.514C345.345 428.535 345.206 428.555 345.08 428.573C344.811 428.612 344.577 428.675 344.376 428.761C344.175 428.847 344.02 428.963 343.909 429.11C343.797 429.254 343.742 429.433 343.742 429.648C343.742 429.959 343.855 430.198 344.08 430.363C344.31 430.524 344.6 430.604 344.951 430.604ZM359.878 423.773V425.574H356.449V432.029H354.224V423.773H359.878ZM364.709 432.19C363.874 432.19 363.152 432.013 362.543 431.658C361.937 431.3 361.469 430.801 361.14 430.164C360.81 429.522 360.645 428.779 360.645 427.933C360.645 427.08 360.81 426.335 361.14 425.697C361.469 425.056 361.937 424.558 362.543 424.203C363.152 423.845 363.874 423.666 364.709 423.666C365.544 423.666 366.264 423.845 366.869 424.203C367.478 424.558 367.948 425.056 368.277 425.697C368.607 426.335 368.772 427.08 368.772 427.933C368.772 428.779 368.607 429.522 368.277 430.164C367.948 430.801 367.478 431.3 366.869 431.658C366.264 432.013 365.544 432.19 364.709 432.19ZM364.719 430.416C365.099 430.416 365.416 430.309 365.671 430.094C365.925 429.875 366.117 429.578 366.246 429.202C366.378 428.825 366.445 428.397 366.445 427.917C366.445 427.437 366.378 427.009 366.246 426.633C366.117 426.256 365.925 425.959 365.671 425.74C365.416 425.522 365.099 425.412 364.719 425.412C364.336 425.412 364.014 425.522 363.752 425.74C363.494 425.959 363.299 426.256 363.166 426.633C363.037 427.009 362.973 427.437 362.973 427.917C362.973 428.397 363.037 428.825 363.166 429.202C363.299 429.578 363.494 429.875 363.752 430.094C364.014 430.309 364.336 430.416 364.719 430.416ZM369.616 434.447V430.212H370.25C370.433 430.097 370.58 429.915 370.691 429.664C370.805 429.413 370.899 429.117 370.97 428.777C371.045 428.437 371.103 428.069 371.142 427.675C371.185 427.277 371.223 426.876 371.255 426.471L371.47 423.773H377.801V430.212H379.081V434.447H376.898V432.029H371.852V434.447H369.616ZM372.529 430.212H375.641V425.536H373.416L373.33 426.471C373.269 427.353 373.181 428.102 373.066 428.718C372.952 429.331 372.772 429.829 372.529 430.212ZM384.145 432.19C383.31 432.19 382.588 432.013 381.979 431.658C381.373 431.3 380.906 430.801 380.576 430.164C380.246 429.522 380.082 428.779 380.082 427.933C380.082 427.08 380.246 426.335 380.576 425.697C380.906 425.056 381.373 424.558 381.979 424.203C382.588 423.845 383.31 423.666 384.145 423.666C384.98 423.666 385.7 423.845 386.306 424.203C386.915 424.558 387.384 425.056 387.714 425.697C388.043 426.335 388.208 427.08 388.208 427.933C388.208 428.779 388.043 429.522 387.714 430.164C387.384 430.801 386.915 431.3 386.306 431.658C385.7 432.013 384.98 432.19 384.145 432.19ZM384.156 430.416C384.535 430.416 384.853 430.309 385.107 430.094C385.361 429.875 385.553 429.578 385.682 429.202C385.815 428.825 385.881 428.397 385.881 427.917C385.881 427.437 385.815 427.009 385.682 426.633C385.553 426.256 385.361 425.959 385.107 425.74C384.853 425.522 384.535 425.412 384.156 425.412C383.772 425.412 383.45 425.522 383.188 425.74C382.93 425.959 382.735 426.256 382.602 426.633C382.473 427.009 382.409 427.437 382.409 427.917C382.409 428.397 382.473 428.825 382.602 429.202C382.735 429.578 382.93 429.875 383.188 430.094C383.45 430.309 383.772 430.416 384.156 430.416ZM389.697 432.029V423.773H393.217C394.235 423.773 395.039 423.967 395.631 424.354C396.222 424.741 396.518 425.291 396.518 426.004C396.518 426.452 396.351 426.824 396.018 427.122C395.684 427.419 395.222 427.62 394.631 427.724C395.125 427.759 395.546 427.872 395.894 428.062C396.245 428.249 396.512 428.49 396.695 428.788C396.881 429.085 396.974 429.415 396.974 429.777C396.974 430.246 396.849 430.649 396.598 430.986C396.351 431.323 395.987 431.581 395.507 431.76C395.031 431.939 394.448 432.029 393.76 432.029H389.697ZM391.831 430.314H393.76C394.079 430.314 394.328 430.239 394.507 430.088C394.69 429.934 394.781 429.725 394.781 429.46C394.781 429.166 394.69 428.935 394.507 428.766C394.328 428.598 394.079 428.514 393.76 428.514H391.831V430.314ZM391.831 427.17H393.266C393.495 427.17 393.69 427.138 393.852 427.073C394.016 427.005 394.142 426.908 394.228 426.783C394.317 426.658 394.362 426.509 394.362 426.337C394.362 426.082 394.26 425.884 394.056 425.74C393.852 425.597 393.572 425.525 393.217 425.525H391.831V427.17ZM402.148 432.19C401.313 432.19 400.591 432.013 399.982 431.658C399.376 431.3 398.908 430.801 398.579 430.164C398.249 429.522 398.084 428.779 398.084 427.933C398.084 427.08 398.249 426.335 398.579 425.697C398.908 425.056 399.376 424.558 399.982 424.203C400.591 423.845 401.313 423.666 402.148 423.666C402.982 423.666 403.703 423.845 404.308 424.203C404.917 424.558 405.387 425.056 405.716 425.697C406.046 426.335 406.211 427.08 406.211 427.933C406.211 428.779 406.046 429.522 405.716 430.164C405.387 430.801 404.917 431.3 404.308 431.658C403.703 432.013 402.982 432.19 402.148 432.19ZM402.158 430.416C402.538 430.416 402.855 430.309 403.11 430.094C403.364 429.875 403.556 429.578 403.685 429.202C403.817 428.825 403.884 428.397 403.884 427.917C403.884 427.437 403.817 427.009 403.685 426.633C403.556 426.256 403.364 425.959 403.11 425.74C402.855 425.522 402.538 425.412 402.158 425.412C401.775 425.412 401.452 425.522 401.191 425.74C400.933 425.959 400.738 426.256 400.605 426.633C400.476 427.009 400.411 427.437 400.411 427.917C400.411 428.397 400.476 428.825 400.605 429.202C400.738 429.578 400.933 429.875 401.191 430.094C401.452 430.309 401.775 430.416 402.158 430.416ZM411.462 432.19C410.613 432.19 409.882 432.018 409.269 431.674C408.66 431.326 408.19 430.836 407.861 430.201C407.531 429.564 407.366 428.809 407.366 427.939C407.366 427.089 407.531 426.344 407.861 425.703C408.19 425.061 408.654 424.561 409.253 424.203C409.855 423.845 410.561 423.666 411.371 423.666C411.915 423.666 412.422 423.753 412.892 423.929C413.365 424.101 413.777 424.361 414.128 424.708C414.482 425.056 414.758 425.493 414.955 426.02C415.153 426.543 415.251 427.156 415.251 427.858V428.487H408.28V427.068H413.096C413.096 426.738 413.024 426.446 412.881 426.192C412.737 425.937 412.539 425.739 412.284 425.595C412.033 425.448 411.741 425.375 411.408 425.375C411.061 425.375 410.752 425.455 410.484 425.617C410.219 425.774 410.011 425.988 409.86 426.256C409.71 426.521 409.633 426.817 409.629 427.143V428.492C409.629 428.901 409.704 429.254 409.855 429.551C410.009 429.848 410.226 430.078 410.505 430.239C410.785 430.4 411.116 430.481 411.5 430.481C411.754 430.481 411.987 430.445 412.198 430.373C412.41 430.302 412.591 430.194 412.741 430.051C412.892 429.907 413.006 429.732 413.085 429.524L415.203 429.664C415.095 430.173 414.875 430.617 414.542 430.997C414.212 431.373 413.786 431.667 413.262 431.878C412.743 432.086 412.143 432.19 411.462 432.19ZM336.714 450.19C335.88 450.19 335.158 450.013 334.548 449.658C333.943 449.3 333.475 448.801 333.146 448.164C332.816 447.522 332.651 446.779 332.651 445.933C332.651 445.08 332.816 444.335 333.146 443.697C333.475 443.056 333.943 442.558 334.548 442.203C335.158 441.845 335.88 441.666 336.714 441.666C337.549 441.666 338.27 441.845 338.875 442.203C339.484 442.558 339.954 443.056 340.283 443.697C340.613 444.335 340.778 445.08 340.778 445.933C340.778 446.779 340.613 447.522 340.283 448.164C339.954 448.801 339.484 449.3 338.875 449.658C338.27 450.013 337.549 450.19 336.714 450.19ZM336.725 448.416C337.105 448.416 337.422 448.309 337.677 448.094C337.931 447.875 338.123 447.578 338.252 447.202C338.384 446.825 338.45 446.397 338.45 445.917C338.45 445.437 338.384 445.009 338.252 444.633C338.123 444.256 337.931 443.959 337.677 443.74C337.422 443.522 337.105 443.412 336.725 443.412C336.342 443.412 336.019 443.522 335.758 443.74C335.5 443.959 335.304 444.256 335.172 444.633C335.043 445.009 334.978 445.437 334.978 445.917C334.978 446.397 335.043 446.825 335.172 447.202C335.304 447.578 335.5 447.875 335.758 448.094C336.019 448.309 336.342 448.416 336.725 448.416ZM349.13 438.742L349.829 440.236C349.596 440.429 349.338 440.573 349.055 440.666C348.772 440.756 348.433 440.815 348.039 440.843C347.648 440.872 347.172 440.892 346.609 440.902C345.972 440.91 345.452 441.012 345.051 441.209C344.649 441.406 344.345 441.716 344.137 442.139C343.929 442.558 343.793 443.106 343.728 443.783H343.809C344.056 443.278 344.404 442.888 344.852 442.612C345.303 442.336 345.86 442.198 346.523 442.198C347.226 442.198 347.84 442.352 348.367 442.66C348.897 442.968 349.309 443.411 349.603 443.988C349.897 444.564 350.044 445.256 350.044 446.062C350.044 446.901 349.879 447.63 349.549 448.25C349.223 448.866 348.759 449.344 348.157 449.685C347.555 450.022 346.839 450.19 346.007 450.19C345.172 450.19 344.452 450.014 343.847 449.663C343.245 449.312 342.779 448.794 342.449 448.11C342.123 447.426 341.96 446.584 341.96 445.584V444.907C341.96 442.918 342.347 441.444 343.121 440.483C343.895 439.523 345.033 439.036 346.534 439.021C346.943 439.014 347.312 439.012 347.641 439.016C347.971 439.02 348.259 439.003 348.507 438.968C348.757 438.932 348.965 438.856 349.13 438.742ZM346.018 448.416C346.369 448.416 346.67 448.325 346.921 448.142C347.175 447.959 347.371 447.698 347.507 447.357C347.647 447.017 347.716 446.61 347.716 446.137C347.716 445.668 347.647 445.27 347.507 444.944C347.371 444.615 347.175 444.364 346.921 444.192C346.667 444.02 346.362 443.934 346.007 443.934C345.742 443.934 345.504 443.982 345.292 444.079C345.081 444.176 344.9 444.319 344.75 444.509C344.603 444.695 344.488 444.926 344.406 445.202C344.327 445.475 344.287 445.786 344.287 446.137C344.287 446.843 344.44 447.4 344.744 447.809C345.052 448.214 345.477 448.416 346.018 448.416ZM355.293 450.19C354.448 450.19 353.72 450.011 353.111 449.652C352.506 449.291 352.04 448.789 351.714 448.148C351.391 447.506 351.23 446.768 351.23 445.933C351.23 445.088 351.393 444.346 351.719 443.708C352.049 443.067 352.517 442.567 353.122 442.209C353.728 441.847 354.448 441.666 355.283 441.666C356.003 441.666 356.634 441.796 357.175 442.058C357.716 442.32 358.144 442.687 358.459 443.16C358.775 443.633 358.948 444.188 358.981 444.826H356.82C356.759 444.414 356.598 444.082 356.336 443.832C356.078 443.577 355.74 443.45 355.32 443.45C354.966 443.45 354.656 443.547 354.391 443.74C354.129 443.93 353.925 444.208 353.778 444.573C353.631 444.939 353.557 445.381 353.557 445.901C353.557 446.428 353.629 446.876 353.772 447.245C353.919 447.614 354.125 447.895 354.391 448.088C354.656 448.282 354.966 448.379 355.32 448.379C355.582 448.379 355.817 448.325 356.024 448.217C356.236 448.11 356.41 447.954 356.546 447.75C356.686 447.542 356.777 447.293 356.82 447.003H358.981C358.945 447.633 358.773 448.189 358.465 448.669C358.16 449.145 357.739 449.518 357.202 449.787C356.664 450.056 356.028 450.19 355.293 450.19ZM359.963 450.029L359.952 448.212H360.226C360.42 448.212 360.586 448.165 360.726 448.072C360.869 447.976 360.988 447.82 361.081 447.605C361.174 447.39 361.247 447.105 361.301 446.75C361.355 446.392 361.391 445.951 361.409 445.428L361.543 441.773H367.821V450.029H365.638V443.574H363.601L363.472 446.094C363.44 446.786 363.356 447.381 363.22 447.879C363.087 448.377 362.903 448.785 362.666 449.104C362.43 449.42 362.145 449.652 361.812 449.803C361.478 449.953 361.091 450.029 360.651 450.029H359.963ZM370.714 453.125C370.423 453.125 370.151 453.101 369.897 453.055C369.646 453.012 369.438 452.956 369.273 452.888L369.789 451.179C370.058 451.261 370.3 451.306 370.515 451.313C370.733 451.32 370.921 451.27 371.079 451.163C371.24 451.055 371.371 450.873 371.471 450.615L371.606 450.265L368.644 441.773H371.052L372.761 447.836H372.847L374.573 441.773H376.997L373.788 450.921C373.634 451.365 373.424 451.752 373.159 452.082C372.897 452.415 372.566 452.671 372.165 452.85C371.763 453.033 371.28 453.125 370.714 453.125ZM377.631 450.029L380.517 445.734L377.647 441.773H380.259L382.404 445.003H382.758V441.773H385.048V445.003H385.392L387.536 441.773H390.148L387.284 445.734L390.165 450.029H387.493L385.37 446.804H385.048V450.029H382.758V446.804H382.436L380.302 450.029H377.631ZM393.643 447.008L396.616 441.773H398.873V450.029H396.691V444.778L393.729 450.029H391.456V441.773H393.643V447.008ZM400.708 450.029V441.773H404.229C405.246 441.773 406.051 441.967 406.642 442.354C407.233 442.741 407.529 443.291 407.529 444.004C407.529 444.452 407.362 444.824 407.029 445.122C406.696 445.419 406.234 445.62 405.642 445.724C406.137 445.759 406.558 445.872 406.905 446.062C407.257 446.249 407.524 446.49 407.706 446.788C407.893 447.085 407.986 447.415 407.986 447.777C407.986 448.246 407.86 448.649 407.61 448.986C407.362 449.323 406.999 449.581 406.519 449.76C406.042 449.939 405.46 450.029 404.772 450.029H400.708ZM402.842 448.314H404.772C405.091 448.314 405.34 448.239 405.519 448.088C405.702 447.934 405.793 447.725 405.793 447.46C405.793 447.166 405.702 446.935 405.519 446.766C405.34 446.598 405.091 446.514 404.772 446.514H402.842V448.314ZM402.842 445.17H404.277C404.507 445.17 404.702 445.138 404.863 445.073C405.028 445.005 405.153 444.908 405.239 444.783C405.329 444.658 405.374 444.509 405.374 444.337C405.374 444.082 405.272 443.884 405.067 443.74C404.863 443.597 404.584 443.525 404.229 443.525H402.842V445.17ZM411.783 450.185C411.256 450.185 410.787 450.093 410.375 449.91C409.963 449.724 409.637 449.45 409.397 449.088C409.16 448.723 409.042 448.268 409.042 447.723C409.042 447.264 409.126 446.879 409.295 446.567C409.463 446.256 409.692 446.005 409.983 445.815C410.273 445.625 410.602 445.482 410.971 445.385C411.344 445.288 411.735 445.22 412.143 445.181C412.623 445.131 413.01 445.084 413.304 445.041C413.598 444.994 413.811 444.926 413.944 444.837C414.076 444.747 414.143 444.615 414.143 444.439V444.407C414.143 444.066 414.035 443.803 413.82 443.617C413.609 443.43 413.308 443.337 412.917 443.337C412.505 443.337 412.177 443.429 411.934 443.611C411.69 443.79 411.529 444.016 411.45 444.289L409.332 444.117C409.44 443.615 409.651 443.181 409.966 442.816C410.282 442.447 410.688 442.164 411.186 441.967C411.688 441.766 412.269 441.666 412.928 441.666C413.386 441.666 413.825 441.719 414.245 441.827C414.667 441.934 415.042 442.101 415.368 442.327C415.698 442.552 415.957 442.843 416.147 443.197C416.337 443.549 416.432 443.97 416.432 444.461V450.029H414.261V448.884H414.196C414.064 449.142 413.886 449.369 413.664 449.566C413.442 449.76 413.175 449.912 412.863 450.023C412.552 450.131 412.192 450.185 411.783 450.185ZM412.439 448.604C412.776 448.604 413.073 448.538 413.331 448.406C413.589 448.269 413.791 448.087 413.938 447.857C414.085 447.628 414.159 447.368 414.159 447.078V446.202C414.087 446.249 413.988 446.292 413.863 446.331C413.741 446.367 413.603 446.401 413.449 446.433C413.295 446.462 413.141 446.489 412.987 446.514C412.833 446.535 412.693 446.555 412.568 446.573C412.299 446.612 412.064 446.675 411.864 446.761C411.663 446.847 411.507 446.963 411.396 447.11C411.285 447.254 411.229 447.433 411.229 447.648C411.229 447.959 411.342 448.198 411.568 448.363C411.797 448.524 412.088 448.604 412.439 448.604ZM423.954 444.987V446.788H419.644V444.987H423.954ZM420.396 441.773V450.029H418.208V441.773H420.396ZM425.389 441.773V450.029H423.218V441.773H425.389ZM429.353 447.008L432.325 441.773H434.583V450.029H432.4V444.778L429.439 450.029H427.165V441.773H429.353V447.008ZM440.18 450.19C439.331 450.19 438.6 450.018 437.987 449.674C437.378 449.326 436.909 448.836 436.579 448.201C436.25 447.564 436.085 446.809 436.085 445.939C436.085 445.089 436.25 444.344 436.579 443.703C436.909 443.061 437.373 442.561 437.971 442.203C438.573 441.845 439.279 441.666 440.089 441.666C440.634 441.666 441.141 441.753 441.61 441.929C442.083 442.101 442.495 442.361 442.846 442.708C443.201 443.056 443.477 443.493 443.674 444.02C443.871 444.543 443.969 445.156 443.969 445.858V446.487H436.998V445.068H441.814C441.814 444.738 441.743 444.446 441.599 444.192C441.456 443.937 441.257 443.739 441.003 443.595C440.752 443.448 440.46 443.375 440.127 443.375C439.779 443.375 439.471 443.455 439.202 443.617C438.937 443.774 438.729 443.988 438.579 444.256C438.428 444.521 438.351 444.817 438.348 445.143V446.492C438.348 446.901 438.423 447.254 438.573 447.551C438.727 447.848 438.944 448.078 439.224 448.239C439.503 448.4 439.835 448.481 440.218 448.481C440.472 448.481 440.705 448.445 440.917 448.373C441.128 448.302 441.309 448.194 441.459 448.051C441.61 447.907 441.725 447.732 441.803 447.524L443.921 447.664C443.814 448.173 443.593 448.617 443.26 448.997C442.93 449.373 442.504 449.667 441.981 449.878C441.461 450.086 440.861 450.19 440.18 450.19Z" fill="black"/>
    <path d="M96.2444 439.156V419.301L146.028 340.871H163.146V368.353H153.015L121.631 418.02V418.952H192.376V439.156H96.2444ZM153.481 460.117V433.101L153.946 424.308V340.871H177.586V460.117H153.481ZM255.929 462.738C245.914 462.699 237.297 460.234 230.077 455.343C222.896 450.452 217.364 443.368 213.482 434.09C209.64 424.813 207.737 413.653 207.776 400.61C207.776 387.607 209.698 376.524 213.541 367.363C217.422 358.202 222.954 351.235 230.135 346.46C237.355 341.647 245.953 339.24 255.929 339.24C265.905 339.24 274.484 341.647 281.665 346.46C288.885 351.274 294.436 358.261 298.318 367.422C302.199 376.544 304.121 387.607 304.082 400.61C304.082 413.692 302.141 424.871 298.26 434.149C294.417 443.426 288.905 450.51 281.723 455.401C274.542 460.292 265.944 462.738 255.929 462.738ZM255.929 441.834C262.761 441.834 268.215 438.399 272.291 431.528C276.367 424.658 278.385 414.352 278.346 400.61C278.346 391.566 277.415 384.035 275.551 378.019C273.727 372.002 271.126 367.48 267.749 364.452C264.411 361.424 260.471 359.91 255.929 359.91C249.136 359.91 243.702 363.307 239.626 370.1C235.55 376.893 233.493 387.063 233.454 400.61C233.454 409.771 234.366 417.418 236.191 423.551C238.054 429.646 240.674 434.226 244.051 437.293C247.428 440.321 251.388 441.834 255.929 441.834Z" fill="#E73C1E"/>
    <path d="M378.186 385.358V381.488C378.186 378.55 378.807 375.851 380.049 373.39C381.315 370.906 383.142 368.923 385.531 367.442C387.944 365.938 390.882 365.185 394.346 365.185C397.857 365.185 400.807 365.926 403.196 367.407C405.609 368.888 407.424 370.87 408.642 373.355C409.885 375.815 410.506 378.526 410.506 381.488V385.358C410.506 388.296 409.885 391.008 408.642 393.492C407.4 395.952 405.573 397.923 403.16 399.404C400.748 400.909 397.809 401.661 394.346 401.661C390.834 401.661 387.884 400.909 385.495 399.404C383.107 397.923 381.291 395.952 380.049 393.492C378.807 391.008 378.186 388.296 378.186 385.358ZM388.613 381.488V385.358C388.613 387.054 389.019 388.655 389.831 390.16C390.667 391.664 392.172 392.417 394.346 392.417C396.519 392.417 398 391.676 398.789 390.195C399.601 388.714 400.007 387.102 400.007 385.358V381.488C400.007 379.745 399.625 378.12 398.86 376.615C398.096 375.11 396.591 374.358 394.346 374.358C392.196 374.358 390.703 375.11 389.867 376.615C389.031 378.12 388.613 379.745 388.613 381.488ZM340.527 343.364V339.494C340.527 336.532 341.16 333.821 342.426 331.36C343.692 328.876 345.519 326.893 347.908 325.412C350.321 323.931 353.235 323.191 356.651 323.191C360.186 323.191 363.148 323.931 365.537 325.412C367.926 326.893 369.741 328.876 370.984 331.36C372.226 333.821 372.847 336.532 372.847 339.494V343.364C372.847 346.326 372.214 349.037 370.948 351.497C369.706 353.958 367.878 355.929 365.466 357.41C363.077 358.867 360.139 359.595 356.651 359.595C353.163 359.595 350.213 358.855 347.801 357.374C345.412 355.869 343.596 353.898 342.354 351.462C341.136 349.001 340.527 346.302 340.527 343.364ZM351.026 339.494V343.364C351.026 345.108 351.432 346.72 352.244 348.201C353.08 349.682 354.549 350.423 356.651 350.423C358.849 350.423 360.342 349.682 361.13 348.201C361.942 346.72 362.348 345.108 362.348 343.364V339.494C362.348 337.75 361.966 336.126 361.202 334.621C360.437 333.116 358.92 332.364 356.651 332.364C354.525 332.364 353.056 333.128 352.244 334.657C351.432 336.186 351.026 337.798 351.026 339.494ZM345.257 399.117L395.707 325.735H405.095L354.644 399.117H345.257Z" fill="#E73C1E"/>
    <path d="M561.869 93.233V469.945" stroke="black" stroke-width="12.6127"/>
    <line x1="6.30633" y1="93.233" x2="6.30633" y2="469.945" stroke="black" stroke-width="12.6127"/>
    <line y1="-6.30633" x2="107.325" y2="-6.30633" transform="matrix(0.999992 0.00397337 -0.00399055 0.999992 0 93.233)" stroke="black" stroke-width="12.6127"/>
    <line y1="-6.30633" x2="107.325" y2="-6.30633" transform="matrix(0.999992 0.00397337 -0.00399055 0.999992 460.859 93.233)" stroke="black" stroke-width="12.6127"/>
    <line y1="463.638" x2="107.323" y2="463.638" stroke="black" stroke-width="12.6127"/>
    <line x1="460.859" y1="472.458" x2="568.182" y2="472.458" stroke="black" stroke-width="12.6127"/>
</svg>
