<svg width="177" height="46" viewBox="0 0 177 46" fill="none" xmlns="http://www.w3.org/2000/svg">
    <g clip-path="url(#clip0_1_2)">
        <path d="M16.0391 8.7827C16.0349 6.11831 15.1035 3.83059 13.1274 2.03447C11.9893 0.973404 10.5538 0.298059 9.02014 0.102149L8.26077 0H7.79927C7.45944 0.0468184 7.11752 0.0851243 6.77979 0.144711C4.68208 0.51713 3.03748 1.63439 1.77466 3.33687C0.837317 4.59606 0.257675 6.09155 0.0985922 7.66119C0.0650289 7.98253 0.0335633 8.29962 0 8.61458V37.0291C0.0335633 37.3589 0.0671266 37.6909 0.102788 38.0229C0.486668 41.5215 2.98084 44.7328 6.60568 45.4713C6.89936 45.5309 7.19933 45.5479 7.4951 45.5862C7.61677 45.6011 7.73634 45.6224 7.85591 45.6415H8.22511C8.59011 45.5926 8.95511 45.5585 9.31801 45.4947C10.9684 45.2105 12.4805 44.3826 13.6204 43.1389C14.9354 41.7601 15.7612 39.9768 15.9677 38.0697C16.023 37.6136 16.051 37.1545 16.0516 36.695C16.0489 27.3937 16.0447 18.0896 16.0391 8.7827ZM14.8622 21.1385C14.8689 21.2319 14.8625 21.3257 14.8434 21.4173C14.8381 21.4343 14.8287 21.4496 14.8161 21.462L14.7972 21.4769C14.7809 21.4861 14.7632 21.4926 14.7448 21.496H14.7091H14.6441H1.21877V21.2172C1.21877 17.8995 1.21877 14.5818 1.21877 11.2619C1.21877 10.4235 1.21877 9.58287 1.21877 8.74439C1.21877 8.64863 1.21877 8.55287 1.21877 8.45923V8.31665C1.21877 8.26983 1.21877 8.22301 1.21877 8.17619C1.21877 8.12937 1.21877 8.08255 1.21877 8.03786C1.21877 7.94423 1.23555 7.85272 1.24604 7.76121C1.27471 7.49251 1.31672 7.22545 1.3719 6.96104C1.40756 6.78654 1.44951 6.61629 1.49566 6.44817C1.50825 6.40348 1.52084 6.35666 1.53552 6.3141C1.56069 6.23323 1.58587 6.15449 1.61314 6.07362C1.62572 6.03319 1.64041 5.99275 1.65509 5.95232C1.66977 5.91188 1.68236 5.87358 1.69704 5.83527C1.71173 5.79697 1.72851 5.75227 1.74529 5.71184L1.79564 5.59267L1.88794 5.47349L1.93828 5.36496C1.93793 5.35787 1.93793 5.35077 1.93828 5.34368L1.98863 5.24153C2.00541 5.20322 2.02638 5.16492 2.04526 5.12874C2.06414 5.09256 2.07673 5.06702 2.09141 5.03723C2.1061 5.00744 2.14176 4.94359 2.16903 4.89678L2.22986 4.7925C2.25084 4.75419 2.27182 4.71801 2.29489 4.68184C2.31797 4.64566 2.33055 4.62225 2.34943 4.59458L2.3788 4.54777L2.47949 4.39454C2.56549 4.26898 2.6557 4.14555 2.75009 4.02638L2.84029 3.91146L2.93469 3.79867L3.0207 3.70078L3.10461 3.61778C3.24305 3.46456 3.38989 3.31559 3.54722 3.17301L3.63532 3.09214C3.69406 3.03894 3.75489 2.98786 3.81783 2.93466L3.91012 2.85805L4.10311 2.70695L4.20171 2.63247C4.33386 2.53245 4.47231 2.43668 4.62125 2.34305L4.71984 2.28133L4.82263 2.21749C4.98709 2.11657 5.15653 2.02423 5.33027 1.94083C5.43516 1.88976 5.54004 1.84294 5.64493 1.79825L5.74981 1.75569L5.8484 1.70249L5.95539 1.66205L6.06237 1.62587L6.16935 1.5897L6.28053 1.55565L6.37912 1.52798L6.50289 1.5067C6.57631 1.48755 6.64763 1.47052 6.71266 1.45563L6.82174 1.43222L7.042 1.39178L7.25177 1.35986L7.46154 1.33645L7.6818 1.32155H7.76571H7.84962C7.99016 1.32155 8.13281 1.32155 8.26916 1.32155H8.33628H8.48103H8.56074H8.62996H8.6887H8.77261C8.94042 1.34071 9.10824 1.36837 9.27606 1.40242L9.34528 1.41732H9.36626L9.44178 1.43647H9.48373L9.57393 1.45988L9.62847 1.47265L9.75433 1.50883L9.84453 1.53437L9.92005 1.55777L10.0165 1.5897L10.0984 1.61736L10.1361 1.63226L10.199 1.65354L10.283 1.68546L10.4885 1.80889L10.5766 1.84507L10.6626 1.88338L10.8326 1.96424L10.9186 2.00681L11.0717 2.08767C11.1074 2.1047 11.1409 2.12598 11.1766 2.14513L11.2794 2.20472L11.3822 2.26643L11.4577 2.31325L11.5227 2.35369C11.6444 2.43456 11.766 2.51755 11.8835 2.60693C11.9318 2.64098 11.9779 2.67716 12.0241 2.71334L12.0954 2.7708C12.1415 2.80697 12.1856 2.84528 12.2317 2.88571L12.366 3.00276L12.5401 3.16662L12.6282 3.25388L12.6911 3.31772L12.7541 3.38369L12.8799 3.51989L12.9407 3.58799L13.031 3.6944L13.1862 3.88592L13.2449 3.96041C13.2659 3.98807 13.2869 4.01361 13.3058 4.04128L13.3498 4.09874C13.3708 4.12853 13.3939 4.15832 13.4148 4.19024C13.4736 4.27111 13.5323 4.35411 13.5868 4.4371C13.7169 4.63715 13.8386 4.83932 13.9497 5.04787L13.9917 5.12874C14.0253 5.19258 14.0567 5.25643 14.0882 5.32027L14.126 5.39901L14.1385 5.42455C14.1511 5.45008 14.1616 5.47775 14.1742 5.50541C14.1868 5.53308 14.2245 5.6182 14.2497 5.67566C14.2533 5.68754 14.2583 5.69896 14.2644 5.70971L14.2917 5.77994C14.3273 5.86932 14.363 5.95657 14.3945 6.04595C14.4091 6.08639 14.4238 6.12682 14.4364 6.16938C14.5675 6.5479 14.6685 6.93646 14.7385 7.33133C14.7574 7.43135 14.7741 7.5335 14.7888 7.63352C14.8035 7.73354 14.8161 7.84633 14.8266 7.9421C14.8266 7.98679 14.8266 8.03148 14.8392 8.0783C14.8518 8.12512 14.8392 8.13576 14.8392 8.16342L14.8518 8.41879C14.8518 8.49966 14.8518 8.5784 14.8518 8.65927C14.8518 8.74014 14.8518 8.81888 14.8518 8.89975C14.8588 12.98 14.8622 17.0596 14.8622 21.1385Z" fill="#25499A"/>
        <path d="M34.8676 9.04872C34.8673 8.57372 34.8406 8.09911 34.7878 7.62714C34.5845 5.64741 33.7148 3.79928 32.3251 2.39412C31.1939 1.20449 29.7158 0.415173 28.1087 0.142583C27.7752 0.0851243 27.4333 0.0468184 27.0914 0H26.6403C26.3005 0.0468184 25.9586 0.0851243 25.6188 0.142583C23.9601 0.425533 22.4401 1.25676 21.2954 2.50691C19.9723 3.89 19.1418 5.68138 18.9355 7.59735C18.8802 8.0613 18.8522 8.52818 18.8516 8.99551C18.8516 18.2925 18.8516 27.5909 18.8516 36.8908C18.8516 39.5168 19.7829 41.7854 21.7107 43.5688C22.9838 44.7812 24.6368 45.5007 26.3802 45.6011C26.4783 45.6128 26.5756 45.6298 26.6718 45.6522H27.041L27.8381 45.5522C29.3981 45.3514 30.856 44.6566 32.0042 43.5666C33.9362 41.7662 34.8571 39.4977 34.8613 36.861C34.8766 27.5909 34.8787 18.3202 34.8676 9.04872ZM33.6761 36.9142C33.6761 36.961 33.6761 37.0099 33.6761 37.0567C33.6761 37.1036 33.6761 37.1312 33.6761 37.1674V37.2951C33.6761 37.3781 33.6761 37.4611 33.6614 37.5441C33.6467 37.6271 33.6488 37.7101 33.6404 37.7909C33.6236 37.9548 33.6026 38.1165 33.5775 38.274C33.5586 38.3932 33.5355 38.5124 33.5124 38.6294C33.4977 38.706 33.4789 38.7826 33.4621 38.8614C33.4516 38.8997 33.4432 38.938 33.4327 38.9742C33.4055 39.0891 33.374 39.2019 33.3404 39.3125C33.3173 39.387 33.2943 39.4615 33.2691 39.5253C33.2188 39.6743 33.1642 39.8212 33.1055 39.9637L33.0803 40.0255L33.0509 40.0957L33.0069 40.1936C32.9943 40.2191 32.9838 40.2468 32.9712 40.2744C32.9314 40.3596 32.8894 40.4426 32.8454 40.5256C32.8323 40.5541 32.8176 40.5818 32.8013 40.6086C32.7531 40.7001 32.7027 40.7894 32.6503 40.8788C32.6314 40.9129 32.6104 40.9448 32.5894 40.9767C32.5685 41.0086 32.5517 41.0427 32.5286 41.0746C32.5055 41.1065 32.4888 41.1385 32.4678 41.1704C32.4237 41.2342 32.3818 41.2981 32.3377 41.3598L32.2685 41.4534C32.2475 41.4832 32.2244 41.5151 32.1993 41.5449L32.13 41.6364L31.9832 41.8173L31.9056 41.9046C31.8804 41.9344 31.8552 41.9642 31.828 41.9918C31.7042 42.1302 31.5742 42.2664 31.4378 42.3962L31.377 42.4536L31.2385 42.5792L31.1714 42.6409L31.0434 42.7494L30.8777 42.8856C30.6805 43.0431 30.4729 43.1921 30.2484 43.3368C29.2252 44.0177 28.0208 44.3638 26.7977 44.3285C25.8814 44.3194 24.9776 44.1131 24.1458 43.7231C23.3141 43.3331 22.5735 42.7684 21.9729 42.0663C20.8827 40.8522 20.2138 39.3096 20.0682 37.6739C20.0682 37.6441 20.0682 37.6164 20.0682 37.5866V37.5228C20.0682 37.427 20.0535 37.3313 20.0514 37.2376C20.0514 37.2078 20.0514 37.178 20.0514 37.1483C20.0514 37.1185 20.0514 37.0908 20.0514 37.061C20.0514 37.0312 20.0514 37.0035 20.0514 36.9738C20.0514 36.895 20.0514 36.8163 20.0514 36.7397V33.3347C20.0514 30.388 20.0514 27.4412 20.0514 24.4945C20.0514 24.1327 20.0514 24.1327 20.4185 24.1327H26.8795C29.0548 24.1327 31.2322 24.1327 33.4075 24.1327C33.4466 24.1292 33.4859 24.1292 33.525 24.1327C33.5355 24.1317 33.546 24.1317 33.5565 24.1327C33.5741 24.1365 33.5911 24.143 33.6068 24.1519C33.6138 24.1507 33.6209 24.1507 33.6278 24.1519L33.6467 24.1689C33.6528 24.174 33.6584 24.1797 33.6635 24.1859L33.6761 24.2094V24.2349C33.6773 24.2448 33.6773 24.2548 33.6761 24.2647C33.6761 24.2647 33.6761 24.2647 33.6761 24.2796C33.6796 24.3185 33.6796 24.3577 33.6761 24.3966C33.6761 25.7898 33.6761 27.1845 33.6761 28.5805C33.6949 31.3875 33.7012 34.1497 33.6761 36.9142Z" fill="#25499A"/>
        <path d="M176.078 2.2468V5.24318C176.028 5.37043 175.938 5.47714 175.822 5.54621C175.705 5.61528 175.569 5.64271 175.436 5.62411C174.374 5.62411 173.313 5.62411 172.251 5.62411C171.742 5.62411 171.635 5.73264 171.635 6.26254C171.635 10.4705 171.635 14.6771 171.635 18.8822C171.635 19.6462 171.635 20.4102 171.605 21.1742C171.61 21.2491 171.6 21.3242 171.576 21.3952C171.551 21.4661 171.514 21.5316 171.465 21.5877C171.416 21.6439 171.356 21.6896 171.289 21.7224C171.223 21.7551 171.15 21.7742 171.077 21.7786C170.938 21.8063 170.798 21.8199 170.657 21.819C169.996 21.819 169.336 21.819 168.673 21.819C168.581 21.8198 168.489 21.8141 168.398 21.802C167.951 21.7424 167.815 21.6083 167.754 21.1508C167.735 20.9884 167.726 20.8249 167.729 20.6613C167.729 15.8858 167.729 11.1104 167.729 6.3349C167.729 6.26467 167.729 6.19444 167.729 6.12209C167.718 5.77308 167.573 5.62411 167.229 5.62411H164.041C163.926 5.62777 163.81 5.61849 163.697 5.59644C163.636 5.59109 163.578 5.57368 163.524 5.5452C163.47 5.51673 163.422 5.47774 163.383 5.43049C163.344 5.38324 163.315 5.32865 163.297 5.26985C163.278 5.21105 163.272 5.14919 163.277 5.08783C163.277 4.15855 163.277 3.22999 163.277 2.30213C163.272 2.23924 163.279 2.17583 163.298 2.1158C163.317 2.05577 163.349 2.0004 163.39 1.95313C163.431 1.90586 163.482 1.86768 163.538 1.84096C163.594 1.81424 163.656 1.79954 163.718 1.79777C163.81 1.79137 163.903 1.79137 163.995 1.79777C167.771 1.79777 171.54 1.79777 175.301 1.79777C175.687 1.77649 175.96 1.85949 176.078 2.2468Z" fill="white"/>
        <path d="M135.648 20.7147C135.645 20.9092 135.629 21.1033 135.602 21.2957C135.59 21.4137 135.539 21.5241 135.458 21.6091C135.376 21.6941 135.269 21.7486 135.153 21.7639C135.015 21.7934 134.874 21.8098 134.733 21.8128C134.033 21.8128 133.334 21.8128 132.635 21.8128H132.52C131.973 21.7745 131.777 21.5809 131.759 21.0254C131.746 20.619 131.759 20.2125 131.759 19.8082C131.759 16.8118 131.759 13.8147 131.759 10.8169C131.75 10.7 131.733 10.584 131.706 10.47H131.635C131.59 10.5373 131.55 10.6086 131.517 10.6828L129.506 15.9541C129.455 16.084 129.399 16.2111 129.336 16.3351C129.289 16.4348 129.215 16.5182 129.121 16.5747C129.028 16.6311 128.92 16.6581 128.811 16.6522C128.558 16.6522 128.302 16.6373 128.05 16.6522C127.903 16.6708 127.754 16.6389 127.627 16.5618C127.5 16.4847 127.402 16.3667 127.349 16.2265C127.194 15.8882 127.064 15.5392 126.93 15.1902C126.34 13.6295 125.751 12.0689 125.163 10.5083C125.138 10.4402 125.056 10.3913 125.002 10.3317C124.959 10.4007 124.928 10.4771 124.912 10.5573C124.912 13.9438 124.912 17.3303 124.912 20.7169C124.91 20.919 124.896 21.1209 124.87 21.3212C124.858 21.4436 124.804 21.5579 124.718 21.6445C124.632 21.7311 124.519 21.7846 124.398 21.7958C124.27 21.8223 124.14 21.8373 124.01 21.8405C123.309 21.8405 122.611 21.8405 121.912 21.8405C121.262 21.8405 121.041 21.6149 121.027 20.9552C121.027 20.5956 121.027 20.2359 121.027 19.8784C121.027 14.2275 121.027 8.57742 121.027 2.928C121.022 2.75676 121.029 2.5854 121.048 2.41513C121.053 2.27258 121.11 2.13696 121.207 2.03358C121.304 1.93019 121.434 1.86612 121.574 1.8533C121.702 1.82631 121.832 1.81205 121.962 1.81074C122.715 1.81074 123.468 1.81074 124.224 1.81074C124.433 1.79995 124.641 1.85561 124.818 1.97002C124.995 2.08442 125.133 2.25188 125.212 2.44918C126.185 4.556 127.15 6.66709 128.123 8.77604C128.199 8.9015 128.284 9.02037 128.379 9.13143C128.481 9.0044 128.573 8.86918 128.654 8.72709C129.213 7.53961 129.764 6.34858 130.305 5.154C130.703 4.30276 131.1 3.43449 131.503 2.57899C131.673 2.21934 131.88 1.89161 132.308 1.80861C132.399 1.79229 132.491 1.78446 132.583 1.78521H134.844C135.398 1.81074 135.597 1.99802 135.637 2.57048C135.637 2.67901 135.637 2.78329 135.637 2.89821C135.646 8.83846 135.649 14.7773 135.648 20.7147Z" fill="white"/>
        <path d="M162.099 2.93291V20.6771C162.099 20.8345 162.099 20.9899 162.086 21.1453C162.094 21.305 162.04 21.4615 161.935 21.581C161.83 21.7005 161.683 21.7733 161.526 21.7837C161.405 21.8073 161.282 21.8194 161.159 21.8199C160.613 21.8199 160.066 21.8199 159.52 21.8199C158.944 21.8199 158.832 21.7369 158.606 21.1963C157.235 17.9134 155.864 14.6311 154.492 11.3496C154.461 11.273 154.429 11.1985 154.4 11.1219L154.362 11.1368C154.362 14.319 154.362 17.5019 154.362 20.6856C154.365 20.8726 154.355 21.0596 154.333 21.2453C154.327 21.38 154.273 21.5081 154.182 21.6056C154.09 21.7031 153.966 21.7634 153.834 21.7752C153.713 21.8022 153.59 21.8164 153.466 21.8177C152.783 21.8177 152.099 21.8177 151.415 21.8177C150.786 21.8177 150.576 21.5922 150.553 20.9665C150.553 20.8814 150.553 20.7962 150.553 20.709V2.8797C150.553 2.79458 150.553 2.70945 150.553 2.6222C150.565 2.04761 150.779 1.80501 151.348 1.79011C152.101 1.77309 152.856 1.77309 153.609 1.79011C153.803 1.79251 153.992 1.85633 154.149 1.97268C154.306 2.08903 154.423 2.25211 154.484 2.43919C155.043 3.78273 155.603 5.12344 156.162 6.46131C156.85 8.10988 157.537 9.75917 158.222 11.4092C158.243 11.4476 158.267 11.4845 158.293 11.5198V2.89034C158.293 2.73499 158.293 2.57751 158.31 2.42216C158.307 2.28109 158.355 2.14384 158.445 2.03583C158.534 1.92783 158.659 1.8564 158.797 1.8348C158.934 1.8031 159.075 1.78669 159.216 1.78586C159.877 1.78586 160.54 1.78586 161.201 1.78586H161.339C161.866 1.81991 162.063 2.01995 162.096 2.55623C162.101 2.68392 162.099 2.80735 162.099 2.93291Z" fill="white"/>
        <path d="M66.8231 15.6196C66.8399 16.6593 66.6759 17.6937 66.3385 18.6756C65.6924 20.4717 64.4401 21.5485 62.5962 21.9039C61.4439 22.1359 60.2547 22.0996 59.1182 21.7975C57.2555 21.2932 56.1626 20.0184 55.6633 18.1797C55.4411 17.3099 55.3339 16.4139 55.3445 15.5153C55.3445 13.5405 55.3445 11.5663 55.3445 9.59282V2.88928C55.3445 2.78713 55.3445 2.67647 55.3445 2.58496C55.378 2.03378 55.5857 1.80395 56.1332 1.79118C56.9177 1.77273 57.7023 1.77273 58.4868 1.79118C59.0008 1.80395 59.1791 2.00399 59.2231 2.52537C59.2357 2.68073 59.2378 2.83821 59.2378 2.99356C59.2378 7.12209 59.2378 11.2499 59.2378 15.377C59.2352 15.8214 59.2717 16.2651 59.3469 16.7028C59.4005 16.9956 59.5241 17.2706 59.7069 17.5037C59.8897 17.7367 60.1261 17.9206 60.3954 18.0393C60.6646 18.1581 60.9585 18.2079 61.2511 18.1845C61.5438 18.1611 61.8263 18.0652 62.0739 17.9052C62.2754 17.7733 62.4448 17.5967 62.5694 17.3888C62.694 17.181 62.7706 16.9472 62.7934 16.705C62.8668 16.2361 62.9047 15.7623 62.9067 15.2876C62.9151 11.1591 62.9151 7.03058 62.9067 2.90205C62.9067 2.7467 62.9067 2.59134 62.9277 2.43599C62.9228 2.28531 62.9747 2.13841 63.073 2.02529C63.1712 1.91217 63.3083 1.84137 63.4563 1.82735C63.5945 1.79995 63.735 1.78571 63.8758 1.78479C64.5366 1.78479 65.1974 1.78479 65.8603 1.78479C65.9295 1.78479 65.9987 1.78479 66.07 1.78479C66.5672 1.82523 66.7161 1.96355 66.7937 2.46153C66.8088 2.5694 66.8165 2.67819 66.8168 2.78713C66.8224 7.06605 66.8245 11.3435 66.8231 15.6196Z" fill="white"/>
        <path d="M95.2361 6.17177C94.9152 4.54377 94.0677 3.29032 92.5742 2.53909C91.4456 1.97302 90.231 1.80064 88.9913 1.78787C87.3362 1.77297 85.6832 1.78787 84.0281 1.78787C83.8827 1.78898 83.7378 1.80611 83.596 1.83895C83.4647 1.85786 83.3443 1.92303 83.2557 2.02303C83.1671 2.12304 83.116 2.25149 83.1114 2.38587C83.1114 2.55825 83.0841 2.72849 83.0841 2.89874C83.0841 5.85681 83.0841 8.81488 83.0841 11.773C83.0841 14.731 83.0841 17.704 83.0841 20.6919C83.0824 20.8715 83.0964 21.051 83.1261 21.2281C83.1911 21.6027 83.3505 21.7836 83.7176 21.7942C84.5777 21.8155 85.4399 21.824 86.2999 21.7942C86.7803 21.7772 86.9166 21.5814 86.967 21.0962C86.9796 20.9664 86.9838 20.8323 86.9838 20.7004C86.9838 18.5552 86.9838 16.4094 86.9838 14.2628C86.9838 13.85 87.0824 13.7521 87.4872 13.75C88.0012 13.75 88.5172 13.75 89.0332 13.75C90.0816 13.7744 91.1247 13.5915 92.1043 13.2116C93.4594 12.6519 94.504 11.7602 95.0159 10.3301C95.4704 8.99201 95.5467 7.55157 95.2361 6.17177ZM91.1729 8.00407V8.06366C91.1729 8.06366 91.1729 8.08494 91.1729 8.09558C91.1741 8.11614 91.1741 8.13674 91.1729 8.1573L91.154 8.25945C91.1393 8.32635 91.1211 8.39242 91.0995 8.45736L91.0869 8.49992L91.068 8.551C91.0512 8.59782 91.0323 8.64463 91.0114 8.68932C90.9779 8.76637 90.9394 8.84102 90.896 8.91278C90.8891 8.92601 90.8814 8.9388 90.8729 8.95108L90.8477 8.99152L90.8226 9.02982C90.8121 9.04472 90.8037 9.05962 90.7911 9.07451L90.7659 9.10856L90.7324 9.15325L90.703 9.18943L90.6715 9.22774C90.6614 9.2408 90.6502 9.25291 90.638 9.26391C90.6065 9.30009 90.5729 9.33627 90.5373 9.37032C90.4792 9.42811 90.4175 9.48213 90.3527 9.53206L90.3149 9.55972L90.2751 9.58951L90.1933 9.64485L90.1534 9.67038L90.1135 9.69592L90.0674 9.72146L90.0233 9.74487L89.9793 9.76828L89.8912 9.81084L89.8408 9.83212L89.7989 9.84914L89.7506 9.8683L89.7045 9.88532L89.6562 9.90022L89.608 9.91511L89.5597 9.93001L89.5094 9.94278C89.3582 9.98164 89.2037 10.0052 89.0479 10.013C88.4647 10.0428 87.8795 10.013 87.2942 10.0236H87.2229H87.2103H87.1935H87.181H87.1621H87.1495H87.1306L87.1075 10.0109L87.0866 9.99173L87.0677 9.97257L87.0509 9.94704L87.0383 9.92576L87.0194 9.87042C87.0128 9.83889 87.0086 9.80687 87.0068 9.77466C87.0058 9.75978 87.0058 9.74485 87.0068 9.72997C87.0068 9.26817 87.0068 8.80637 87.0068 8.34457V7.77211C87.0068 7.13368 87.0068 6.47822 87.0068 5.82915V5.7951C87.0057 5.78805 87.0057 5.78086 87.0068 5.77382C87.0087 5.72968 87.0164 5.68601 87.0299 5.644L87.0425 5.61421C87.0461 5.60368 87.0511 5.59367 87.0572 5.58442C87.0679 5.56671 87.0806 5.55029 87.0949 5.53547C87.1239 5.5039 87.161 5.48107 87.2019 5.4695H87.2334H87.2649H87.3089C88.0002 5.44454 88.6923 5.46231 89.3814 5.5227H89.4423H89.4779H89.5199H89.5597H89.6164L89.6604 5.53334L89.7108 5.54611H89.7318L89.7884 5.56313C89.8513 5.58016 89.9122 5.60144 89.9688 5.62272L90.0275 5.64613C90.0994 5.67676 90.1694 5.71157 90.2373 5.75041L90.2856 5.77807L90.3359 5.80999L90.4156 5.86533L90.489 5.92066L90.5604 5.98024L90.6589 6.07601L90.6883 6.11006C90.7494 6.17613 90.8048 6.24732 90.854 6.32287L90.9023 6.39948C90.9316 6.45055 90.9589 6.50376 90.9841 6.55909C90.9988 6.58675 91.0093 6.61442 91.0219 6.64208C91.0323 6.66975 91.0449 6.69742 91.0554 6.72721C91.085 6.81309 91.1102 6.90046 91.1309 6.98897C91.1317 7.0003 91.1317 7.01168 91.1309 7.02302C91.1309 7.05919 91.1456 7.09537 91.1519 7.13155V7.16986C91.1624 7.24008 91.1708 7.31244 91.175 7.38267C91.1771 7.42023 91.1771 7.45789 91.175 7.49546C91.176 7.51033 91.176 7.52527 91.175 7.54015C91.1856 7.6946 91.1856 7.84962 91.175 8.00407H91.1729Z" fill="white"/>
        <path d="M81.228 5.71328C81.0375 4.94563 80.6647 4.23693 80.1422 3.64899C79.6197 3.06106 78.9633 2.61174 78.2304 2.34023C77.2284 1.96086 76.1658 1.77325 75.0964 1.78692C73.4434 1.77416 71.7904 1.78692 70.1353 1.78692C70.0127 1.78798 69.8905 1.80081 69.7703 1.82523C69.6219 1.83438 69.4824 1.90032 69.38 2.00972C69.2776 2.11913 69.2199 2.26386 69.2186 2.41472C69.2015 2.56161 69.1938 2.70946 69.1955 2.85736V20.6718C69.1955 20.7654 69.1955 20.859 69.1955 20.9527C69.2333 21.6039 69.4452 21.8039 70.085 21.8145C70.7856 21.8145 71.4841 21.8145 72.1827 21.8145C72.2982 21.8132 72.4134 21.8011 72.5267 21.7784C72.6716 21.7707 72.808 21.7067 72.9076 21.5997C73.0072 21.4928 73.0624 21.3509 73.0616 21.2038C73.0827 21.0337 73.0932 20.8624 73.0931 20.6909C73.0931 18.5628 73.0931 16.4347 73.0931 14.3066C73.0931 13.8341 73.1749 13.7533 73.649 13.7533H75.1488C76.1974 13.777 77.2405 13.5934 78.2199 13.2127C79.8058 12.5594 80.907 11.4507 81.3098 9.72689C81.6222 8.40403 81.594 7.02191 81.228 5.71328ZM77.2822 7.9329C77.2822 7.98681 77.2759 8.04001 77.2633 8.09251C77.2591 8.12832 77.2528 8.16385 77.2444 8.19891C77.2319 8.26914 77.2151 8.33511 77.1962 8.41172L77.1647 8.50962C77.1521 8.54367 77.1417 8.57559 77.1291 8.60751C77.123 8.6235 77.116 8.63913 77.1081 8.65433C77.0892 8.70115 77.0682 8.74796 77.0452 8.79265L76.999 8.88204C76.9738 8.92673 76.9466 8.96929 76.9193 9.01185C76.8839 9.06728 76.8454 9.12057 76.8039 9.17146L76.741 9.2502L76.6382 9.35873C76.2338 9.76151 75.6962 9.9974 75.13 10.0206C74.5489 10.0504 73.9615 10.0206 73.3784 10.0312C73.3027 10.0371 73.2277 10.0135 73.1686 9.96524L73.156 9.95035C73.1446 9.93664 73.1347 9.92165 73.1266 9.90565C73.1205 9.89491 73.1156 9.88348 73.112 9.87161C73.1113 9.86453 73.1113 9.8574 73.112 9.85032C73.1111 9.8454 73.1111 9.84035 73.112 9.83543C73.1011 9.79093 73.0968 9.74501 73.0994 9.69923C73.0994 9.25942 73.0994 8.8189 73.0994 8.37767C73.0994 8.23083 73.0994 8.08399 73.0994 7.93716V7.77968C73.0994 7.26255 73.0994 6.74329 73.0994 6.22616C73.0994 6.09634 73.0994 5.96653 73.0994 5.83671C73.0985 5.78594 73.1035 5.73524 73.1141 5.68562C73.1233 5.63801 73.1427 5.59299 73.1707 5.55368C73.1766 5.54555 73.1837 5.53837 73.1917 5.53239C73.2305 5.49715 73.2786 5.47421 73.3301 5.46642C73.3567 5.46425 73.3833 5.46425 73.4098 5.46642H73.7455C73.9552 5.46642 74.165 5.46642 74.3853 5.46642C74.7519 5.46163 75.1184 5.48154 75.4824 5.52601C75.704 5.55367 75.9211 5.61017 76.1285 5.69413L76.2648 5.75585L76.3508 5.80266C76.4202 5.84192 76.4868 5.88601 76.5501 5.93461L76.6193 5.98781L76.6844 6.0474C76.6965 6.05617 76.7077 6.06615 76.7179 6.07719C76.7946 6.15099 76.8648 6.23145 76.9277 6.31767L76.9529 6.35597C76.9697 6.38151 76.9864 6.40492 77.0011 6.43046C77.0319 6.48133 77.06 6.53391 77.085 6.58794C77.106 6.6305 77.1228 6.67093 77.1396 6.71349C77.1563 6.75606 77.171 6.79862 77.1857 6.84331C77.1915 6.85787 77.1965 6.8728 77.2004 6.888C77.2004 6.91779 77.2172 6.94759 77.2235 6.97738C77.234 7.0242 77.2444 7.06889 77.2528 7.11571C77.2996 7.38544 77.3095 7.66043 77.2822 7.9329Z" fill="white"/>
        <path d="M119.039 20.806C119.039 21.6083 118.829 21.8169 118.042 21.8169H110.174C109.796 21.8169 109.418 21.8169 109.043 21.8169C108.479 21.8041 108.273 21.6041 108.231 21.0252C108.231 20.9103 108.231 20.7932 108.231 20.6762V2.88096C108.228 2.72542 108.234 2.56983 108.248 2.41491C108.249 2.27212 108.301 2.13452 108.394 2.02766C108.488 1.92081 108.616 1.85197 108.756 1.83393C108.898 1.80247 109.044 1.78677 109.19 1.78711H117.753C118.493 1.78711 118.701 1.99993 118.705 2.74476C118.705 3.42363 118.705 4.1025 118.705 4.78136C118.715 4.87124 118.707 4.96233 118.68 5.04861C118.653 5.13488 118.608 5.21436 118.549 5.28177C118.489 5.34919 118.416 5.403 118.335 5.43963C118.253 5.47627 118.165 5.4949 118.076 5.49428C117.961 5.50561 117.845 5.51059 117.73 5.50918H112.714C112.223 5.50918 112.114 5.61771 112.112 6.11143C112.112 7.03077 112.112 7.95295 112.112 8.87797C112.11 8.96329 112.114 9.04866 112.125 9.13334C112.169 9.42277 112.244 9.48661 112.544 9.48661H116.398C116.497 9.4802 116.598 9.4802 116.698 9.48661C116.763 9.48907 116.828 9.50476 116.888 9.53279C116.948 9.56082 117.002 9.60062 117.047 9.6499C117.091 9.69918 117.126 9.75695 117.148 9.81987C117.171 9.8828 117.181 9.94963 117.178 10.0165C117.186 10.8905 117.186 11.7644 117.178 12.6383C117.178 13.0257 116.997 13.1916 116.618 13.1916H112.632C112.238 13.1916 112.127 13.3002 112.127 13.7066C112.127 15.0332 112.127 16.3597 112.127 17.6862C112.127 18.0012 112.208 18.0778 112.529 18.0778H118.193C118.932 18.0778 119.06 18.2097 119.06 18.9673L119.039 20.806Z" fill="white"/>
        <path d="M148.565 21.0029C148.565 21.5434 148.37 21.7413 147.839 21.8052C147.747 21.8141 147.655 21.8176 147.562 21.8158H138.752C137.957 21.8158 137.762 21.6222 137.762 20.8028C137.762 17.7838 137.762 14.7633 137.762 11.7414V2.91823C137.762 2.80757 137.762 2.70542 137.762 2.5905C137.785 2.04358 137.971 1.83928 138.517 1.79033C138.594 1.78604 138.671 1.78604 138.748 1.79033H147.239C148.026 1.79033 148.221 1.98186 148.231 2.78203C148.231 3.44387 148.231 4.10784 148.231 4.76968C148.231 5.23361 148.022 5.4528 147.566 5.49962C147.459 5.51025 147.351 5.51451 147.243 5.51239H142.259C141.747 5.51239 141.649 5.61241 141.649 6.12316V8.8897C141.642 8.97541 141.642 9.06149 141.649 9.1472C141.689 9.41747 141.773 9.48983 142.047 9.48983H145.957C146.08 9.48536 146.203 9.49608 146.322 9.52175C146.434 9.54495 146.533 9.60765 146.603 9.69856C146.672 9.78947 146.707 9.90261 146.702 10.0176C146.702 10.9071 146.702 11.7967 146.702 12.6862C146.702 13.0459 146.515 13.2055 146.157 13.2055H142.14C141.758 13.2055 141.651 13.3119 141.649 13.7077C141.649 15.0414 141.649 16.3757 141.649 17.7107C141.649 18.015 141.731 18.0916 142.037 18.0916H147.69C148.447 18.0916 148.571 18.2172 148.571 18.9918C148.569 19.6601 148.573 20.3325 148.565 21.0029Z" fill="white"/>
        <path d="M52.2521 19.1479C51.5536 20.8248 50.2278 21.7676 48.535 22.2251C47.3896 22.5156 46.2011 22.5878 45.0297 22.438C44.1906 22.3443 43.362 22.1805 42.5272 22.0443C42.4594 22.0301 42.3933 22.0087 42.33 21.9804C41.7804 21.7676 41.6629 21.6037 41.6629 21.01V19.8672C41.6629 19.4692 41.6629 19.0713 41.6629 18.6733C41.6629 18.1073 41.9167 17.8923 42.4705 18.0115C42.9509 18.1136 43.4229 18.269 43.9054 18.3605C44.7339 18.518 45.5688 18.6861 46.4226 18.5733C46.7052 18.5381 46.9822 18.4666 47.247 18.3605C48.3378 17.9136 48.7322 16.7857 48.2057 15.6365C47.8763 14.9834 47.3846 14.4289 46.7792 14.0278C45.831 13.3361 44.8808 12.6445 43.9431 11.9401C43.6716 11.7225 43.4138 11.488 43.1712 11.2378C42.7065 10.7858 42.3353 10.2442 42.0792 9.64501C41.8231 9.04577 41.6873 8.40076 41.6797 7.74768C41.6046 6.76342 41.771 5.77562 42.1643 4.8726C42.7768 3.56169 43.8424 2.79982 45.1745 2.3742C46.3884 2.0105 47.6643 1.91043 48.9189 2.08052C49.5662 2.16461 50.2089 2.28181 50.8446 2.43166C51.0898 2.497 51.3249 2.59655 51.5431 2.72747C51.6607 2.7875 51.758 2.88169 51.8227 2.99805C51.8873 3.11441 51.9163 3.24765 51.906 3.3808C51.8934 4.19799 51.906 5.01731 51.906 5.83663C51.906 6.26226 51.7151 6.41974 51.3082 6.33674C50.4418 6.16436 49.5796 5.94942 48.7049 5.83876C48.1618 5.80061 47.6163 5.81987 47.0771 5.89622C46.8863 5.92673 46.7044 5.99938 46.5443 6.10903C45.9275 6.4772 45.7534 7.1284 46.194 7.6966C46.5892 8.20294 47.0365 8.66521 47.5281 9.07562C48.3231 9.73959 49.179 10.3269 49.9824 10.9782C51.0795 11.8656 51.9396 12.9424 52.3591 14.3236C52.8479 15.9367 52.9108 17.5646 52.2521 19.1479Z" fill="white"/>
        <path d="M63.4193 44.2635C63.3967 44.1808 63.3686 44.0998 63.3354 44.0209C62.404 41.836 61.4726 39.6497 60.5412 37.4621C60.4999 37.3615 60.4669 37.2575 60.4426 37.1514C60.4304 37.1173 60.4255 37.0811 60.4282 37.045C60.4308 37.0089 60.441 36.9738 60.4581 36.942C60.4752 36.9102 60.4987 36.8824 60.5271 36.8605C60.5556 36.8387 60.5883 36.8232 60.623 36.8151C61.5251 36.4725 62.0914 35.7808 62.4711 34.9253C62.8573 34.0195 63.002 33.0265 62.8907 32.046C62.7284 30.2017 61.8103 28.9198 60.1364 28.2005C59.3357 27.879 58.4802 27.7213 57.6191 27.7366C56.1822 27.7217 54.7432 27.7366 53.3062 27.7366C52.6769 27.7366 52.4902 27.9217 52.4902 28.5517V44.0698C52.4902 44.155 52.4902 44.2422 52.4902 44.3273C52.528 44.7721 52.7 44.9764 53.0545 44.9807C53.7698 44.9807 54.4852 44.9807 55.2005 44.9807C55.5948 44.9807 55.7585 44.8062 55.7836 44.4103C55.7941 44.272 55.7962 44.1315 55.7962 43.9847C55.7962 42.0737 55.7962 40.1584 55.7962 38.2388C55.7886 38.1303 55.7971 38.0213 55.8214 37.9153C55.8454 37.8262 55.9026 37.7499 55.9808 37.7025C56.0809 37.6581 56.1888 37.6347 56.2981 37.6337C56.4074 37.6328 56.5157 37.6544 56.6165 37.6972C56.7173 37.7399 56.8085 37.803 56.8845 37.8826C56.9606 37.9622 57.02 38.0566 57.059 38.1601C57.938 40.2435 58.8211 42.3227 59.6854 44.4125C59.742 44.5879 59.8561 44.7383 60.0088 44.8386C60.1615 44.9389 60.3435 44.983 60.5245 44.9636C61.309 44.9636 62.0935 44.9636 62.8781 44.9636C63.3501 44.9828 63.5451 44.7295 63.4193 44.2635ZM59.3392 32.8781C59.2994 33.889 58.561 34.6423 57.4345 34.704C57.0527 34.7253 56.6668 34.704 56.2829 34.704C55.899 34.704 55.8067 34.6061 55.8025 34.2188C55.8025 33.7443 55.8025 33.2676 55.8025 32.793C55.8025 32.3184 55.8025 31.8417 55.8025 31.365C55.8025 30.9671 55.941 30.8287 56.3374 30.8394C56.8655 30.8298 57.3936 30.8611 57.917 30.933C58.8757 31.1245 59.3791 31.8907 59.3392 32.8781Z" fill="#25499A"/>
        <path d="M73.84 36.3918C73.84 35.3639 73.8568 34.3339 73.84 33.3039C73.826 32.4168 73.6847 31.5364 73.4204 30.6906C72.9715 29.2882 72.1262 28.2603 70.706 27.8007C69.8789 27.5505 69.0094 27.478 68.1531 27.5878C66.326 27.7858 65.0758 28.7349 64.4485 30.497C64.1383 31.4364 63.9851 32.4218 63.9954 33.4125C63.9703 35.3618 63.9703 37.3119 63.9954 39.2626C63.9989 40.2009 64.1403 41.1333 64.415 42.0292C64.8849 43.5465 65.8037 44.6106 67.3686 45.0085C68.1829 45.204 69.0264 45.2408 69.8543 45.1171C71.3227 44.9234 72.4282 44.2062 73.1121 42.8549C73.6386 41.81 73.7875 40.6757 73.8253 39.5287C73.8589 38.4901 73.84 37.4559 73.84 36.3918ZM70.5277 38.9456C70.5096 39.5877 70.4465 40.2278 70.3389 40.8609C70.3073 41.1443 70.1842 41.4092 69.9888 41.6143C69.7934 41.8194 69.5367 41.9533 69.2586 41.9951C68.6964 42.0888 68.1636 42.01 67.7902 41.5057C67.5274 41.1178 67.385 40.659 67.3811 40.1884C67.2301 37.7794 67.2867 35.3703 67.3413 32.9634C67.3546 32.6131 67.3996 32.2648 67.4755 31.9228C67.6392 31.1333 68.1594 30.7034 68.9104 30.7013C69.2575 30.6775 69.6004 30.7899 69.8682 31.0153C70.136 31.2406 70.3082 31.5617 70.3494 31.9122C70.455 32.5326 70.5167 33.1598 70.534 33.7892C70.5634 34.6553 70.534 35.5214 70.534 36.3876C70.534 37.2537 70.5571 38.0943 70.5277 38.9456Z" fill="#25499A"/>
        <path d="M51.3007 40.603C51.3012 41.2904 51.1775 41.972 50.9357 42.6141C50.4028 44.0016 49.3708 44.7869 47.959 45.055C46.7169 45.3016 45.4346 45.2402 44.2209 44.8763C42.9434 44.489 42.1589 43.5781 41.6932 42.346C41.3725 41.4682 41.2029 40.541 41.1918 39.605C41.1645 38.5047 41.1918 37.4045 41.1918 36.3043C41.1918 35.204 41.1708 34.0868 41.1918 32.9802C41.206 32.1129 41.3781 31.2558 41.6995 30.452C42.3162 28.9346 43.4594 28.0685 45.0201 27.7535C46.5098 27.4618 48.0402 27.4553 49.5323 27.7344C49.6522 27.758 49.7701 27.7914 49.8847 27.8344C50.3357 27.9961 50.514 28.2196 50.514 28.7027C50.5245 29.4284 50.514 30.154 50.514 30.8776C50.512 30.9492 50.5035 31.0204 50.4888 31.0904C50.4855 31.1409 50.4708 31.1899 50.4457 31.2336C50.4206 31.2774 50.3858 31.3146 50.3442 31.3424C50.3025 31.3703 50.2551 31.3879 50.2056 31.394C50.1561 31.4002 50.1058 31.3946 50.0588 31.3777C49.4505 31.2543 48.8463 31.1096 48.2317 31.0138C47.606 30.9056 46.9659 30.9157 46.3438 31.0436C45.2949 31.2564 44.6992 31.948 44.5649 33.093C44.509 33.5797 44.4782 34.0692 44.4726 34.5592C44.4621 35.917 44.4579 37.2747 44.4726 38.6324C44.4726 39.2155 44.5502 39.7965 44.6069 40.3775C44.6312 40.5468 44.6756 40.7126 44.739 40.8712C45.0348 41.7224 45.618 42.0927 46.564 42.0161C46.9095 41.9828 47.2322 41.8265 47.4749 41.5749C47.7176 41.3232 47.8646 40.9925 47.8898 40.6414C47.9615 39.9757 47.9902 39.3061 47.9758 38.6367C47.9758 38.2408 47.8436 38.1493 47.4577 38.1493C47.0717 38.1493 46.6878 38.1493 46.3039 38.1493C45.962 38.1493 45.8277 38.0131 45.8256 37.6684C45.8256 36.9576 45.8256 36.2489 45.8256 35.5403C45.8196 35.4659 45.8299 35.3911 45.8557 35.3212C45.8816 35.2513 45.9223 35.1881 45.975 35.136C46.0277 35.084 46.0911 35.0444 46.1607 35.0201C46.2302 34.9958 46.3042 34.9874 46.3773 34.9955H50.7825C51.137 34.9955 51.2902 35.1466 51.2902 35.5062C51.309 37.2002 51.3216 38.9027 51.3007 40.603Z" fill="#25499A"/>
        <path d="M85.1332 39.5122C85.1506 40.3943 85.0295 41.2735 84.7745 42.117C84.1955 43.911 82.9642 44.8984 81.1308 45.1261C80.2839 45.2446 79.4227 45.2035 78.5905 45.0048C76.927 44.5792 75.9557 43.4662 75.5236 41.8127C75.3369 41.0407 75.2509 40.2473 75.2677 39.4526V28.761C75.2677 28.6375 75.2677 28.512 75.2677 28.3886C75.2677 27.8991 75.4775 27.765 75.9096 27.7501C76.585 27.7182 77.2626 27.7288 77.9402 27.7501C78.3597 27.7501 78.4814 27.8906 78.5506 28.3247C78.5677 28.4481 78.5754 28.5726 78.5737 28.6971C78.5737 32.3405 78.5737 35.9838 78.5737 39.6271C78.5709 40.0239 78.6181 40.4193 78.7142 40.8039C78.9114 41.5573 79.4337 41.8935 80.2812 41.8829C80.6049 41.9039 80.9246 41.8018 81.178 41.5963C81.4313 41.3909 81.6 41.0969 81.651 40.772C81.7433 40.3472 81.7876 39.9131 81.7832 39.4781C81.7937 35.9582 81.7832 32.4405 81.7832 28.9227C81.7832 28.7099 81.7978 28.4865 81.8146 28.2694C81.8084 28.1546 81.8451 28.0418 81.9175 27.9533C81.9899 27.8649 82.0925 27.8076 82.2048 27.7927C82.3244 27.7634 82.4468 27.7477 82.5698 27.7459C83.1614 27.7459 83.755 27.7459 84.3466 27.7459C84.9004 27.7459 85.0577 27.897 85.1059 28.4524C85.1059 28.5311 85.1059 28.6099 85.1059 28.6865C85.1283 32.2929 85.1374 35.9015 85.1332 39.5122Z" fill="#25499A"/>
        <path d="M97.1346 31.6446C96.843 29.9932 95.962 28.8121 94.3929 28.1992C93.5545 27.8878 92.6677 27.7321 91.7749 27.7395C90.338 27.7225 88.9011 27.7395 87.4621 27.7395C87.324 27.7391 87.1865 27.757 87.053 27.7927C86.9493 27.8108 86.8553 27.8657 86.7877 27.9475C86.7201 28.0293 86.6833 28.1328 86.6838 28.2396C86.6838 28.4354 86.6523 28.629 86.6523 28.8227C86.6523 31.3268 86.6523 33.8309 86.6523 36.3349C86.6523 38.8887 86.6523 41.4424 86.6523 43.9961C86.6534 44.1751 86.6681 44.3536 86.6964 44.5303C86.6985 44.5934 86.7131 44.6554 86.7391 44.7127C86.7652 44.77 86.8022 44.8215 86.8481 44.8641C86.8941 44.9067 86.9479 44.9396 87.0065 44.9608C87.0651 44.9821 87.1272 44.9912 87.1894 44.9878C87.9278 44.9985 88.6578 45.0006 89.4045 44.9878C89.7528 44.9878 89.8996 44.8303 89.9478 44.4792C89.9691 44.3384 89.9796 44.1961 89.9793 44.0536C89.9793 42.2206 89.9793 40.3876 89.9793 38.5545C89.9793 38.1119 90.0695 38.0183 90.5016 38.0161C91.0785 38.0161 91.6554 38.0161 92.2302 38.0161C92.8685 38.0052 93.5012 37.8932 94.1055 37.6841C95.6012 37.1606 96.6773 36.2115 97.0717 34.6005C97.2992 33.6309 97.3206 32.6233 97.1346 31.6446ZM91.5631 34.8516H90.3045C90.0527 34.8516 89.9919 34.7857 89.9898 34.5282C89.9898 33.9749 89.9898 33.4215 89.9898 32.8682C89.9898 32.3128 89.9898 31.7595 89.9898 31.2062C89.9898 30.9934 90.0737 30.8508 90.273 30.8551C90.9477 30.8377 91.6229 30.8697 92.2931 30.9508C93.1552 31.0955 93.6566 31.8021 93.6692 32.6895C93.6818 33.9898 92.8469 34.8495 91.5631 34.8516Z" fill="#25499A"/>
        <path d="M106.773 21.0326C106.76 21.554 106.577 21.7391 106.068 21.8029C105.96 21.8136 105.853 21.8178 105.745 21.8157H98.0062C97.1818 21.8157 96.9805 21.6029 96.9805 20.7517C96.9805 17.7581 96.9805 14.7625 96.9805 11.7647C96.9805 8.80659 96.9805 5.84923 96.9805 2.89258C96.9812 2.72905 96.9903 2.56568 97.0077 2.40311C97.0077 2.26063 97.0592 2.12308 97.1523 2.01643C97.2455 1.90978 97.3739 1.84143 97.5133 1.82427C97.6554 1.79375 97.8002 1.77806 97.9454 1.77745C98.6083 1.77745 99.2691 1.77745 99.9298 1.77745C100.014 1.7721 100.099 1.7721 100.184 1.77745C100.651 1.83278 100.796 1.97323 100.857 2.45206C100.876 2.60664 100.884 2.76236 100.882 2.91811V17.7276C100.882 18.0107 100.962 18.0873 101.243 18.0873H103.989C104.666 18.0873 105.342 18.0873 106.019 18.0873C106.613 18.0873 106.773 18.2511 106.775 18.8555C106.773 19.5791 106.773 20.309 106.773 21.0326Z" fill="white"/>
        <path d="M86.9852 9.69155C86.9852 9.22904 86.9852 8.76724 86.9852 8.30615C86.9873 8.76795 86.9894 9.22975 86.9852 9.69155Z" fill="#252525"/>
        <path d="M86.9883 9.73682C86.99 9.76902 86.9942 9.80104 87.0009 9.83258C86.9931 9.80125 86.9889 9.76912 86.9883 9.73682Z" fill="#252525"/>
        <path d="M87 9.83398L87.0191 9.88907C87.0115 9.87117 87.0051 9.85276 87 9.83398Z" fill="#252525"/>
        <path d="M73.092 9.69176C73.0895 9.73754 73.0937 9.78346 73.1046 9.82796C73.094 9.78339 73.0891 9.73761 73.0899 9.69176C73.0899 9.1044 73.0899 8.51705 73.0899 7.92969C73.0941 8.51705 73.0948 9.1044 73.092 9.69176Z" fill="#252525"/>
    </g>
    <defs>
        <clipPath id="clip0_1_2">
            <rect width="177" height="46" fill="white"/>
        </clipPath>
    </defs>
</svg>
