<?xml version="1.0" encoding="UTF-8"?>
<svg enable-background="new 0 0 500 500" viewBox="0 0 500 500" xml:space="preserve" xmlns="http://www.w3.org/2000/svg"> <style type="text/css"> .st0{fill:#F1F1F1;} </style>  <path class="st0" d="m500 500.1h-500v-500h500v500zm-468-32h436v-436h-436v436z"/>  <path class="st0" d="m199.3 220.9-3.1-5.8c-38.2 20.4-96.4 1.1-96.4-57.1 0-87.2 129.4-87.2 129.4 0 0 15-3.8 27.4-10.1 37.3l13 21.4v4.1l-32.8 0.1zm-3.2-62.9c0-45.4-63.1-45.4-63.1 0 0 45.8 63.1 45.8 63.1 0z"/>   <path class="st0" d="m366.8 125.8h-46.7v17.8h42.9v28.6h-42.9v22.2h48.3v28.6h-80.3v-126.1h78.7v28.9z"/>   <path class="st0" d="m205.7 303.6h-46.7v17.8h42.9v28.6h-42.9v22.2h48.3v28.6h-80.3v-126.1h78.7v28.9z"/>   <path class="st0" d="m279.8 400.8v-126.1h55.5c60.4 0.2 60.4 93.9 0 93.9h-23.2v32.2h-32.3zm55.4-97.2c-7.6-0.2-15.7 0-23.1 0v36h23.1c17.6 0 18.7-35.9 0-36z"/>   </svg>
