<svg width="134" height="66" viewBox="0 0 134 66" fill="none" xmlns="http://www.w3.org/2000/svg">
<path d="M69.4077 57.3214C66.8226 57.149 63.8418 56.6959 61.4908 56.015C61.0504 55.8874 59.227 55.2171 58.7632 55.0044C50.5781 51.2129 44.8761 42.9364 44.8761 33.3344C44.8761 20.1644 55.5909 9.43683 68.7694 9.43683C81.831 9.43683 92.4734 19.9814 92.6564 33.0025H101.288C101.105 15.224 86.5926 0.815651 68.7694 0.815651C50.8398 0.815651 36.2464 15.4006 36.2464 33.3344C36.2464 45.6981 43.1995 56.4512 53.3802 61.9447C55.2185 62.9171 57.8568 63.9192 58.7525 64.1936C61.6546 65.0575 65.2163 65.6319 68.3865 65.8723C69.463 65.9532 73.2226 65.9957 74.3183 66H133.76V57.4022H74.4183C73.6289 57.4022 70.18 57.3724 69.4077 57.3214ZM74.4183 43.8215C73.7906 43.8215 70.5077 43.8003 69.9013 43.7492C68.8737 43.662 67.3843 43.5088 66.4269 43.2896C65.3461 43.0003 64.3312 42.6173 63.8737 42.3662C60.6674 40.6322 58.4823 37.2408 58.4823 33.3344C58.4823 27.6515 63.0844 23.0431 68.7694 23.0431C74.3353 23.0431 78.8608 27.4707 79.0416 33.0025H87.3352C87.1607 22.8962 78.9225 14.7517 68.7694 14.7517C58.5036 14.7517 50.1824 23.0707 50.1824 33.3344C50.1824 40.5726 54.3313 46.8236 60.3738 49.8853C61.3036 50.43 63.0525 51.0002 63.5503 51.13C65.2567 51.5789 67.5482 51.8853 69.4077 52.0214C70.0949 52.0789 73.4609 52.1044 74.1715 52.1087V52.1214H133.758V43.8215H74.4183ZM30.9273 65.9681H22.238V9.45598H9.54032V0.764587H30.9273V65.9681ZM0 13.7985V22.1558H9.54032V65.9681H17.8892V13.7985H0Z" fill="#D91920"/>
<path d="M118.405 1.37138C115.275 1.37138 112.68 3.86709 112.68 6.99897C112.68 10.1308 115.275 12.7266 118.405 12.7266C121.631 12.7266 124.126 10.1308 124.126 6.99897C124.126 3.86709 121.631 1.37138 118.405 1.37138ZM118.405 11.8032C115.82 11.8032 113.592 9.77128 113.592 6.99897C113.592 4.36709 115.82 2.28413 118.405 2.28413C120.988 2.28413 123.205 4.36709 123.205 6.99897C123.205 9.77128 120.988 11.8032 118.405 11.8032Z" fill="#D91920"/>
<path d="M120.585 8.5423C120.585 7.91039 120.491 7.32317 119.768 7.09125C120.674 6.77637 120.764 6.18275 120.764 5.82318C120.764 4.37001 119.445 4.18491 118.902 4.18491H116.406V9.8125H117.447V7.50402H118.266C119.445 7.50402 119.542 8.04656 119.542 8.5423C119.542 9.50187 119.542 9.68271 119.768 9.8125H120.81C120.585 9.58484 120.674 9.40825 120.585 8.5423ZM118.674 6.68275H117.447V4.91043H118.498C119.225 4.91043 119.719 5.14021 119.719 5.82318C119.719 6.18275 119.542 6.68275 118.674 6.68275Z" fill="#D91920"/>
</svg>
