<svg width="128" height="51" viewBox="0 0 128 51" fill="none" xmlns="http://www.w3.org/2000/svg">
<g clip-path="url(#clip0_945_11947)">
<path d="M100.135 19.2012C88.6934 19.2012 81.4453 25.1825 81.4453 35.1091C81.4453 45.0357 88.6762 50.9997 100.135 50.9997C111.593 50.9997 118.824 45.0184 118.824 35.1206C118.824 25.2229 111.57 19.2012 100.135 19.2012ZM100.135 42.2729C97.0227 42.2729 96.9541 38.2353 96.9541 35.0976C96.9541 31.9598 97.0227 27.8992 100.135 27.8992C103.247 27.8992 103.287 31.9368 103.287 35.0976C103.287 38.2584 103.247 42.2844 100.135 42.2844V42.2729Z" fill="#EF3B39"/>
<path d="M13.3006 19.8984H1.20134C0.537858 19.8984 0 20.4407 0 21.1097V49.0841C0 49.7531 0.537858 50.2954 1.20134 50.2954H13.3006C13.964 50.2954 14.5019 49.7531 14.5019 49.0841V21.1097C14.5019 20.4407 13.964 19.8984 13.3006 19.8984Z" fill="#EF3B39"/>
<path d="M13.3006 6.56445H1.20134C0.537858 6.56445 0 7.10675 0 7.77572V15.5105C0 16.1795 0.537858 16.7218 1.20134 16.7218H13.3006C13.964 16.7218 14.5019 16.1795 14.5019 15.5105V7.77572C14.5019 7.10675 13.964 6.56445 13.3006 6.56445Z" fill="#EF3B39"/>
<path d="M33.5584 19.8984H21.4592C20.7957 19.8984 20.2578 20.4407 20.2578 21.1097V49.0841C20.2578 49.7531 20.7957 50.2954 21.4592 50.2954H33.5584C34.2219 50.2954 34.7597 49.7531 34.7597 49.0841V21.1097C34.7597 20.4407 34.2219 19.8984 33.5584 19.8984Z" fill="#EF3B39"/>
<path d="M33.5584 6.56445H21.4592C20.7957 6.56445 20.2578 7.10675 20.2578 7.77572V15.5105C20.2578 16.1795 20.7957 16.7218 21.4592 16.7218H33.5584C34.2219 16.7218 34.7597 16.1795 34.7597 15.5105V7.77572C34.7597 7.10675 34.2219 6.56445 33.5584 6.56445Z" fill="#EF3B39"/>
<path d="M70.0951 34.0198C69.9647 33.81 69.9008 33.5651 69.9121 33.3177C69.9233 33.0704 70.0091 32.8324 70.158 32.6355L78.35 21.8552C78.4863 21.6751 78.5701 21.4603 78.5918 21.2348C78.6136 21.0094 78.5725 20.7823 78.4733 20.5791C78.374 20.3759 78.2204 20.2047 78.0299 20.0847C77.8393 19.9647 77.6194 19.9007 77.3947 19.8999H64.0827C63.8872 19.8996 63.6946 19.9478 63.522 20.0404C63.3494 20.1329 63.202 20.2669 63.093 20.4305L55.2385 31.9664H54.9868V7.77572C54.9868 7.45447 54.8603 7.14638 54.635 6.91922C54.4097 6.69207 54.1041 6.56445 53.7855 6.56445H41.7091C41.3905 6.56445 41.085 6.69207 40.8597 6.91922C40.6344 7.14638 40.5078 7.45447 40.5078 7.77572V49.0856C40.5078 49.4069 40.6344 49.7149 40.8597 49.9421C41.085 50.1693 41.3905 50.2969 41.7091 50.2969H53.7855C54.1041 50.2969 54.4097 50.1693 54.635 49.9421C54.8603 49.7149 54.9868 49.4069 54.9868 49.0856V35.5598H55.2385L62.9958 49.6739C63.0996 49.8635 63.2521 50.0214 63.4373 50.131C63.6225 50.2406 63.8336 50.2979 64.0484 50.2969H78.0583C78.2733 50.2972 78.4845 50.2394 78.6698 50.1294C78.8551 50.0194 79.0077 49.8613 79.1117 49.6716C79.2158 49.4819 79.2674 49.2675 79.2612 49.0508C79.255 48.834 79.1912 48.623 79.0766 48.4396L70.0951 34.0198Z" fill="#EF3B39"/>
<path d="M94.0859 7.57896C94.7491 8.34071 95.4765 9.04317 96.2598 9.67848C97.1122 10.4918 98.0046 11.5761 97.9359 12.8162C97.8798 13.3689 97.6827 13.8974 97.3639 14.3505C96.9506 14.9779 96.4732 15.5598 95.9394 16.0866C95.8166 16.2051 95.7188 16.3475 95.652 16.5051C95.5852 16.6627 95.5507 16.8323 95.5507 17.0037C95.5507 17.1752 95.5852 17.3448 95.652 17.5024C95.7188 17.66 95.8166 17.8024 95.9394 17.9208L96.7174 18.6476C96.9504 18.8665 97.2571 18.9883 97.5755 18.9883C97.894 18.9883 98.2007 18.8665 98.4336 18.6476C98.7197 18.3592 99.0057 18.0708 99.2689 17.7593C99.3183 17.8295 99.3759 17.8934 99.4405 17.9497L100.224 18.6822C100.465 18.9016 100.78 19.0196 101.105 19.0121C101.429 19.0046 101.738 18.8721 101.969 18.6418C102.255 18.3534 102.541 18.065 102.799 17.7593C102.848 17.828 102.903 17.8918 102.964 17.9497L103.742 18.6707C103.981 18.8934 104.296 19.0143 104.622 19.0078C104.947 19.0014 105.257 18.8681 105.487 18.6361C105.959 18.1759 106.403 17.6866 106.814 17.171C107.209 16.6533 107.506 16.0667 107.69 15.4406C107.82 14.962 107.852 14.4612 107.781 13.9698C107.717 13.5329 107.571 13.1121 107.352 12.7297C106.879 11.9063 106.274 11.1676 105.562 10.5437C104.623 9.66118 103.662 8.96326 103.147 7.70008C102.981 7.31577 102.889 6.90245 102.879 6.48305C102.858 6.03323 102.942 5.58482 103.125 5.17373C103.479 4.32241 104.028 3.56749 104.726 2.97038C104.855 2.85204 104.957 2.70811 105.027 2.54774C105.097 2.38738 105.133 2.21408 105.133 2.03886C105.133 1.86365 105.097 1.69035 105.027 1.52998C104.957 1.36961 104.855 1.22568 104.726 1.10734L103.977 0.397887C103.75 0.183925 103.453 0.0620295 103.143 0.055641C102.832 0.0492525 102.53 0.158823 102.295 0.363281C101.981 0.627297 101.686 0.914564 101.414 1.2227L101.363 1.28038C101.316 1.21863 101.264 1.16076 101.208 1.10734L100.516 0.345976C100.291 0.131976 99.9958 0.00898417 99.6866 0.000473134C99.3775 -0.0080379 99.076 0.0985288 98.8398 0.299833C98.5159 0.567389 98.2119 0.858485 97.9302 1.17079L97.8845 1.22847C97.8382 1.16798 97.7885 1.11021 97.7357 1.05543L96.9863 0.345976C96.7596 0.132014 96.4624 0.0101181 96.1519 0.00372956C95.8415 -0.00265897 95.5396 0.106912 95.3044 0.31137C94.9895 0.576804 94.6932 0.863968 94.4177 1.17079C93.5024 2.18594 92.7873 3.651 93.0333 5.07568C93.1828 5.98232 93.5436 6.84025 94.0859 7.57896ZM99.6178 5.12759C99.7298 4.85337 99.8677 4.59068 100.03 4.34315C100.016 4.58978 100.027 4.83722 100.064 5.08144C100.219 5.99057 100.588 6.84901 101.14 7.58472C101.799 8.34778 102.525 9.05037 103.308 9.68425C104.16 10.4975 105.058 11.5819 104.99 12.822C104.936 13.3752 104.738 13.9043 104.417 14.3563L104.303 14.512C104.317 14.32 104.317 14.1272 104.303 13.9352C104.242 13.4984 104.098 13.0775 103.88 12.6951C103.399 11.8768 102.795 11.1392 102.089 10.5091C101.128 9.62657 100.19 8.92865 99.6521 7.66548C99.5066 7.27443 99.4161 6.86478 99.3833 6.44844C99.3545 5.99552 99.4349 5.5423 99.6178 5.12759ZM96.1053 5.12759C96.2126 4.85623 96.3448 4.59554 96.5001 4.34892C96.4838 4.59343 96.4934 4.83898 96.5287 5.08144C96.6929 5.98772 97.0608 6.84403 97.6041 7.58472C98.2696 8.34225 98.9947 9.04437 99.7723 9.68425C100.625 10.4975 101.517 11.5819 101.454 12.822C101.412 13.3722 101.226 13.9014 100.916 14.3563L100.785 14.5293C100.787 14.327 100.777 14.1248 100.756 13.9237C100.692 13.4877 100.548 13.0674 100.333 12.6836C99.8581 11.8614 99.2533 11.123 98.5423 10.4975C97.6041 9.61503 96.6374 8.91712 96.1225 7.65394C95.9583 7.26875 95.8671 6.85595 95.8536 6.43691C95.8349 5.98663 95.9211 5.5382 96.1053 5.12759Z" fill="#EF3B39"/>
<path d="M127.032 19.2651C126.838 19.8419 126.655 20.4187 126.46 20.9955C126.266 21.5722 126.083 22.149 125.888 22.7258L124.744 19.2305H123.777V23.741H124.447V20.3956L125.591 23.7756H126.191C126.392 23.1988 126.569 22.6624 126.764 22.0856C126.958 21.5088 127.141 20.932 127.336 20.3956V23.7756H127.976V19.2651H127.032Z" fill="#EF3B39"/>
<path d="M119.637 19.9116H121.067V23.7761H121.765V19.9116H123.206V19.2656H119.637V19.9116Z" fill="#EF3B39"/>
</g>
<defs>
<clipPath id="clip0_945_11947">
<rect width="128" height="51" fill="white"/>
</clipPath>
</defs>
</svg>
