<svg width="227" height="52" viewBox="0 0 227 52" fill="none" xmlns="http://www.w3.org/2000/svg">
<g clip-path="url(#clip0_945_11936)">
<path d="M17.0186 11.6367V18.0693C16.4316 17.9598 15.899 17.9065 15.4216 17.9065C12.7403 17.9065 10.6479 18.6729 9.14143 20.2036C7.63595 21.7362 6.8842 23.9426 6.8842 26.8245V40.8249H0V11.9612H3.3617L6.55457 16.1766C8.53743 13.1487 12.0258 11.6367 17.0186 11.6367Z" fill="#333333"/>
<path d="M45.4311 40.8242H38.5469V9.71568L45.4311 0.716797V40.8242Z" fill="#333333"/>
<path d="M96.959 28.5565H73.8814C74.2843 30.6819 75.3417 32.3655 77.048 33.6093C78.7546 34.8519 80.8762 35.4744 83.4107 35.4744C86.6407 35.4744 89.303 34.4299 91.3954 32.3389L94.8144 36.8098C93.4918 38.3592 92.0929 39.2222 90.0748 40.0142C88.0538 40.8082 85.7795 41.2036 83.2449 41.2036C80.0129 41.2036 77.1667 40.5735 74.7074 39.3129C72.2473 38.0515 70.3468 36.2948 69.0071 34.0423C67.6655 31.7895 66.9961 29.241 66.9961 26.3926C66.9961 23.5817 67.6484 21.0508 68.9508 18.7991C70.2544 16.5465 72.0643 14.7899 74.3768 13.5284C76.6904 12.2679 79.2982 11.6367 82.1976 11.6367C85.0629 11.6367 87.6226 12.2581 89.8809 13.5008C92.1401 14.7455 93.9028 16.4932 95.1691 18.7448C96.4354 20.9976 97.0696 23.6014 97.0696 26.5552C97.0705 27.0228 97.0314 27.6895 96.959 28.5565ZM76.6088 18.9608C75.0843 20.241 74.1577 21.9424 73.826 24.068H90.5161C90.2215 21.9799 89.3231 20.2845 87.8177 18.9885C86.3101 17.6905 84.4388 17.0406 82.1987 17.0406C79.9947 17.0397 78.1314 17.6807 76.6088 18.9608Z" fill="#333333"/>
<path d="M131.218 28.5565H108.14C108.542 30.6819 109.599 32.3655 111.306 33.6093C113.014 34.8519 115.135 35.4744 117.668 35.4744C120.899 35.4744 123.561 34.4299 125.655 32.3389L128.999 36.8413C127.677 38.3907 126.353 39.2222 124.333 40.0142C122.314 40.8082 120.037 41.2036 117.503 41.2036C114.272 41.2036 111.424 40.5735 108.966 39.3129C106.505 38.0515 104.605 36.2948 103.265 34.0423C101.925 31.7895 101.254 29.241 101.254 26.3926C101.254 23.5817 101.907 21.0508 103.211 18.7991C104.512 16.5465 106.322 14.7899 108.635 13.5284C110.949 12.2679 113.556 11.6367 116.455 11.6367C119.321 11.6367 121.881 12.2581 124.141 13.5008C126.398 14.7455 128.161 16.4932 129.427 18.7448C130.695 20.9976 131.327 23.6014 131.327 26.5552C131.327 27.0228 131.291 27.6895 131.218 28.5565ZM110.866 18.9608C109.342 20.241 108.417 21.9424 108.085 24.068H124.775C124.479 21.9799 123.58 20.2845 122.074 18.9885C120.568 17.6905 118.696 17.0406 116.455 17.0406C114.253 17.0397 112.389 17.6807 110.866 18.9608Z" fill="#333333"/>
<path d="M161.924 13.4732C164.183 14.6991 165.955 16.4301 167.239 18.663C168.524 20.8979 169.168 23.4732 169.168 26.3936C169.168 29.311 168.524 31.898 167.239 34.1498C165.955 36.4024 164.183 38.1403 161.924 39.3662C159.665 40.5902 157.105 41.2036 154.241 41.2036C150.275 41.2036 147.135 39.9067 144.823 37.3128V51.3122H137.938V11.9612H141.752L144.492 15.7436C145.63 14.3746 147.034 13.3479 148.706 12.6625C150.375 11.9799 152.223 11.6367 154.241 11.6367C157.105 11.6367 159.665 12.2492 161.924 13.4732ZM159.722 32.9337C161.355 31.2777 162.173 29.0949 162.173 26.3936C162.173 23.6912 161.355 21.5104 159.722 19.8524C158.086 18.1945 156.002 17.365 153.47 17.365C151.819 17.365 150.329 17.7369 149.009 18.4746C147.687 19.2134 146.639 20.2677 145.868 21.6377C145.099 23.0066 144.712 24.5916 144.712 26.3936C144.712 28.1945 145.099 29.7805 145.868 31.1494C146.639 32.5184 147.687 33.5727 149.009 34.3125C150.329 35.0512 151.819 35.4211 153.47 35.4211C156.002 35.4211 158.086 34.5916 159.722 32.9337Z" fill="#333333"/>
<path d="M203.261 28.5565H180.182C180.586 30.6819 181.642 32.3655 183.349 33.6093C185.055 34.8519 187.178 35.4744 189.711 35.4744C192.942 35.4744 195.604 34.4299 197.697 32.3389L201.091 36.7939C199.767 38.3434 198.396 39.2222 196.375 40.0142C194.355 40.8082 192.081 41.2036 189.545 41.2036C186.313 41.2036 183.468 40.5735 181.008 39.3129C178.547 38.0515 176.648 36.2948 175.308 34.0423C173.967 31.7895 173.297 29.241 173.297 26.3926C173.297 23.5817 173.949 21.0508 175.254 18.7991C176.555 16.5465 178.366 14.7899 180.677 13.5284C182.991 12.2679 185.598 11.6367 188.499 11.6367C191.364 11.6367 193.925 12.2581 196.182 13.5008C198.441 14.7455 200.203 16.4932 201.47 18.7448C202.736 20.9976 203.37 23.6014 203.37 26.5552C203.37 27.0228 203.334 27.6895 203.261 28.5565ZM182.908 18.9608C181.384 20.241 180.457 21.9424 180.128 24.068H196.816C196.521 21.9799 195.623 20.2845 194.117 18.9885C192.611 17.6905 190.737 17.0406 188.499 17.0406C186.295 17.0397 184.432 17.6807 182.908 18.9608Z" fill="#333333"/>
<path d="M227.001 11.6367V18.0693C226.412 17.9598 225.88 17.9065 225.403 17.9065C222.723 17.9065 220.63 18.6729 219.124 20.2036C217.618 21.7362 216.865 23.9426 216.865 26.8245V40.8249H209.98V11.9612H213.406L216.536 16.1766C218.518 13.1487 222.006 11.6367 227.001 11.6367Z" fill="#333333"/>
<path d="M64.8874 40.8248L53.6396 26.0472L64.5468 11.9058L57.959 11.8516L47.0156 26.0384L47.0588 26.0699L58.2495 40.7725L64.8874 40.8248Z" fill="#333333"/>
<path d="M41.4212 46.0398H10.5859L14.5968 40.8242H45.4321L41.4212 46.0398Z" fill="#00CF6F"/>
</g>
<defs>
<clipPath id="clip0_945_11936">
<rect width="227" height="52" fill="white"/>
</clipPath>
</defs>
</svg>
